%TF.GenerationSoftware,KiCad,Pcbnew,9.0.7*%
%TF.CreationDate,2026-04-23T02:21:00-04:00*%
%TF.ProjectId,ESP32-Adapter,45535033-322d-4416-9461-707465722e6b,rev?*%
%TF.SameCoordinates,Original*%
%TF.FileFunction,Soldermask,Bot*%
%TF.FilePolarity,Negative*%
%FSLAX46Y46*%
G04 Gerber Fmt 4.6, Leading zero omitted, Abs format (unit mm)*
G04 Created by KiCad (PCBNEW 9.0.7) date 2026-04-23 02:21:00*
%MOMM*%
%LPD*%
G01*
G04 APERTURE LIST*
G04 Aperture macros list*
%AMRoundRect*
0 Rectangle with rounded corners*
0 $1 Rounding radius*
0 $2 $3 $4 $5 $6 $7 $8 $9 X,Y pos of 4 corners*
0 Add a 4 corners polygon primitive as box body*
4,1,4,$2,$3,$4,$5,$6,$7,$8,$9,$2,$3,0*
0 Add four circle primitives for the rounded corners*
1,1,$1+$1,$2,$3*
1,1,$1+$1,$4,$5*
1,1,$1+$1,$6,$7*
1,1,$1+$1,$8,$9*
0 Add four rect primitives between the rounded corners*
20,1,$1+$1,$2,$3,$4,$5,0*
20,1,$1+$1,$4,$5,$6,$7,0*
20,1,$1+$1,$6,$7,$8,$9,0*
20,1,$1+$1,$8,$9,$2,$3,0*%
G04 Aperture macros list end*
%ADD10C,1.700000*%
%ADD11C,4.500000*%
%ADD12RoundRect,0.250000X-0.725000X0.600000X-0.725000X-0.600000X0.725000X-0.600000X0.725000X0.600000X0*%
%ADD13O,1.950000X1.700000*%
%ADD14R,1.700000X1.700000*%
%ADD15C,1.600000*%
%ADD16R,2.000000X4.000000*%
%ADD17O,2.000000X3.300000*%
%ADD18O,3.500000X2.000000*%
%ADD19R,2.000000X1.200000*%
%ADD20O,2.000000X1.200000*%
G04 APERTURE END LIST*
D10*
%TO.C,U4*%
X123610900Y-68600000D03*
X123610900Y-71140000D03*
X123610900Y-73680000D03*
X123610900Y-76220000D03*
X123610900Y-78760000D03*
X123610900Y-81300000D03*
%TD*%
D11*
%TO.C,H4*%
X80163480Y-115827200D03*
%TD*%
D12*
%TO.C,J5*%
X70470900Y-72550000D03*
D13*
X70470900Y-75050000D03*
X70470900Y-77550000D03*
%TD*%
D14*
%TO.C,U1*%
X68370900Y-107660000D03*
D10*
X70910900Y-107660000D03*
X73450900Y-107660000D03*
X75990900Y-107660000D03*
X78530900Y-107660000D03*
X81070900Y-107660000D03*
X83610900Y-107660000D03*
X86150900Y-107660000D03*
D14*
X68370900Y-84800000D03*
D10*
X70910900Y-84800000D03*
X73450900Y-84800000D03*
X75990900Y-84800000D03*
X78530900Y-84800000D03*
X81070900Y-84800000D03*
X83610900Y-84800000D03*
X86150900Y-84800000D03*
%TD*%
D14*
%TO.C,U3*%
X123760900Y-92750000D03*
D10*
X123760900Y-95290000D03*
X123760900Y-97830000D03*
X123760900Y-100370000D03*
X123760900Y-102910000D03*
X123760900Y-105450000D03*
X123760900Y-107990000D03*
%TD*%
D11*
%TO.C,H3*%
X138573320Y-115827200D03*
%TD*%
D12*
%TO.C,J13*%
X70570900Y-55900000D03*
D13*
X70570900Y-58400000D03*
X70570900Y-60900000D03*
X70570900Y-63400000D03*
X70570900Y-65900000D03*
%TD*%
D11*
%TO.C,H2*%
X138573320Y-35047580D03*
%TD*%
D12*
%TO.C,J12*%
X70570900Y-39150000D03*
D13*
X70570900Y-41650000D03*
X70570900Y-44150000D03*
X70570900Y-46650000D03*
X70570900Y-49150000D03*
%TD*%
D11*
%TO.C,H1*%
X80163480Y-35047580D03*
%TD*%
D15*
%TO.C,J10*%
X138390900Y-54330000D03*
D16*
X129390900Y-54330000D03*
D17*
X135390900Y-54330000D03*
D18*
X136390900Y-58830000D03*
X136390900Y-49830000D03*
%TD*%
D19*
%TO.C,U5*%
X94790900Y-53750000D03*
D20*
X94790900Y-56290000D03*
X94790900Y-58830000D03*
X94790900Y-61370000D03*
X94790900Y-63910000D03*
X94790900Y-66450000D03*
X94790900Y-68990000D03*
X94790900Y-71530000D03*
X94790900Y-74070000D03*
X94790900Y-76610000D03*
X94790900Y-79150000D03*
X94790900Y-81690000D03*
X94790900Y-84230000D03*
X94790900Y-86770000D03*
X94790900Y-89310000D03*
X94790900Y-91850000D03*
X94790900Y-94390000D03*
X94790900Y-96930000D03*
X94790900Y-99470000D03*
X94787220Y-102007280D03*
X94787220Y-104547280D03*
X94787220Y-107087280D03*
X117650900Y-107090000D03*
X117650900Y-104550000D03*
X117650900Y-102010000D03*
X117650900Y-99470000D03*
X117650900Y-96930000D03*
X117650900Y-94390000D03*
X117650900Y-91850000D03*
X117650900Y-89310000D03*
X117650900Y-86770000D03*
X117650900Y-84230000D03*
X117650900Y-81690000D03*
X117650900Y-79150000D03*
X117650900Y-76610000D03*
X117650900Y-74070000D03*
X117650900Y-71530000D03*
X117650900Y-68990000D03*
X117650900Y-66450000D03*
X117650900Y-63910000D03*
X117650900Y-61370000D03*
X117650900Y-58830000D03*
X117650900Y-56290000D03*
X117650900Y-53750000D03*
%TD*%
M02*
