%TF.GenerationSoftware,KiCad,Pcbnew,9.0.7*%
%TF.CreationDate,2026-04-22T17:06:01-04:00*%
%TF.ProjectId,ESP32-Adapter,45535033-322d-4416-9461-707465722e6b,rev?*%
%TF.SameCoordinates,Original*%
%TF.FileFunction,Copper,L2,Bot*%
%TF.FilePolarity,Positive*%
%FSLAX46Y46*%
G04 Gerber Fmt 4.6, Leading zero omitted, Abs format (unit mm)*
G04 Created by KiCad (PCBNEW 9.0.7) date 2026-04-22 17:06:01*
%MOMM*%
%LPD*%
G01*
G04 APERTURE LIST*
G04 Aperture macros list*
%AMRoundRect*
0 Rectangle with rounded corners*
0 $1 Rounding radius*
0 $2 $3 $4 $5 $6 $7 $8 $9 X,Y pos of 4 corners*
0 Add a 4 corners polygon primitive as box body*
4,1,4,$2,$3,$4,$5,$6,$7,$8,$9,$2,$3,0*
0 Add four circle primitives for the rounded corners*
1,1,$1+$1,$2,$3*
1,1,$1+$1,$4,$5*
1,1,$1+$1,$6,$7*
1,1,$1+$1,$8,$9*
0 Add four rect primitives between the rounded corners*
20,1,$1+$1,$2,$3,$4,$5,0*
20,1,$1+$1,$4,$5,$6,$7,0*
20,1,$1+$1,$6,$7,$8,$9,0*
20,1,$1+$1,$8,$9,$2,$3,0*%
G04 Aperture macros list end*
%TA.AperFunction,ComponentPad*%
%ADD10C,1.700000*%
%TD*%
%TA.AperFunction,ComponentPad*%
%ADD11RoundRect,0.250000X-0.725000X0.600000X-0.725000X-0.600000X0.725000X-0.600000X0.725000X0.600000X0*%
%TD*%
%TA.AperFunction,ComponentPad*%
%ADD12O,1.950000X1.700000*%
%TD*%
%TA.AperFunction,ComponentPad*%
%ADD13R,1.700000X1.700000*%
%TD*%
%TA.AperFunction,ComponentPad*%
%ADD14R,2.000000X4.000000*%
%TD*%
%TA.AperFunction,ComponentPad*%
%ADD15O,2.000000X3.300000*%
%TD*%
%TA.AperFunction,ComponentPad*%
%ADD16O,3.500000X2.000000*%
%TD*%
%TA.AperFunction,ComponentPad*%
%ADD17R,2.000000X1.200000*%
%TD*%
%TA.AperFunction,ComponentPad*%
%ADD18O,2.000000X1.200000*%
%TD*%
%TA.AperFunction,ViaPad*%
%ADD19C,0.600000*%
%TD*%
%TA.AperFunction,Conductor*%
%ADD20C,0.200000*%
%TD*%
%TA.AperFunction,Conductor*%
%ADD21C,0.250000*%
%TD*%
G04 APERTURE END LIST*
D10*
%TO.P,U4,1,VCC*%
%TO.N,+3.3V*%
X123610900Y-68600000D03*
%TO.P,U4,2,GND*%
%TO.N,GND*%
X123610900Y-71140000D03*
%TO.P,U4,3,SCL*%
%TO.N,/I2C SCL*%
X123610900Y-73680000D03*
%TO.P,U4,4,SDA*%
%TO.N,/I2C SDA*%
X123610900Y-76220000D03*
%TO.P,U4,5,VIN-*%
%TO.N,unconnected-(U4-VIN--Pad5)*%
X123610900Y-78760000D03*
%TO.P,U4,6,VIN+*%
%TO.N,unconnected-(U4-VIN+-Pad6)*%
X123610900Y-81300000D03*
%TD*%
D11*
%TO.P,J5,1,Pin_1*%
%TO.N,/UART_TX*%
X70470900Y-72550000D03*
D12*
%TO.P,J5,2,Pin_2*%
%TO.N,/UART_RX*%
X70470900Y-75050000D03*
%TO.P,J5,3,Pin_3*%
%TO.N,GND*%
X70470900Y-77550000D03*
%TD*%
D13*
%TO.P,U1,1,IT2*%
%TO.N,unconnected-(U1-IT2-Pad1)*%
X68370900Y-107660000D03*
D10*
%TO.P,U1,2,RST*%
%TO.N,unconnected-(U1-RST-Pad2)*%
X70910900Y-107660000D03*
%TO.P,U1,3,CS*%
%TO.N,unconnected-(U1-CS-Pad3)*%
X73450900Y-107660000D03*
%TO.P,U1,4,SCK*%
%TO.N,unconnected-(U1-SCK-Pad4)*%
X75990900Y-107660000D03*
%TO.P,U1,5,SDO*%
%TO.N,unconnected-(U1-SDO-Pad5)*%
X78530900Y-107660000D03*
%TO.P,U1,6,SDI*%
%TO.N,unconnected-(U1-SDI-Pad6)*%
X81070900Y-107660000D03*
%TO.P,U1,7,3V3*%
%TO.N,+3.3V*%
X83610900Y-107660000D03*
%TO.P,U1,8,GND*%
%TO.N,GND*%
X86150900Y-107660000D03*
D13*
%TO.P,U1,9,FSY*%
%TO.N,unconnected-(U1-FSY-Pad9)*%
X68370900Y-84800000D03*
D10*
%TO.P,U1,10,INT*%
%TO.N,unconnected-(U1-INT-Pad10)*%
X70910900Y-84800000D03*
%TO.P,U1,11*%
%TO.N,N/C*%
X73450900Y-84800000D03*
%TO.P,U1,12*%
X75990900Y-84800000D03*
%TO.P,U1,13,SCL*%
%TO.N,/I2C SCL*%
X78530900Y-84800000D03*
%TO.P,U1,14,SDA*%
%TO.N,/I2C SDA*%
X81070900Y-84800000D03*
%TO.P,U1,15*%
%TO.N,N/C*%
X83610900Y-84800000D03*
%TO.P,U1,16,GND*%
%TO.N,GND*%
X86150900Y-84800000D03*
%TD*%
D13*
%TO.P,U3,1,Vcc*%
%TO.N,+3.3V*%
X123760900Y-92750000D03*
D10*
%TO.P,U3,2,GND*%
%TO.N,GND*%
X123760900Y-95290000D03*
%TO.P,U3,3,RX*%
%TO.N,/CAN RX*%
X123760900Y-97830000D03*
%TO.P,U3,4,TX*%
%TO.N,/CAN TX*%
X123760900Y-100370000D03*
%TO.P,U3,5,SLNT*%
%TO.N,unconnected-(U3-SLNT-Pad5)*%
X123760900Y-102910000D03*
%TO.P,U3,6,CANH*%
%TO.N,unconnected-(U3-CANH-Pad6)*%
X123760900Y-105450000D03*
%TO.P,U3,7,CANL*%
%TO.N,unconnected-(U3-CANL-Pad7)*%
X123760900Y-107990000D03*
%TD*%
D11*
%TO.P,J13,1,Pin_1*%
%TO.N,+3.3V*%
X70570900Y-55900000D03*
D12*
%TO.P,J13,2,Pin_2*%
%TO.N,/A2*%
X70570900Y-58400000D03*
%TO.P,J13,3,Pin_3*%
%TO.N,/A1*%
X70570900Y-60900000D03*
%TO.P,J13,4,Pin_4*%
%TO.N,/IDX1*%
X70570900Y-63400000D03*
%TO.P,J13,5,Pin_5*%
%TO.N,GND*%
X70570900Y-65900000D03*
%TD*%
D11*
%TO.P,J12,1,Pin_1*%
%TO.N,+3.3V*%
X70570900Y-39150000D03*
D12*
%TO.P,J12,2,Pin_2*%
%TO.N,/B2*%
X70570900Y-41650000D03*
%TO.P,J12,3,Pin_3*%
%TO.N,/B1*%
X70570900Y-44150000D03*
%TO.P,J12,4,Pin_4*%
%TO.N,/IDX2*%
X70570900Y-46650000D03*
%TO.P,J12,5,Pin_5*%
%TO.N,GND*%
X70570900Y-49150000D03*
%TD*%
D14*
%TO.P,J10,1*%
%TO.N,Net-(U2-VI)*%
X129390900Y-54330000D03*
D15*
%TO.P,J10,2*%
%TO.N,GND*%
X135390900Y-54330000D03*
D16*
%TO.P,J10,MP*%
%TO.N,N/C*%
X136390900Y-58830000D03*
X136390900Y-49830000D03*
%TD*%
D17*
%TO.P,U5,1,3V3*%
%TO.N,+3.3V*%
X94790900Y-53750000D03*
D18*
%TO.P,U5,2,3V3*%
X94790900Y-56290000D03*
%TO.P,U5,3,CHIP_PU*%
%TO.N,unconnected-(U5-CHIP_PU-Pad3)*%
X94790900Y-58830000D03*
%TO.P,U5,4,GPIO4/ADC1_CH3*%
%TO.N,unconnected-(U5-GPIO4{slash}ADC1_CH3-Pad4)*%
X94790900Y-61370000D03*
%TO.P,U5,5,GPIO5/ADC1_CH4*%
%TO.N,unconnected-(U5-GPIO5{slash}ADC1_CH4-Pad5)*%
X94790900Y-63910000D03*
%TO.P,U5,6,GPIO6/ADC1_CH5*%
%TO.N,unconnected-(U5-GPIO6{slash}ADC1_CH5-Pad6)*%
X94790900Y-66450000D03*
%TO.P,U5,7,GPIO7/ADC1_CH6*%
%TO.N,/B2*%
X94790900Y-68990000D03*
%TO.P,U5,8,GPIO15/ADC2_CH4/32K_P*%
%TO.N,/B1*%
X94790900Y-71530000D03*
%TO.P,U5,9,GPIO16/ADC2_CH5/32K_N*%
%TO.N,/IDX2*%
X94790900Y-74070000D03*
%TO.P,U5,10,GPIO17/ADC2_CH6*%
%TO.N,/UART_TX*%
X94790900Y-76610000D03*
%TO.P,U5,11,GPIO18/ADC2_CH7*%
%TO.N,/UART_RX*%
X94790900Y-79150000D03*
%TO.P,U5,12,GPIO8/ADC1_CH7*%
%TO.N,unconnected-(U5-GPIO8{slash}ADC1_CH7-Pad12)*%
X94790900Y-81690000D03*
%TO.P,U5,13,GPIO3/ADC1_CH2*%
%TO.N,unconnected-(U5-GPIO3{slash}ADC1_CH2-Pad13)*%
X94790900Y-84230000D03*
%TO.P,U5,14,GPIO46*%
%TO.N,unconnected-(U5-GPIO46-Pad14)*%
X94790900Y-86770000D03*
%TO.P,U5,15,GPIO9/ADC1_CH8*%
%TO.N,/I2C SCL*%
X94790900Y-89310000D03*
%TO.P,U5,16,GPIO10/ADC1_CH9*%
%TO.N,/I2C SDA*%
X94790900Y-91850000D03*
%TO.P,U5,17,GPIO11/ADC2_CH0*%
%TO.N,/A2*%
X94790900Y-94390000D03*
%TO.P,U5,18,GPIO12/ADC2_CH1*%
%TO.N,/A1*%
X94790900Y-96930000D03*
%TO.P,U5,19,GPIO13/ADC2_CH2*%
%TO.N,/IDX1*%
X94790900Y-99470000D03*
%TO.P,U5,20,GPIO14/ADC2_CH3*%
%TO.N,unconnected-(U5-GPIO14{slash}ADC2_CH3-Pad20)*%
X94787220Y-102007280D03*
%TO.P,U5,21,5V*%
%TO.N,unconnected-(U5-5V-Pad21)*%
X94787220Y-104547280D03*
%TO.P,U5,22,GND*%
%TO.N,GND*%
X94787220Y-107087280D03*
%TO.P,U5,23,GND*%
X117650900Y-107090000D03*
%TO.P,U5,24,GND*%
X117650900Y-104550000D03*
%TO.P,U5,25,GPIO19/USB_D-*%
%TO.N,unconnected-(U5-GPIO19{slash}USB_D--Pad25)*%
X117650900Y-102010000D03*
%TO.P,U5,26,GPIO20/USB_D+*%
%TO.N,unconnected-(U5-GPIO20{slash}USB_D+-Pad26)*%
X117650900Y-99470000D03*
%TO.P,U5,27,GPIO21*%
%TO.N,unconnected-(U5-GPIO21-Pad27)*%
X117650900Y-96930000D03*
%TO.P,U5,28,GPIO47*%
%TO.N,unconnected-(U5-GPIO47-Pad28)*%
X117650900Y-94390000D03*
%TO.P,U5,29,GPIO48*%
%TO.N,unconnected-(U5-GPIO48-Pad29)*%
X117650900Y-91850000D03*
%TO.P,U5,30,GPIO45*%
%TO.N,unconnected-(U5-GPIO45-Pad30)*%
X117650900Y-89310000D03*
%TO.P,U5,31,GPIO0*%
%TO.N,unconnected-(U5-GPIO0-Pad31)*%
X117650900Y-86770000D03*
%TO.P,U5,32,GPIO35*%
%TO.N,unconnected-(U5-GPIO35-Pad32)*%
X117650900Y-84230000D03*
%TO.P,U5,33,GPIO36*%
%TO.N,unconnected-(U5-GPIO36-Pad33)*%
X117650900Y-81690000D03*
%TO.P,U5,34,GPIO37*%
%TO.N,unconnected-(U5-GPIO37-Pad34)*%
X117650900Y-79150000D03*
%TO.P,U5,35,GPIO38*%
%TO.N,unconnected-(U5-GPIO38-Pad35)*%
X117650900Y-76610000D03*
%TO.P,U5,36,GPIO39/MTCK*%
%TO.N,unconnected-(U5-GPIO39{slash}MTCK-Pad36)*%
X117650900Y-74070000D03*
%TO.P,U5,37,GPIO40/MTDO*%
%TO.N,unconnected-(U5-GPIO40{slash}MTDO-Pad37)*%
X117650900Y-71530000D03*
%TO.P,U5,38,GPIO41/MTDI*%
%TO.N,unconnected-(U5-GPIO41{slash}MTDI-Pad38)*%
X117650900Y-68990000D03*
%TO.P,U5,39,GPIO42/MTMS*%
%TO.N,unconnected-(U5-GPIO42{slash}MTMS-Pad39)*%
X117650900Y-66450000D03*
%TO.P,U5,40,GPIO2/ADC1_CH1*%
%TO.N,/CAN RX*%
X117650900Y-63910000D03*
%TO.P,U5,41,GPIO1/ADC1_CH0*%
%TO.N,/CAN TX*%
X117650900Y-61370000D03*
%TO.P,U5,42,GPIO44/U0RXD*%
%TO.N,unconnected-(U5-GPIO44{slash}U0RXD-Pad42)*%
X117650900Y-58830000D03*
%TO.P,U5,43,GPIO43/U0TXD*%
%TO.N,unconnected-(U5-GPIO43{slash}U0TXD-Pad43)*%
X117650900Y-56290000D03*
%TO.P,U5,44,GND*%
%TO.N,GND*%
X117650900Y-53750000D03*
%TD*%
D19*
%TO.N,GND*%
X90810900Y-71510000D03*
X124945900Y-48375000D03*
X90820900Y-92750000D03*
X90670900Y-66700000D03*
X138470900Y-44825000D03*
X136420900Y-42200000D03*
X90720900Y-96250000D03*
%TO.N,+3.3V*%
X108020900Y-77100000D03*
X107020900Y-76050000D03*
%TO.N,/I2C SDA*%
X91195900Y-88175000D03*
X88670900Y-88200000D03*
%TO.N,/I2C SCL*%
X88670900Y-84200000D03*
X91120900Y-86650000D03*
%TO.N,/CAN TX*%
X113020900Y-78750000D03*
X113020900Y-74300000D03*
%TO.N,/CAN RX*%
X113870900Y-74250000D03*
X113870900Y-78800000D03*
%TO.N,/UART_RX*%
X87570900Y-79000000D03*
X91570900Y-79000000D03*
%TO.N,/UART_TX*%
X84570900Y-76500000D03*
X91070900Y-76500000D03*
%TD*%
D20*
%TO.N,+3.3V*%
X108020900Y-77100000D02*
X108020900Y-77050000D01*
X108020900Y-77050000D02*
X107020900Y-76050000D01*
D21*
%TO.N,/I2C SDA*%
X91195900Y-88175000D02*
X91170900Y-88200000D01*
X91170900Y-88200000D02*
X88670900Y-88200000D01*
%TO.N,/I2C SCL*%
X90770900Y-86300000D02*
X91120900Y-86650000D01*
X90770900Y-86300000D02*
X88670900Y-84200000D01*
%TO.N,/CAN TX*%
X113020900Y-74300000D02*
X113020900Y-78750000D01*
%TO.N,/CAN RX*%
X113870900Y-74250000D02*
X113870900Y-78800000D01*
D20*
%TO.N,unconnected-(U5-GPIO6{slash}ADC1_CH5-Pad6)*%
X94610900Y-66400000D02*
X94710900Y-66300000D01*
%TO.N,/UART_RX*%
X87570900Y-79000000D02*
X91570900Y-79000000D01*
%TO.N,/UART_TX*%
X84570900Y-76500000D02*
X91070900Y-76500000D01*
%TD*%
%TA.AperFunction,Conductor*%
%TO.N,GND*%
G36*
X137793602Y-31204618D02*
G01*
X137807619Y-31205229D01*
X138206082Y-31222626D01*
X138216819Y-31223566D01*
X138623472Y-31277103D01*
X138634110Y-31278978D01*
X139034554Y-31367755D01*
X139044994Y-31370553D01*
X139436155Y-31493885D01*
X139446316Y-31497583D01*
X139825251Y-31654544D01*
X139835024Y-31659100D01*
X140198882Y-31848512D01*
X140208205Y-31853896D01*
X140530751Y-32059381D01*
X140554122Y-32074270D01*
X140562983Y-32080474D01*
X140888379Y-32330159D01*
X140896666Y-32337113D01*
X141199052Y-32614198D01*
X141206701Y-32621847D01*
X141483786Y-32924233D01*
X141490740Y-32932520D01*
X141740425Y-33257916D01*
X141746629Y-33266777D01*
X141816267Y-33376086D01*
X141956377Y-33596014D01*
X141966995Y-33612680D01*
X141972391Y-33622024D01*
X142161794Y-33985865D01*
X142166358Y-33995654D01*
X142323315Y-34374581D01*
X142327015Y-34384747D01*
X142450345Y-34775901D01*
X142453145Y-34786349D01*
X142541919Y-35186781D01*
X142543797Y-35197435D01*
X142597331Y-35604060D01*
X142598274Y-35614836D01*
X142616282Y-36027297D01*
X142616400Y-36032706D01*
X142616400Y-114417293D01*
X142616282Y-114422702D01*
X142598274Y-114835163D01*
X142597331Y-114845939D01*
X142543797Y-115252564D01*
X142541919Y-115263218D01*
X142453145Y-115663650D01*
X142450345Y-115674098D01*
X142327015Y-116065252D01*
X142323315Y-116075418D01*
X142166358Y-116454345D01*
X142161789Y-116464143D01*
X141972396Y-116827965D01*
X141966995Y-116837319D01*
X141746629Y-117183222D01*
X141740425Y-117192083D01*
X141490740Y-117517479D01*
X141483786Y-117525766D01*
X141206701Y-117828152D01*
X141199052Y-117835801D01*
X140896666Y-118112886D01*
X140888379Y-118119840D01*
X140562983Y-118369525D01*
X140554122Y-118375729D01*
X140208219Y-118596095D01*
X140198865Y-118601496D01*
X139835043Y-118790889D01*
X139825245Y-118795458D01*
X139446318Y-118952415D01*
X139436152Y-118956115D01*
X139044998Y-119079445D01*
X139034550Y-119082245D01*
X138634118Y-119171019D01*
X138623464Y-119172897D01*
X138216839Y-119226431D01*
X138206063Y-119227374D01*
X137793603Y-119245382D01*
X137788194Y-119245500D01*
X67903606Y-119245500D01*
X67898197Y-119245382D01*
X67485736Y-119227374D01*
X67474960Y-119226431D01*
X67068335Y-119172897D01*
X67057681Y-119171019D01*
X66657249Y-119082245D01*
X66646801Y-119079445D01*
X66255647Y-118956115D01*
X66245481Y-118952415D01*
X65866554Y-118795458D01*
X65856765Y-118790894D01*
X65492924Y-118601491D01*
X65483587Y-118596099D01*
X65310628Y-118485912D01*
X65137677Y-118375729D01*
X65128816Y-118369525D01*
X64803420Y-118119840D01*
X64795133Y-118112886D01*
X64492747Y-117835801D01*
X64485098Y-117828152D01*
X64208013Y-117525766D01*
X64201059Y-117517479D01*
X63951374Y-117192083D01*
X63945170Y-117183222D01*
X63925907Y-117152986D01*
X63724796Y-116837305D01*
X63719412Y-116827982D01*
X63530000Y-116464124D01*
X63525441Y-116454345D01*
X63439714Y-116247383D01*
X63368483Y-116075416D01*
X63364784Y-116065252D01*
X63334073Y-115967850D01*
X63245379Y-115686545D01*
X77658980Y-115686545D01*
X77658980Y-115967854D01*
X77690474Y-116247367D01*
X77690476Y-116247383D01*
X77753070Y-116521624D01*
X77845979Y-116787144D01*
X77968027Y-117040580D01*
X77968029Y-117040583D01*
X78117690Y-117278766D01*
X78293077Y-117498694D01*
X78491986Y-117697603D01*
X78711914Y-117872990D01*
X78950097Y-118022651D01*
X79203539Y-118144702D01*
X79469053Y-118237609D01*
X79743300Y-118300204D01*
X80022825Y-118331699D01*
X80022826Y-118331700D01*
X80022830Y-118331700D01*
X80304134Y-118331700D01*
X80304134Y-118331699D01*
X80583660Y-118300204D01*
X80857907Y-118237609D01*
X81123421Y-118144702D01*
X81376863Y-118022651D01*
X81615046Y-117872990D01*
X81834974Y-117697603D01*
X82033883Y-117498694D01*
X82209270Y-117278766D01*
X82358931Y-117040583D01*
X82480982Y-116787141D01*
X82573889Y-116521627D01*
X82636484Y-116247380D01*
X82667980Y-115967850D01*
X82667980Y-115686550D01*
X82667979Y-115686545D01*
X136068820Y-115686545D01*
X136068820Y-115967854D01*
X136100314Y-116247367D01*
X136100316Y-116247383D01*
X136162910Y-116521624D01*
X136255819Y-116787144D01*
X136377867Y-117040580D01*
X136377869Y-117040583D01*
X136527530Y-117278766D01*
X136702917Y-117498694D01*
X136901826Y-117697603D01*
X137121754Y-117872990D01*
X137359937Y-118022651D01*
X137613379Y-118144702D01*
X137878893Y-118237609D01*
X138153140Y-118300204D01*
X138432665Y-118331699D01*
X138432666Y-118331700D01*
X138432670Y-118331700D01*
X138713974Y-118331700D01*
X138713974Y-118331699D01*
X138993500Y-118300204D01*
X139267747Y-118237609D01*
X139533261Y-118144702D01*
X139786703Y-118022651D01*
X140024886Y-117872990D01*
X140244814Y-117697603D01*
X140443723Y-117498694D01*
X140619110Y-117278766D01*
X140768771Y-117040583D01*
X140890822Y-116787141D01*
X140983729Y-116521627D01*
X141046324Y-116247380D01*
X141077820Y-115967850D01*
X141077820Y-115686550D01*
X141046324Y-115407020D01*
X140983729Y-115132773D01*
X140890822Y-114867259D01*
X140768771Y-114613817D01*
X140619110Y-114375634D01*
X140443723Y-114155706D01*
X140244814Y-113956797D01*
X140024886Y-113781410D01*
X139786703Y-113631749D01*
X139786700Y-113631747D01*
X139533264Y-113509699D01*
X139267744Y-113416790D01*
X138993503Y-113354196D01*
X138993487Y-113354194D01*
X138713974Y-113322700D01*
X138713970Y-113322700D01*
X138432670Y-113322700D01*
X138432666Y-113322700D01*
X138153152Y-113354194D01*
X138153136Y-113354196D01*
X137878895Y-113416790D01*
X137613375Y-113509699D01*
X137359939Y-113631747D01*
X137121755Y-113781409D01*
X136901826Y-113956796D01*
X136702916Y-114155706D01*
X136527529Y-114375635D01*
X136377867Y-114613819D01*
X136255819Y-114867255D01*
X136162910Y-115132775D01*
X136100316Y-115407016D01*
X136100314Y-115407032D01*
X136068820Y-115686545D01*
X82667979Y-115686545D01*
X82636484Y-115407020D01*
X82573889Y-115132773D01*
X82480982Y-114867259D01*
X82358931Y-114613817D01*
X82209270Y-114375634D01*
X82033883Y-114155706D01*
X81834974Y-113956797D01*
X81615046Y-113781410D01*
X81376863Y-113631749D01*
X81376860Y-113631747D01*
X81123424Y-113509699D01*
X80857904Y-113416790D01*
X80583663Y-113354196D01*
X80583647Y-113354194D01*
X80304134Y-113322700D01*
X80304130Y-113322700D01*
X80022830Y-113322700D01*
X80022826Y-113322700D01*
X79743312Y-113354194D01*
X79743296Y-113354196D01*
X79469055Y-113416790D01*
X79203535Y-113509699D01*
X78950099Y-113631747D01*
X78711915Y-113781409D01*
X78491986Y-113956796D01*
X78293076Y-114155706D01*
X78117689Y-114375635D01*
X77968027Y-114613819D01*
X77845979Y-114867255D01*
X77753070Y-115132775D01*
X77690476Y-115407016D01*
X77690474Y-115407032D01*
X77658980Y-115686545D01*
X63245379Y-115686545D01*
X63241453Y-115674094D01*
X63238654Y-115663650D01*
X63181763Y-115407032D01*
X63149878Y-115263210D01*
X63148002Y-115252564D01*
X63094466Y-114845919D01*
X63093526Y-114835182D01*
X63075518Y-114422701D01*
X63075400Y-114417293D01*
X63075400Y-106762135D01*
X67020400Y-106762135D01*
X67020400Y-108557870D01*
X67020401Y-108557876D01*
X67026808Y-108617483D01*
X67077102Y-108752328D01*
X67077106Y-108752335D01*
X67163352Y-108867544D01*
X67163355Y-108867547D01*
X67278564Y-108953793D01*
X67278571Y-108953797D01*
X67413417Y-109004091D01*
X67413416Y-109004091D01*
X67420344Y-109004835D01*
X67473027Y-109010500D01*
X69268772Y-109010499D01*
X69328383Y-109004091D01*
X69463231Y-108953796D01*
X69578446Y-108867546D01*
X69664696Y-108752331D01*
X69713710Y-108620916D01*
X69755581Y-108564984D01*
X69821045Y-108540566D01*
X69889318Y-108555417D01*
X69917573Y-108576569D01*
X70031113Y-108690109D01*
X70203079Y-108815048D01*
X70203081Y-108815049D01*
X70203084Y-108815051D01*
X70392488Y-108911557D01*
X70594657Y-108977246D01*
X70804613Y-109010500D01*
X70804614Y-109010500D01*
X71017186Y-109010500D01*
X71017187Y-109010500D01*
X71227143Y-108977246D01*
X71429312Y-108911557D01*
X71618716Y-108815051D01*
X71705038Y-108752335D01*
X71790686Y-108690109D01*
X71790688Y-108690106D01*
X71790692Y-108690104D01*
X71941004Y-108539792D01*
X71941006Y-108539788D01*
X71941009Y-108539786D01*
X72065948Y-108367820D01*
X72065947Y-108367820D01*
X72065951Y-108367816D01*
X72070414Y-108359054D01*
X72118388Y-108308259D01*
X72186208Y-108291463D01*
X72252344Y-108313999D01*
X72291386Y-108359056D01*
X72295851Y-108367820D01*
X72420790Y-108539786D01*
X72571113Y-108690109D01*
X72743079Y-108815048D01*
X72743081Y-108815049D01*
X72743084Y-108815051D01*
X72932488Y-108911557D01*
X73134657Y-108977246D01*
X73344613Y-109010500D01*
X73344614Y-109010500D01*
X73557186Y-109010500D01*
X73557187Y-109010500D01*
X73767143Y-108977246D01*
X73969312Y-108911557D01*
X74158716Y-108815051D01*
X74245038Y-108752335D01*
X74330686Y-108690109D01*
X74330688Y-108690106D01*
X74330692Y-108690104D01*
X74481004Y-108539792D01*
X74481006Y-108539788D01*
X74481009Y-108539786D01*
X74605948Y-108367820D01*
X74605947Y-108367820D01*
X74605951Y-108367816D01*
X74610414Y-108359054D01*
X74658388Y-108308259D01*
X74726208Y-108291463D01*
X74792344Y-108313999D01*
X74831386Y-108359056D01*
X74835851Y-108367820D01*
X74960790Y-108539786D01*
X75111113Y-108690109D01*
X75283079Y-108815048D01*
X75283081Y-108815049D01*
X75283084Y-108815051D01*
X75472488Y-108911557D01*
X75674657Y-108977246D01*
X75884613Y-109010500D01*
X75884614Y-109010500D01*
X76097186Y-109010500D01*
X76097187Y-109010500D01*
X76307143Y-108977246D01*
X76509312Y-108911557D01*
X76698716Y-108815051D01*
X76785038Y-108752335D01*
X76870686Y-108690109D01*
X76870688Y-108690106D01*
X76870692Y-108690104D01*
X77021004Y-108539792D01*
X77021006Y-108539788D01*
X77021009Y-108539786D01*
X77145948Y-108367820D01*
X77145947Y-108367820D01*
X77145951Y-108367816D01*
X77150414Y-108359054D01*
X77198388Y-108308259D01*
X77266208Y-108291463D01*
X77332344Y-108313999D01*
X77371386Y-108359056D01*
X77375851Y-108367820D01*
X77500790Y-108539786D01*
X77651113Y-108690109D01*
X77823079Y-108815048D01*
X77823081Y-108815049D01*
X77823084Y-108815051D01*
X78012488Y-108911557D01*
X78214657Y-108977246D01*
X78424613Y-109010500D01*
X78424614Y-109010500D01*
X78637186Y-109010500D01*
X78637187Y-109010500D01*
X78847143Y-108977246D01*
X79049312Y-108911557D01*
X79238716Y-108815051D01*
X79325038Y-108752335D01*
X79410686Y-108690109D01*
X79410688Y-108690106D01*
X79410692Y-108690104D01*
X79561004Y-108539792D01*
X79561006Y-108539788D01*
X79561009Y-108539786D01*
X79685948Y-108367820D01*
X79685947Y-108367820D01*
X79685951Y-108367816D01*
X79690414Y-108359054D01*
X79738388Y-108308259D01*
X79806208Y-108291463D01*
X79872344Y-108313999D01*
X79911386Y-108359056D01*
X79915851Y-108367820D01*
X80040790Y-108539786D01*
X80191113Y-108690109D01*
X80363079Y-108815048D01*
X80363081Y-108815049D01*
X80363084Y-108815051D01*
X80552488Y-108911557D01*
X80754657Y-108977246D01*
X80964613Y-109010500D01*
X80964614Y-109010500D01*
X81177186Y-109010500D01*
X81177187Y-109010500D01*
X81387143Y-108977246D01*
X81589312Y-108911557D01*
X81778716Y-108815051D01*
X81865038Y-108752335D01*
X81950686Y-108690109D01*
X81950688Y-108690106D01*
X81950692Y-108690104D01*
X82101004Y-108539792D01*
X82101006Y-108539788D01*
X82101009Y-108539786D01*
X82225948Y-108367820D01*
X82225947Y-108367820D01*
X82225951Y-108367816D01*
X82230414Y-108359054D01*
X82278388Y-108308259D01*
X82346208Y-108291463D01*
X82412344Y-108313999D01*
X82451386Y-108359056D01*
X82455851Y-108367820D01*
X82580790Y-108539786D01*
X82731113Y-108690109D01*
X82903079Y-108815048D01*
X82903081Y-108815049D01*
X82903084Y-108815051D01*
X83092488Y-108911557D01*
X83294657Y-108977246D01*
X83504613Y-109010500D01*
X83504614Y-109010500D01*
X83717186Y-109010500D01*
X83717187Y-109010500D01*
X83927143Y-108977246D01*
X84129312Y-108911557D01*
X84318716Y-108815051D01*
X84405038Y-108752335D01*
X84490686Y-108690109D01*
X84490688Y-108690106D01*
X84490692Y-108690104D01*
X84641004Y-108539792D01*
X84641006Y-108539788D01*
X84641009Y-108539786D01*
X84726790Y-108421717D01*
X84765951Y-108367816D01*
X84770693Y-108358508D01*
X84818663Y-108307711D01*
X84886483Y-108290911D01*
X84952619Y-108313445D01*
X84991663Y-108358500D01*
X84996273Y-108367547D01*
X85035628Y-108421716D01*
X85667937Y-107789408D01*
X85684975Y-107852993D01*
X85750801Y-107967007D01*
X85843893Y-108060099D01*
X85957907Y-108125925D01*
X86021490Y-108142962D01*
X85389182Y-108775269D01*
X85389182Y-108775270D01*
X85443349Y-108814624D01*
X85632682Y-108911095D01*
X85834770Y-108976757D01*
X86044654Y-109010000D01*
X86257146Y-109010000D01*
X86467027Y-108976757D01*
X86467030Y-108976757D01*
X86669117Y-108911095D01*
X86858454Y-108814622D01*
X86912616Y-108775270D01*
X86912617Y-108775270D01*
X86280308Y-108142962D01*
X86343893Y-108125925D01*
X86457907Y-108060099D01*
X86550999Y-107967007D01*
X86616825Y-107852993D01*
X86633862Y-107789408D01*
X87266170Y-108421717D01*
X87266170Y-108421716D01*
X87305522Y-108367554D01*
X87401995Y-108178217D01*
X87467657Y-107976130D01*
X87467657Y-107976127D01*
X87500900Y-107766246D01*
X87500900Y-107553753D01*
X87467657Y-107343872D01*
X87467657Y-107343870D01*
X87465924Y-107338536D01*
X87465923Y-107338535D01*
X87465923Y-107338533D01*
X87401995Y-107141782D01*
X87305523Y-106952447D01*
X87305523Y-106952446D01*
X87301735Y-106947233D01*
X87301732Y-106947230D01*
X87266169Y-106898282D01*
X86633862Y-107530590D01*
X86616825Y-107467007D01*
X86550999Y-107352993D01*
X86457907Y-107259901D01*
X86343893Y-107194075D01*
X86280309Y-107177037D01*
X86620066Y-106837279D01*
X93313104Y-106837279D01*
X93313105Y-106837280D01*
X94471534Y-106837280D01*
X94467140Y-106841674D01*
X94414479Y-106932886D01*
X94387220Y-107034619D01*
X94387220Y-107139941D01*
X94414479Y-107241674D01*
X94467140Y-107332886D01*
X94471534Y-107337280D01*
X93313105Y-107337280D01*
X93314305Y-107344864D01*
X93367811Y-107509535D01*
X93446415Y-107663804D01*
X93548187Y-107803882D01*
X93670617Y-107926312D01*
X93810695Y-108028084D01*
X93964962Y-108106688D01*
X94129635Y-108160194D01*
X94300649Y-108187280D01*
X94537220Y-108187280D01*
X94537220Y-107402966D01*
X94541614Y-107407360D01*
X94632826Y-107460021D01*
X94734559Y-107487280D01*
X94839881Y-107487280D01*
X94941614Y-107460021D01*
X95032826Y-107407360D01*
X95037220Y-107402966D01*
X95037220Y-108187280D01*
X95273791Y-108187280D01*
X95444804Y-108160194D01*
X95609477Y-108106688D01*
X95763744Y-108028084D01*
X95903822Y-107926312D01*
X96026252Y-107803882D01*
X96128024Y-107663804D01*
X96206628Y-107509535D01*
X96260134Y-107344864D01*
X96260134Y-107344863D01*
X96261335Y-107337280D01*
X95102906Y-107337280D01*
X95107300Y-107332886D01*
X95159961Y-107241674D01*
X95187220Y-107139941D01*
X95187220Y-107034619D01*
X95159961Y-106932886D01*
X95107300Y-106841674D01*
X95105625Y-106839999D01*
X116176784Y-106839999D01*
X116176785Y-106840000D01*
X117335214Y-106840000D01*
X117330820Y-106844394D01*
X117278159Y-106935606D01*
X117250900Y-107037339D01*
X117250900Y-107142661D01*
X117278159Y-107244394D01*
X117330820Y-107335606D01*
X117335214Y-107340000D01*
X116176785Y-107340000D01*
X116177985Y-107347584D01*
X116231491Y-107512255D01*
X116310095Y-107666524D01*
X116411867Y-107806602D01*
X116534297Y-107929032D01*
X116674375Y-108030804D01*
X116828642Y-108109408D01*
X116993315Y-108162914D01*
X117164329Y-108190000D01*
X117400900Y-108190000D01*
X117400900Y-107405686D01*
X117405294Y-107410080D01*
X117496506Y-107462741D01*
X117598239Y-107490000D01*
X117703561Y-107490000D01*
X117805294Y-107462741D01*
X117896506Y-107410080D01*
X117900900Y-107405686D01*
X117900900Y-108190000D01*
X118137471Y-108190000D01*
X118308484Y-108162914D01*
X118473157Y-108109408D01*
X118627424Y-108030804D01*
X118767502Y-107929032D01*
X118889932Y-107806602D01*
X118991704Y-107666524D01*
X119070308Y-107512255D01*
X119123814Y-107347584D01*
X119125015Y-107340000D01*
X117966586Y-107340000D01*
X117970980Y-107335606D01*
X118023641Y-107244394D01*
X118050900Y-107142661D01*
X118050900Y-107037339D01*
X118023641Y-106935606D01*
X117970980Y-106844394D01*
X117966586Y-106840000D01*
X119125015Y-106840000D01*
X119125015Y-106839999D01*
X119123814Y-106832415D01*
X119070308Y-106667744D01*
X118991704Y-106513475D01*
X118889932Y-106373397D01*
X118767502Y-106250967D01*
X118627424Y-106149195D01*
X118473157Y-106070591D01*
X118308484Y-106017085D01*
X118137471Y-105990000D01*
X117900900Y-105990000D01*
X117900900Y-106774314D01*
X117896506Y-106769920D01*
X117805294Y-106717259D01*
X117703561Y-106690000D01*
X117598239Y-106690000D01*
X117496506Y-106717259D01*
X117405294Y-106769920D01*
X117400900Y-106774314D01*
X117400900Y-105990000D01*
X117164329Y-105990000D01*
X116993315Y-106017085D01*
X116828642Y-106070591D01*
X116674375Y-106149195D01*
X116534297Y-106250967D01*
X116411867Y-106373397D01*
X116310095Y-106513475D01*
X116231491Y-106667744D01*
X116177985Y-106832415D01*
X116176784Y-106839999D01*
X95105625Y-106839999D01*
X95102906Y-106837280D01*
X96261335Y-106837280D01*
X96261335Y-106837279D01*
X96260134Y-106829695D01*
X96206628Y-106665024D01*
X96128024Y-106510755D01*
X96026252Y-106370677D01*
X95903822Y-106248247D01*
X95763744Y-106146475D01*
X95609477Y-106067871D01*
X95444804Y-106014365D01*
X95273791Y-105987280D01*
X95037220Y-105987280D01*
X95037220Y-106771594D01*
X95032826Y-106767200D01*
X94941614Y-106714539D01*
X94839881Y-106687280D01*
X94734559Y-106687280D01*
X94632826Y-106714539D01*
X94541614Y-106767200D01*
X94537220Y-106771594D01*
X94537220Y-105987280D01*
X94300649Y-105987280D01*
X94129635Y-106014365D01*
X93964962Y-106067871D01*
X93810695Y-106146475D01*
X93670617Y-106248247D01*
X93548187Y-106370677D01*
X93446415Y-106510755D01*
X93367811Y-106665024D01*
X93314305Y-106829695D01*
X93313104Y-106837279D01*
X86620066Y-106837279D01*
X86912616Y-106544728D01*
X86858450Y-106505375D01*
X86669117Y-106408904D01*
X86467029Y-106343242D01*
X86257146Y-106310000D01*
X86044654Y-106310000D01*
X85834772Y-106343242D01*
X85834769Y-106343242D01*
X85632682Y-106408904D01*
X85443339Y-106505380D01*
X85389182Y-106544727D01*
X85389182Y-106544728D01*
X86021491Y-107177037D01*
X85957907Y-107194075D01*
X85843893Y-107259901D01*
X85750801Y-107352993D01*
X85684975Y-107467007D01*
X85667937Y-107530591D01*
X85035628Y-106898282D01*
X85035627Y-106898282D01*
X84996280Y-106952440D01*
X84996276Y-106952446D01*
X84991660Y-106961505D01*
X84943681Y-107012297D01*
X84875859Y-107029087D01*
X84809726Y-107006543D01*
X84770694Y-106961493D01*
X84765951Y-106952184D01*
X84765949Y-106952181D01*
X84765948Y-106952179D01*
X84641009Y-106780213D01*
X84490686Y-106629890D01*
X84318720Y-106504951D01*
X84129314Y-106408444D01*
X84129313Y-106408443D01*
X84129312Y-106408443D01*
X83927143Y-106342754D01*
X83927141Y-106342753D01*
X83927140Y-106342753D01*
X83765857Y-106317208D01*
X83717187Y-106309500D01*
X83504613Y-106309500D01*
X83455942Y-106317208D01*
X83294660Y-106342753D01*
X83092485Y-106408444D01*
X82903079Y-106504951D01*
X82731113Y-106629890D01*
X82580790Y-106780213D01*
X82455849Y-106952182D01*
X82451384Y-106960946D01*
X82403409Y-107011742D01*
X82335588Y-107028536D01*
X82269453Y-107005998D01*
X82230416Y-106960946D01*
X82225950Y-106952182D01*
X82101009Y-106780213D01*
X81950686Y-106629890D01*
X81778720Y-106504951D01*
X81589314Y-106408444D01*
X81589313Y-106408443D01*
X81589312Y-106408443D01*
X81387143Y-106342754D01*
X81387141Y-106342753D01*
X81387140Y-106342753D01*
X81225857Y-106317208D01*
X81177187Y-106309500D01*
X80964613Y-106309500D01*
X80915942Y-106317208D01*
X80754660Y-106342753D01*
X80552485Y-106408444D01*
X80363079Y-106504951D01*
X80191113Y-106629890D01*
X80040790Y-106780213D01*
X79915849Y-106952182D01*
X79911384Y-106960946D01*
X79863409Y-107011742D01*
X79795588Y-107028536D01*
X79729453Y-107005998D01*
X79690416Y-106960946D01*
X79685950Y-106952182D01*
X79561009Y-106780213D01*
X79410686Y-106629890D01*
X79238720Y-106504951D01*
X79049314Y-106408444D01*
X79049313Y-106408443D01*
X79049312Y-106408443D01*
X78847143Y-106342754D01*
X78847141Y-106342753D01*
X78847140Y-106342753D01*
X78685857Y-106317208D01*
X78637187Y-106309500D01*
X78424613Y-106309500D01*
X78375942Y-106317208D01*
X78214660Y-106342753D01*
X78012485Y-106408444D01*
X77823079Y-106504951D01*
X77651113Y-106629890D01*
X77500790Y-106780213D01*
X77375849Y-106952182D01*
X77371384Y-106960946D01*
X77323409Y-107011742D01*
X77255588Y-107028536D01*
X77189453Y-107005998D01*
X77150416Y-106960946D01*
X77145950Y-106952182D01*
X77021009Y-106780213D01*
X76870686Y-106629890D01*
X76698720Y-106504951D01*
X76509314Y-106408444D01*
X76509313Y-106408443D01*
X76509312Y-106408443D01*
X76307143Y-106342754D01*
X76307141Y-106342753D01*
X76307140Y-106342753D01*
X76145857Y-106317208D01*
X76097187Y-106309500D01*
X75884613Y-106309500D01*
X75835942Y-106317208D01*
X75674660Y-106342753D01*
X75472485Y-106408444D01*
X75283079Y-106504951D01*
X75111113Y-106629890D01*
X74960790Y-106780213D01*
X74835849Y-106952182D01*
X74831384Y-106960946D01*
X74783409Y-107011742D01*
X74715588Y-107028536D01*
X74649453Y-107005998D01*
X74610416Y-106960946D01*
X74605950Y-106952182D01*
X74481009Y-106780213D01*
X74330686Y-106629890D01*
X74158720Y-106504951D01*
X73969314Y-106408444D01*
X73969313Y-106408443D01*
X73969312Y-106408443D01*
X73767143Y-106342754D01*
X73767141Y-106342753D01*
X73767140Y-106342753D01*
X73605857Y-106317208D01*
X73557187Y-106309500D01*
X73344613Y-106309500D01*
X73295942Y-106317208D01*
X73134660Y-106342753D01*
X72932485Y-106408444D01*
X72743079Y-106504951D01*
X72571113Y-106629890D01*
X72420790Y-106780213D01*
X72295849Y-106952182D01*
X72291384Y-106960946D01*
X72243409Y-107011742D01*
X72175588Y-107028536D01*
X72109453Y-107005998D01*
X72070416Y-106960946D01*
X72065950Y-106952182D01*
X71941009Y-106780213D01*
X71790686Y-106629890D01*
X71618720Y-106504951D01*
X71429314Y-106408444D01*
X71429313Y-106408443D01*
X71429312Y-106408443D01*
X71227143Y-106342754D01*
X71227141Y-106342753D01*
X71227140Y-106342753D01*
X71065857Y-106317208D01*
X71017187Y-106309500D01*
X70804613Y-106309500D01*
X70755942Y-106317208D01*
X70594660Y-106342753D01*
X70392485Y-106408444D01*
X70203079Y-106504951D01*
X70031115Y-106629889D01*
X69917573Y-106743431D01*
X69856250Y-106776915D01*
X69786558Y-106771931D01*
X69730625Y-106730059D01*
X69713710Y-106699082D01*
X69664697Y-106567671D01*
X69664693Y-106567664D01*
X69578447Y-106452455D01*
X69578444Y-106452452D01*
X69463235Y-106366206D01*
X69463228Y-106366202D01*
X69328382Y-106315908D01*
X69328383Y-106315908D01*
X69268783Y-106309501D01*
X69268781Y-106309500D01*
X69268773Y-106309500D01*
X69268764Y-106309500D01*
X67473029Y-106309500D01*
X67473023Y-106309501D01*
X67413416Y-106315908D01*
X67278571Y-106366202D01*
X67278564Y-106366206D01*
X67163355Y-106452452D01*
X67163352Y-106452455D01*
X67077106Y-106567664D01*
X67077102Y-106567671D01*
X67026808Y-106702517D01*
X67020401Y-106762116D01*
X67020400Y-106762135D01*
X63075400Y-106762135D01*
X63075400Y-104460669D01*
X93286720Y-104460669D01*
X93286720Y-104633891D01*
X93313818Y-104804981D01*
X93367347Y-104969725D01*
X93445988Y-105124068D01*
X93547806Y-105264208D01*
X93670292Y-105386694D01*
X93810432Y-105488512D01*
X93964775Y-105567153D01*
X94129519Y-105620682D01*
X94300609Y-105647780D01*
X94300610Y-105647780D01*
X95273830Y-105647780D01*
X95273831Y-105647780D01*
X95444921Y-105620682D01*
X95609665Y-105567153D01*
X95764008Y-105488512D01*
X95904148Y-105386694D01*
X96026634Y-105264208D01*
X96128452Y-105124068D01*
X96207093Y-104969725D01*
X96260622Y-104804981D01*
X96287720Y-104633891D01*
X96287720Y-104460669D01*
X96262272Y-104299999D01*
X116176784Y-104299999D01*
X116176785Y-104300000D01*
X117335214Y-104300000D01*
X117330820Y-104304394D01*
X117278159Y-104395606D01*
X117250900Y-104497339D01*
X117250900Y-104602661D01*
X117278159Y-104704394D01*
X117330820Y-104795606D01*
X117335214Y-104800000D01*
X116176785Y-104800000D01*
X116177985Y-104807584D01*
X116231491Y-104972255D01*
X116310095Y-105126524D01*
X116411867Y-105266602D01*
X116534297Y-105389032D01*
X116674375Y-105490804D01*
X116828642Y-105569408D01*
X116993315Y-105622914D01*
X117164329Y-105650000D01*
X117400900Y-105650000D01*
X117400900Y-104865686D01*
X117405294Y-104870080D01*
X117496506Y-104922741D01*
X117598239Y-104950000D01*
X117703561Y-104950000D01*
X117805294Y-104922741D01*
X117896506Y-104870080D01*
X117900900Y-104865686D01*
X117900900Y-105650000D01*
X118137471Y-105650000D01*
X118308484Y-105622914D01*
X118473157Y-105569408D01*
X118627424Y-105490804D01*
X118767502Y-105389032D01*
X118889932Y-105266602D01*
X118991704Y-105126524D01*
X119070308Y-104972255D01*
X119123814Y-104807584D01*
X119125015Y-104800000D01*
X117966586Y-104800000D01*
X117970980Y-104795606D01*
X118023641Y-104704394D01*
X118050900Y-104602661D01*
X118050900Y-104497339D01*
X118023641Y-104395606D01*
X117970980Y-104304394D01*
X117966586Y-104300000D01*
X119125015Y-104300000D01*
X119125015Y-104299999D01*
X119123814Y-104292415D01*
X119070308Y-104127744D01*
X118991704Y-103973475D01*
X118889932Y-103833397D01*
X118767502Y-103710967D01*
X118627424Y-103609195D01*
X118473157Y-103530591D01*
X118308484Y-103477085D01*
X118137471Y-103450000D01*
X117900900Y-103450000D01*
X117900900Y-104234314D01*
X117896506Y-104229920D01*
X117805294Y-104177259D01*
X117703561Y-104150000D01*
X117598239Y-104150000D01*
X117496506Y-104177259D01*
X117405294Y-104229920D01*
X117400900Y-104234314D01*
X117400900Y-103450000D01*
X117164329Y-103450000D01*
X116993315Y-103477085D01*
X116828642Y-103530591D01*
X116674375Y-103609195D01*
X116534297Y-103710967D01*
X116411867Y-103833397D01*
X116310095Y-103973475D01*
X116231491Y-104127744D01*
X116177985Y-104292415D01*
X116176784Y-104299999D01*
X96262272Y-104299999D01*
X96260622Y-104289579D01*
X96207093Y-104124835D01*
X96128452Y-103970492D01*
X96026634Y-103830352D01*
X95904148Y-103707866D01*
X95764008Y-103606048D01*
X95609665Y-103527407D01*
X95444921Y-103473878D01*
X95444919Y-103473877D01*
X95444918Y-103473877D01*
X95294161Y-103450000D01*
X95273831Y-103446780D01*
X94300609Y-103446780D01*
X94280279Y-103450000D01*
X94129522Y-103473877D01*
X93964772Y-103527408D01*
X93810431Y-103606048D01*
X93730476Y-103664139D01*
X93670292Y-103707866D01*
X93670290Y-103707868D01*
X93670289Y-103707868D01*
X93547808Y-103830349D01*
X93547808Y-103830350D01*
X93547806Y-103830352D01*
X93545594Y-103833397D01*
X93445988Y-103970491D01*
X93367348Y-104124832D01*
X93313817Y-104289582D01*
X93297025Y-104395606D01*
X93286720Y-104460669D01*
X63075400Y-104460669D01*
X63075400Y-101920669D01*
X93286720Y-101920669D01*
X93286720Y-102093891D01*
X93313818Y-102264981D01*
X93367347Y-102429725D01*
X93445988Y-102584068D01*
X93547806Y-102724208D01*
X93670292Y-102846694D01*
X93810432Y-102948512D01*
X93964775Y-103027153D01*
X94129519Y-103080682D01*
X94300609Y-103107780D01*
X94300610Y-103107780D01*
X95273830Y-103107780D01*
X95273831Y-103107780D01*
X95444921Y-103080682D01*
X95609665Y-103027153D01*
X95764008Y-102948512D01*
X95904148Y-102846694D01*
X96026634Y-102724208D01*
X96128452Y-102584068D01*
X96207093Y-102429725D01*
X96260622Y-102264981D01*
X96287720Y-102093891D01*
X96287720Y-101923389D01*
X116150400Y-101923389D01*
X116150400Y-102096610D01*
X116177066Y-102264977D01*
X116177498Y-102267701D01*
X116231027Y-102432445D01*
X116309668Y-102586788D01*
X116411486Y-102726928D01*
X116533972Y-102849414D01*
X116674112Y-102951232D01*
X116828455Y-103029873D01*
X116993199Y-103083402D01*
X117164289Y-103110500D01*
X117164290Y-103110500D01*
X118137510Y-103110500D01*
X118137511Y-103110500D01*
X118308601Y-103083402D01*
X118473345Y-103029873D01*
X118627688Y-102951232D01*
X118767828Y-102849414D01*
X118890314Y-102726928D01*
X118992132Y-102586788D01*
X119070773Y-102432445D01*
X119124302Y-102267701D01*
X119151400Y-102096611D01*
X119151400Y-101923389D01*
X119124302Y-101752299D01*
X119070773Y-101587555D01*
X118992132Y-101433212D01*
X118890314Y-101293072D01*
X118767828Y-101170586D01*
X118627688Y-101068768D01*
X118473345Y-100990127D01*
X118308601Y-100936598D01*
X118308599Y-100936597D01*
X118308598Y-100936597D01*
X118177171Y-100915781D01*
X118137511Y-100909500D01*
X117164289Y-100909500D01*
X117124628Y-100915781D01*
X116993202Y-100936597D01*
X116828452Y-100990128D01*
X116674111Y-101068768D01*
X116594156Y-101126859D01*
X116533972Y-101170586D01*
X116533970Y-101170588D01*
X116533969Y-101170588D01*
X116411488Y-101293069D01*
X116411488Y-101293070D01*
X116411486Y-101293072D01*
X116367759Y-101353256D01*
X116309668Y-101433211D01*
X116231028Y-101587552D01*
X116177497Y-101752302D01*
X116150400Y-101923389D01*
X96287720Y-101923389D01*
X96287720Y-101920669D01*
X96260622Y-101749579D01*
X96207093Y-101584835D01*
X96128452Y-101430492D01*
X96026634Y-101290352D01*
X95904148Y-101167866D01*
X95764008Y-101066048D01*
X95609665Y-100987407D01*
X95444921Y-100933878D01*
X95444919Y-100933877D01*
X95444918Y-100933877D01*
X95291004Y-100909500D01*
X95273831Y-100906780D01*
X94300609Y-100906780D01*
X94283436Y-100909500D01*
X94129522Y-100933877D01*
X93964772Y-100987408D01*
X93810431Y-101066048D01*
X93730476Y-101124139D01*
X93670292Y-101167866D01*
X93670290Y-101167868D01*
X93670289Y-101167868D01*
X93547808Y-101290349D01*
X93547808Y-101290350D01*
X93547806Y-101290352D01*
X93545830Y-101293072D01*
X93445988Y-101430491D01*
X93367348Y-101584832D01*
X93313817Y-101749582D01*
X93312967Y-101754949D01*
X93286720Y-101920669D01*
X63075400Y-101920669D01*
X63075400Y-99383389D01*
X93290400Y-99383389D01*
X93290400Y-99556611D01*
X93317498Y-99727701D01*
X93371027Y-99892445D01*
X93449668Y-100046788D01*
X93551486Y-100186928D01*
X93673972Y-100309414D01*
X93814112Y-100411232D01*
X93968455Y-100489873D01*
X94133199Y-100543402D01*
X94304289Y-100570500D01*
X94304290Y-100570500D01*
X95277510Y-100570500D01*
X95277511Y-100570500D01*
X95448601Y-100543402D01*
X95613345Y-100489873D01*
X95767688Y-100411232D01*
X95907828Y-100309414D01*
X96030314Y-100186928D01*
X96132132Y-100046788D01*
X96210773Y-99892445D01*
X96264302Y-99727701D01*
X96291400Y-99556611D01*
X96291400Y-99383389D01*
X116150400Y-99383389D01*
X116150400Y-99556611D01*
X116177498Y-99727701D01*
X116231027Y-99892445D01*
X116309668Y-100046788D01*
X116411486Y-100186928D01*
X116533972Y-100309414D01*
X116674112Y-100411232D01*
X116828455Y-100489873D01*
X116993199Y-100543402D01*
X117164289Y-100570500D01*
X117164290Y-100570500D01*
X118137510Y-100570500D01*
X118137511Y-100570500D01*
X118308601Y-100543402D01*
X118473345Y-100489873D01*
X118627688Y-100411232D01*
X118767828Y-100309414D01*
X118890314Y-100186928D01*
X118992132Y-100046788D01*
X119070773Y-99892445D01*
X119124302Y-99727701D01*
X119151400Y-99556611D01*
X119151400Y-99383389D01*
X119124302Y-99212299D01*
X119070773Y-99047555D01*
X118992132Y-98893212D01*
X118890314Y-98753072D01*
X118767828Y-98630586D01*
X118627688Y-98528768D01*
X118473345Y-98450127D01*
X118308601Y-98396598D01*
X118308599Y-98396597D01*
X118308598Y-98396597D01*
X118177171Y-98375781D01*
X118137511Y-98369500D01*
X117164289Y-98369500D01*
X117124628Y-98375781D01*
X116993202Y-98396597D01*
X116828452Y-98450128D01*
X116674111Y-98528768D01*
X116594156Y-98586859D01*
X116533972Y-98630586D01*
X116533970Y-98630588D01*
X116533969Y-98630588D01*
X116411488Y-98753069D01*
X116411488Y-98753070D01*
X116411486Y-98753072D01*
X116367759Y-98813256D01*
X116309668Y-98893211D01*
X116231028Y-99047552D01*
X116177497Y-99212302D01*
X116150400Y-99383389D01*
X96291400Y-99383389D01*
X96264302Y-99212299D01*
X96210773Y-99047555D01*
X96132132Y-98893212D01*
X96030314Y-98753072D01*
X95907828Y-98630586D01*
X95767688Y-98528768D01*
X95613345Y-98450127D01*
X95448601Y-98396598D01*
X95448599Y-98396597D01*
X95448598Y-98396597D01*
X95317171Y-98375781D01*
X95277511Y-98369500D01*
X94304289Y-98369500D01*
X94264628Y-98375781D01*
X94133202Y-98396597D01*
X93968452Y-98450128D01*
X93814111Y-98528768D01*
X93734156Y-98586859D01*
X93673972Y-98630586D01*
X93673970Y-98630588D01*
X93673969Y-98630588D01*
X93551488Y-98753069D01*
X93551488Y-98753070D01*
X93551486Y-98753072D01*
X93507759Y-98813256D01*
X93449668Y-98893211D01*
X93371028Y-99047552D01*
X93317497Y-99212302D01*
X93290400Y-99383389D01*
X63075400Y-99383389D01*
X63075400Y-96843389D01*
X93290400Y-96843389D01*
X93290400Y-97016611D01*
X93317498Y-97187701D01*
X93371027Y-97352445D01*
X93449668Y-97506788D01*
X93551486Y-97646928D01*
X93673972Y-97769414D01*
X93814112Y-97871232D01*
X93968455Y-97949873D01*
X94133199Y-98003402D01*
X94304289Y-98030500D01*
X94304290Y-98030500D01*
X95277510Y-98030500D01*
X95277511Y-98030500D01*
X95448601Y-98003402D01*
X95613345Y-97949873D01*
X95767688Y-97871232D01*
X95907828Y-97769414D01*
X96030314Y-97646928D01*
X96132132Y-97506788D01*
X96210773Y-97352445D01*
X96264302Y-97187701D01*
X96291400Y-97016611D01*
X96291400Y-96843389D01*
X116150400Y-96843389D01*
X116150400Y-97016611D01*
X116177498Y-97187701D01*
X116231027Y-97352445D01*
X116309668Y-97506788D01*
X116411486Y-97646928D01*
X116533972Y-97769414D01*
X116674112Y-97871232D01*
X116828455Y-97949873D01*
X116993199Y-98003402D01*
X117164289Y-98030500D01*
X117164290Y-98030500D01*
X118137510Y-98030500D01*
X118137511Y-98030500D01*
X118308601Y-98003402D01*
X118473345Y-97949873D01*
X118627688Y-97871232D01*
X118767828Y-97769414D01*
X118890314Y-97646928D01*
X118992132Y-97506788D01*
X119070773Y-97352445D01*
X119124302Y-97187701D01*
X119151400Y-97016611D01*
X119151400Y-96843389D01*
X119124302Y-96672299D01*
X119070773Y-96507555D01*
X118992132Y-96353212D01*
X118890314Y-96213072D01*
X118767828Y-96090586D01*
X118627688Y-95988768D01*
X118473345Y-95910127D01*
X118308601Y-95856598D01*
X118308599Y-95856597D01*
X118308598Y-95856597D01*
X118177171Y-95835781D01*
X118137511Y-95829500D01*
X117164289Y-95829500D01*
X117124628Y-95835781D01*
X116993202Y-95856597D01*
X116828452Y-95910128D01*
X116674111Y-95988768D01*
X116594156Y-96046859D01*
X116533972Y-96090586D01*
X116533970Y-96090588D01*
X116533969Y-96090588D01*
X116411488Y-96213069D01*
X116411488Y-96213070D01*
X116411486Y-96213072D01*
X116367759Y-96273256D01*
X116309668Y-96353211D01*
X116231028Y-96507552D01*
X116177497Y-96672302D01*
X116150400Y-96843389D01*
X96291400Y-96843389D01*
X96264302Y-96672299D01*
X96210773Y-96507555D01*
X96132132Y-96353212D01*
X96030314Y-96213072D01*
X95907828Y-96090586D01*
X95767688Y-95988768D01*
X95613345Y-95910127D01*
X95448601Y-95856598D01*
X95448599Y-95856597D01*
X95448598Y-95856597D01*
X95317171Y-95835781D01*
X95277511Y-95829500D01*
X94304289Y-95829500D01*
X94264628Y-95835781D01*
X94133202Y-95856597D01*
X93968452Y-95910128D01*
X93814111Y-95988768D01*
X93734156Y-96046859D01*
X93673972Y-96090586D01*
X93673970Y-96090588D01*
X93673969Y-96090588D01*
X93551488Y-96213069D01*
X93551488Y-96213070D01*
X93551486Y-96213072D01*
X93507759Y-96273256D01*
X93449668Y-96353211D01*
X93371028Y-96507552D01*
X93317497Y-96672302D01*
X93290400Y-96843389D01*
X63075400Y-96843389D01*
X63075400Y-94303389D01*
X93290400Y-94303389D01*
X93290400Y-94476610D01*
X93307161Y-94582439D01*
X93317498Y-94647701D01*
X93371027Y-94812445D01*
X93449668Y-94966788D01*
X93551486Y-95106928D01*
X93673972Y-95229414D01*
X93814112Y-95331232D01*
X93968455Y-95409873D01*
X94133199Y-95463402D01*
X94304289Y-95490500D01*
X94304290Y-95490500D01*
X95277510Y-95490500D01*
X95277511Y-95490500D01*
X95448601Y-95463402D01*
X95613345Y-95409873D01*
X95767688Y-95331232D01*
X95907828Y-95229414D01*
X96030314Y-95106928D01*
X96132132Y-94966788D01*
X96210773Y-94812445D01*
X96264302Y-94647701D01*
X96291400Y-94476611D01*
X96291400Y-94303389D01*
X116150400Y-94303389D01*
X116150400Y-94476610D01*
X116167161Y-94582439D01*
X116177498Y-94647701D01*
X116231027Y-94812445D01*
X116309668Y-94966788D01*
X116411486Y-95106928D01*
X116533972Y-95229414D01*
X116674112Y-95331232D01*
X116828455Y-95409873D01*
X116993199Y-95463402D01*
X117164289Y-95490500D01*
X117164290Y-95490500D01*
X118137510Y-95490500D01*
X118137511Y-95490500D01*
X118308601Y-95463402D01*
X118473345Y-95409873D01*
X118627688Y-95331232D01*
X118767828Y-95229414D01*
X118890314Y-95106928D01*
X118992132Y-94966788D01*
X119070773Y-94812445D01*
X119124302Y-94647701D01*
X119151400Y-94476611D01*
X119151400Y-94303389D01*
X119124302Y-94132299D01*
X119070773Y-93967555D01*
X118992132Y-93813212D01*
X118890314Y-93673072D01*
X118767828Y-93550586D01*
X118627688Y-93448768D01*
X118473345Y-93370127D01*
X118308601Y-93316598D01*
X118308599Y-93316597D01*
X118308598Y-93316597D01*
X118177171Y-93295781D01*
X118137511Y-93289500D01*
X117164289Y-93289500D01*
X117124628Y-93295781D01*
X116993202Y-93316597D01*
X116828452Y-93370128D01*
X116674111Y-93448768D01*
X116594156Y-93506859D01*
X116533972Y-93550586D01*
X116533970Y-93550588D01*
X116533969Y-93550588D01*
X116411488Y-93673069D01*
X116411488Y-93673070D01*
X116411486Y-93673072D01*
X116386486Y-93707482D01*
X116309668Y-93813211D01*
X116231028Y-93967552D01*
X116177497Y-94132302D01*
X116150400Y-94303389D01*
X96291400Y-94303389D01*
X96264302Y-94132299D01*
X96210773Y-93967555D01*
X96132132Y-93813212D01*
X96030314Y-93673072D01*
X95907828Y-93550586D01*
X95767688Y-93448768D01*
X95613345Y-93370127D01*
X95448601Y-93316598D01*
X95448599Y-93316597D01*
X95448598Y-93316597D01*
X95317171Y-93295781D01*
X95277511Y-93289500D01*
X94304289Y-93289500D01*
X94264628Y-93295781D01*
X94133202Y-93316597D01*
X93968452Y-93370128D01*
X93814111Y-93448768D01*
X93734156Y-93506859D01*
X93673972Y-93550586D01*
X93673970Y-93550588D01*
X93673969Y-93550588D01*
X93551488Y-93673069D01*
X93551488Y-93673070D01*
X93551486Y-93673072D01*
X93526486Y-93707482D01*
X93449668Y-93813211D01*
X93371028Y-93967552D01*
X93317497Y-94132302D01*
X93290400Y-94303389D01*
X63075400Y-94303389D01*
X63075400Y-91763389D01*
X93290400Y-91763389D01*
X93290400Y-91936611D01*
X93317498Y-92107701D01*
X93371027Y-92272445D01*
X93449668Y-92426788D01*
X93551486Y-92566928D01*
X93673972Y-92689414D01*
X93814112Y-92791232D01*
X93968455Y-92869873D01*
X94133199Y-92923402D01*
X94304289Y-92950500D01*
X94304290Y-92950500D01*
X95277510Y-92950500D01*
X95277511Y-92950500D01*
X95448601Y-92923402D01*
X95613345Y-92869873D01*
X95767688Y-92791232D01*
X95907828Y-92689414D01*
X96030314Y-92566928D01*
X96132132Y-92426788D01*
X96210773Y-92272445D01*
X96264302Y-92107701D01*
X96291400Y-91936611D01*
X96291400Y-91763389D01*
X116150400Y-91763389D01*
X116150400Y-91936611D01*
X116177498Y-92107701D01*
X116231027Y-92272445D01*
X116309668Y-92426788D01*
X116411486Y-92566928D01*
X116533972Y-92689414D01*
X116674112Y-92791232D01*
X116828455Y-92869873D01*
X116993199Y-92923402D01*
X117164289Y-92950500D01*
X117164290Y-92950500D01*
X118137510Y-92950500D01*
X118137511Y-92950500D01*
X118308601Y-92923402D01*
X118473345Y-92869873D01*
X118627688Y-92791232D01*
X118767828Y-92689414D01*
X118890314Y-92566928D01*
X118992132Y-92426788D01*
X119070773Y-92272445D01*
X119124302Y-92107701D01*
X119151400Y-91936611D01*
X119151400Y-91852135D01*
X122410400Y-91852135D01*
X122410400Y-93647870D01*
X122410401Y-93647876D01*
X122416808Y-93707483D01*
X122467102Y-93842328D01*
X122467106Y-93842335D01*
X122553352Y-93957544D01*
X122553355Y-93957547D01*
X122668564Y-94043793D01*
X122668571Y-94043797D01*
X122713518Y-94060561D01*
X122803417Y-94094091D01*
X122863027Y-94100500D01*
X122873585Y-94100499D01*
X122940623Y-94120179D01*
X122961272Y-94136818D01*
X123631491Y-94807037D01*
X123567907Y-94824075D01*
X123453893Y-94889901D01*
X123360801Y-94982993D01*
X123294975Y-95097007D01*
X123277937Y-95160591D01*
X122645628Y-94528282D01*
X122645627Y-94528282D01*
X122606280Y-94582439D01*
X122509804Y-94771782D01*
X122444142Y-94973869D01*
X122444142Y-94973872D01*
X122410900Y-95183753D01*
X122410900Y-95396246D01*
X122444142Y-95606127D01*
X122444142Y-95606130D01*
X122509804Y-95808217D01*
X122606275Y-95997550D01*
X122645628Y-96051716D01*
X123277937Y-95419408D01*
X123294975Y-95482993D01*
X123360801Y-95597007D01*
X123453893Y-95690099D01*
X123567907Y-95755925D01*
X123631490Y-95772962D01*
X122999182Y-96405269D01*
X122999182Y-96405270D01*
X123053352Y-96444626D01*
X123053351Y-96444626D01*
X123062395Y-96449234D01*
X123113192Y-96497208D01*
X123129987Y-96565029D01*
X123107450Y-96631164D01*
X123062399Y-96670202D01*
X123053082Y-96674949D01*
X122881113Y-96799890D01*
X122730790Y-96950213D01*
X122605851Y-97122179D01*
X122509344Y-97311585D01*
X122443653Y-97513760D01*
X122410400Y-97723713D01*
X122410400Y-97936286D01*
X122443653Y-98146239D01*
X122509344Y-98348414D01*
X122605851Y-98537820D01*
X122730790Y-98709786D01*
X122881113Y-98860109D01*
X123053082Y-98985050D01*
X123061846Y-98989516D01*
X123112642Y-99037491D01*
X123129436Y-99105312D01*
X123106898Y-99171447D01*
X123061846Y-99210484D01*
X123053082Y-99214949D01*
X122881113Y-99339890D01*
X122730790Y-99490213D01*
X122605851Y-99662179D01*
X122509344Y-99851585D01*
X122443653Y-100053760D01*
X122410400Y-100263713D01*
X122410400Y-100476286D01*
X122443653Y-100686239D01*
X122509344Y-100888414D01*
X122605851Y-101077820D01*
X122730790Y-101249786D01*
X122881113Y-101400109D01*
X123053082Y-101525050D01*
X123061846Y-101529516D01*
X123112642Y-101577491D01*
X123129436Y-101645312D01*
X123106898Y-101711447D01*
X123061846Y-101750484D01*
X123053082Y-101754949D01*
X122881113Y-101879890D01*
X122730790Y-102030213D01*
X122605851Y-102202179D01*
X122509344Y-102391585D01*
X122443653Y-102593760D01*
X122410400Y-102803713D01*
X122410400Y-103016286D01*
X122443653Y-103226239D01*
X122509344Y-103428414D01*
X122605851Y-103617820D01*
X122730790Y-103789786D01*
X122881113Y-103940109D01*
X123053082Y-104065050D01*
X123061846Y-104069516D01*
X123112642Y-104117491D01*
X123129436Y-104185312D01*
X123106898Y-104251447D01*
X123061846Y-104290484D01*
X123053082Y-104294949D01*
X122881113Y-104419890D01*
X122730790Y-104570213D01*
X122605851Y-104742179D01*
X122509344Y-104931585D01*
X122443653Y-105133760D01*
X122410400Y-105343713D01*
X122410400Y-105556286D01*
X122443653Y-105766239D01*
X122509344Y-105968414D01*
X122605851Y-106157820D01*
X122730790Y-106329786D01*
X122881113Y-106480109D01*
X123053082Y-106605050D01*
X123061846Y-106609516D01*
X123112642Y-106657491D01*
X123129436Y-106725312D01*
X123106898Y-106791447D01*
X123061846Y-106830484D01*
X123053082Y-106834949D01*
X122881113Y-106959890D01*
X122730790Y-107110213D01*
X122605851Y-107282179D01*
X122509344Y-107471585D01*
X122443653Y-107673760D01*
X122423044Y-107803882D01*
X122410400Y-107883713D01*
X122410400Y-108096287D01*
X122412478Y-108109408D01*
X122442697Y-108300205D01*
X122443654Y-108306243D01*
X122463660Y-108367816D01*
X122509344Y-108508414D01*
X122605851Y-108697820D01*
X122730790Y-108869786D01*
X122881113Y-109020109D01*
X123053079Y-109145048D01*
X123053081Y-109145049D01*
X123053084Y-109145051D01*
X123242488Y-109241557D01*
X123444657Y-109307246D01*
X123654613Y-109340500D01*
X123654614Y-109340500D01*
X123867186Y-109340500D01*
X123867187Y-109340500D01*
X124077143Y-109307246D01*
X124279312Y-109241557D01*
X124468716Y-109145051D01*
X124490689Y-109129086D01*
X124640686Y-109020109D01*
X124640688Y-109020106D01*
X124640692Y-109020104D01*
X124791004Y-108869792D01*
X124791006Y-108869788D01*
X124791009Y-108869786D01*
X124915948Y-108697820D01*
X124915947Y-108697820D01*
X124915951Y-108697816D01*
X125012457Y-108508412D01*
X125078146Y-108306243D01*
X125111400Y-108096287D01*
X125111400Y-107883713D01*
X125078146Y-107673757D01*
X125012457Y-107471588D01*
X124915951Y-107282184D01*
X124915949Y-107282181D01*
X124915948Y-107282179D01*
X124791009Y-107110213D01*
X124640686Y-106959890D01*
X124468720Y-106834951D01*
X124468015Y-106834591D01*
X124459954Y-106830485D01*
X124409159Y-106782512D01*
X124392363Y-106714692D01*
X124414899Y-106648556D01*
X124459954Y-106609515D01*
X124468716Y-106605051D01*
X124551744Y-106544728D01*
X124640686Y-106480109D01*
X124640688Y-106480106D01*
X124640692Y-106480104D01*
X124791004Y-106329792D01*
X124791006Y-106329788D01*
X124791009Y-106329786D01*
X124915948Y-106157820D01*
X124915947Y-106157820D01*
X124915951Y-106157816D01*
X125012457Y-105968412D01*
X125078146Y-105766243D01*
X125111400Y-105556287D01*
X125111400Y-105343713D01*
X125078146Y-105133757D01*
X125012457Y-104931588D01*
X124915951Y-104742184D01*
X124915949Y-104742181D01*
X124915948Y-104742179D01*
X124791009Y-104570213D01*
X124640686Y-104419890D01*
X124468720Y-104294951D01*
X124468015Y-104294591D01*
X124459954Y-104290485D01*
X124409159Y-104242512D01*
X124392363Y-104174692D01*
X124414899Y-104108556D01*
X124459954Y-104069515D01*
X124468716Y-104065051D01*
X124490689Y-104049086D01*
X124640686Y-103940109D01*
X124640688Y-103940106D01*
X124640692Y-103940104D01*
X124791004Y-103789792D01*
X124791006Y-103789788D01*
X124791009Y-103789786D01*
X124915948Y-103617820D01*
X124915947Y-103617820D01*
X124915951Y-103617816D01*
X125012457Y-103428412D01*
X125078146Y-103226243D01*
X125111400Y-103016287D01*
X125111400Y-102803713D01*
X125078146Y-102593757D01*
X125012457Y-102391588D01*
X124915951Y-102202184D01*
X124915949Y-102202181D01*
X124915948Y-102202179D01*
X124791009Y-102030213D01*
X124640686Y-101879890D01*
X124468720Y-101754951D01*
X124468015Y-101754591D01*
X124459954Y-101750485D01*
X124409159Y-101702512D01*
X124392363Y-101634692D01*
X124414899Y-101568556D01*
X124459954Y-101529515D01*
X124468716Y-101525051D01*
X124490689Y-101509086D01*
X124640686Y-101400109D01*
X124640688Y-101400106D01*
X124640692Y-101400104D01*
X124791004Y-101249792D01*
X124791006Y-101249788D01*
X124791009Y-101249786D01*
X124915948Y-101077820D01*
X124915947Y-101077820D01*
X124915951Y-101077816D01*
X125012457Y-100888412D01*
X125078146Y-100686243D01*
X125111400Y-100476287D01*
X125111400Y-100263713D01*
X125078146Y-100053757D01*
X125012457Y-99851588D01*
X124915951Y-99662184D01*
X124915949Y-99662181D01*
X124915948Y-99662179D01*
X124791009Y-99490213D01*
X124640686Y-99339890D01*
X124468720Y-99214951D01*
X124468015Y-99214591D01*
X124459954Y-99210485D01*
X124409159Y-99162512D01*
X124392363Y-99094692D01*
X124414899Y-99028556D01*
X124459954Y-98989515D01*
X124468716Y-98985051D01*
X124490689Y-98969086D01*
X124640686Y-98860109D01*
X124640688Y-98860106D01*
X124640692Y-98860104D01*
X124791004Y-98709792D01*
X124791006Y-98709788D01*
X124791009Y-98709786D01*
X124915948Y-98537820D01*
X124915947Y-98537820D01*
X124915951Y-98537816D01*
X125012457Y-98348412D01*
X125078146Y-98146243D01*
X125111400Y-97936287D01*
X125111400Y-97723713D01*
X125078146Y-97513757D01*
X125012457Y-97311588D01*
X124915951Y-97122184D01*
X124915949Y-97122181D01*
X124915948Y-97122179D01*
X124791009Y-96950213D01*
X124640686Y-96799890D01*
X124468717Y-96674949D01*
X124459404Y-96670204D01*
X124408607Y-96622230D01*
X124391812Y-96554409D01*
X124414349Y-96488274D01*
X124459407Y-96449232D01*
X124468455Y-96444622D01*
X124522616Y-96405270D01*
X124522617Y-96405270D01*
X123890308Y-95772962D01*
X123953893Y-95755925D01*
X124067907Y-95690099D01*
X124160999Y-95597007D01*
X124226825Y-95482993D01*
X124243862Y-95419409D01*
X124876170Y-96051717D01*
X124876170Y-96051716D01*
X124915522Y-95997554D01*
X125011995Y-95808217D01*
X125077657Y-95606130D01*
X125077657Y-95606127D01*
X125110900Y-95396246D01*
X125110900Y-95183753D01*
X125077657Y-94973872D01*
X125077657Y-94973869D01*
X125011995Y-94771782D01*
X124915524Y-94582449D01*
X124876170Y-94528282D01*
X124876169Y-94528282D01*
X124243862Y-95160590D01*
X124226825Y-95097007D01*
X124160999Y-94982993D01*
X124067907Y-94889901D01*
X123953893Y-94824075D01*
X123890309Y-94807037D01*
X124560527Y-94136818D01*
X124621850Y-94103333D01*
X124648207Y-94100499D01*
X124658772Y-94100499D01*
X124718383Y-94094091D01*
X124853231Y-94043796D01*
X124968446Y-93957546D01*
X125054696Y-93842331D01*
X125104991Y-93707483D01*
X125111400Y-93647873D01*
X125111399Y-91852128D01*
X125104991Y-91792517D01*
X125054696Y-91657669D01*
X125054695Y-91657668D01*
X125054693Y-91657664D01*
X124968447Y-91542455D01*
X124968444Y-91542452D01*
X124853235Y-91456206D01*
X124853228Y-91456202D01*
X124718382Y-91405908D01*
X124718383Y-91405908D01*
X124658783Y-91399501D01*
X124658781Y-91399500D01*
X124658773Y-91399500D01*
X124658764Y-91399500D01*
X122863029Y-91399500D01*
X122863023Y-91399501D01*
X122803416Y-91405908D01*
X122668571Y-91456202D01*
X122668564Y-91456206D01*
X122553355Y-91542452D01*
X122553352Y-91542455D01*
X122467106Y-91657664D01*
X122467102Y-91657671D01*
X122416808Y-91792517D01*
X122410401Y-91852116D01*
X122410401Y-91852123D01*
X122410400Y-91852135D01*
X119151400Y-91852135D01*
X119151400Y-91763389D01*
X119124302Y-91592299D01*
X119070773Y-91427555D01*
X118992132Y-91273212D01*
X118890314Y-91133072D01*
X118767828Y-91010586D01*
X118627688Y-90908768D01*
X118473345Y-90830127D01*
X118308601Y-90776598D01*
X118308599Y-90776597D01*
X118308598Y-90776597D01*
X118177171Y-90755781D01*
X118137511Y-90749500D01*
X117164289Y-90749500D01*
X117124628Y-90755781D01*
X116993202Y-90776597D01*
X116828452Y-90830128D01*
X116674111Y-90908768D01*
X116594156Y-90966859D01*
X116533972Y-91010586D01*
X116533970Y-91010588D01*
X116533969Y-91010588D01*
X116411488Y-91133069D01*
X116411488Y-91133070D01*
X116411486Y-91133072D01*
X116367759Y-91193256D01*
X116309668Y-91273211D01*
X116231028Y-91427552D01*
X116177497Y-91592302D01*
X116167145Y-91657664D01*
X116150400Y-91763389D01*
X96291400Y-91763389D01*
X96264302Y-91592299D01*
X96210773Y-91427555D01*
X96132132Y-91273212D01*
X96030314Y-91133072D01*
X95907828Y-91010586D01*
X95767688Y-90908768D01*
X95613345Y-90830127D01*
X95448601Y-90776598D01*
X95448599Y-90776597D01*
X95448598Y-90776597D01*
X95317171Y-90755781D01*
X95277511Y-90749500D01*
X94304289Y-90749500D01*
X94264628Y-90755781D01*
X94133202Y-90776597D01*
X93968452Y-90830128D01*
X93814111Y-90908768D01*
X93734156Y-90966859D01*
X93673972Y-91010586D01*
X93673970Y-91010588D01*
X93673969Y-91010588D01*
X93551488Y-91133069D01*
X93551488Y-91133070D01*
X93551486Y-91133072D01*
X93507759Y-91193256D01*
X93449668Y-91273211D01*
X93371028Y-91427552D01*
X93317497Y-91592302D01*
X93307145Y-91657664D01*
X93290400Y-91763389D01*
X63075400Y-91763389D01*
X63075400Y-89223389D01*
X93290400Y-89223389D01*
X93290400Y-89396611D01*
X93317498Y-89567701D01*
X93371027Y-89732445D01*
X93449668Y-89886788D01*
X93551486Y-90026928D01*
X93673972Y-90149414D01*
X93814112Y-90251232D01*
X93968455Y-90329873D01*
X94133199Y-90383402D01*
X94304289Y-90410500D01*
X94304290Y-90410500D01*
X95277510Y-90410500D01*
X95277511Y-90410500D01*
X95448601Y-90383402D01*
X95613345Y-90329873D01*
X95767688Y-90251232D01*
X95907828Y-90149414D01*
X96030314Y-90026928D01*
X96132132Y-89886788D01*
X96210773Y-89732445D01*
X96264302Y-89567701D01*
X96291400Y-89396611D01*
X96291400Y-89223389D01*
X116150400Y-89223389D01*
X116150400Y-89396611D01*
X116177498Y-89567701D01*
X116231027Y-89732445D01*
X116309668Y-89886788D01*
X116411486Y-90026928D01*
X116533972Y-90149414D01*
X116674112Y-90251232D01*
X116828455Y-90329873D01*
X116993199Y-90383402D01*
X117164289Y-90410500D01*
X117164290Y-90410500D01*
X118137510Y-90410500D01*
X118137511Y-90410500D01*
X118308601Y-90383402D01*
X118473345Y-90329873D01*
X118627688Y-90251232D01*
X118767828Y-90149414D01*
X118890314Y-90026928D01*
X118992132Y-89886788D01*
X119070773Y-89732445D01*
X119124302Y-89567701D01*
X119151400Y-89396611D01*
X119151400Y-89223389D01*
X119124302Y-89052299D01*
X119070773Y-88887555D01*
X118992132Y-88733212D01*
X118890314Y-88593072D01*
X118767828Y-88470586D01*
X118627688Y-88368768D01*
X118473345Y-88290127D01*
X118308601Y-88236598D01*
X118308599Y-88236597D01*
X118308598Y-88236597D01*
X118177171Y-88215781D01*
X118137511Y-88209500D01*
X117164289Y-88209500D01*
X117124628Y-88215781D01*
X116993202Y-88236597D01*
X116828452Y-88290128D01*
X116674111Y-88368768D01*
X116619441Y-88408489D01*
X116533972Y-88470586D01*
X116533970Y-88470588D01*
X116533969Y-88470588D01*
X116411488Y-88593069D01*
X116411488Y-88593070D01*
X116411486Y-88593072D01*
X116367759Y-88653256D01*
X116309668Y-88733211D01*
X116231028Y-88887552D01*
X116177497Y-89052302D01*
X116150400Y-89223389D01*
X96291400Y-89223389D01*
X96264302Y-89052299D01*
X96210773Y-88887555D01*
X96132132Y-88733212D01*
X96030314Y-88593072D01*
X95907828Y-88470586D01*
X95767688Y-88368768D01*
X95613345Y-88290127D01*
X95448601Y-88236598D01*
X95448599Y-88236597D01*
X95448598Y-88236597D01*
X95317171Y-88215781D01*
X95277511Y-88209500D01*
X94304289Y-88209500D01*
X94264628Y-88215781D01*
X94133202Y-88236597D01*
X93968452Y-88290128D01*
X93814111Y-88368768D01*
X93759441Y-88408489D01*
X93673972Y-88470586D01*
X93673970Y-88470588D01*
X93673969Y-88470588D01*
X93551488Y-88593069D01*
X93551488Y-88593070D01*
X93551486Y-88593072D01*
X93507759Y-88653256D01*
X93449668Y-88733211D01*
X93371028Y-88887552D01*
X93317497Y-89052302D01*
X93290400Y-89223389D01*
X63075400Y-89223389D01*
X63075400Y-83902135D01*
X67020400Y-83902135D01*
X67020400Y-85697870D01*
X67020401Y-85697876D01*
X67026808Y-85757483D01*
X67077102Y-85892328D01*
X67077106Y-85892335D01*
X67163352Y-86007544D01*
X67163355Y-86007547D01*
X67278564Y-86093793D01*
X67278571Y-86093797D01*
X67413417Y-86144091D01*
X67413416Y-86144091D01*
X67420344Y-86144835D01*
X67473027Y-86150500D01*
X69268772Y-86150499D01*
X69328383Y-86144091D01*
X69463231Y-86093796D01*
X69578446Y-86007546D01*
X69664696Y-85892331D01*
X69713710Y-85760916D01*
X69755581Y-85704984D01*
X69821045Y-85680566D01*
X69889318Y-85695417D01*
X69917573Y-85716569D01*
X70031113Y-85830109D01*
X70203079Y-85955048D01*
X70203081Y-85955049D01*
X70203084Y-85955051D01*
X70392488Y-86051557D01*
X70594657Y-86117246D01*
X70804613Y-86150500D01*
X70804614Y-86150500D01*
X71017186Y-86150500D01*
X71017187Y-86150500D01*
X71227143Y-86117246D01*
X71429312Y-86051557D01*
X71618716Y-85955051D01*
X71705038Y-85892335D01*
X71790686Y-85830109D01*
X71790688Y-85830106D01*
X71790692Y-85830104D01*
X71941004Y-85679792D01*
X71941006Y-85679788D01*
X71941009Y-85679786D01*
X72065948Y-85507820D01*
X72065947Y-85507820D01*
X72065951Y-85507816D01*
X72070414Y-85499054D01*
X72118388Y-85448259D01*
X72186208Y-85431463D01*
X72252344Y-85453999D01*
X72291386Y-85499056D01*
X72295851Y-85507820D01*
X72420790Y-85679786D01*
X72571113Y-85830109D01*
X72743079Y-85955048D01*
X72743081Y-85955049D01*
X72743084Y-85955051D01*
X72932488Y-86051557D01*
X73134657Y-86117246D01*
X73344613Y-86150500D01*
X73344614Y-86150500D01*
X73557186Y-86150500D01*
X73557187Y-86150500D01*
X73767143Y-86117246D01*
X73969312Y-86051557D01*
X74158716Y-85955051D01*
X74245038Y-85892335D01*
X74330686Y-85830109D01*
X74330688Y-85830106D01*
X74330692Y-85830104D01*
X74481004Y-85679792D01*
X74481006Y-85679788D01*
X74481009Y-85679786D01*
X74605948Y-85507820D01*
X74605947Y-85507820D01*
X74605951Y-85507816D01*
X74610414Y-85499054D01*
X74658388Y-85448259D01*
X74726208Y-85431463D01*
X74792344Y-85453999D01*
X74831386Y-85499056D01*
X74835851Y-85507820D01*
X74960790Y-85679786D01*
X75111113Y-85830109D01*
X75283079Y-85955048D01*
X75283081Y-85955049D01*
X75283084Y-85955051D01*
X75472488Y-86051557D01*
X75674657Y-86117246D01*
X75884613Y-86150500D01*
X75884614Y-86150500D01*
X76097186Y-86150500D01*
X76097187Y-86150500D01*
X76307143Y-86117246D01*
X76509312Y-86051557D01*
X76698716Y-85955051D01*
X76785038Y-85892335D01*
X76870686Y-85830109D01*
X76870688Y-85830106D01*
X76870692Y-85830104D01*
X77021004Y-85679792D01*
X77021006Y-85679788D01*
X77021009Y-85679786D01*
X77145948Y-85507820D01*
X77145947Y-85507820D01*
X77145951Y-85507816D01*
X77150414Y-85499054D01*
X77198388Y-85448259D01*
X77266208Y-85431463D01*
X77332344Y-85453999D01*
X77371386Y-85499056D01*
X77375851Y-85507820D01*
X77500790Y-85679786D01*
X77651113Y-85830109D01*
X77823079Y-85955048D01*
X77823081Y-85955049D01*
X77823084Y-85955051D01*
X78012488Y-86051557D01*
X78214657Y-86117246D01*
X78424613Y-86150500D01*
X78424614Y-86150500D01*
X78637186Y-86150500D01*
X78637187Y-86150500D01*
X78847143Y-86117246D01*
X79049312Y-86051557D01*
X79238716Y-85955051D01*
X79325038Y-85892335D01*
X79410686Y-85830109D01*
X79410688Y-85830106D01*
X79410692Y-85830104D01*
X79561004Y-85679792D01*
X79561006Y-85679788D01*
X79561009Y-85679786D01*
X79685948Y-85507820D01*
X79685947Y-85507820D01*
X79685951Y-85507816D01*
X79690414Y-85499054D01*
X79738388Y-85448259D01*
X79806208Y-85431463D01*
X79872344Y-85453999D01*
X79911386Y-85499056D01*
X79915851Y-85507820D01*
X80040790Y-85679786D01*
X80191113Y-85830109D01*
X80363079Y-85955048D01*
X80363081Y-85955049D01*
X80363084Y-85955051D01*
X80552488Y-86051557D01*
X80754657Y-86117246D01*
X80964613Y-86150500D01*
X80964614Y-86150500D01*
X81177186Y-86150500D01*
X81177187Y-86150500D01*
X81387143Y-86117246D01*
X81589312Y-86051557D01*
X81778716Y-85955051D01*
X81865038Y-85892335D01*
X81950686Y-85830109D01*
X81950688Y-85830106D01*
X81950692Y-85830104D01*
X82101004Y-85679792D01*
X82101006Y-85679788D01*
X82101009Y-85679786D01*
X82225948Y-85507820D01*
X82225947Y-85507820D01*
X82225951Y-85507816D01*
X82230414Y-85499054D01*
X82278388Y-85448259D01*
X82346208Y-85431463D01*
X82412344Y-85453999D01*
X82451386Y-85499056D01*
X82455851Y-85507820D01*
X82580790Y-85679786D01*
X82731113Y-85830109D01*
X82903079Y-85955048D01*
X82903081Y-85955049D01*
X82903084Y-85955051D01*
X83092488Y-86051557D01*
X83294657Y-86117246D01*
X83504613Y-86150500D01*
X83504614Y-86150500D01*
X83717186Y-86150500D01*
X83717187Y-86150500D01*
X83927143Y-86117246D01*
X84129312Y-86051557D01*
X84318716Y-85955051D01*
X84405038Y-85892335D01*
X84490686Y-85830109D01*
X84490688Y-85830106D01*
X84490692Y-85830104D01*
X84641004Y-85679792D01*
X84641006Y-85679788D01*
X84641009Y-85679786D01*
X84726790Y-85561717D01*
X84765951Y-85507816D01*
X84770693Y-85498508D01*
X84818663Y-85447711D01*
X84886483Y-85430911D01*
X84952619Y-85453445D01*
X84991663Y-85498500D01*
X84996273Y-85507547D01*
X85035628Y-85561716D01*
X85667937Y-84929408D01*
X85684975Y-84992993D01*
X85750801Y-85107007D01*
X85843893Y-85200099D01*
X85957907Y-85265925D01*
X86021490Y-85282962D01*
X85389182Y-85915269D01*
X85389182Y-85915270D01*
X85443349Y-85954624D01*
X85632682Y-86051095D01*
X85834770Y-86116757D01*
X86044654Y-86150000D01*
X86257146Y-86150000D01*
X86467027Y-86116757D01*
X86467030Y-86116757D01*
X86669117Y-86051095D01*
X86858454Y-85954622D01*
X86912616Y-85915270D01*
X86912617Y-85915270D01*
X86280308Y-85282962D01*
X86343893Y-85265925D01*
X86457907Y-85200099D01*
X86550999Y-85107007D01*
X86616825Y-84992993D01*
X86633862Y-84929408D01*
X87266170Y-85561717D01*
X87266170Y-85561716D01*
X87305522Y-85507554D01*
X87401995Y-85318217D01*
X87467657Y-85116130D01*
X87467657Y-85116127D01*
X87500900Y-84906246D01*
X87500900Y-84693753D01*
X87467657Y-84483872D01*
X87467657Y-84483869D01*
X87401994Y-84281779D01*
X87401992Y-84281775D01*
X87345734Y-84171363D01*
X87345732Y-84171361D01*
X87320150Y-84121153D01*
X87870400Y-84121153D01*
X87870400Y-84278846D01*
X87901161Y-84433489D01*
X87901164Y-84433501D01*
X87961502Y-84579172D01*
X87961509Y-84579185D01*
X88049110Y-84710288D01*
X88049113Y-84710292D01*
X88160607Y-84821786D01*
X88160611Y-84821789D01*
X88291714Y-84909390D01*
X88291727Y-84909397D01*
X88379130Y-84945599D01*
X88437403Y-84969737D01*
X88548616Y-84991858D01*
X88610523Y-85024241D01*
X88612103Y-85025793D01*
X90295105Y-86708796D01*
X90328590Y-86770119D01*
X90329041Y-86772286D01*
X90351161Y-86883489D01*
X90351164Y-86883501D01*
X90411502Y-87029172D01*
X90411509Y-87029185D01*
X90499110Y-87160288D01*
X90499113Y-87160292D01*
X90610607Y-87271786D01*
X90610615Y-87271792D01*
X90704395Y-87334454D01*
X90725430Y-87359623D01*
X90747361Y-87384037D01*
X90747728Y-87386304D01*
X90749201Y-87388066D01*
X90753288Y-87420608D01*
X90758539Y-87453006D01*
X90757621Y-87455113D01*
X90757908Y-87457391D01*
X90743748Y-87486986D01*
X90730654Y-87517071D01*
X90728376Y-87519116D01*
X90727754Y-87520418D01*
X90704398Y-87540656D01*
X90685027Y-87553600D01*
X90618350Y-87574480D01*
X90616134Y-87574500D01*
X89213250Y-87574500D01*
X89146211Y-87554815D01*
X89144359Y-87553602D01*
X89050084Y-87490609D01*
X89050072Y-87490602D01*
X88904401Y-87430264D01*
X88904389Y-87430261D01*
X88749745Y-87399500D01*
X88749742Y-87399500D01*
X88592058Y-87399500D01*
X88592055Y-87399500D01*
X88437410Y-87430261D01*
X88437398Y-87430264D01*
X88291727Y-87490602D01*
X88291714Y-87490609D01*
X88160611Y-87578210D01*
X88160607Y-87578213D01*
X88049113Y-87689707D01*
X88049110Y-87689711D01*
X87961509Y-87820814D01*
X87961502Y-87820827D01*
X87901164Y-87966498D01*
X87901161Y-87966510D01*
X87870400Y-88121153D01*
X87870400Y-88278846D01*
X87901161Y-88433489D01*
X87901164Y-88433501D01*
X87961502Y-88579172D01*
X87961509Y-88579185D01*
X88049110Y-88710288D01*
X88049113Y-88710292D01*
X88160607Y-88821786D01*
X88160611Y-88821789D01*
X88291714Y-88909390D01*
X88291727Y-88909397D01*
X88437398Y-88969735D01*
X88437403Y-88969737D01*
X88592053Y-89000499D01*
X88592056Y-89000500D01*
X88592058Y-89000500D01*
X88749744Y-89000500D01*
X88749745Y-89000499D01*
X88904397Y-88969737D01*
X89050079Y-88909394D01*
X89144359Y-88846398D01*
X89211036Y-88825520D01*
X89213250Y-88825500D01*
X90690965Y-88825500D01*
X90758004Y-88845185D01*
X90759809Y-88846366D01*
X90816721Y-88884394D01*
X90816723Y-88884395D01*
X90816727Y-88884397D01*
X90962398Y-88944735D01*
X90962403Y-88944737D01*
X91088076Y-88969735D01*
X91117053Y-88975499D01*
X91117056Y-88975500D01*
X91117058Y-88975500D01*
X91274744Y-88975500D01*
X91274745Y-88975499D01*
X91429397Y-88944737D01*
X91575079Y-88884394D01*
X91706189Y-88796789D01*
X91817689Y-88685289D01*
X91905294Y-88554179D01*
X91965637Y-88408497D01*
X91996400Y-88253842D01*
X91996400Y-88096158D01*
X91996400Y-88096155D01*
X91996399Y-88096153D01*
X91965638Y-87941510D01*
X91965637Y-87941503D01*
X91915652Y-87820827D01*
X91905297Y-87795827D01*
X91905290Y-87795814D01*
X91817689Y-87664711D01*
X91817686Y-87664707D01*
X91706189Y-87553210D01*
X91612403Y-87490545D01*
X91567598Y-87436933D01*
X91558891Y-87367608D01*
X91589045Y-87304581D01*
X91612399Y-87284343D01*
X91631189Y-87271789D01*
X91742689Y-87160289D01*
X91830294Y-87029179D01*
X91890637Y-86883497D01*
X91921400Y-86728842D01*
X91921400Y-86683389D01*
X93290400Y-86683389D01*
X93290400Y-86856611D01*
X93317498Y-87027701D01*
X93371027Y-87192445D01*
X93449668Y-87346788D01*
X93551486Y-87486928D01*
X93673972Y-87609414D01*
X93814112Y-87711232D01*
X93968455Y-87789873D01*
X94133199Y-87843402D01*
X94304289Y-87870500D01*
X94304290Y-87870500D01*
X95277510Y-87870500D01*
X95277511Y-87870500D01*
X95448601Y-87843402D01*
X95613345Y-87789873D01*
X95767688Y-87711232D01*
X95907828Y-87609414D01*
X96030314Y-87486928D01*
X96132132Y-87346788D01*
X96210773Y-87192445D01*
X96264302Y-87027701D01*
X96291400Y-86856611D01*
X96291400Y-86683389D01*
X116150400Y-86683389D01*
X116150400Y-86856611D01*
X116177498Y-87027701D01*
X116231027Y-87192445D01*
X116309668Y-87346788D01*
X116411486Y-87486928D01*
X116533972Y-87609414D01*
X116674112Y-87711232D01*
X116828455Y-87789873D01*
X116993199Y-87843402D01*
X117164289Y-87870500D01*
X117164290Y-87870500D01*
X118137510Y-87870500D01*
X118137511Y-87870500D01*
X118308601Y-87843402D01*
X118473345Y-87789873D01*
X118627688Y-87711232D01*
X118767828Y-87609414D01*
X118890314Y-87486928D01*
X118992132Y-87346788D01*
X119070773Y-87192445D01*
X119124302Y-87027701D01*
X119151400Y-86856611D01*
X119151400Y-86683389D01*
X119124302Y-86512299D01*
X119070773Y-86347555D01*
X118992132Y-86193212D01*
X118890314Y-86053072D01*
X118767828Y-85930586D01*
X118627688Y-85828768D01*
X118473345Y-85750127D01*
X118308601Y-85696598D01*
X118308599Y-85696597D01*
X118308598Y-85696597D01*
X118177171Y-85675781D01*
X118137511Y-85669500D01*
X117164289Y-85669500D01*
X117124628Y-85675781D01*
X116993202Y-85696597D01*
X116828452Y-85750128D01*
X116674111Y-85828768D01*
X116603238Y-85880261D01*
X116533972Y-85930586D01*
X116533970Y-85930588D01*
X116533969Y-85930588D01*
X116411488Y-86053069D01*
X116411488Y-86053070D01*
X116411486Y-86053072D01*
X116367759Y-86113256D01*
X116309668Y-86193211D01*
X116231028Y-86347552D01*
X116177497Y-86512302D01*
X116150400Y-86683389D01*
X96291400Y-86683389D01*
X96264302Y-86512299D01*
X96210773Y-86347555D01*
X96132132Y-86193212D01*
X96030314Y-86053072D01*
X95907828Y-85930586D01*
X95767688Y-85828768D01*
X95613345Y-85750127D01*
X95448601Y-85696598D01*
X95448599Y-85696597D01*
X95448598Y-85696597D01*
X95317171Y-85675781D01*
X95277511Y-85669500D01*
X94304289Y-85669500D01*
X94264628Y-85675781D01*
X94133202Y-85696597D01*
X93968452Y-85750128D01*
X93814111Y-85828768D01*
X93743238Y-85880261D01*
X93673972Y-85930586D01*
X93673970Y-85930588D01*
X93673969Y-85930588D01*
X93551488Y-86053069D01*
X93551488Y-86053070D01*
X93551486Y-86053072D01*
X93507759Y-86113256D01*
X93449668Y-86193211D01*
X93371028Y-86347552D01*
X93317497Y-86512302D01*
X93290400Y-86683389D01*
X91921400Y-86683389D01*
X91921400Y-86571158D01*
X91921400Y-86571155D01*
X91921399Y-86571153D01*
X91890638Y-86416510D01*
X91890637Y-86416503D01*
X91862077Y-86347552D01*
X91830297Y-86270827D01*
X91830290Y-86270814D01*
X91742689Y-86139711D01*
X91742686Y-86139707D01*
X91631192Y-86028213D01*
X91631188Y-86028210D01*
X91500085Y-85940609D01*
X91500072Y-85940602D01*
X91354401Y-85880264D01*
X91354389Y-85880261D01*
X91243186Y-85858141D01*
X91181275Y-85825756D01*
X91179696Y-85824205D01*
X90381284Y-85025793D01*
X89498879Y-84143389D01*
X93290400Y-84143389D01*
X93290400Y-84316610D01*
X93316891Y-84483872D01*
X93317498Y-84487701D01*
X93371027Y-84652445D01*
X93449668Y-84806788D01*
X93551486Y-84946928D01*
X93673972Y-85069414D01*
X93814112Y-85171232D01*
X93968455Y-85249873D01*
X94133199Y-85303402D01*
X94304289Y-85330500D01*
X94304290Y-85330500D01*
X95277510Y-85330500D01*
X95277511Y-85330500D01*
X95448601Y-85303402D01*
X95613345Y-85249873D01*
X95767688Y-85171232D01*
X95907828Y-85069414D01*
X96030314Y-84946928D01*
X96132132Y-84806788D01*
X96210773Y-84652445D01*
X96264302Y-84487701D01*
X96291400Y-84316611D01*
X96291400Y-84143389D01*
X116150400Y-84143389D01*
X116150400Y-84316610D01*
X116176891Y-84483872D01*
X116177498Y-84487701D01*
X116231027Y-84652445D01*
X116309668Y-84806788D01*
X116411486Y-84946928D01*
X116533972Y-85069414D01*
X116674112Y-85171232D01*
X116828455Y-85249873D01*
X116993199Y-85303402D01*
X117164289Y-85330500D01*
X117164290Y-85330500D01*
X118137510Y-85330500D01*
X118137511Y-85330500D01*
X118308601Y-85303402D01*
X118473345Y-85249873D01*
X118627688Y-85171232D01*
X118767828Y-85069414D01*
X118890314Y-84946928D01*
X118992132Y-84806788D01*
X119070773Y-84652445D01*
X119124302Y-84487701D01*
X119151400Y-84316611D01*
X119151400Y-84143389D01*
X119124302Y-83972299D01*
X119070773Y-83807555D01*
X118992132Y-83653212D01*
X118890314Y-83513072D01*
X118767828Y-83390586D01*
X118627688Y-83288768D01*
X118473345Y-83210127D01*
X118308601Y-83156598D01*
X118308599Y-83156597D01*
X118308598Y-83156597D01*
X118177171Y-83135781D01*
X118137511Y-83129500D01*
X117164289Y-83129500D01*
X117124628Y-83135781D01*
X116993202Y-83156597D01*
X116828452Y-83210128D01*
X116674111Y-83288768D01*
X116594156Y-83346859D01*
X116533972Y-83390586D01*
X116533970Y-83390588D01*
X116533969Y-83390588D01*
X116411488Y-83513069D01*
X116411488Y-83513070D01*
X116411486Y-83513072D01*
X116367759Y-83573256D01*
X116309668Y-83653211D01*
X116231028Y-83807552D01*
X116177497Y-83972302D01*
X116150400Y-84143389D01*
X96291400Y-84143389D01*
X96264302Y-83972299D01*
X96210773Y-83807555D01*
X96132132Y-83653212D01*
X96030314Y-83513072D01*
X95907828Y-83390586D01*
X95767688Y-83288768D01*
X95613345Y-83210127D01*
X95448601Y-83156598D01*
X95448599Y-83156597D01*
X95448598Y-83156597D01*
X95317171Y-83135781D01*
X95277511Y-83129500D01*
X94304289Y-83129500D01*
X94264628Y-83135781D01*
X94133202Y-83156597D01*
X93968452Y-83210128D01*
X93814111Y-83288768D01*
X93734156Y-83346859D01*
X93673972Y-83390586D01*
X93673970Y-83390588D01*
X93673969Y-83390588D01*
X93551488Y-83513069D01*
X93551488Y-83513070D01*
X93551486Y-83513072D01*
X93507759Y-83573256D01*
X93449668Y-83653211D01*
X93371028Y-83807552D01*
X93317497Y-83972302D01*
X93290400Y-84143389D01*
X89498879Y-84143389D01*
X89496692Y-84141202D01*
X89463208Y-84079880D01*
X89462787Y-84077864D01*
X89440637Y-83966503D01*
X89387858Y-83839082D01*
X89380297Y-83820827D01*
X89380290Y-83820814D01*
X89292689Y-83689711D01*
X89292686Y-83689707D01*
X89181192Y-83578213D01*
X89181188Y-83578210D01*
X89050085Y-83490609D01*
X89050072Y-83490602D01*
X88904401Y-83430264D01*
X88904389Y-83430261D01*
X88749745Y-83399500D01*
X88749742Y-83399500D01*
X88592058Y-83399500D01*
X88592055Y-83399500D01*
X88437410Y-83430261D01*
X88437398Y-83430264D01*
X88291727Y-83490602D01*
X88291714Y-83490609D01*
X88160611Y-83578210D01*
X88160607Y-83578213D01*
X88049113Y-83689707D01*
X88049110Y-83689711D01*
X87961509Y-83820814D01*
X87961502Y-83820827D01*
X87901164Y-83966498D01*
X87901161Y-83966510D01*
X87870400Y-84121153D01*
X87320150Y-84121153D01*
X87305524Y-84092449D01*
X87266170Y-84038282D01*
X87266169Y-84038282D01*
X86633862Y-84670590D01*
X86616825Y-84607007D01*
X86550999Y-84492993D01*
X86457907Y-84399901D01*
X86343893Y-84334075D01*
X86280309Y-84317037D01*
X86912616Y-83684728D01*
X86858450Y-83645375D01*
X86669117Y-83548904D01*
X86467029Y-83483242D01*
X86257146Y-83450000D01*
X86044654Y-83450000D01*
X85834772Y-83483242D01*
X85834769Y-83483242D01*
X85632682Y-83548904D01*
X85443339Y-83645380D01*
X85389182Y-83684727D01*
X85389182Y-83684728D01*
X86021491Y-84317037D01*
X85957907Y-84334075D01*
X85843893Y-84399901D01*
X85750801Y-84492993D01*
X85684975Y-84607007D01*
X85667937Y-84670591D01*
X85035628Y-84038282D01*
X85035627Y-84038282D01*
X84996280Y-84092440D01*
X84996276Y-84092446D01*
X84991660Y-84101505D01*
X84943681Y-84152297D01*
X84875859Y-84169087D01*
X84809726Y-84146543D01*
X84770694Y-84101493D01*
X84765951Y-84092184D01*
X84765949Y-84092181D01*
X84765948Y-84092179D01*
X84641009Y-83920213D01*
X84490686Y-83769890D01*
X84318720Y-83644951D01*
X84129314Y-83548444D01*
X84129313Y-83548443D01*
X84129312Y-83548443D01*
X83927143Y-83482754D01*
X83927141Y-83482753D01*
X83927140Y-83482753D01*
X83765857Y-83457208D01*
X83717187Y-83449500D01*
X83504613Y-83449500D01*
X83455942Y-83457208D01*
X83294660Y-83482753D01*
X83092485Y-83548444D01*
X82903079Y-83644951D01*
X82731113Y-83769890D01*
X82580790Y-83920213D01*
X82455849Y-84092182D01*
X82451384Y-84100946D01*
X82403409Y-84151742D01*
X82335588Y-84168536D01*
X82269453Y-84145998D01*
X82230416Y-84100946D01*
X82225950Y-84092182D01*
X82101009Y-83920213D01*
X81950686Y-83769890D01*
X81778720Y-83644951D01*
X81589314Y-83548444D01*
X81589313Y-83548443D01*
X81589312Y-83548443D01*
X81387143Y-83482754D01*
X81387141Y-83482753D01*
X81387140Y-83482753D01*
X81225857Y-83457208D01*
X81177187Y-83449500D01*
X80964613Y-83449500D01*
X80915942Y-83457208D01*
X80754660Y-83482753D01*
X80552485Y-83548444D01*
X80363079Y-83644951D01*
X80191113Y-83769890D01*
X80040790Y-83920213D01*
X79915849Y-84092182D01*
X79911384Y-84100946D01*
X79863409Y-84151742D01*
X79795588Y-84168536D01*
X79729453Y-84145998D01*
X79690416Y-84100946D01*
X79685950Y-84092182D01*
X79561009Y-83920213D01*
X79410686Y-83769890D01*
X79238720Y-83644951D01*
X79049314Y-83548444D01*
X79049313Y-83548443D01*
X79049312Y-83548443D01*
X78847143Y-83482754D01*
X78847141Y-83482753D01*
X78847140Y-83482753D01*
X78685857Y-83457208D01*
X78637187Y-83449500D01*
X78424613Y-83449500D01*
X78375942Y-83457208D01*
X78214660Y-83482753D01*
X78012485Y-83548444D01*
X77823079Y-83644951D01*
X77651113Y-83769890D01*
X77500790Y-83920213D01*
X77375849Y-84092182D01*
X77371384Y-84100946D01*
X77323409Y-84151742D01*
X77255588Y-84168536D01*
X77189453Y-84145998D01*
X77150416Y-84100946D01*
X77145950Y-84092182D01*
X77021009Y-83920213D01*
X76870686Y-83769890D01*
X76698720Y-83644951D01*
X76509314Y-83548444D01*
X76509313Y-83548443D01*
X76509312Y-83548443D01*
X76307143Y-83482754D01*
X76307141Y-83482753D01*
X76307140Y-83482753D01*
X76145857Y-83457208D01*
X76097187Y-83449500D01*
X75884613Y-83449500D01*
X75835942Y-83457208D01*
X75674660Y-83482753D01*
X75472485Y-83548444D01*
X75283079Y-83644951D01*
X75111113Y-83769890D01*
X74960790Y-83920213D01*
X74835849Y-84092182D01*
X74831384Y-84100946D01*
X74783409Y-84151742D01*
X74715588Y-84168536D01*
X74649453Y-84145998D01*
X74610416Y-84100946D01*
X74605950Y-84092182D01*
X74481009Y-83920213D01*
X74330686Y-83769890D01*
X74158720Y-83644951D01*
X73969314Y-83548444D01*
X73969313Y-83548443D01*
X73969312Y-83548443D01*
X73767143Y-83482754D01*
X73767141Y-83482753D01*
X73767140Y-83482753D01*
X73605857Y-83457208D01*
X73557187Y-83449500D01*
X73344613Y-83449500D01*
X73295942Y-83457208D01*
X73134660Y-83482753D01*
X72932485Y-83548444D01*
X72743079Y-83644951D01*
X72571113Y-83769890D01*
X72420790Y-83920213D01*
X72295849Y-84092182D01*
X72291384Y-84100946D01*
X72243409Y-84151742D01*
X72175588Y-84168536D01*
X72109453Y-84145998D01*
X72070416Y-84100946D01*
X72065950Y-84092182D01*
X71941009Y-83920213D01*
X71790686Y-83769890D01*
X71618720Y-83644951D01*
X71429314Y-83548444D01*
X71429313Y-83548443D01*
X71429312Y-83548443D01*
X71227143Y-83482754D01*
X71227141Y-83482753D01*
X71227140Y-83482753D01*
X71065857Y-83457208D01*
X71017187Y-83449500D01*
X70804613Y-83449500D01*
X70755942Y-83457208D01*
X70594660Y-83482753D01*
X70392485Y-83548444D01*
X70203079Y-83644951D01*
X70031115Y-83769889D01*
X69917573Y-83883431D01*
X69856250Y-83916915D01*
X69786558Y-83911931D01*
X69730625Y-83870059D01*
X69713710Y-83839082D01*
X69664697Y-83707671D01*
X69664693Y-83707664D01*
X69578447Y-83592455D01*
X69578444Y-83592452D01*
X69463235Y-83506206D01*
X69463228Y-83506202D01*
X69328382Y-83455908D01*
X69328383Y-83455908D01*
X69268783Y-83449501D01*
X69268781Y-83449500D01*
X69268773Y-83449500D01*
X69268764Y-83449500D01*
X67473029Y-83449500D01*
X67473023Y-83449501D01*
X67413416Y-83455908D01*
X67278571Y-83506202D01*
X67278564Y-83506206D01*
X67163355Y-83592452D01*
X67163352Y-83592455D01*
X67077106Y-83707664D01*
X67077102Y-83707671D01*
X67026808Y-83842517D01*
X67020401Y-83902116D01*
X67020400Y-83902135D01*
X63075400Y-83902135D01*
X63075400Y-81603389D01*
X93290400Y-81603389D01*
X93290400Y-81776611D01*
X93317498Y-81947701D01*
X93371027Y-82112445D01*
X93449668Y-82266788D01*
X93551486Y-82406928D01*
X93673972Y-82529414D01*
X93814112Y-82631232D01*
X93968455Y-82709873D01*
X94133199Y-82763402D01*
X94304289Y-82790500D01*
X94304290Y-82790500D01*
X95277510Y-82790500D01*
X95277511Y-82790500D01*
X95448601Y-82763402D01*
X95613345Y-82709873D01*
X95767688Y-82631232D01*
X95907828Y-82529414D01*
X96030314Y-82406928D01*
X96132132Y-82266788D01*
X96210773Y-82112445D01*
X96264302Y-81947701D01*
X96291400Y-81776611D01*
X96291400Y-81603389D01*
X116150400Y-81603389D01*
X116150400Y-81776611D01*
X116177498Y-81947701D01*
X116231027Y-82112445D01*
X116309668Y-82266788D01*
X116411486Y-82406928D01*
X116533972Y-82529414D01*
X116674112Y-82631232D01*
X116828455Y-82709873D01*
X116993199Y-82763402D01*
X117164289Y-82790500D01*
X117164290Y-82790500D01*
X118137510Y-82790500D01*
X118137511Y-82790500D01*
X118308601Y-82763402D01*
X118473345Y-82709873D01*
X118627688Y-82631232D01*
X118767828Y-82529414D01*
X118890314Y-82406928D01*
X118992132Y-82266788D01*
X119070773Y-82112445D01*
X119124302Y-81947701D01*
X119151400Y-81776611D01*
X119151400Y-81603389D01*
X119124302Y-81432299D01*
X119070773Y-81267555D01*
X118992132Y-81113212D01*
X118890314Y-80973072D01*
X118767828Y-80850586D01*
X118627688Y-80748768D01*
X118473345Y-80670127D01*
X118308601Y-80616598D01*
X118308599Y-80616597D01*
X118308598Y-80616597D01*
X118154457Y-80592184D01*
X118137511Y-80589500D01*
X117164289Y-80589500D01*
X117147343Y-80592184D01*
X116993202Y-80616597D01*
X116828452Y-80670128D01*
X116674111Y-80748768D01*
X116628943Y-80781585D01*
X116533972Y-80850586D01*
X116533970Y-80850588D01*
X116533969Y-80850588D01*
X116411488Y-80973069D01*
X116411488Y-80973070D01*
X116411486Y-80973072D01*
X116403723Y-80983757D01*
X116309668Y-81113211D01*
X116231028Y-81267552D01*
X116177497Y-81432302D01*
X116150400Y-81603389D01*
X96291400Y-81603389D01*
X96264302Y-81432299D01*
X96210773Y-81267555D01*
X96132132Y-81113212D01*
X96030314Y-80973072D01*
X95907828Y-80850586D01*
X95767688Y-80748768D01*
X95613345Y-80670127D01*
X95448601Y-80616598D01*
X95448599Y-80616597D01*
X95448598Y-80616597D01*
X95294457Y-80592184D01*
X95277511Y-80589500D01*
X94304289Y-80589500D01*
X94287343Y-80592184D01*
X94133202Y-80616597D01*
X93968452Y-80670128D01*
X93814111Y-80748768D01*
X93768943Y-80781585D01*
X93673972Y-80850586D01*
X93673970Y-80850588D01*
X93673969Y-80850588D01*
X93551488Y-80973069D01*
X93551488Y-80973070D01*
X93551486Y-80973072D01*
X93543723Y-80983757D01*
X93449668Y-81113211D01*
X93371028Y-81267552D01*
X93317497Y-81432302D01*
X93290400Y-81603389D01*
X63075400Y-81603389D01*
X63075400Y-78921153D01*
X86770400Y-78921153D01*
X86770400Y-79078846D01*
X86801161Y-79233489D01*
X86801164Y-79233501D01*
X86861502Y-79379172D01*
X86861509Y-79379185D01*
X86949110Y-79510288D01*
X86949113Y-79510292D01*
X87060607Y-79621786D01*
X87060611Y-79621789D01*
X87191714Y-79709390D01*
X87191727Y-79709397D01*
X87337398Y-79769735D01*
X87337403Y-79769737D01*
X87492053Y-79800499D01*
X87492056Y-79800500D01*
X87492058Y-79800500D01*
X87649744Y-79800500D01*
X87649745Y-79800499D01*
X87804397Y-79769737D01*
X87950079Y-79709394D01*
X88054255Y-79639786D01*
X88081775Y-79621398D01*
X88148453Y-79600520D01*
X88150666Y-79600500D01*
X90991134Y-79600500D01*
X91058173Y-79620185D01*
X91060025Y-79621398D01*
X91191714Y-79709390D01*
X91191727Y-79709397D01*
X91337398Y-79769735D01*
X91337403Y-79769737D01*
X91492053Y-79800499D01*
X91492056Y-79800500D01*
X91492058Y-79800500D01*
X91649744Y-79800500D01*
X91649745Y-79800499D01*
X91804397Y-79769737D01*
X91950079Y-79709394D01*
X92081189Y-79621789D01*
X92192689Y-79510289D01*
X92280294Y-79379179D01*
X92340637Y-79233497D01*
X92371400Y-79078842D01*
X92371400Y-79063389D01*
X93290400Y-79063389D01*
X93290400Y-79236610D01*
X93312981Y-79379185D01*
X93317498Y-79407701D01*
X93371027Y-79572445D01*
X93449668Y-79726788D01*
X93551486Y-79866928D01*
X93673972Y-79989414D01*
X93814112Y-80091232D01*
X93968455Y-80169873D01*
X94133199Y-80223402D01*
X94304289Y-80250500D01*
X94304290Y-80250500D01*
X95277510Y-80250500D01*
X95277511Y-80250500D01*
X95448601Y-80223402D01*
X95613345Y-80169873D01*
X95767688Y-80091232D01*
X95907828Y-79989414D01*
X96030314Y-79866928D01*
X96132132Y-79726788D01*
X96210773Y-79572445D01*
X96264302Y-79407701D01*
X96291400Y-79236611D01*
X96291400Y-79063389D01*
X96264302Y-78892299D01*
X96210773Y-78727555D01*
X96132132Y-78573212D01*
X96030314Y-78433072D01*
X95907828Y-78310586D01*
X95767688Y-78208768D01*
X95613345Y-78130127D01*
X95448601Y-78076598D01*
X95448599Y-78076597D01*
X95448598Y-78076597D01*
X95294457Y-78052184D01*
X95277511Y-78049500D01*
X94304289Y-78049500D01*
X94287343Y-78052184D01*
X94133202Y-78076597D01*
X93968452Y-78130128D01*
X93814111Y-78208768D01*
X93746960Y-78257557D01*
X93673972Y-78310586D01*
X93673970Y-78310588D01*
X93673969Y-78310588D01*
X93551488Y-78433069D01*
X93551488Y-78433070D01*
X93551486Y-78433072D01*
X93543723Y-78443757D01*
X93449668Y-78573211D01*
X93371028Y-78727552D01*
X93317497Y-78892302D01*
X93290400Y-79063389D01*
X92371400Y-79063389D01*
X92371400Y-78921158D01*
X92371400Y-78921155D01*
X92371399Y-78921153D01*
X92365660Y-78892302D01*
X92340637Y-78766503D01*
X92340635Y-78766498D01*
X92280297Y-78620827D01*
X92280290Y-78620814D01*
X92192689Y-78489711D01*
X92192686Y-78489707D01*
X92081192Y-78378213D01*
X92081188Y-78378210D01*
X91950085Y-78290609D01*
X91950072Y-78290602D01*
X91804401Y-78230264D01*
X91804389Y-78230261D01*
X91649745Y-78199500D01*
X91649742Y-78199500D01*
X91492058Y-78199500D01*
X91492055Y-78199500D01*
X91337410Y-78230261D01*
X91337398Y-78230264D01*
X91191727Y-78290602D01*
X91191714Y-78290609D01*
X91060025Y-78378602D01*
X90993347Y-78399480D01*
X90991134Y-78399500D01*
X88150666Y-78399500D01*
X88083627Y-78379815D01*
X88081775Y-78378602D01*
X87950085Y-78290609D01*
X87950072Y-78290602D01*
X87804401Y-78230264D01*
X87804389Y-78230261D01*
X87649745Y-78199500D01*
X87649742Y-78199500D01*
X87492058Y-78199500D01*
X87492055Y-78199500D01*
X87337410Y-78230261D01*
X87337398Y-78230264D01*
X87191727Y-78290602D01*
X87191714Y-78290609D01*
X87060611Y-78378210D01*
X87060607Y-78378213D01*
X86949113Y-78489707D01*
X86949110Y-78489711D01*
X86861509Y-78620814D01*
X86861502Y-78620827D01*
X86801164Y-78766498D01*
X86801161Y-78766510D01*
X86770400Y-78921153D01*
X63075400Y-78921153D01*
X63075400Y-71899983D01*
X68995400Y-71899983D01*
X68995400Y-73200001D01*
X68995401Y-73200018D01*
X69005900Y-73302796D01*
X69005901Y-73302799D01*
X69061085Y-73469331D01*
X69061087Y-73469336D01*
X69075813Y-73493211D01*
X69153188Y-73618656D01*
X69277244Y-73742712D01*
X69353435Y-73789707D01*
X69432020Y-73838178D01*
X69478745Y-73890126D01*
X69489968Y-73959088D01*
X69462124Y-74023171D01*
X69454606Y-74031398D01*
X69315789Y-74170215D01*
X69190851Y-74342179D01*
X69094344Y-74531585D01*
X69028653Y-74733760D01*
X69011903Y-74839516D01*
X68995400Y-74943713D01*
X68995400Y-75156287D01*
X69028654Y-75366243D01*
X69085017Y-75539711D01*
X69094344Y-75568414D01*
X69190851Y-75757820D01*
X69315790Y-75929786D01*
X69466109Y-76080105D01*
X69466114Y-76080109D01*
X69631118Y-76199991D01*
X69673784Y-76255320D01*
X69679763Y-76324934D01*
X69647158Y-76386729D01*
X69631118Y-76400627D01*
X69466440Y-76520272D01*
X69466435Y-76520276D01*
X69316176Y-76670535D01*
X69316172Y-76670540D01*
X69191279Y-76842442D01*
X69094804Y-77031782D01*
X69029142Y-77233870D01*
X69029142Y-77233873D01*
X69018669Y-77300000D01*
X70066754Y-77300000D01*
X70028270Y-77366657D01*
X69995900Y-77487465D01*
X69995900Y-77612535D01*
X70028270Y-77733343D01*
X70066754Y-77800000D01*
X69018669Y-77800000D01*
X69029142Y-77866126D01*
X69029142Y-77866129D01*
X69094804Y-78068217D01*
X69191279Y-78257557D01*
X69316172Y-78429459D01*
X69316176Y-78429464D01*
X69466435Y-78579723D01*
X69466440Y-78579727D01*
X69638342Y-78704620D01*
X69827682Y-78801095D01*
X70029772Y-78866757D01*
X70220900Y-78897029D01*
X70220900Y-77954145D01*
X70287557Y-77992630D01*
X70408365Y-78025000D01*
X70533435Y-78025000D01*
X70654243Y-77992630D01*
X70720900Y-77954145D01*
X70720900Y-78897028D01*
X70912027Y-78866757D01*
X71114115Y-78801096D01*
X71114118Y-78801094D01*
X71303457Y-78704620D01*
X71475359Y-78579727D01*
X71475364Y-78579723D01*
X71625623Y-78429464D01*
X71625627Y-78429459D01*
X71750520Y-78257557D01*
X71846995Y-78068217D01*
X71912657Y-77866129D01*
X71912657Y-77866126D01*
X71923131Y-77800000D01*
X70875046Y-77800000D01*
X70913530Y-77733343D01*
X70945900Y-77612535D01*
X70945900Y-77487465D01*
X70913530Y-77366657D01*
X70875046Y-77300000D01*
X71923131Y-77300000D01*
X71912657Y-77233873D01*
X71912657Y-77233870D01*
X71846995Y-77031782D01*
X71750520Y-76842442D01*
X71625627Y-76670540D01*
X71625623Y-76670535D01*
X71475364Y-76520276D01*
X71475362Y-76520275D01*
X71468632Y-76515385D01*
X71468631Y-76515384D01*
X71338933Y-76421153D01*
X83770400Y-76421153D01*
X83770400Y-76578846D01*
X83801161Y-76733489D01*
X83801164Y-76733501D01*
X83861502Y-76879172D01*
X83861509Y-76879185D01*
X83949110Y-77010288D01*
X83949113Y-77010292D01*
X84060607Y-77121786D01*
X84060611Y-77121789D01*
X84191714Y-77209390D01*
X84191727Y-77209397D01*
X84290004Y-77250104D01*
X84337403Y-77269737D01*
X84489544Y-77300000D01*
X84492053Y-77300499D01*
X84492056Y-77300500D01*
X84492058Y-77300500D01*
X84649744Y-77300500D01*
X84649745Y-77300499D01*
X84804397Y-77269737D01*
X84950079Y-77209394D01*
X84983911Y-77186788D01*
X85081775Y-77121398D01*
X85148453Y-77100520D01*
X85150666Y-77100500D01*
X90491134Y-77100500D01*
X90558173Y-77120185D01*
X90560025Y-77121398D01*
X90691714Y-77209390D01*
X90691727Y-77209397D01*
X90790004Y-77250104D01*
X90837403Y-77269737D01*
X90989544Y-77300000D01*
X90992053Y-77300499D01*
X90992056Y-77300500D01*
X90992058Y-77300500D01*
X91149744Y-77300500D01*
X91149745Y-77300499D01*
X91304397Y-77269737D01*
X91450079Y-77209394D01*
X91581189Y-77121789D01*
X91692689Y-77010289D01*
X91780294Y-76879179D01*
X91840637Y-76733497D01*
X91871400Y-76578842D01*
X91871400Y-76523389D01*
X93290400Y-76523389D01*
X93290400Y-76696611D01*
X93296241Y-76733489D01*
X93314773Y-76850500D01*
X93317498Y-76867701D01*
X93371027Y-77032445D01*
X93449668Y-77186788D01*
X93551486Y-77326928D01*
X93673972Y-77449414D01*
X93814112Y-77551232D01*
X93968455Y-77629873D01*
X94133199Y-77683402D01*
X94304289Y-77710500D01*
X94304290Y-77710500D01*
X95277510Y-77710500D01*
X95277511Y-77710500D01*
X95448601Y-77683402D01*
X95613345Y-77629873D01*
X95767688Y-77551232D01*
X95907828Y-77449414D01*
X96030314Y-77326928D01*
X96132132Y-77186788D01*
X96210773Y-77032445D01*
X96264302Y-76867701D01*
X96291400Y-76696611D01*
X96291400Y-76523389D01*
X96264302Y-76352299D01*
X96210773Y-76187555D01*
X96132132Y-76033212D01*
X96087043Y-75971153D01*
X106220400Y-75971153D01*
X106220400Y-76128846D01*
X106251161Y-76283489D01*
X106251164Y-76283501D01*
X106311502Y-76429172D01*
X106311509Y-76429185D01*
X106399110Y-76560288D01*
X106399113Y-76560292D01*
X106510607Y-76671786D01*
X106510611Y-76671789D01*
X106641714Y-76759390D01*
X106641727Y-76759397D01*
X106787398Y-76819735D01*
X106787403Y-76819737D01*
X106852047Y-76832595D01*
X106942749Y-76850638D01*
X107004660Y-76883023D01*
X107006239Y-76884574D01*
X107184081Y-77062416D01*
X107217566Y-77123739D01*
X107220400Y-77150097D01*
X107220400Y-77178846D01*
X107251161Y-77333489D01*
X107251164Y-77333501D01*
X107311502Y-77479172D01*
X107311509Y-77479185D01*
X107399110Y-77610288D01*
X107399113Y-77610292D01*
X107510607Y-77721786D01*
X107510611Y-77721789D01*
X107641714Y-77809390D01*
X107641727Y-77809397D01*
X107719611Y-77841657D01*
X107787403Y-77869737D01*
X107942053Y-77900499D01*
X107942056Y-77900500D01*
X107942058Y-77900500D01*
X108099744Y-77900500D01*
X108099745Y-77900499D01*
X108254397Y-77869737D01*
X108400079Y-77809394D01*
X108531189Y-77721789D01*
X108642689Y-77610289D01*
X108730294Y-77479179D01*
X108790637Y-77333497D01*
X108821400Y-77178842D01*
X108821400Y-77021158D01*
X108821400Y-77021155D01*
X108821399Y-77021153D01*
X108802833Y-76927816D01*
X108790637Y-76866503D01*
X108784066Y-76850638D01*
X108730297Y-76720827D01*
X108730290Y-76720814D01*
X108642689Y-76589711D01*
X108642686Y-76589707D01*
X108531192Y-76478213D01*
X108531188Y-76478210D01*
X108400085Y-76390609D01*
X108400072Y-76390602D01*
X108254401Y-76330264D01*
X108254391Y-76330261D01*
X108161466Y-76311777D01*
X108099555Y-76279392D01*
X108097977Y-76277841D01*
X107855473Y-76035337D01*
X107821988Y-75974014D01*
X107821537Y-75971847D01*
X107813172Y-75929792D01*
X107790637Y-75816503D01*
X107790635Y-75816498D01*
X107730297Y-75670827D01*
X107730290Y-75670814D01*
X107642689Y-75539711D01*
X107642686Y-75539707D01*
X107531192Y-75428213D01*
X107531188Y-75428210D01*
X107400085Y-75340609D01*
X107400072Y-75340602D01*
X107254401Y-75280264D01*
X107254389Y-75280261D01*
X107099745Y-75249500D01*
X107099742Y-75249500D01*
X106942058Y-75249500D01*
X106942055Y-75249500D01*
X106787410Y-75280261D01*
X106787398Y-75280264D01*
X106641727Y-75340602D01*
X106641714Y-75340609D01*
X106510611Y-75428210D01*
X106510607Y-75428213D01*
X106399113Y-75539707D01*
X106399110Y-75539711D01*
X106311509Y-75670814D01*
X106311502Y-75670827D01*
X106251164Y-75816498D01*
X106251161Y-75816510D01*
X106220400Y-75971153D01*
X96087043Y-75971153D01*
X96030314Y-75893072D01*
X95907828Y-75770586D01*
X95767688Y-75668768D01*
X95613345Y-75590127D01*
X95448601Y-75536598D01*
X95448599Y-75536597D01*
X95448598Y-75536597D01*
X95294457Y-75512184D01*
X95277511Y-75509500D01*
X94304289Y-75509500D01*
X94287343Y-75512184D01*
X94133202Y-75536597D01*
X93968452Y-75590128D01*
X93814111Y-75668768D01*
X93771813Y-75699500D01*
X93673972Y-75770586D01*
X93673970Y-75770588D01*
X93673969Y-75770588D01*
X93551488Y-75893069D01*
X93551488Y-75893070D01*
X93551486Y-75893072D01*
X93546816Y-75899500D01*
X93449668Y-76033211D01*
X93371028Y-76187552D01*
X93371027Y-76187554D01*
X93371027Y-76187555D01*
X93349009Y-76255320D01*
X93317497Y-76352302D01*
X93305321Y-76429179D01*
X93290400Y-76523389D01*
X91871400Y-76523389D01*
X91871400Y-76421158D01*
X91871400Y-76421155D01*
X91871399Y-76421153D01*
X91860676Y-76367246D01*
X91840637Y-76266503D01*
X91807935Y-76187552D01*
X91780297Y-76120827D01*
X91780290Y-76120814D01*
X91692689Y-75989711D01*
X91692686Y-75989707D01*
X91581192Y-75878213D01*
X91581188Y-75878210D01*
X91450085Y-75790609D01*
X91450072Y-75790602D01*
X91304401Y-75730264D01*
X91304389Y-75730261D01*
X91149745Y-75699500D01*
X91149742Y-75699500D01*
X90992058Y-75699500D01*
X90992055Y-75699500D01*
X90837410Y-75730261D01*
X90837398Y-75730264D01*
X90691727Y-75790602D01*
X90691714Y-75790609D01*
X90560025Y-75878602D01*
X90493347Y-75899480D01*
X90491134Y-75899500D01*
X85150666Y-75899500D01*
X85083627Y-75879815D01*
X85081775Y-75878602D01*
X84950085Y-75790609D01*
X84950072Y-75790602D01*
X84804401Y-75730264D01*
X84804389Y-75730261D01*
X84649745Y-75699500D01*
X84649742Y-75699500D01*
X84492058Y-75699500D01*
X84492055Y-75699500D01*
X84337410Y-75730261D01*
X84337398Y-75730264D01*
X84191727Y-75790602D01*
X84191714Y-75790609D01*
X84060611Y-75878210D01*
X84060607Y-75878213D01*
X83949113Y-75989707D01*
X83949110Y-75989711D01*
X83861509Y-76120814D01*
X83861502Y-76120827D01*
X83801164Y-76266498D01*
X83801161Y-76266510D01*
X83770400Y-76421153D01*
X71338933Y-76421153D01*
X71310681Y-76400627D01*
X71268015Y-76345297D01*
X71262036Y-76275684D01*
X71294642Y-76213889D01*
X71310676Y-76199994D01*
X71475692Y-76080104D01*
X71626004Y-75929792D01*
X71626006Y-75929788D01*
X71626009Y-75929786D01*
X71750948Y-75757820D01*
X71750947Y-75757820D01*
X71750951Y-75757816D01*
X71847457Y-75568412D01*
X71913146Y-75366243D01*
X71946400Y-75156287D01*
X71946400Y-74943713D01*
X71913146Y-74733757D01*
X71847457Y-74531588D01*
X71750951Y-74342184D01*
X71750949Y-74342181D01*
X71750948Y-74342179D01*
X71626009Y-74170213D01*
X71487194Y-74031398D01*
X71460979Y-73983389D01*
X93290400Y-73983389D01*
X93290400Y-74156611D01*
X93317498Y-74327701D01*
X93371027Y-74492445D01*
X93449668Y-74646788D01*
X93551486Y-74786928D01*
X93673972Y-74909414D01*
X93814112Y-75011232D01*
X93968455Y-75089873D01*
X94133199Y-75143402D01*
X94304289Y-75170500D01*
X94304290Y-75170500D01*
X95277510Y-75170500D01*
X95277511Y-75170500D01*
X95448601Y-75143402D01*
X95613345Y-75089873D01*
X95767688Y-75011232D01*
X95907828Y-74909414D01*
X96030314Y-74786928D01*
X96132132Y-74646788D01*
X96210773Y-74492445D01*
X96264302Y-74327701D01*
X96281178Y-74221153D01*
X112220400Y-74221153D01*
X112220400Y-74378846D01*
X112251161Y-74533489D01*
X112251164Y-74533501D01*
X112311502Y-74679172D01*
X112311509Y-74679184D01*
X112374502Y-74773459D01*
X112395380Y-74840136D01*
X112395400Y-74842350D01*
X112395400Y-78207650D01*
X112375715Y-78274689D01*
X112374526Y-78276503D01*
X112365104Y-78290606D01*
X112311509Y-78370815D01*
X112311502Y-78370828D01*
X112251164Y-78516498D01*
X112251161Y-78516510D01*
X112220400Y-78671153D01*
X112220400Y-78828846D01*
X112251161Y-78983489D01*
X112251164Y-78983501D01*
X112311502Y-79129172D01*
X112311509Y-79129185D01*
X112399110Y-79260288D01*
X112399113Y-79260292D01*
X112510607Y-79371786D01*
X112510611Y-79371789D01*
X112641714Y-79459390D01*
X112641727Y-79459397D01*
X112787398Y-79519735D01*
X112787403Y-79519737D01*
X112942053Y-79550499D01*
X112942056Y-79550500D01*
X112942058Y-79550500D01*
X113099744Y-79550500D01*
X113099745Y-79550499D01*
X113254397Y-79519737D01*
X113349223Y-79480458D01*
X113418692Y-79472990D01*
X113465564Y-79491916D01*
X113491721Y-79509394D01*
X113637403Y-79569737D01*
X113792053Y-79600499D01*
X113792056Y-79600500D01*
X113792058Y-79600500D01*
X113949744Y-79600500D01*
X113949745Y-79600499D01*
X114104397Y-79569737D01*
X114250079Y-79509394D01*
X114381189Y-79421789D01*
X114492689Y-79310289D01*
X114580294Y-79179179D01*
X114628255Y-79063389D01*
X116150400Y-79063389D01*
X116150400Y-79236610D01*
X116172981Y-79379185D01*
X116177498Y-79407701D01*
X116231027Y-79572445D01*
X116309668Y-79726788D01*
X116411486Y-79866928D01*
X116533972Y-79989414D01*
X116674112Y-80091232D01*
X116828455Y-80169873D01*
X116993199Y-80223402D01*
X117164289Y-80250500D01*
X117164290Y-80250500D01*
X118137510Y-80250500D01*
X118137511Y-80250500D01*
X118308601Y-80223402D01*
X118473345Y-80169873D01*
X118627688Y-80091232D01*
X118767828Y-79989414D01*
X118890314Y-79866928D01*
X118992132Y-79726788D01*
X119070773Y-79572445D01*
X119124302Y-79407701D01*
X119151400Y-79236611D01*
X119151400Y-79063389D01*
X119124302Y-78892299D01*
X119070773Y-78727555D01*
X118992132Y-78573212D01*
X118890314Y-78433072D01*
X118767828Y-78310586D01*
X118627688Y-78208768D01*
X118473345Y-78130127D01*
X118308601Y-78076598D01*
X118308599Y-78076597D01*
X118308598Y-78076597D01*
X118154457Y-78052184D01*
X118137511Y-78049500D01*
X117164289Y-78049500D01*
X117147343Y-78052184D01*
X116993202Y-78076597D01*
X116828452Y-78130128D01*
X116674111Y-78208768D01*
X116606960Y-78257557D01*
X116533972Y-78310586D01*
X116533970Y-78310588D01*
X116533969Y-78310588D01*
X116411488Y-78433069D01*
X116411488Y-78433070D01*
X116411486Y-78433072D01*
X116403723Y-78443757D01*
X116309668Y-78573211D01*
X116231028Y-78727552D01*
X116177497Y-78892302D01*
X116150400Y-79063389D01*
X114628255Y-79063389D01*
X114640637Y-79033497D01*
X114640638Y-79033490D01*
X114640640Y-79033485D01*
X114667782Y-78897029D01*
X114671400Y-78878842D01*
X114671400Y-78721158D01*
X114671400Y-78721155D01*
X114671399Y-78721153D01*
X114651443Y-78620827D01*
X114640637Y-78566503D01*
X114619929Y-78516510D01*
X114580297Y-78420828D01*
X114580296Y-78420827D01*
X114580294Y-78420821D01*
X114517297Y-78326539D01*
X114496420Y-78259863D01*
X114496400Y-78257650D01*
X114496400Y-76523389D01*
X116150400Y-76523389D01*
X116150400Y-76696611D01*
X116156241Y-76733489D01*
X116174773Y-76850500D01*
X116177498Y-76867701D01*
X116231027Y-77032445D01*
X116309668Y-77186788D01*
X116411486Y-77326928D01*
X116533972Y-77449414D01*
X116674112Y-77551232D01*
X116828455Y-77629873D01*
X116993199Y-77683402D01*
X117164289Y-77710500D01*
X117164290Y-77710500D01*
X118137510Y-77710500D01*
X118137511Y-77710500D01*
X118308601Y-77683402D01*
X118473345Y-77629873D01*
X118627688Y-77551232D01*
X118767828Y-77449414D01*
X118890314Y-77326928D01*
X118992132Y-77186788D01*
X119070773Y-77032445D01*
X119124302Y-76867701D01*
X119151400Y-76696611D01*
X119151400Y-76523389D01*
X119124302Y-76352299D01*
X119070773Y-76187555D01*
X118992132Y-76033212D01*
X118890314Y-75893072D01*
X118767828Y-75770586D01*
X118627688Y-75668768D01*
X118473345Y-75590127D01*
X118308601Y-75536598D01*
X118308599Y-75536597D01*
X118308598Y-75536597D01*
X118154457Y-75512184D01*
X118137511Y-75509500D01*
X117164289Y-75509500D01*
X117147343Y-75512184D01*
X116993202Y-75536597D01*
X116828452Y-75590128D01*
X116674111Y-75668768D01*
X116631813Y-75699500D01*
X116533972Y-75770586D01*
X116533970Y-75770588D01*
X116533969Y-75770588D01*
X116411488Y-75893069D01*
X116411488Y-75893070D01*
X116411486Y-75893072D01*
X116406816Y-75899500D01*
X116309668Y-76033211D01*
X116231028Y-76187552D01*
X116231027Y-76187554D01*
X116231027Y-76187555D01*
X116209009Y-76255320D01*
X116177497Y-76352302D01*
X116165321Y-76429179D01*
X116150400Y-76523389D01*
X114496400Y-76523389D01*
X114496400Y-74792350D01*
X114516085Y-74725311D01*
X114517298Y-74723459D01*
X114526218Y-74710109D01*
X114580294Y-74629179D01*
X114640637Y-74483497D01*
X114671400Y-74328842D01*
X114671400Y-74171158D01*
X114671400Y-74171155D01*
X114671399Y-74171153D01*
X114640637Y-74016504D01*
X114626921Y-73983389D01*
X116150400Y-73983389D01*
X116150400Y-74156611D01*
X116177498Y-74327701D01*
X116231027Y-74492445D01*
X116309668Y-74646788D01*
X116411486Y-74786928D01*
X116533972Y-74909414D01*
X116674112Y-75011232D01*
X116828455Y-75089873D01*
X116993199Y-75143402D01*
X117164289Y-75170500D01*
X117164290Y-75170500D01*
X118137510Y-75170500D01*
X118137511Y-75170500D01*
X118308601Y-75143402D01*
X118473345Y-75089873D01*
X118627688Y-75011232D01*
X118767828Y-74909414D01*
X118890314Y-74786928D01*
X118992132Y-74646788D01*
X119070773Y-74492445D01*
X119124302Y-74327701D01*
X119151400Y-74156611D01*
X119151400Y-73983389D01*
X119124302Y-73812299D01*
X119070773Y-73647555D01*
X118992132Y-73493212D01*
X118890314Y-73353072D01*
X118767828Y-73230586D01*
X118627688Y-73128768D01*
X118473345Y-73050127D01*
X118308601Y-72996598D01*
X118308599Y-72996597D01*
X118308598Y-72996597D01*
X118154457Y-72972184D01*
X118137511Y-72969500D01*
X117164289Y-72969500D01*
X117147343Y-72972184D01*
X116993202Y-72996597D01*
X116828452Y-73050128D01*
X116674111Y-73128768D01*
X116628943Y-73161585D01*
X116533972Y-73230586D01*
X116533970Y-73230588D01*
X116533969Y-73230588D01*
X116411488Y-73353069D01*
X116411488Y-73353070D01*
X116411486Y-73353072D01*
X116403723Y-73363757D01*
X116309668Y-73493211D01*
X116231028Y-73647552D01*
X116177497Y-73812302D01*
X116163547Y-73900383D01*
X116150400Y-73983389D01*
X114626921Y-73983389D01*
X114580297Y-73870827D01*
X114580290Y-73870814D01*
X114492689Y-73739711D01*
X114492686Y-73739707D01*
X114381192Y-73628213D01*
X114381188Y-73628210D01*
X114250085Y-73540609D01*
X114250072Y-73540602D01*
X114104401Y-73480264D01*
X114104389Y-73480261D01*
X113949745Y-73449500D01*
X113949742Y-73449500D01*
X113792058Y-73449500D01*
X113792055Y-73449500D01*
X113637410Y-73480261D01*
X113637398Y-73480264D01*
X113491728Y-73540602D01*
X113491710Y-73540612D01*
X113465560Y-73558084D01*
X113398882Y-73578959D01*
X113349222Y-73569540D01*
X113254401Y-73530264D01*
X113254389Y-73530261D01*
X113099745Y-73499500D01*
X113099742Y-73499500D01*
X112942058Y-73499500D01*
X112942055Y-73499500D01*
X112787410Y-73530261D01*
X112787398Y-73530264D01*
X112641727Y-73590602D01*
X112641714Y-73590609D01*
X112510611Y-73678210D01*
X112510607Y-73678213D01*
X112399113Y-73789707D01*
X112399110Y-73789711D01*
X112311509Y-73920814D01*
X112311502Y-73920827D01*
X112251164Y-74066498D01*
X112251161Y-74066510D01*
X112220400Y-74221153D01*
X96281178Y-74221153D01*
X96291400Y-74156611D01*
X96291400Y-73983389D01*
X96264302Y-73812299D01*
X96210773Y-73647555D01*
X96132132Y-73493212D01*
X96030314Y-73353072D01*
X95907828Y-73230586D01*
X95767688Y-73128768D01*
X95613345Y-73050127D01*
X95448601Y-72996598D01*
X95448599Y-72996597D01*
X95448598Y-72996597D01*
X95294457Y-72972184D01*
X95277511Y-72969500D01*
X94304289Y-72969500D01*
X94287343Y-72972184D01*
X94133202Y-72996597D01*
X93968452Y-73050128D01*
X93814111Y-73128768D01*
X93768943Y-73161585D01*
X93673972Y-73230586D01*
X93673970Y-73230588D01*
X93673969Y-73230588D01*
X93551488Y-73353069D01*
X93551488Y-73353070D01*
X93551486Y-73353072D01*
X93543723Y-73363757D01*
X93449668Y-73493211D01*
X93371028Y-73647552D01*
X93317497Y-73812302D01*
X93303547Y-73900383D01*
X93290400Y-73983389D01*
X71460979Y-73983389D01*
X71453709Y-73970075D01*
X71458693Y-73900383D01*
X71500565Y-73844450D01*
X71509779Y-73838178D01*
X71515231Y-73834814D01*
X71515234Y-73834814D01*
X71664556Y-73742712D01*
X71788612Y-73618656D01*
X71880714Y-73469334D01*
X71935899Y-73302797D01*
X71946400Y-73200009D01*
X71946399Y-71899992D01*
X71935899Y-71797203D01*
X71880714Y-71630666D01*
X71872045Y-71616611D01*
X71802348Y-71503613D01*
X71802347Y-71503611D01*
X71788614Y-71481347D01*
X71788611Y-71481343D01*
X71750657Y-71443389D01*
X93290400Y-71443389D01*
X93290400Y-71616611D01*
X93317498Y-71787701D01*
X93371027Y-71952445D01*
X93449668Y-72106788D01*
X93551486Y-72246928D01*
X93673972Y-72369414D01*
X93814112Y-72471232D01*
X93968455Y-72549873D01*
X94133199Y-72603402D01*
X94304289Y-72630500D01*
X94304290Y-72630500D01*
X95277510Y-72630500D01*
X95277511Y-72630500D01*
X95448601Y-72603402D01*
X95613345Y-72549873D01*
X95767688Y-72471232D01*
X95907828Y-72369414D01*
X96030314Y-72246928D01*
X96132132Y-72106788D01*
X96210773Y-71952445D01*
X96264302Y-71787701D01*
X96291400Y-71616611D01*
X96291400Y-71443389D01*
X116150400Y-71443389D01*
X116150400Y-71616611D01*
X116177498Y-71787701D01*
X116231027Y-71952445D01*
X116309668Y-72106788D01*
X116411486Y-72246928D01*
X116533972Y-72369414D01*
X116674112Y-72471232D01*
X116828455Y-72549873D01*
X116993199Y-72603402D01*
X117164289Y-72630500D01*
X117164290Y-72630500D01*
X118137510Y-72630500D01*
X118137511Y-72630500D01*
X118308601Y-72603402D01*
X118473345Y-72549873D01*
X118627688Y-72471232D01*
X118767828Y-72369414D01*
X118890314Y-72246928D01*
X118992132Y-72106788D01*
X119070773Y-71952445D01*
X119124302Y-71787701D01*
X119151400Y-71616611D01*
X119151400Y-71443389D01*
X119124302Y-71272299D01*
X119070773Y-71107555D01*
X119070771Y-71107551D01*
X119059370Y-71085174D01*
X118992131Y-70953211D01*
X118890314Y-70813072D01*
X118767828Y-70690586D01*
X118627688Y-70588768D01*
X118473345Y-70510127D01*
X118308601Y-70456598D01*
X118308599Y-70456597D01*
X118308598Y-70456597D01*
X118156067Y-70432439D01*
X118137511Y-70429500D01*
X117164289Y-70429500D01*
X117145733Y-70432439D01*
X116993202Y-70456597D01*
X116828452Y-70510128D01*
X116674111Y-70588768D01*
X116628672Y-70621782D01*
X116533972Y-70690586D01*
X116533970Y-70690588D01*
X116533969Y-70690588D01*
X116411488Y-70813069D01*
X116411488Y-70813070D01*
X116411486Y-70813072D01*
X116385860Y-70848343D01*
X116309668Y-70953211D01*
X116231028Y-71107552D01*
X116177497Y-71272302D01*
X116169413Y-71323343D01*
X116150400Y-71443389D01*
X96291400Y-71443389D01*
X96264302Y-71272299D01*
X96210773Y-71107555D01*
X96132132Y-70953212D01*
X96030314Y-70813072D01*
X95907828Y-70690586D01*
X95767688Y-70588768D01*
X95613345Y-70510127D01*
X95448601Y-70456598D01*
X95448599Y-70456597D01*
X95448598Y-70456597D01*
X95296067Y-70432439D01*
X95277511Y-70429500D01*
X94304289Y-70429500D01*
X94285733Y-70432439D01*
X94133202Y-70456597D01*
X93968452Y-70510128D01*
X93814111Y-70588768D01*
X93768672Y-70621782D01*
X93673972Y-70690586D01*
X93673970Y-70690588D01*
X93673969Y-70690588D01*
X93551488Y-70813069D01*
X93551488Y-70813070D01*
X93551486Y-70813072D01*
X93525860Y-70848343D01*
X93449668Y-70953211D01*
X93371028Y-71107552D01*
X93317497Y-71272302D01*
X93309413Y-71323343D01*
X93290400Y-71443389D01*
X71750657Y-71443389D01*
X71664557Y-71357289D01*
X71664556Y-71357288D01*
X71515234Y-71265186D01*
X71348697Y-71210001D01*
X71348695Y-71210000D01*
X71245910Y-71199500D01*
X69695898Y-71199500D01*
X69695881Y-71199501D01*
X69593103Y-71210000D01*
X69593100Y-71210001D01*
X69426568Y-71265185D01*
X69426563Y-71265187D01*
X69277242Y-71357289D01*
X69153189Y-71481342D01*
X69061087Y-71630663D01*
X69061086Y-71630666D01*
X69005901Y-71797203D01*
X69005901Y-71797204D01*
X69005900Y-71797204D01*
X68995400Y-71899983D01*
X63075400Y-71899983D01*
X63075400Y-68903389D01*
X93290400Y-68903389D01*
X93290400Y-69076611D01*
X93317498Y-69247701D01*
X93371027Y-69412445D01*
X93449668Y-69566788D01*
X93551486Y-69706928D01*
X93673972Y-69829414D01*
X93814112Y-69931232D01*
X93968455Y-70009873D01*
X94133199Y-70063402D01*
X94304289Y-70090500D01*
X94304290Y-70090500D01*
X95277510Y-70090500D01*
X95277511Y-70090500D01*
X95448601Y-70063402D01*
X95613345Y-70009873D01*
X95767688Y-69931232D01*
X95907828Y-69829414D01*
X96030314Y-69706928D01*
X96132132Y-69566788D01*
X96210773Y-69412445D01*
X96264302Y-69247701D01*
X96291400Y-69076611D01*
X96291400Y-68903389D01*
X116150400Y-68903389D01*
X116150400Y-69076611D01*
X116177498Y-69247701D01*
X116231027Y-69412445D01*
X116309668Y-69566788D01*
X116411486Y-69706928D01*
X116533972Y-69829414D01*
X116674112Y-69931232D01*
X116828455Y-70009873D01*
X116993199Y-70063402D01*
X117164289Y-70090500D01*
X117164290Y-70090500D01*
X118137510Y-70090500D01*
X118137511Y-70090500D01*
X118308601Y-70063402D01*
X118473345Y-70009873D01*
X118627688Y-69931232D01*
X118767828Y-69829414D01*
X118890314Y-69706928D01*
X118992132Y-69566788D01*
X119070773Y-69412445D01*
X119124302Y-69247701D01*
X119151400Y-69076611D01*
X119151400Y-68903389D01*
X119124302Y-68732299D01*
X119070773Y-68567555D01*
X119033149Y-68493713D01*
X122260400Y-68493713D01*
X122260400Y-68706286D01*
X122293653Y-68916239D01*
X122359344Y-69118414D01*
X122455851Y-69307820D01*
X122580790Y-69479786D01*
X122731113Y-69630109D01*
X122903079Y-69755048D01*
X122903081Y-69755049D01*
X122903084Y-69755051D01*
X122912393Y-69759794D01*
X122963190Y-69807766D01*
X122979987Y-69875587D01*
X122957452Y-69941722D01*
X122912405Y-69980760D01*
X122903346Y-69985376D01*
X122903340Y-69985380D01*
X122849182Y-70024727D01*
X122849182Y-70024728D01*
X123501903Y-70677449D01*
X123427557Y-70697370D01*
X123319243Y-70759905D01*
X123230805Y-70848343D01*
X123168270Y-70956657D01*
X123148349Y-71031003D01*
X122495628Y-70378282D01*
X122495627Y-70378282D01*
X122456280Y-70432439D01*
X122359804Y-70621782D01*
X122294142Y-70823869D01*
X122294142Y-70823872D01*
X122260900Y-71033753D01*
X122260900Y-71246246D01*
X122294142Y-71456127D01*
X122294142Y-71456130D01*
X122359804Y-71658217D01*
X122456275Y-71847550D01*
X122495628Y-71901716D01*
X123148349Y-71248996D01*
X123168270Y-71323343D01*
X123230805Y-71431657D01*
X123319243Y-71520095D01*
X123427557Y-71582630D01*
X123501902Y-71602550D01*
X122849182Y-72255269D01*
X122849182Y-72255270D01*
X122903352Y-72294626D01*
X122903351Y-72294626D01*
X122912395Y-72299234D01*
X122963192Y-72347208D01*
X122979987Y-72415029D01*
X122957450Y-72481164D01*
X122912399Y-72520202D01*
X122903082Y-72524949D01*
X122731113Y-72649890D01*
X122580790Y-72800213D01*
X122455851Y-72972179D01*
X122359344Y-73161585D01*
X122293653Y-73363760D01*
X122260400Y-73573713D01*
X122260400Y-73786286D01*
X122277563Y-73894653D01*
X122293654Y-73996243D01*
X122358451Y-74195668D01*
X122359344Y-74198414D01*
X122455851Y-74387820D01*
X122580790Y-74559786D01*
X122731113Y-74710109D01*
X122903082Y-74835050D01*
X122911846Y-74839516D01*
X122962642Y-74887491D01*
X122979436Y-74955312D01*
X122956898Y-75021447D01*
X122911846Y-75060484D01*
X122903082Y-75064949D01*
X122731113Y-75189890D01*
X122580790Y-75340213D01*
X122455851Y-75512179D01*
X122359344Y-75701585D01*
X122293653Y-75903760D01*
X122265723Y-76080103D01*
X122260400Y-76113713D01*
X122260400Y-76326287D01*
X122261030Y-76330263D01*
X122284462Y-76478211D01*
X122293654Y-76536243D01*
X122357747Y-76733501D01*
X122359344Y-76738414D01*
X122455851Y-76927820D01*
X122580790Y-77099786D01*
X122731113Y-77250109D01*
X122903082Y-77375050D01*
X122911846Y-77379516D01*
X122962642Y-77427491D01*
X122979436Y-77495312D01*
X122956898Y-77561447D01*
X122911846Y-77600484D01*
X122903082Y-77604949D01*
X122731113Y-77729890D01*
X122580790Y-77880213D01*
X122455851Y-78052179D01*
X122359344Y-78241585D01*
X122293653Y-78443760D01*
X122273150Y-78573211D01*
X122260400Y-78653713D01*
X122260400Y-78866287D01*
X122262389Y-78878842D01*
X122286883Y-79033497D01*
X122293654Y-79076243D01*
X122353455Y-79260292D01*
X122359344Y-79278414D01*
X122455851Y-79467820D01*
X122580790Y-79639786D01*
X122731113Y-79790109D01*
X122903082Y-79915050D01*
X122911846Y-79919516D01*
X122962642Y-79967491D01*
X122979436Y-80035312D01*
X122956898Y-80101447D01*
X122911846Y-80140484D01*
X122903082Y-80144949D01*
X122731113Y-80269890D01*
X122580790Y-80420213D01*
X122455851Y-80592179D01*
X122359344Y-80781585D01*
X122293653Y-80983760D01*
X122260400Y-81193713D01*
X122260400Y-81406286D01*
X122293653Y-81616239D01*
X122359344Y-81818414D01*
X122455851Y-82007820D01*
X122580790Y-82179786D01*
X122731113Y-82330109D01*
X122903079Y-82455048D01*
X122903081Y-82455049D01*
X122903084Y-82455051D01*
X123092488Y-82551557D01*
X123294657Y-82617246D01*
X123504613Y-82650500D01*
X123504614Y-82650500D01*
X123717186Y-82650500D01*
X123717187Y-82650500D01*
X123927143Y-82617246D01*
X124129312Y-82551557D01*
X124318716Y-82455051D01*
X124340689Y-82439086D01*
X124490686Y-82330109D01*
X124490688Y-82330106D01*
X124490692Y-82330104D01*
X124641004Y-82179792D01*
X124641006Y-82179788D01*
X124641009Y-82179786D01*
X124765948Y-82007820D01*
X124765947Y-82007820D01*
X124765951Y-82007816D01*
X124862457Y-81818412D01*
X124928146Y-81616243D01*
X124961400Y-81406287D01*
X124961400Y-81193713D01*
X124928146Y-80983757D01*
X124862457Y-80781588D01*
X124765951Y-80592184D01*
X124765949Y-80592181D01*
X124765948Y-80592179D01*
X124641009Y-80420213D01*
X124490686Y-80269890D01*
X124318720Y-80144951D01*
X124318015Y-80144591D01*
X124309954Y-80140485D01*
X124259159Y-80092512D01*
X124242363Y-80024692D01*
X124264899Y-79958556D01*
X124309954Y-79919515D01*
X124318716Y-79915051D01*
X124340689Y-79899086D01*
X124490686Y-79790109D01*
X124490688Y-79790106D01*
X124490692Y-79790104D01*
X124641004Y-79639792D01*
X124641006Y-79639788D01*
X124641009Y-79639786D01*
X124765948Y-79467820D01*
X124765947Y-79467820D01*
X124765951Y-79467816D01*
X124862457Y-79278412D01*
X124928146Y-79076243D01*
X124961400Y-78866287D01*
X124961400Y-78653713D01*
X124928146Y-78443757D01*
X124862457Y-78241588D01*
X124765951Y-78052184D01*
X124765949Y-78052181D01*
X124765948Y-78052179D01*
X124641009Y-77880213D01*
X124490686Y-77729890D01*
X124318720Y-77604951D01*
X124318015Y-77604591D01*
X124309954Y-77600485D01*
X124259159Y-77552512D01*
X124242363Y-77484692D01*
X124264899Y-77418556D01*
X124309954Y-77379515D01*
X124318716Y-77375051D01*
X124375922Y-77333489D01*
X124490686Y-77250109D01*
X124490688Y-77250106D01*
X124490692Y-77250104D01*
X124641004Y-77099792D01*
X124641006Y-77099788D01*
X124641009Y-77099786D01*
X124765948Y-76927820D01*
X124765947Y-76927820D01*
X124765951Y-76927816D01*
X124862457Y-76738412D01*
X124928146Y-76536243D01*
X124961400Y-76326287D01*
X124961400Y-76113713D01*
X124928146Y-75903757D01*
X124862457Y-75701588D01*
X124765951Y-75512184D01*
X124765949Y-75512181D01*
X124765948Y-75512179D01*
X124641009Y-75340213D01*
X124490686Y-75189890D01*
X124318720Y-75064951D01*
X124318015Y-75064591D01*
X124309954Y-75060485D01*
X124259159Y-75012512D01*
X124242363Y-74944692D01*
X124264899Y-74878556D01*
X124309954Y-74839515D01*
X124318716Y-74835051D01*
X124360443Y-74804735D01*
X124490686Y-74710109D01*
X124490688Y-74710106D01*
X124490692Y-74710104D01*
X124641004Y-74559792D01*
X124641006Y-74559788D01*
X124641009Y-74559786D01*
X124765948Y-74387820D01*
X124765947Y-74387820D01*
X124765951Y-74387816D01*
X124862457Y-74198412D01*
X124928146Y-73996243D01*
X124961400Y-73786287D01*
X124961400Y-73573713D01*
X124928146Y-73363757D01*
X124862457Y-73161588D01*
X124765951Y-72972184D01*
X124765949Y-72972181D01*
X124765948Y-72972179D01*
X124641009Y-72800213D01*
X124490686Y-72649890D01*
X124318717Y-72524949D01*
X124309404Y-72520204D01*
X124258607Y-72472230D01*
X124241812Y-72404409D01*
X124264349Y-72338274D01*
X124309407Y-72299232D01*
X124318455Y-72294622D01*
X124372616Y-72255270D01*
X124372617Y-72255270D01*
X123719896Y-71602550D01*
X123794243Y-71582630D01*
X123902557Y-71520095D01*
X123990995Y-71431657D01*
X124053530Y-71323343D01*
X124073450Y-71248997D01*
X124726170Y-71901717D01*
X124726170Y-71901716D01*
X124765522Y-71847554D01*
X124861995Y-71658217D01*
X124927657Y-71456130D01*
X124927657Y-71456127D01*
X124960900Y-71246246D01*
X124960900Y-71033753D01*
X124927657Y-70823872D01*
X124927657Y-70823869D01*
X124861995Y-70621782D01*
X124765524Y-70432449D01*
X124726170Y-70378282D01*
X124726169Y-70378282D01*
X124073450Y-71031002D01*
X124053530Y-70956657D01*
X123990995Y-70848343D01*
X123902557Y-70759905D01*
X123794243Y-70697370D01*
X123719897Y-70677449D01*
X124372616Y-70024728D01*
X124318447Y-69985373D01*
X124318447Y-69985372D01*
X124309400Y-69980763D01*
X124258606Y-69932788D01*
X124241812Y-69864966D01*
X124264351Y-69798832D01*
X124309408Y-69759793D01*
X124318716Y-69755051D01*
X124397907Y-69697515D01*
X124490686Y-69630109D01*
X124490688Y-69630106D01*
X124490692Y-69630104D01*
X124641004Y-69479792D01*
X124641006Y-69479788D01*
X124641009Y-69479786D01*
X124765948Y-69307820D01*
X124765947Y-69307820D01*
X124765951Y-69307816D01*
X124862457Y-69118412D01*
X124928146Y-68916243D01*
X124961400Y-68706287D01*
X124961400Y-68493713D01*
X124928146Y-68283757D01*
X124862457Y-68081588D01*
X124765951Y-67892184D01*
X124765949Y-67892181D01*
X124765948Y-67892179D01*
X124641009Y-67720213D01*
X124490686Y-67569890D01*
X124318720Y-67444951D01*
X124129314Y-67348444D01*
X124129313Y-67348443D01*
X124129312Y-67348443D01*
X123927143Y-67282754D01*
X123927141Y-67282753D01*
X123927140Y-67282753D01*
X123765857Y-67257208D01*
X123717187Y-67249500D01*
X123504613Y-67249500D01*
X123455942Y-67257208D01*
X123294660Y-67282753D01*
X123092485Y-67348444D01*
X122903079Y-67444951D01*
X122731113Y-67569890D01*
X122580790Y-67720213D01*
X122455851Y-67892179D01*
X122359344Y-68081585D01*
X122293653Y-68283760D01*
X122260400Y-68493713D01*
X119033149Y-68493713D01*
X118992132Y-68413212D01*
X118890314Y-68273072D01*
X118767828Y-68150586D01*
X118627688Y-68048768D01*
X118473345Y-67970127D01*
X118308601Y-67916598D01*
X118308599Y-67916597D01*
X118308598Y-67916597D01*
X118154457Y-67892184D01*
X118137511Y-67889500D01*
X117164289Y-67889500D01*
X117147343Y-67892184D01*
X116993202Y-67916597D01*
X116828452Y-67970128D01*
X116674111Y-68048768D01*
X116628943Y-68081585D01*
X116533972Y-68150586D01*
X116533970Y-68150588D01*
X116533969Y-68150588D01*
X116411488Y-68273069D01*
X116411488Y-68273070D01*
X116411486Y-68273072D01*
X116403723Y-68283757D01*
X116309668Y-68413211D01*
X116231028Y-68567552D01*
X116177497Y-68732302D01*
X116150400Y-68903389D01*
X96291400Y-68903389D01*
X96264302Y-68732299D01*
X96210773Y-68567555D01*
X96132132Y-68413212D01*
X96030314Y-68273072D01*
X95907828Y-68150586D01*
X95767688Y-68048768D01*
X95613345Y-67970127D01*
X95448601Y-67916598D01*
X95448599Y-67916597D01*
X95448598Y-67916597D01*
X95294457Y-67892184D01*
X95277511Y-67889500D01*
X94304289Y-67889500D01*
X94287343Y-67892184D01*
X94133202Y-67916597D01*
X93968452Y-67970128D01*
X93814111Y-68048768D01*
X93768943Y-68081585D01*
X93673972Y-68150586D01*
X93673970Y-68150588D01*
X93673969Y-68150588D01*
X93551488Y-68273069D01*
X93551488Y-68273070D01*
X93551486Y-68273072D01*
X93543723Y-68283757D01*
X93449668Y-68413211D01*
X93371028Y-68567552D01*
X93317497Y-68732302D01*
X93290400Y-68903389D01*
X63075400Y-68903389D01*
X63075400Y-55249983D01*
X69095400Y-55249983D01*
X69095400Y-56550001D01*
X69095401Y-56550018D01*
X69105900Y-56652796D01*
X69105901Y-56652799D01*
X69161085Y-56819331D01*
X69161087Y-56819336D01*
X69253189Y-56968657D01*
X69377244Y-57092712D01*
X69532020Y-57188178D01*
X69578745Y-57240126D01*
X69589968Y-57309088D01*
X69562124Y-57373171D01*
X69554606Y-57381398D01*
X69415789Y-57520215D01*
X69290851Y-57692179D01*
X69194344Y-57881585D01*
X69128653Y-58083760D01*
X69095400Y-58293713D01*
X69095400Y-58506286D01*
X69128652Y-58716235D01*
X69128654Y-58716243D01*
X69193757Y-58916610D01*
X69194344Y-58918414D01*
X69290851Y-59107820D01*
X69415790Y-59279786D01*
X69566109Y-59430105D01*
X69566114Y-59430109D01*
X69730693Y-59549682D01*
X69773359Y-59605011D01*
X69779338Y-59674625D01*
X69746733Y-59736420D01*
X69730693Y-59750318D01*
X69566114Y-59869890D01*
X69566109Y-59869894D01*
X69415790Y-60020213D01*
X69290851Y-60192179D01*
X69194344Y-60381585D01*
X69128653Y-60583760D01*
X69095400Y-60793713D01*
X69095400Y-61006286D01*
X69128653Y-61216239D01*
X69194344Y-61418414D01*
X69290851Y-61607820D01*
X69415790Y-61779786D01*
X69566109Y-61930105D01*
X69566114Y-61930109D01*
X69730693Y-62049682D01*
X69773359Y-62105011D01*
X69779338Y-62174625D01*
X69746733Y-62236420D01*
X69730693Y-62250318D01*
X69566114Y-62369890D01*
X69566109Y-62369894D01*
X69415790Y-62520213D01*
X69290851Y-62692179D01*
X69194344Y-62881585D01*
X69194343Y-62881587D01*
X69194343Y-62881588D01*
X69191568Y-62890128D01*
X69128653Y-63083760D01*
X69095400Y-63293713D01*
X69095400Y-63506286D01*
X69128653Y-63716239D01*
X69194344Y-63918414D01*
X69290851Y-64107820D01*
X69415790Y-64279786D01*
X69566109Y-64430105D01*
X69566114Y-64430109D01*
X69731118Y-64549991D01*
X69773784Y-64605320D01*
X69779763Y-64674934D01*
X69747158Y-64736729D01*
X69731118Y-64750627D01*
X69566440Y-64870272D01*
X69566435Y-64870276D01*
X69416176Y-65020535D01*
X69416172Y-65020540D01*
X69291279Y-65192442D01*
X69194804Y-65381782D01*
X69129142Y-65583870D01*
X69129142Y-65583873D01*
X69118669Y-65650000D01*
X70166754Y-65650000D01*
X70128270Y-65716657D01*
X70095900Y-65837465D01*
X70095900Y-65962535D01*
X70128270Y-66083343D01*
X70166754Y-66150000D01*
X69118669Y-66150000D01*
X69129142Y-66216126D01*
X69129142Y-66216129D01*
X69194804Y-66418217D01*
X69291279Y-66607557D01*
X69416172Y-66779459D01*
X69416176Y-66779464D01*
X69566435Y-66929723D01*
X69566440Y-66929727D01*
X69738342Y-67054620D01*
X69927682Y-67151095D01*
X70129772Y-67216757D01*
X70320900Y-67247029D01*
X70320900Y-66304145D01*
X70387557Y-66342630D01*
X70508365Y-66375000D01*
X70633435Y-66375000D01*
X70754243Y-66342630D01*
X70820900Y-66304145D01*
X70820900Y-67247028D01*
X71012027Y-67216757D01*
X71214117Y-67151095D01*
X71403457Y-67054620D01*
X71575359Y-66929727D01*
X71575364Y-66929723D01*
X71725623Y-66779464D01*
X71725627Y-66779459D01*
X71850520Y-66607557D01*
X71946996Y-66418215D01*
X71964810Y-66363389D01*
X93290400Y-66363389D01*
X93290400Y-66536611D01*
X93317498Y-66707701D01*
X93371027Y-66872445D01*
X93449668Y-67026788D01*
X93551486Y-67166928D01*
X93673972Y-67289414D01*
X93814112Y-67391232D01*
X93968455Y-67469873D01*
X94133199Y-67523402D01*
X94304289Y-67550500D01*
X94304290Y-67550500D01*
X95277510Y-67550500D01*
X95277511Y-67550500D01*
X95448601Y-67523402D01*
X95613345Y-67469873D01*
X95767688Y-67391232D01*
X95907828Y-67289414D01*
X96030314Y-67166928D01*
X96132132Y-67026788D01*
X96210773Y-66872445D01*
X96264302Y-66707701D01*
X96291400Y-66536611D01*
X96291400Y-66363389D01*
X116150400Y-66363389D01*
X116150400Y-66536611D01*
X116177498Y-66707701D01*
X116231027Y-66872445D01*
X116309668Y-67026788D01*
X116411486Y-67166928D01*
X116533972Y-67289414D01*
X116674112Y-67391232D01*
X116828455Y-67469873D01*
X116993199Y-67523402D01*
X117164289Y-67550500D01*
X117164290Y-67550500D01*
X118137510Y-67550500D01*
X118137511Y-67550500D01*
X118308601Y-67523402D01*
X118473345Y-67469873D01*
X118627688Y-67391232D01*
X118767828Y-67289414D01*
X118890314Y-67166928D01*
X118992132Y-67026788D01*
X119070773Y-66872445D01*
X119124302Y-66707701D01*
X119151400Y-66536611D01*
X119151400Y-66363389D01*
X119124302Y-66192299D01*
X119070773Y-66027555D01*
X118992132Y-65873212D01*
X118890314Y-65733072D01*
X118767828Y-65610586D01*
X118627688Y-65508768D01*
X118473345Y-65430127D01*
X118308601Y-65376598D01*
X118308599Y-65376597D01*
X118308598Y-65376597D01*
X118177171Y-65355781D01*
X118137511Y-65349500D01*
X117164289Y-65349500D01*
X117124628Y-65355781D01*
X116993202Y-65376597D01*
X116828452Y-65430128D01*
X116674111Y-65508768D01*
X116594156Y-65566859D01*
X116533972Y-65610586D01*
X116533970Y-65610588D01*
X116533969Y-65610588D01*
X116411488Y-65733069D01*
X116411488Y-65733070D01*
X116411486Y-65733072D01*
X116367759Y-65793256D01*
X116309668Y-65873211D01*
X116231028Y-66027552D01*
X116177497Y-66192302D01*
X116157240Y-66320200D01*
X116150400Y-66363389D01*
X96291400Y-66363389D01*
X96264302Y-66192299D01*
X96210773Y-66027555D01*
X96132132Y-65873212D01*
X96030314Y-65733072D01*
X95907828Y-65610586D01*
X95767688Y-65508768D01*
X95613345Y-65430127D01*
X95448601Y-65376598D01*
X95448599Y-65376597D01*
X95448598Y-65376597D01*
X95317171Y-65355781D01*
X95277511Y-65349500D01*
X94304289Y-65349500D01*
X94264628Y-65355781D01*
X94133202Y-65376597D01*
X93968452Y-65430128D01*
X93814111Y-65508768D01*
X93734156Y-65566859D01*
X93673972Y-65610586D01*
X93673970Y-65610588D01*
X93673969Y-65610588D01*
X93551488Y-65733069D01*
X93551488Y-65733070D01*
X93551486Y-65733072D01*
X93507759Y-65793256D01*
X93449668Y-65873211D01*
X93371028Y-66027552D01*
X93317497Y-66192302D01*
X93297240Y-66320200D01*
X93290400Y-66363389D01*
X71964810Y-66363389D01*
X71978843Y-66320200D01*
X71978843Y-66320199D01*
X72012657Y-66216129D01*
X72012657Y-66216126D01*
X72023131Y-66150000D01*
X70975046Y-66150000D01*
X71013530Y-66083343D01*
X71045900Y-65962535D01*
X71045900Y-65837465D01*
X71013530Y-65716657D01*
X70975046Y-65650000D01*
X72023131Y-65650000D01*
X72012657Y-65583873D01*
X72012657Y-65583870D01*
X71946995Y-65381782D01*
X71850520Y-65192442D01*
X71725627Y-65020540D01*
X71725623Y-65020535D01*
X71575364Y-64870276D01*
X71575359Y-64870272D01*
X71410681Y-64750627D01*
X71368015Y-64695297D01*
X71362036Y-64625684D01*
X71394641Y-64563889D01*
X71410676Y-64549994D01*
X71575692Y-64430104D01*
X71726004Y-64279792D01*
X71726006Y-64279788D01*
X71726009Y-64279786D01*
X71850948Y-64107820D01*
X71850947Y-64107820D01*
X71850951Y-64107816D01*
X71947457Y-63918412D01*
X71978332Y-63823389D01*
X93290400Y-63823389D01*
X93290400Y-63996611D01*
X93317498Y-64167701D01*
X93371027Y-64332445D01*
X93449668Y-64486788D01*
X93551486Y-64626928D01*
X93673972Y-64749414D01*
X93814112Y-64851232D01*
X93968455Y-64929873D01*
X94133199Y-64983402D01*
X94304289Y-65010500D01*
X94304290Y-65010500D01*
X95277510Y-65010500D01*
X95277511Y-65010500D01*
X95448601Y-64983402D01*
X95613345Y-64929873D01*
X95767688Y-64851232D01*
X95907828Y-64749414D01*
X96030314Y-64626928D01*
X96132132Y-64486788D01*
X96210773Y-64332445D01*
X96264302Y-64167701D01*
X96291400Y-63996611D01*
X96291400Y-63823389D01*
X116150400Y-63823389D01*
X116150400Y-63996611D01*
X116177498Y-64167701D01*
X116231027Y-64332445D01*
X116309668Y-64486788D01*
X116411486Y-64626928D01*
X116533972Y-64749414D01*
X116674112Y-64851232D01*
X116828455Y-64929873D01*
X116993199Y-64983402D01*
X117164289Y-65010500D01*
X117164290Y-65010500D01*
X118137510Y-65010500D01*
X118137511Y-65010500D01*
X118308601Y-64983402D01*
X118473345Y-64929873D01*
X118627688Y-64851232D01*
X118767828Y-64749414D01*
X118890314Y-64626928D01*
X118992132Y-64486788D01*
X119070773Y-64332445D01*
X119124302Y-64167701D01*
X119151400Y-63996611D01*
X119151400Y-63823389D01*
X119124302Y-63652299D01*
X119070773Y-63487555D01*
X118992132Y-63333212D01*
X118890314Y-63193072D01*
X118767828Y-63070586D01*
X118627688Y-62968768D01*
X118473345Y-62890127D01*
X118308601Y-62836598D01*
X118308599Y-62836597D01*
X118308598Y-62836597D01*
X118177171Y-62815781D01*
X118137511Y-62809500D01*
X117164289Y-62809500D01*
X117124628Y-62815781D01*
X116993202Y-62836597D01*
X116828452Y-62890128D01*
X116674111Y-62968768D01*
X116594156Y-63026859D01*
X116533972Y-63070586D01*
X116533970Y-63070588D01*
X116533969Y-63070588D01*
X116411488Y-63193069D01*
X116411488Y-63193070D01*
X116411486Y-63193072D01*
X116367759Y-63253256D01*
X116309668Y-63333211D01*
X116231028Y-63487552D01*
X116177497Y-63652302D01*
X116150400Y-63823389D01*
X96291400Y-63823389D01*
X96264302Y-63652299D01*
X96210773Y-63487555D01*
X96132132Y-63333212D01*
X96030314Y-63193072D01*
X95907828Y-63070586D01*
X95767688Y-62968768D01*
X95613345Y-62890127D01*
X95448601Y-62836598D01*
X95448599Y-62836597D01*
X95448598Y-62836597D01*
X95317171Y-62815781D01*
X95277511Y-62809500D01*
X94304289Y-62809500D01*
X94264628Y-62815781D01*
X94133202Y-62836597D01*
X93968452Y-62890128D01*
X93814111Y-62968768D01*
X93734156Y-63026859D01*
X93673972Y-63070586D01*
X93673970Y-63070588D01*
X93673969Y-63070588D01*
X93551488Y-63193069D01*
X93551488Y-63193070D01*
X93551486Y-63193072D01*
X93507759Y-63253256D01*
X93449668Y-63333211D01*
X93371028Y-63487552D01*
X93317497Y-63652302D01*
X93290400Y-63823389D01*
X71978332Y-63823389D01*
X72013146Y-63716243D01*
X72046400Y-63506287D01*
X72046400Y-63293713D01*
X72013146Y-63083757D01*
X71947457Y-62881588D01*
X71850951Y-62692184D01*
X71850949Y-62692181D01*
X71850948Y-62692179D01*
X71726009Y-62520213D01*
X71575692Y-62369896D01*
X71494947Y-62311232D01*
X71411104Y-62250316D01*
X71368440Y-62194989D01*
X71362461Y-62125376D01*
X71395066Y-62063580D01*
X71411099Y-62049686D01*
X71575692Y-61930104D01*
X71726004Y-61779792D01*
X71726006Y-61779788D01*
X71726009Y-61779786D01*
X71850948Y-61607820D01*
X71850947Y-61607820D01*
X71850951Y-61607816D01*
X71947457Y-61418412D01*
X71991329Y-61283389D01*
X93290400Y-61283389D01*
X93290400Y-61456610D01*
X93314348Y-61607816D01*
X93317498Y-61627701D01*
X93371027Y-61792445D01*
X93449668Y-61946788D01*
X93551486Y-62086928D01*
X93673972Y-62209414D01*
X93814112Y-62311232D01*
X93968455Y-62389873D01*
X94133199Y-62443402D01*
X94304289Y-62470500D01*
X94304290Y-62470500D01*
X95277510Y-62470500D01*
X95277511Y-62470500D01*
X95448601Y-62443402D01*
X95613345Y-62389873D01*
X95767688Y-62311232D01*
X95907828Y-62209414D01*
X96030314Y-62086928D01*
X96132132Y-61946788D01*
X96210773Y-61792445D01*
X96264302Y-61627701D01*
X96291400Y-61456611D01*
X96291400Y-61283389D01*
X116150400Y-61283389D01*
X116150400Y-61456610D01*
X116174348Y-61607816D01*
X116177498Y-61627701D01*
X116231027Y-61792445D01*
X116309668Y-61946788D01*
X116411486Y-62086928D01*
X116533972Y-62209414D01*
X116674112Y-62311232D01*
X116828455Y-62389873D01*
X116993199Y-62443402D01*
X117164289Y-62470500D01*
X117164290Y-62470500D01*
X118137510Y-62470500D01*
X118137511Y-62470500D01*
X118308601Y-62443402D01*
X118473345Y-62389873D01*
X118627688Y-62311232D01*
X118767828Y-62209414D01*
X118890314Y-62086928D01*
X118992132Y-61946788D01*
X119070773Y-61792445D01*
X119124302Y-61627701D01*
X119151400Y-61456611D01*
X119151400Y-61283389D01*
X119124302Y-61112299D01*
X119070773Y-60947555D01*
X118992132Y-60793212D01*
X118890314Y-60653072D01*
X118767828Y-60530586D01*
X118627688Y-60428768D01*
X118473345Y-60350127D01*
X118308601Y-60296598D01*
X118308599Y-60296597D01*
X118308598Y-60296597D01*
X118177171Y-60275781D01*
X118137511Y-60269500D01*
X117164289Y-60269500D01*
X117124628Y-60275781D01*
X116993202Y-60296597D01*
X116828452Y-60350128D01*
X116674111Y-60428768D01*
X116594156Y-60486859D01*
X116533972Y-60530586D01*
X116533970Y-60530588D01*
X116533969Y-60530588D01*
X116411488Y-60653069D01*
X116411488Y-60653070D01*
X116411486Y-60653072D01*
X116367759Y-60713256D01*
X116309668Y-60793211D01*
X116231028Y-60947552D01*
X116177497Y-61112302D01*
X116150400Y-61283389D01*
X96291400Y-61283389D01*
X96264302Y-61112299D01*
X96210773Y-60947555D01*
X96132132Y-60793212D01*
X96030314Y-60653072D01*
X95907828Y-60530586D01*
X95767688Y-60428768D01*
X95613345Y-60350127D01*
X95448601Y-60296598D01*
X95448599Y-60296597D01*
X95448598Y-60296597D01*
X95317171Y-60275781D01*
X95277511Y-60269500D01*
X94304289Y-60269500D01*
X94264628Y-60275781D01*
X94133202Y-60296597D01*
X93968452Y-60350128D01*
X93814111Y-60428768D01*
X93734156Y-60486859D01*
X93673972Y-60530586D01*
X93673970Y-60530588D01*
X93673969Y-60530588D01*
X93551488Y-60653069D01*
X93551488Y-60653070D01*
X93551486Y-60653072D01*
X93507759Y-60713256D01*
X93449668Y-60793211D01*
X93371028Y-60947552D01*
X93317497Y-61112302D01*
X93290400Y-61283389D01*
X71991329Y-61283389D01*
X72013146Y-61216243D01*
X72046400Y-61006287D01*
X72046400Y-60793713D01*
X72013146Y-60583757D01*
X71947457Y-60381588D01*
X71850951Y-60192184D01*
X71850949Y-60192181D01*
X71850948Y-60192179D01*
X71726009Y-60020213D01*
X71575692Y-59869896D01*
X71575684Y-59869890D01*
X71411104Y-59750316D01*
X71368440Y-59694989D01*
X71362461Y-59625376D01*
X71395066Y-59563580D01*
X71411099Y-59549686D01*
X71575692Y-59430104D01*
X71726004Y-59279792D01*
X71726006Y-59279788D01*
X71726009Y-59279786D01*
X71850948Y-59107820D01*
X71850947Y-59107820D01*
X71850951Y-59107816D01*
X71947457Y-58918412D01*
X72004326Y-58743389D01*
X93290400Y-58743389D01*
X93290400Y-58916611D01*
X93317498Y-59087701D01*
X93371027Y-59252445D01*
X93449668Y-59406788D01*
X93551486Y-59546928D01*
X93673972Y-59669414D01*
X93814112Y-59771232D01*
X93968455Y-59849873D01*
X94133199Y-59903402D01*
X94304289Y-59930500D01*
X94304290Y-59930500D01*
X95277510Y-59930500D01*
X95277511Y-59930500D01*
X95448601Y-59903402D01*
X95613345Y-59849873D01*
X95767688Y-59771232D01*
X95907828Y-59669414D01*
X96030314Y-59546928D01*
X96132132Y-59406788D01*
X96210773Y-59252445D01*
X96264302Y-59087701D01*
X96291400Y-58916611D01*
X96291400Y-58743389D01*
X116150400Y-58743389D01*
X116150400Y-58916611D01*
X116177498Y-59087701D01*
X116231027Y-59252445D01*
X116309668Y-59406788D01*
X116411486Y-59546928D01*
X116533972Y-59669414D01*
X116674112Y-59771232D01*
X116828455Y-59849873D01*
X116993199Y-59903402D01*
X117164289Y-59930500D01*
X117164290Y-59930500D01*
X118137510Y-59930500D01*
X118137511Y-59930500D01*
X118308601Y-59903402D01*
X118473345Y-59849873D01*
X118627688Y-59771232D01*
X118767828Y-59669414D01*
X118890314Y-59546928D01*
X118992132Y-59406788D01*
X119070773Y-59252445D01*
X119124302Y-59087701D01*
X119151400Y-58916611D01*
X119151400Y-58743389D01*
X119146413Y-58711902D01*
X134140400Y-58711902D01*
X134140400Y-58948097D01*
X134177346Y-59181368D01*
X134250333Y-59405996D01*
X134326281Y-59555051D01*
X134357557Y-59616433D01*
X134496383Y-59807510D01*
X134663390Y-59974517D01*
X134854467Y-60113343D01*
X134953891Y-60164002D01*
X135064903Y-60220566D01*
X135064905Y-60220566D01*
X135064908Y-60220568D01*
X135185312Y-60259689D01*
X135289531Y-60293553D01*
X135522803Y-60330500D01*
X135522808Y-60330500D01*
X137258997Y-60330500D01*
X137492268Y-60293553D01*
X137566295Y-60269500D01*
X137716892Y-60220568D01*
X137927333Y-60113343D01*
X138118410Y-59974517D01*
X138285417Y-59807510D01*
X138424243Y-59616433D01*
X138531468Y-59405992D01*
X138604453Y-59181368D01*
X138616102Y-59107820D01*
X138641400Y-58948097D01*
X138641400Y-58711902D01*
X138604453Y-58478631D01*
X138531466Y-58254003D01*
X138474902Y-58142991D01*
X138424243Y-58043567D01*
X138285417Y-57852490D01*
X138118410Y-57685483D01*
X137927333Y-57546657D01*
X137875424Y-57520208D01*
X137716896Y-57439433D01*
X137492268Y-57366446D01*
X137258997Y-57329500D01*
X137258992Y-57329500D01*
X135522808Y-57329500D01*
X135522803Y-57329500D01*
X135289531Y-57366446D01*
X135064903Y-57439433D01*
X134854466Y-57546657D01*
X134745450Y-57625862D01*
X134663390Y-57685483D01*
X134663388Y-57685485D01*
X134663387Y-57685485D01*
X134496385Y-57852487D01*
X134496385Y-57852488D01*
X134496383Y-57852490D01*
X134436762Y-57934550D01*
X134357557Y-58043566D01*
X134250333Y-58254003D01*
X134177346Y-58478631D01*
X134140400Y-58711902D01*
X119146413Y-58711902D01*
X119124302Y-58572299D01*
X119070773Y-58407555D01*
X118992132Y-58253212D01*
X118890314Y-58113072D01*
X118767828Y-57990586D01*
X118627688Y-57888768D01*
X118473345Y-57810127D01*
X118308601Y-57756598D01*
X118308599Y-57756597D01*
X118308598Y-57756597D01*
X118177171Y-57735781D01*
X118137511Y-57729500D01*
X117164289Y-57729500D01*
X117124628Y-57735781D01*
X116993202Y-57756597D01*
X116828452Y-57810128D01*
X116674111Y-57888768D01*
X116594156Y-57946859D01*
X116533972Y-57990586D01*
X116533970Y-57990588D01*
X116533969Y-57990588D01*
X116411488Y-58113069D01*
X116411488Y-58113070D01*
X116411486Y-58113072D01*
X116367759Y-58173256D01*
X116309668Y-58253211D01*
X116231028Y-58407552D01*
X116231027Y-58407554D01*
X116231027Y-58407555D01*
X116204262Y-58489927D01*
X116177497Y-58572302D01*
X116153086Y-58726433D01*
X116150400Y-58743389D01*
X96291400Y-58743389D01*
X96264302Y-58572299D01*
X96210773Y-58407555D01*
X96132132Y-58253212D01*
X96030314Y-58113072D01*
X95907828Y-57990586D01*
X95767688Y-57888768D01*
X95613345Y-57810127D01*
X95448601Y-57756598D01*
X95448599Y-57756597D01*
X95448598Y-57756597D01*
X95317171Y-57735781D01*
X95277511Y-57729500D01*
X94304289Y-57729500D01*
X94264628Y-57735781D01*
X94133202Y-57756597D01*
X93968452Y-57810128D01*
X93814111Y-57888768D01*
X93734156Y-57946859D01*
X93673972Y-57990586D01*
X93673970Y-57990588D01*
X93673969Y-57990588D01*
X93551488Y-58113069D01*
X93551488Y-58113070D01*
X93551486Y-58113072D01*
X93507759Y-58173256D01*
X93449668Y-58253211D01*
X93371028Y-58407552D01*
X93371027Y-58407554D01*
X93371027Y-58407555D01*
X93344262Y-58489927D01*
X93317497Y-58572302D01*
X93293086Y-58726433D01*
X93290400Y-58743389D01*
X72004326Y-58743389D01*
X72013146Y-58716243D01*
X72046400Y-58506287D01*
X72046400Y-58293713D01*
X72013146Y-58083757D01*
X71947457Y-57881588D01*
X71850951Y-57692184D01*
X71850949Y-57692181D01*
X71850948Y-57692179D01*
X71726009Y-57520213D01*
X71587194Y-57381398D01*
X71553709Y-57320075D01*
X71558693Y-57250383D01*
X71600565Y-57194450D01*
X71609779Y-57188178D01*
X71615231Y-57184814D01*
X71615234Y-57184814D01*
X71764556Y-57092712D01*
X71888612Y-56968656D01*
X71980714Y-56819334D01*
X72035899Y-56652797D01*
X72046400Y-56550009D01*
X72046399Y-56203389D01*
X93290400Y-56203389D01*
X93290400Y-56376611D01*
X93317498Y-56547701D01*
X93351645Y-56652795D01*
X93371028Y-56712447D01*
X93449668Y-56866788D01*
X93551486Y-57006928D01*
X93673972Y-57129414D01*
X93814112Y-57231232D01*
X93968455Y-57309873D01*
X94133199Y-57363402D01*
X94304289Y-57390500D01*
X94304290Y-57390500D01*
X95277510Y-57390500D01*
X95277511Y-57390500D01*
X95448601Y-57363402D01*
X95613345Y-57309873D01*
X95767688Y-57231232D01*
X95907828Y-57129414D01*
X96030314Y-57006928D01*
X96132132Y-56866788D01*
X96210773Y-56712445D01*
X96264302Y-56547701D01*
X96291400Y-56376611D01*
X96291400Y-56203389D01*
X116150400Y-56203389D01*
X116150400Y-56376611D01*
X116177498Y-56547701D01*
X116211645Y-56652795D01*
X116231028Y-56712447D01*
X116309668Y-56866788D01*
X116411486Y-57006928D01*
X116533972Y-57129414D01*
X116674112Y-57231232D01*
X116828455Y-57309873D01*
X116993199Y-57363402D01*
X117164289Y-57390500D01*
X117164290Y-57390500D01*
X118137510Y-57390500D01*
X118137511Y-57390500D01*
X118308601Y-57363402D01*
X118473345Y-57309873D01*
X118627688Y-57231232D01*
X118767828Y-57129414D01*
X118890314Y-57006928D01*
X118992132Y-56866788D01*
X119070773Y-56712445D01*
X119124302Y-56547701D01*
X119151400Y-56376611D01*
X119151400Y-56203389D01*
X119124302Y-56032299D01*
X119070773Y-55867555D01*
X118992132Y-55713212D01*
X118890314Y-55573072D01*
X118767828Y-55450586D01*
X118627688Y-55348768D01*
X118473345Y-55270127D01*
X118308601Y-55216598D01*
X118308599Y-55216597D01*
X118308598Y-55216597D01*
X118177171Y-55195781D01*
X118137511Y-55189500D01*
X117164289Y-55189500D01*
X117124628Y-55195781D01*
X116993202Y-55216597D01*
X116828452Y-55270128D01*
X116674111Y-55348768D01*
X116624931Y-55384500D01*
X116533972Y-55450586D01*
X116533970Y-55450588D01*
X116533969Y-55450588D01*
X116411488Y-55573069D01*
X116411488Y-55573070D01*
X116411486Y-55573072D01*
X116367759Y-55633256D01*
X116309668Y-55713211D01*
X116231028Y-55867552D01*
X116177497Y-56032302D01*
X116162953Y-56124133D01*
X116150400Y-56203389D01*
X96291400Y-56203389D01*
X96264302Y-56032299D01*
X96210773Y-55867555D01*
X96132132Y-55713212D01*
X96030314Y-55573072D01*
X95907828Y-55450586D01*
X95767688Y-55348768D01*
X95613345Y-55270127D01*
X95448601Y-55216598D01*
X95448599Y-55216597D01*
X95448598Y-55216597D01*
X95317171Y-55195781D01*
X95277511Y-55189500D01*
X94304289Y-55189500D01*
X94264628Y-55195781D01*
X94133202Y-55216597D01*
X93968452Y-55270128D01*
X93814111Y-55348768D01*
X93764931Y-55384500D01*
X93673972Y-55450586D01*
X93673970Y-55450588D01*
X93673969Y-55450588D01*
X93551488Y-55573069D01*
X93551488Y-55573070D01*
X93551486Y-55573072D01*
X93507759Y-55633256D01*
X93449668Y-55713211D01*
X93371028Y-55867552D01*
X93317497Y-56032302D01*
X93302953Y-56124133D01*
X93290400Y-56203389D01*
X72046399Y-56203389D01*
X72046399Y-55867555D01*
X72046399Y-55249998D01*
X72046398Y-55249981D01*
X72035899Y-55147203D01*
X72035898Y-55147200D01*
X72002306Y-55045826D01*
X71980714Y-54980666D01*
X71888612Y-54831344D01*
X71764556Y-54707288D01*
X71651557Y-54637590D01*
X71615236Y-54615187D01*
X71615231Y-54615185D01*
X71546274Y-54592335D01*
X71448697Y-54560001D01*
X71448695Y-54560000D01*
X71345910Y-54549500D01*
X69795898Y-54549500D01*
X69795881Y-54549501D01*
X69693103Y-54560000D01*
X69693100Y-54560001D01*
X69526568Y-54615185D01*
X69526563Y-54615187D01*
X69377242Y-54707289D01*
X69253189Y-54831342D01*
X69161087Y-54980663D01*
X69161086Y-54980666D01*
X69105901Y-55147203D01*
X69105901Y-55147204D01*
X69105900Y-55147204D01*
X69095400Y-55249983D01*
X63075400Y-55249983D01*
X63075400Y-53102135D01*
X93290400Y-53102135D01*
X93290400Y-54397870D01*
X93290401Y-54397876D01*
X93296808Y-54457483D01*
X93347102Y-54592328D01*
X93347106Y-54592335D01*
X93433352Y-54707544D01*
X93433355Y-54707547D01*
X93548564Y-54793793D01*
X93548571Y-54793797D01*
X93683417Y-54844091D01*
X93683416Y-54844091D01*
X93690344Y-54844835D01*
X93743027Y-54850500D01*
X95838772Y-54850499D01*
X95898383Y-54844091D01*
X96033231Y-54793796D01*
X96148446Y-54707546D01*
X96234696Y-54592331D01*
X96284991Y-54457483D01*
X96291400Y-54397873D01*
X96291399Y-53499999D01*
X116176784Y-53499999D01*
X116176785Y-53500000D01*
X117335214Y-53500000D01*
X117330820Y-53504394D01*
X117278159Y-53595606D01*
X117250900Y-53697339D01*
X117250900Y-53802661D01*
X117278159Y-53904394D01*
X117330820Y-53995606D01*
X117335214Y-54000000D01*
X116176785Y-54000000D01*
X116177985Y-54007584D01*
X116231491Y-54172255D01*
X116310095Y-54326524D01*
X116411867Y-54466602D01*
X116534297Y-54589032D01*
X116674375Y-54690804D01*
X116828642Y-54769408D01*
X116993315Y-54822914D01*
X117164329Y-54850000D01*
X117400900Y-54850000D01*
X117400900Y-54065686D01*
X117405294Y-54070080D01*
X117496506Y-54122741D01*
X117598239Y-54150000D01*
X117703561Y-54150000D01*
X117805294Y-54122741D01*
X117896506Y-54070080D01*
X117900900Y-54065686D01*
X117900900Y-54850000D01*
X118137471Y-54850000D01*
X118308484Y-54822914D01*
X118473157Y-54769408D01*
X118627424Y-54690804D01*
X118767502Y-54589032D01*
X118889932Y-54466602D01*
X118991704Y-54326524D01*
X119070308Y-54172255D01*
X119123814Y-54007584D01*
X119125015Y-54000000D01*
X117966586Y-54000000D01*
X117970980Y-53995606D01*
X118023641Y-53904394D01*
X118050900Y-53802661D01*
X118050900Y-53697339D01*
X118023641Y-53595606D01*
X117970980Y-53504394D01*
X117966586Y-53500000D01*
X119125015Y-53500000D01*
X119125015Y-53499999D01*
X119123814Y-53492415D01*
X119070308Y-53327744D01*
X118991704Y-53173475D01*
X118889932Y-53033397D01*
X118767502Y-52910967D01*
X118627424Y-52809195D01*
X118473157Y-52730591D01*
X118308484Y-52677085D01*
X118137471Y-52650000D01*
X117900900Y-52650000D01*
X117900900Y-53434314D01*
X117896506Y-53429920D01*
X117805294Y-53377259D01*
X117703561Y-53350000D01*
X117598239Y-53350000D01*
X117496506Y-53377259D01*
X117405294Y-53429920D01*
X117400900Y-53434314D01*
X117400900Y-52650000D01*
X117164329Y-52650000D01*
X116993315Y-52677085D01*
X116828642Y-52730591D01*
X116674375Y-52809195D01*
X116534297Y-52910967D01*
X116411867Y-53033397D01*
X116310095Y-53173475D01*
X116231491Y-53327744D01*
X116177985Y-53492415D01*
X116176784Y-53499999D01*
X96291399Y-53499999D01*
X96291399Y-53102128D01*
X96284991Y-53042517D01*
X96281589Y-53033397D01*
X96234697Y-52907671D01*
X96234693Y-52907664D01*
X96148447Y-52792455D01*
X96148444Y-52792452D01*
X96033235Y-52706206D01*
X96033228Y-52706202D01*
X95898382Y-52655908D01*
X95898383Y-52655908D01*
X95838783Y-52649501D01*
X95838781Y-52649500D01*
X95838773Y-52649500D01*
X95838764Y-52649500D01*
X93743029Y-52649500D01*
X93743023Y-52649501D01*
X93683416Y-52655908D01*
X93548571Y-52706202D01*
X93548564Y-52706206D01*
X93433355Y-52792452D01*
X93433352Y-52792455D01*
X93347106Y-52907664D01*
X93347102Y-52907671D01*
X93296808Y-53042517D01*
X93290401Y-53102116D01*
X93290401Y-53102123D01*
X93290400Y-53102135D01*
X63075400Y-53102135D01*
X63075400Y-52282135D01*
X127890400Y-52282135D01*
X127890400Y-56377870D01*
X127890401Y-56377876D01*
X127896808Y-56437483D01*
X127947102Y-56572328D01*
X127947106Y-56572335D01*
X128033352Y-56687544D01*
X128033355Y-56687547D01*
X128148564Y-56773793D01*
X128148571Y-56773797D01*
X128283417Y-56824091D01*
X128283416Y-56824091D01*
X128290344Y-56824835D01*
X128343027Y-56830500D01*
X130438772Y-56830499D01*
X130498383Y-56824091D01*
X130633231Y-56773796D01*
X130748446Y-56687546D01*
X130834696Y-56572331D01*
X130884991Y-56437483D01*
X130891400Y-56377873D01*
X130891399Y-53561947D01*
X133890900Y-53561947D01*
X133890900Y-54080000D01*
X134890900Y-54080000D01*
X134890900Y-54580000D01*
X133890900Y-54580000D01*
X133890900Y-55098052D01*
X133927834Y-55331247D01*
X134000797Y-55555802D01*
X134107985Y-55766171D01*
X134246766Y-55957186D01*
X134413713Y-56124133D01*
X134604728Y-56262914D01*
X134815095Y-56370102D01*
X135039644Y-56443063D01*
X135039650Y-56443065D01*
X135140900Y-56459101D01*
X135140900Y-55413012D01*
X135197907Y-55445925D01*
X135325074Y-55480000D01*
X135456726Y-55480000D01*
X135583893Y-55445925D01*
X135640900Y-55413012D01*
X135640900Y-56459100D01*
X135742149Y-56443065D01*
X135742155Y-56443063D01*
X135966704Y-56370102D01*
X136177071Y-56262914D01*
X136368086Y-56124133D01*
X136535033Y-55957186D01*
X136673814Y-55766171D01*
X136781002Y-55555802D01*
X136853965Y-55331247D01*
X136890900Y-55098052D01*
X136890900Y-54580000D01*
X135890900Y-54580000D01*
X135890900Y-54226136D01*
X137336400Y-54226136D01*
X137336400Y-54433863D01*
X137376922Y-54637578D01*
X137376925Y-54637590D01*
X137456411Y-54829488D01*
X137456412Y-54829490D01*
X137571816Y-55002203D01*
X137571819Y-55002207D01*
X137718692Y-55149080D01*
X137718696Y-55149083D01*
X137891407Y-55264486D01*
X137891408Y-55264486D01*
X137891409Y-55264487D01*
X137891411Y-55264488D01*
X138052583Y-55331247D01*
X138083314Y-55343976D01*
X138264916Y-55380099D01*
X138287036Y-55384499D01*
X138287039Y-55384500D01*
X138287041Y-55384500D01*
X138494761Y-55384500D01*
X138494762Y-55384499D01*
X138698486Y-55343976D01*
X138890393Y-55264486D01*
X139063104Y-55149083D01*
X139209983Y-55002204D01*
X139325386Y-54829493D01*
X139404876Y-54637586D01*
X139445400Y-54433859D01*
X139445400Y-54226141D01*
X139445400Y-54226138D01*
X139445399Y-54226136D01*
X139434681Y-54172255D01*
X139404876Y-54022414D01*
X139325386Y-53830507D01*
X139209983Y-53657796D01*
X139209980Y-53657792D01*
X139063107Y-53510919D01*
X139063103Y-53510916D01*
X138890390Y-53395512D01*
X138890388Y-53395511D01*
X138698490Y-53316025D01*
X138698478Y-53316022D01*
X138494762Y-53275500D01*
X138494759Y-53275500D01*
X138287041Y-53275500D01*
X138287038Y-53275500D01*
X138083321Y-53316022D01*
X138083309Y-53316025D01*
X137891411Y-53395511D01*
X137891409Y-53395512D01*
X137718696Y-53510916D01*
X137718692Y-53510919D01*
X137571819Y-53657792D01*
X137571816Y-53657796D01*
X137456412Y-53830509D01*
X137456411Y-53830511D01*
X137376925Y-54022409D01*
X137376922Y-54022421D01*
X137336400Y-54226136D01*
X135890900Y-54226136D01*
X135890900Y-54080000D01*
X136890900Y-54080000D01*
X136890900Y-53561947D01*
X136853965Y-53328752D01*
X136781002Y-53104197D01*
X136673814Y-52893828D01*
X136535033Y-52702813D01*
X136368086Y-52535866D01*
X136177071Y-52397085D01*
X135966702Y-52289897D01*
X135742147Y-52216934D01*
X135640900Y-52200897D01*
X135640900Y-53246988D01*
X135583893Y-53214075D01*
X135456726Y-53180000D01*
X135325074Y-53180000D01*
X135197907Y-53214075D01*
X135140900Y-53246988D01*
X135140900Y-52200897D01*
X135039652Y-52216934D01*
X134815097Y-52289897D01*
X134604728Y-52397085D01*
X134413713Y-52535866D01*
X134246766Y-52702813D01*
X134107985Y-52893828D01*
X134000797Y-53104197D01*
X133927834Y-53328752D01*
X133890900Y-53561947D01*
X130891399Y-53561947D01*
X130891399Y-52282128D01*
X130884991Y-52222517D01*
X130876927Y-52200897D01*
X130834697Y-52087671D01*
X130834693Y-52087664D01*
X130748447Y-51972455D01*
X130748444Y-51972452D01*
X130633235Y-51886206D01*
X130633228Y-51886202D01*
X130498382Y-51835908D01*
X130498383Y-51835908D01*
X130438783Y-51829501D01*
X130438781Y-51829500D01*
X130438773Y-51829500D01*
X130438764Y-51829500D01*
X128343029Y-51829500D01*
X128343023Y-51829501D01*
X128283416Y-51835908D01*
X128148571Y-51886202D01*
X128148564Y-51886206D01*
X128033355Y-51972452D01*
X128033352Y-51972455D01*
X127947106Y-52087664D01*
X127947102Y-52087671D01*
X127896808Y-52222517D01*
X127890401Y-52282116D01*
X127890401Y-52282123D01*
X127890400Y-52282135D01*
X63075400Y-52282135D01*
X63075400Y-38499983D01*
X69095400Y-38499983D01*
X69095400Y-39800001D01*
X69095401Y-39800018D01*
X69105900Y-39902796D01*
X69105901Y-39902799D01*
X69161085Y-40069331D01*
X69161087Y-40069336D01*
X69253189Y-40218657D01*
X69377244Y-40342712D01*
X69532020Y-40438178D01*
X69578745Y-40490126D01*
X69589968Y-40559088D01*
X69562124Y-40623171D01*
X69554606Y-40631398D01*
X69415789Y-40770215D01*
X69290851Y-40942179D01*
X69194344Y-41131585D01*
X69128653Y-41333760D01*
X69095400Y-41543713D01*
X69095400Y-41756286D01*
X69128653Y-41966239D01*
X69194344Y-42168414D01*
X69290851Y-42357820D01*
X69415790Y-42529786D01*
X69566109Y-42680105D01*
X69566114Y-42680109D01*
X69730693Y-42799682D01*
X69773359Y-42855011D01*
X69779338Y-42924625D01*
X69746733Y-42986420D01*
X69730693Y-43000318D01*
X69566114Y-43119890D01*
X69566109Y-43119894D01*
X69415790Y-43270213D01*
X69290851Y-43442179D01*
X69194344Y-43631585D01*
X69128653Y-43833760D01*
X69095400Y-44043713D01*
X69095400Y-44256286D01*
X69128653Y-44466239D01*
X69194344Y-44668414D01*
X69290851Y-44857820D01*
X69415790Y-45029786D01*
X69566109Y-45180105D01*
X69566114Y-45180109D01*
X69730693Y-45299682D01*
X69773359Y-45355011D01*
X69779338Y-45424625D01*
X69746733Y-45486420D01*
X69730693Y-45500318D01*
X69566114Y-45619890D01*
X69566109Y-45619894D01*
X69415790Y-45770213D01*
X69290851Y-45942179D01*
X69194344Y-46131585D01*
X69128653Y-46333760D01*
X69095400Y-46543713D01*
X69095400Y-46756286D01*
X69128653Y-46966239D01*
X69194344Y-47168414D01*
X69290851Y-47357820D01*
X69415790Y-47529786D01*
X69566109Y-47680105D01*
X69566114Y-47680109D01*
X69731118Y-47799991D01*
X69773784Y-47855320D01*
X69779763Y-47924934D01*
X69747158Y-47986729D01*
X69731118Y-48000627D01*
X69566440Y-48120272D01*
X69566435Y-48120276D01*
X69416176Y-48270535D01*
X69416172Y-48270540D01*
X69291279Y-48442442D01*
X69194804Y-48631782D01*
X69129142Y-48833870D01*
X69129142Y-48833873D01*
X69118669Y-48900000D01*
X70166754Y-48900000D01*
X70128270Y-48966657D01*
X70095900Y-49087465D01*
X70095900Y-49212535D01*
X70128270Y-49333343D01*
X70166754Y-49400000D01*
X69118669Y-49400000D01*
X69129142Y-49466126D01*
X69129142Y-49466129D01*
X69194804Y-49668217D01*
X69291279Y-49857557D01*
X69416172Y-50029459D01*
X69416176Y-50029464D01*
X69566435Y-50179723D01*
X69566440Y-50179727D01*
X69738342Y-50304620D01*
X69927682Y-50401095D01*
X70129772Y-50466757D01*
X70320900Y-50497029D01*
X70320900Y-49554145D01*
X70387557Y-49592630D01*
X70508365Y-49625000D01*
X70633435Y-49625000D01*
X70754243Y-49592630D01*
X70820900Y-49554145D01*
X70820900Y-50497028D01*
X71012027Y-50466757D01*
X71214117Y-50401095D01*
X71403457Y-50304620D01*
X71575359Y-50179727D01*
X71575364Y-50179723D01*
X71725623Y-50029464D01*
X71725627Y-50029459D01*
X71850520Y-49857557D01*
X71924736Y-49711902D01*
X134140400Y-49711902D01*
X134140400Y-49948097D01*
X134177346Y-50181368D01*
X134250333Y-50405996D01*
X134357557Y-50616433D01*
X134496383Y-50807510D01*
X134663390Y-50974517D01*
X134854467Y-51113343D01*
X134953891Y-51164002D01*
X135064903Y-51220566D01*
X135064905Y-51220566D01*
X135064908Y-51220568D01*
X135185312Y-51259689D01*
X135289531Y-51293553D01*
X135522803Y-51330500D01*
X135522808Y-51330500D01*
X137258997Y-51330500D01*
X137492268Y-51293553D01*
X137716892Y-51220568D01*
X137927333Y-51113343D01*
X138118410Y-50974517D01*
X138285417Y-50807510D01*
X138424243Y-50616433D01*
X138531468Y-50405992D01*
X138604453Y-50181368D01*
X138604714Y-50179723D01*
X138641400Y-49948097D01*
X138641400Y-49711902D01*
X138604453Y-49478631D01*
X138570589Y-49374412D01*
X138531468Y-49254008D01*
X138531466Y-49254005D01*
X138531466Y-49254003D01*
X138424242Y-49043566D01*
X138368364Y-48966657D01*
X138285417Y-48852490D01*
X138118410Y-48685483D01*
X137927333Y-48546657D01*
X137716896Y-48439433D01*
X137492268Y-48366446D01*
X137258997Y-48329500D01*
X137258992Y-48329500D01*
X135522808Y-48329500D01*
X135522803Y-48329500D01*
X135289531Y-48366446D01*
X135064903Y-48439433D01*
X134854466Y-48546657D01*
X134745450Y-48625862D01*
X134663390Y-48685483D01*
X134663388Y-48685485D01*
X134663387Y-48685485D01*
X134496385Y-48852487D01*
X134496385Y-48852488D01*
X134496383Y-48852490D01*
X134492131Y-48858343D01*
X134357557Y-49043566D01*
X134250333Y-49254003D01*
X134177346Y-49478631D01*
X134140400Y-49711902D01*
X71924736Y-49711902D01*
X71946995Y-49668216D01*
X72012657Y-49466129D01*
X72012657Y-49466126D01*
X72023131Y-49400000D01*
X70975046Y-49400000D01*
X71013530Y-49333343D01*
X71045900Y-49212535D01*
X71045900Y-49087465D01*
X71013530Y-48966657D01*
X70975046Y-48900000D01*
X72023131Y-48900000D01*
X72012657Y-48833873D01*
X72012657Y-48833870D01*
X71946995Y-48631782D01*
X71850520Y-48442442D01*
X71725627Y-48270540D01*
X71725623Y-48270535D01*
X71575364Y-48120276D01*
X71575359Y-48120272D01*
X71410681Y-48000627D01*
X71368015Y-47945297D01*
X71362036Y-47875684D01*
X71394641Y-47813889D01*
X71410676Y-47799994D01*
X71575692Y-47680104D01*
X71726004Y-47529792D01*
X71726006Y-47529788D01*
X71726009Y-47529786D01*
X71850948Y-47357820D01*
X71850947Y-47357820D01*
X71850951Y-47357816D01*
X71947457Y-47168412D01*
X72013146Y-46966243D01*
X72046400Y-46756287D01*
X72046400Y-46543713D01*
X72013146Y-46333757D01*
X71947457Y-46131588D01*
X71850951Y-45942184D01*
X71850949Y-45942181D01*
X71850948Y-45942179D01*
X71726009Y-45770213D01*
X71575692Y-45619896D01*
X71575684Y-45619890D01*
X71411104Y-45500316D01*
X71368440Y-45444989D01*
X71362461Y-45375376D01*
X71395066Y-45313580D01*
X71411099Y-45299686D01*
X71575692Y-45180104D01*
X71726004Y-45029792D01*
X71726006Y-45029788D01*
X71726009Y-45029786D01*
X71850948Y-44857820D01*
X71850947Y-44857820D01*
X71850951Y-44857816D01*
X71947457Y-44668412D01*
X72013146Y-44466243D01*
X72046400Y-44256287D01*
X72046400Y-44043713D01*
X72013146Y-43833757D01*
X71947457Y-43631588D01*
X71850951Y-43442184D01*
X71850949Y-43442181D01*
X71850948Y-43442179D01*
X71726009Y-43270213D01*
X71575692Y-43119896D01*
X71575684Y-43119890D01*
X71411104Y-43000316D01*
X71368440Y-42944989D01*
X71362461Y-42875376D01*
X71395066Y-42813580D01*
X71411099Y-42799686D01*
X71575692Y-42680104D01*
X71726004Y-42529792D01*
X71726006Y-42529788D01*
X71726009Y-42529786D01*
X71850948Y-42357820D01*
X71850947Y-42357820D01*
X71850951Y-42357816D01*
X71947457Y-42168412D01*
X72013146Y-41966243D01*
X72046400Y-41756287D01*
X72046400Y-41543713D01*
X72013146Y-41333757D01*
X71947457Y-41131588D01*
X71850951Y-40942184D01*
X71850949Y-40942181D01*
X71850948Y-40942179D01*
X71726009Y-40770213D01*
X71587194Y-40631398D01*
X71553709Y-40570075D01*
X71558693Y-40500383D01*
X71600565Y-40444450D01*
X71609779Y-40438178D01*
X71615231Y-40434814D01*
X71615234Y-40434814D01*
X71764556Y-40342712D01*
X71888612Y-40218656D01*
X71980714Y-40069334D01*
X72035899Y-39902797D01*
X72046400Y-39800009D01*
X72046399Y-38499992D01*
X72035899Y-38397203D01*
X71980714Y-38230666D01*
X71888612Y-38081344D01*
X71764556Y-37957288D01*
X71615234Y-37865186D01*
X71448697Y-37810001D01*
X71448695Y-37810000D01*
X71345910Y-37799500D01*
X69795898Y-37799500D01*
X69795881Y-37799501D01*
X69693103Y-37810000D01*
X69693100Y-37810001D01*
X69526568Y-37865185D01*
X69526563Y-37865187D01*
X69377242Y-37957289D01*
X69253189Y-38081342D01*
X69161087Y-38230663D01*
X69161086Y-38230666D01*
X69105901Y-38397203D01*
X69105901Y-38397204D01*
X69105900Y-38397204D01*
X69095400Y-38499983D01*
X63075400Y-38499983D01*
X63075400Y-36032706D01*
X63075518Y-36027298D01*
X63077610Y-35979377D01*
X63093526Y-35614815D01*
X63094466Y-35604082D01*
X63148003Y-35197423D01*
X63149877Y-35186793D01*
X63211923Y-34906925D01*
X77658980Y-34906925D01*
X77658980Y-35188234D01*
X77690474Y-35467747D01*
X77690476Y-35467763D01*
X77753070Y-35742004D01*
X77845979Y-36007524D01*
X77968027Y-36260960D01*
X77968029Y-36260963D01*
X78117690Y-36499146D01*
X78293077Y-36719074D01*
X78491986Y-36917983D01*
X78711914Y-37093370D01*
X78950097Y-37243031D01*
X79203539Y-37365082D01*
X79469053Y-37457989D01*
X79743300Y-37520584D01*
X80022825Y-37552079D01*
X80022826Y-37552080D01*
X80022830Y-37552080D01*
X80304134Y-37552080D01*
X80304134Y-37552079D01*
X80583660Y-37520584D01*
X80857907Y-37457989D01*
X81123421Y-37365082D01*
X81376863Y-37243031D01*
X81615046Y-37093370D01*
X81834974Y-36917983D01*
X82033883Y-36719074D01*
X82209270Y-36499146D01*
X82358931Y-36260963D01*
X82480982Y-36007521D01*
X82573889Y-35742007D01*
X82636484Y-35467760D01*
X82667980Y-35188230D01*
X82667980Y-34906930D01*
X82667979Y-34906925D01*
X136068820Y-34906925D01*
X136068820Y-35188234D01*
X136100314Y-35467747D01*
X136100316Y-35467763D01*
X136162910Y-35742004D01*
X136255819Y-36007524D01*
X136377867Y-36260960D01*
X136377869Y-36260963D01*
X136527530Y-36499146D01*
X136702917Y-36719074D01*
X136901826Y-36917983D01*
X137121754Y-37093370D01*
X137359937Y-37243031D01*
X137613379Y-37365082D01*
X137878893Y-37457989D01*
X138153140Y-37520584D01*
X138432665Y-37552079D01*
X138432666Y-37552080D01*
X138432670Y-37552080D01*
X138713974Y-37552080D01*
X138713974Y-37552079D01*
X138993500Y-37520584D01*
X139267747Y-37457989D01*
X139533261Y-37365082D01*
X139786703Y-37243031D01*
X140024886Y-37093370D01*
X140244814Y-36917983D01*
X140443723Y-36719074D01*
X140619110Y-36499146D01*
X140768771Y-36260963D01*
X140890822Y-36007521D01*
X140983729Y-35742007D01*
X141046324Y-35467760D01*
X141077820Y-35188230D01*
X141077820Y-34906930D01*
X141046324Y-34627400D01*
X140983729Y-34353153D01*
X140890822Y-34087639D01*
X140768771Y-33834197D01*
X140619110Y-33596014D01*
X140443723Y-33376086D01*
X140244814Y-33177177D01*
X140024886Y-33001790D01*
X139786703Y-32852129D01*
X139786700Y-32852127D01*
X139533264Y-32730079D01*
X139267744Y-32637170D01*
X138993503Y-32574576D01*
X138993487Y-32574574D01*
X138713974Y-32543080D01*
X138713970Y-32543080D01*
X138432670Y-32543080D01*
X138432666Y-32543080D01*
X138153152Y-32574574D01*
X138153136Y-32574576D01*
X137878895Y-32637170D01*
X137613375Y-32730079D01*
X137359939Y-32852127D01*
X137121755Y-33001789D01*
X136901826Y-33177176D01*
X136702916Y-33376086D01*
X136527529Y-33596015D01*
X136377867Y-33834199D01*
X136255819Y-34087635D01*
X136162910Y-34353155D01*
X136100316Y-34627396D01*
X136100314Y-34627412D01*
X136068820Y-34906925D01*
X82667979Y-34906925D01*
X82636484Y-34627400D01*
X82573889Y-34353153D01*
X82480982Y-34087639D01*
X82358931Y-33834197D01*
X82209270Y-33596014D01*
X82033883Y-33376086D01*
X81834974Y-33177177D01*
X81615046Y-33001790D01*
X81376863Y-32852129D01*
X81376860Y-32852127D01*
X81123424Y-32730079D01*
X80857904Y-32637170D01*
X80583663Y-32574576D01*
X80583647Y-32574574D01*
X80304134Y-32543080D01*
X80304130Y-32543080D01*
X80022830Y-32543080D01*
X80022826Y-32543080D01*
X79743312Y-32574574D01*
X79743296Y-32574576D01*
X79469055Y-32637170D01*
X79203535Y-32730079D01*
X78950099Y-32852127D01*
X78711915Y-33001789D01*
X78491986Y-33177176D01*
X78293076Y-33376086D01*
X78117689Y-33596015D01*
X77968027Y-33834199D01*
X77845979Y-34087635D01*
X77753070Y-34353155D01*
X77690476Y-34627396D01*
X77690474Y-34627412D01*
X77658980Y-34906925D01*
X63211923Y-34906925D01*
X63238656Y-34786339D01*
X63241454Y-34775901D01*
X63364787Y-34384737D01*
X63368484Y-34374581D01*
X63377360Y-34353153D01*
X63525447Y-33995639D01*
X63529996Y-33985883D01*
X63719417Y-33622007D01*
X63724790Y-33612703D01*
X63945176Y-33266767D01*
X63951367Y-33257924D01*
X64201066Y-32932511D01*
X64208004Y-32924242D01*
X64485109Y-32621835D01*
X64492735Y-32614209D01*
X64795142Y-32337104D01*
X64803411Y-32330166D01*
X65128824Y-32080467D01*
X65137667Y-32074276D01*
X65483603Y-31853890D01*
X65492907Y-31848517D01*
X65856783Y-31659096D01*
X65866539Y-31654547D01*
X66245490Y-31497580D01*
X66255637Y-31493887D01*
X66646810Y-31370551D01*
X66657239Y-31367756D01*
X67057693Y-31278977D01*
X67068323Y-31277103D01*
X67474982Y-31223566D01*
X67485715Y-31222626D01*
X67884816Y-31205202D01*
X67898198Y-31204618D01*
X67903606Y-31204500D01*
X67945775Y-31204500D01*
X137746025Y-31204500D01*
X137788194Y-31204500D01*
X137793602Y-31204618D01*
G37*
%TD.AperFunction*%
%TD*%
M02*
