M48
; DRILL file {KiCad 9.0.7} date 2026-02-19T22:53:16-0500
; FORMAT={-:-/ absolute / metric / decimal}
; #@! TF.CreationDate,2026-02-19T22:53:16-05:00
; #@! TF.GenerationSoftware,Kicad,Pcbnew,9.0.7
; #@! TF.FileFunction,Plated,1,2,PTH
FMAT,2
METRIC
; #@! TA.AperFunction,Plated,PTH,ViaDrill
T1C0.300
; #@! TA.AperFunction,Plated,PTH,ComponentDrill
T2C0.800
; #@! TA.AperFunction,Plated,PTH,ComponentDrill
T3C0.950
; #@! TA.AperFunction,Plated,PTH,ComponentDrill
T4C1.000
%
G90
G05
T1
X90.171Y-61.8
X90.171Y-64.09
X90.941Y-68.58
X90.941Y-72.24
X91.571Y-59.6
X91.771Y-61.8
X92.851Y-72.74
X95.664Y-69.367
X97.541Y-64.09
X97.941Y-73.99
X97.941Y-78.62
X99.641Y-74.048
X99.641Y-77.872
X102.031Y-73.82
X102.031Y-77.95
X102.731Y-69.43
X109.035Y-64.516
X110.911Y-64.52
X116.371Y-49.8
X123.611Y-58.329
X125.751Y-55.51
T2
X95.238Y-52.85
X95.238Y-55.39
X95.238Y-57.93
X95.238Y-60.47
X95.238Y-63.01
X95.238Y-65.55
X95.238Y-68.09
X95.238Y-70.63
X95.238Y-73.17
X95.238Y-75.71
X95.238Y-78.25
X95.238Y-80.79
X95.238Y-83.33
X95.238Y-85.87
X95.238Y-88.41
X95.238Y-90.95
X118.098Y-52.85
X118.098Y-55.39
X118.098Y-57.93
X118.098Y-60.47
X118.098Y-63.01
X118.098Y-65.55
X118.098Y-68.09
X118.098Y-70.63
X118.098Y-73.17
X118.098Y-75.71
X118.098Y-78.25
X118.098Y-80.79
X118.098Y-83.33
X118.098Y-85.87
X118.098Y-88.41
X118.098Y-90.95
T3
X85.071Y-103.75
X85.071Y-106.25
X85.071Y-108.75
X85.131Y-60.57
X85.131Y-63.07
X85.131Y-65.57
X85.131Y-68.07
X85.131Y-70.57
X85.131Y-78.57
X85.131Y-81.07
X85.131Y-83.57
X85.131Y-91.57
X85.131Y-94.07
X85.131Y-96.57
X85.231Y-42.57
X85.231Y-45.07
X85.231Y-47.57
X85.231Y-50.07
X85.231Y-52.57
X123.611Y-68.6
X123.611Y-71.14
X123.611Y-73.68
X123.611Y-76.22
X123.611Y-78.76
X123.611Y-81.3
T4
X123.761Y-92.75
X123.761Y-95.29
X123.761Y-97.83
X123.761Y-100.37
X123.761Y-102.91
X123.761Y-105.45
X123.761Y-107.99
T4
G00X129.391Y-55.33
M15
G01X129.391Y-53.33
M16
G05
G00X135.391Y-54.98
M15
G01X135.391Y-53.68
M16
G05
G00X135.641Y-49.83
M15
G01X137.141Y-49.83
M16
G05
G00X135.641Y-58.83
M15
G01X137.141Y-58.83
M16
G05
M30
