%TF.GenerationSoftware,KiCad,Pcbnew,9.0.7*%
%TF.CreationDate,2026-02-19T22:53:12-05:00*%
%TF.ProjectId,ESP32-Adapter,45535033-322d-4416-9461-707465722e6b,rev?*%
%TF.SameCoordinates,Original*%
%TF.FileFunction,Copper,L1,Top*%
%TF.FilePolarity,Positive*%
%FSLAX46Y46*%
G04 Gerber Fmt 4.6, Leading zero omitted, Abs format (unit mm)*
G04 Created by KiCad (PCBNEW 9.0.7) date 2026-02-19 22:53:12*
%MOMM*%
%LPD*%
G01*
G04 APERTURE LIST*
G04 Aperture macros list*
%AMRoundRect*
0 Rectangle with rounded corners*
0 $1 Rounding radius*
0 $2 $3 $4 $5 $6 $7 $8 $9 X,Y pos of 4 corners*
0 Add a 4 corners polygon primitive as box body*
4,1,4,$2,$3,$4,$5,$6,$7,$8,$9,$2,$3,0*
0 Add four circle primitives for the rounded corners*
1,1,$1+$1,$2,$3*
1,1,$1+$1,$4,$5*
1,1,$1+$1,$6,$7*
1,1,$1+$1,$8,$9*
0 Add four rect primitives between the rounded corners*
20,1,$1+$1,$2,$3,$4,$5,0*
20,1,$1+$1,$4,$5,$6,$7,0*
20,1,$1+$1,$6,$7,$8,$9,0*
20,1,$1+$1,$8,$9,$2,$3,0*%
G04 Aperture macros list end*
%TA.AperFunction,ComponentPad*%
%ADD10C,1.700000*%
%TD*%
%TA.AperFunction,ComponentPad*%
%ADD11RoundRect,0.250000X-0.725000X0.600000X-0.725000X-0.600000X0.725000X-0.600000X0.725000X0.600000X0*%
%TD*%
%TA.AperFunction,ComponentPad*%
%ADD12O,1.950000X1.700000*%
%TD*%
%TA.AperFunction,SMDPad,CuDef*%
%ADD13RoundRect,0.140000X-0.170000X0.140000X-0.170000X-0.140000X0.170000X-0.140000X0.170000X0.140000X0*%
%TD*%
%TA.AperFunction,SMDPad,CuDef*%
%ADD14RoundRect,0.375000X0.375000X-0.625000X0.375000X0.625000X-0.375000X0.625000X-0.375000X-0.625000X0*%
%TD*%
%TA.AperFunction,SMDPad,CuDef*%
%ADD15RoundRect,0.500000X1.400000X-0.500000X1.400000X0.500000X-1.400000X0.500000X-1.400000X-0.500000X0*%
%TD*%
%TA.AperFunction,ComponentPad*%
%ADD16R,1.700000X1.700000*%
%TD*%
%TA.AperFunction,ComponentPad*%
%ADD17R,2.000000X1.200000*%
%TD*%
%TA.AperFunction,ComponentPad*%
%ADD18O,2.000000X1.200000*%
%TD*%
%TA.AperFunction,ComponentPad*%
%ADD19R,2.000000X4.000000*%
%TD*%
%TA.AperFunction,ComponentPad*%
%ADD20O,2.000000X3.300000*%
%TD*%
%TA.AperFunction,ComponentPad*%
%ADD21O,3.500000X2.000000*%
%TD*%
%TA.AperFunction,SMDPad,CuDef*%
%ADD22RoundRect,0.135000X0.135000X0.185000X-0.135000X0.185000X-0.135000X-0.185000X0.135000X-0.185000X0*%
%TD*%
%TA.AperFunction,SMDPad,CuDef*%
%ADD23RoundRect,0.135000X-0.135000X-0.185000X0.135000X-0.185000X0.135000X0.185000X-0.135000X0.185000X0*%
%TD*%
%TA.AperFunction,SMDPad,CuDef*%
%ADD24R,1.111200X0.450800*%
%TD*%
%TA.AperFunction,ViaPad*%
%ADD25C,0.600000*%
%TD*%
%TA.AperFunction,Conductor*%
%ADD26C,0.203200*%
%TD*%
%TA.AperFunction,Conductor*%
%ADD27C,0.200000*%
%TD*%
%TA.AperFunction,Conductor*%
%ADD28C,0.500000*%
%TD*%
G04 APERTURE END LIST*
D10*
%TO.P,U4,1,VCC*%
%TO.N,+3.3V*%
X123610900Y-68600000D03*
%TO.P,U4,2,GND*%
%TO.N,GND*%
X123610900Y-71140000D03*
%TO.P,U4,3,SCL*%
%TO.N,/I2C SCL*%
X123610900Y-73680000D03*
%TO.P,U4,4,SDA*%
%TO.N,/I2C SDA*%
X123610900Y-76220000D03*
%TO.P,U4,5,VIN-*%
%TO.N,unconnected-(U4-VIN--Pad5)*%
X123610900Y-78760000D03*
%TO.P,U4,6,VIN+*%
%TO.N,unconnected-(U4-VIN+-Pad6)*%
X123610900Y-81300000D03*
%TD*%
D11*
%TO.P,Analog 1,1,Pin_1*%
%TO.N,+3.3V*%
X85130900Y-78570000D03*
D12*
%TO.P,Analog 1,2,Pin_2*%
%TO.N,/SIG1*%
X85130900Y-81070000D03*
%TO.P,Analog 1,3,Pin_3*%
%TO.N,GND*%
X85130900Y-83570000D03*
%TD*%
D13*
%TO.P,C3,1*%
%TO.N,/SIG1*%
X92850900Y-70900000D03*
%TO.P,C3,2*%
%TO.N,GND*%
X92850900Y-71860000D03*
%TD*%
D14*
%TO.P,U2,1,ADJ*%
%TO.N,Net-(U2-ADJ)*%
X120770900Y-48600000D03*
%TO.P,U2,2,VO*%
%TO.N,Net-(D1-A)*%
X123070900Y-48600000D03*
D15*
X123070900Y-42300000D03*
D14*
%TO.P,U2,3,VI*%
%TO.N,Net-(U2-VI)*%
X125370900Y-48600000D03*
%TD*%
D11*
%TO.P,WS2812 LED,1,Pin_1*%
%TO.N,+3.3V*%
X85070900Y-103750000D03*
D12*
%TO.P,WS2812 LED,2,Pin_2*%
%TO.N,/WS2812*%
X85070900Y-106250000D03*
%TO.P,WS2812 LED,3,Pin_3*%
%TO.N,GND*%
X85070900Y-108750000D03*
%TD*%
D16*
%TO.P,U3,1,Vcc*%
%TO.N,+3.3V*%
X123760900Y-92750000D03*
D10*
%TO.P,U3,2,GND*%
%TO.N,GND*%
X123760900Y-95290000D03*
%TO.P,U3,3,RX*%
%TO.N,/CAN RX*%
X123760900Y-97830000D03*
%TO.P,U3,4,TX*%
%TO.N,/CAN TX*%
X123760900Y-100370000D03*
%TO.P,U3,5,SLNT*%
%TO.N,unconnected-(U3-SLNT-Pad5)*%
X123760900Y-102910000D03*
%TO.P,U3,6,CANH*%
%TO.N,unconnected-(U3-CANH-Pad6)*%
X123760900Y-105450000D03*
%TO.P,U3,7,CANL*%
%TO.N,unconnected-(U3-CANL-Pad7)*%
X123760900Y-107990000D03*
%TD*%
D13*
%TO.P,C2,1*%
%TO.N,Net-(D1-A)*%
X114070900Y-43520000D03*
%TO.P,C2,2*%
%TO.N,GND*%
X114070900Y-44480000D03*
%TD*%
%TO.P,C1,1*%
%TO.N,Net-(U2-VI)*%
X125760900Y-53550000D03*
%TO.P,C1,2*%
%TO.N,GND*%
X125760900Y-54510000D03*
%TD*%
D11*
%TO.P,Encoder 1,1,Pin_1*%
%TO.N,+3.3V*%
X85130900Y-60570000D03*
D12*
%TO.P,Encoder 1,2,Pin_2*%
%TO.N,/B1*%
X85130900Y-63070000D03*
%TO.P,Encoder 1,3,Pin_3*%
%TO.N,/A1*%
X85130900Y-65570000D03*
%TO.P,Encoder 1,4,Pin_4*%
%TO.N,/IDX1*%
X85130900Y-68070000D03*
%TO.P,Encoder 1,5,Pin_5*%
%TO.N,GND*%
X85130900Y-70570000D03*
%TD*%
D17*
%TO.P,U1,1,3V3*%
%TO.N,+3.3V*%
X95237700Y-52850320D03*
D18*
%TO.P,U1,2,EN/RESET*%
%TO.N,unconnected-(U1-EN{slash}RESET-Pad2)*%
X95237700Y-55390320D03*
%TO.P,U1,3,GPIO2/MTMS*%
%TO.N,/SIG2*%
X95237700Y-57930320D03*
%TO.P,U1,4,GPIO3/MTDI*%
%TO.N,/B2*%
X95237700Y-60470320D03*
%TO.P,U1,5,GPIO4/MTCK*%
%TO.N,/CAN TX*%
X95237700Y-63010320D03*
%TO.P,U1,6,GPIO5/MTDO*%
%TO.N,/CAN RX*%
X95237700Y-65550320D03*
%TO.P,U1,7,GPIO0*%
%TO.N,/WS2812*%
X95237700Y-68090320D03*
%TO.P,U1,8,GPIO1*%
%TO.N,/SIG1*%
X95237700Y-70630320D03*
%TO.P,U1,9,GPIO27*%
%TO.N,unconnected-(U1-GPIO27-Pad9)*%
X95237700Y-73170320D03*
%TO.P,U1,10,GPIO6*%
%TO.N,/I2C SDA*%
X95237700Y-75710320D03*
%TO.P,U1,11,GPIO7*%
%TO.N,/I2C SCL*%
X95237700Y-78250320D03*
%TO.P,U1,12,GPIO26*%
%TO.N,unconnected-(U1-GPIO26-Pad12)*%
X95237700Y-80790320D03*
%TO.P,U1,13,GPIO25*%
%TO.N,unconnected-(U1-GPIO25-Pad13)*%
X95237700Y-83330320D03*
%TO.P,U1,14,5V*%
%TO.N,unconnected-(U1-5V-Pad14)*%
X95237700Y-85870320D03*
%TO.P,U1,15,GND*%
%TO.N,GND*%
X95237700Y-88410320D03*
%TO.P,U1,16,NC*%
%TO.N,unconnected-(U1-NC-Pad16)*%
X95237700Y-90950320D03*
%TO.P,U1,17,NC*%
%TO.N,unconnected-(U1-NC-Pad17)*%
X118097700Y-90950320D03*
%TO.P,U1,18,GND*%
%TO.N,GND*%
X118097700Y-88410320D03*
%TO.P,U1,19,GPIO13/USB_D-*%
%TO.N,unconnected-(U1-GPIO13{slash}USB_D--Pad19)*%
X118097700Y-85870320D03*
%TO.P,U1,20,GPIO14/USB_D+*%
%TO.N,unconnected-(U1-GPIO14{slash}USB_D+-Pad20)*%
X118097700Y-83330320D03*
%TO.P,U1,21,GND*%
%TO.N,GND*%
X118097700Y-80790320D03*
%TO.P,U1,22,GPIO28*%
%TO.N,unconnected-(U1-GPIO28-Pad22)*%
X118097700Y-78250320D03*
%TO.P,U1,23,NC*%
%TO.N,unconnected-(U1-NC-Pad23)*%
X118097700Y-75710320D03*
%TO.P,U1,24,GPIO8*%
%TO.N,/IDX1*%
X118097700Y-73170320D03*
%TO.P,U1,25,GPIO9*%
%TO.N,/IDX2*%
X118097700Y-70630320D03*
%TO.P,U1,26,GPIO10*%
%TO.N,/A1*%
X118097700Y-68090320D03*
%TO.P,U1,27,GPIO15*%
%TO.N,unconnected-(U1-GPIO15-Pad27)*%
X118097700Y-65550320D03*
%TO.P,U1,28,GPIO23*%
%TO.N,/A2*%
X118097700Y-63010320D03*
%TO.P,U1,29,GPIO24*%
%TO.N,/B1*%
X118097700Y-60470320D03*
%TO.P,U1,30,GPIO12/U0RXD*%
%TO.N,unconnected-(U1-GPIO12{slash}U0RXD-Pad30)*%
X118097700Y-57930320D03*
%TO.P,U1,31,GPIO11/U0TXD*%
%TO.N,unconnected-(U1-GPIO11{slash}U0TXD-Pad31)*%
X118097700Y-55390320D03*
%TO.P,U1,32,GND*%
%TO.N,GND*%
X118097700Y-52850320D03*
%TD*%
D11*
%TO.P,Encoder 2,1,Pin_1*%
%TO.N,+3.3V*%
X85230900Y-42570000D03*
D12*
%TO.P,Encoder 2,2,Pin_2*%
%TO.N,/B2*%
X85230900Y-45070000D03*
%TO.P,Encoder 2,3,Pin_3*%
%TO.N,/A2*%
X85230900Y-47570000D03*
%TO.P,Encoder 2,4,Pin_4*%
%TO.N,/IDX2*%
X85230900Y-50070000D03*
%TO.P,Encoder 2,5,Pin_5*%
%TO.N,GND*%
X85230900Y-52570000D03*
%TD*%
D11*
%TO.P,Analog 2,1,Pin_1*%
%TO.N,+3.3V*%
X85130900Y-91570000D03*
D12*
%TO.P,Analog 2,2,Pin_2*%
%TO.N,/SIG2*%
X85130900Y-94070000D03*
%TO.P,Analog 2,3,Pin_3*%
%TO.N,GND*%
X85130900Y-96570000D03*
%TD*%
D19*
%TO.P,J10,1*%
%TO.N,Net-(U2-VI)*%
X129390900Y-54330000D03*
D20*
%TO.P,J10,2*%
%TO.N,GND*%
X135390900Y-54330000D03*
D21*
%TO.P,J10,MP*%
%TO.N,N/C*%
X136390900Y-58830000D03*
X136390900Y-49830000D03*
%TD*%
D13*
%TO.P,C4,1*%
%TO.N,/SIG2*%
X91570900Y-58000000D03*
%TO.P,C4,2*%
%TO.N,GND*%
X91570900Y-58960000D03*
%TD*%
D22*
%TO.P,R1,1*%
%TO.N,GND*%
X118320900Y-48020000D03*
%TO.P,R1,2*%
%TO.N,Net-(U2-ADJ)*%
X117300900Y-48020000D03*
%TD*%
D23*
%TO.P,R2,1*%
%TO.N,Net-(U2-ADJ)*%
X117300900Y-44010000D03*
%TO.P,R2,2*%
%TO.N,Net-(D1-A)*%
X118320900Y-44010000D03*
%TD*%
D24*
%TO.P,D1,1,K*%
%TO.N,+3.3V*%
X115380900Y-40780000D03*
%TO.P,D1,2,A*%
%TO.N,Net-(D1-A)*%
X117680900Y-40780000D03*
%TD*%
D25*
%TO.N,GND*%
X91570900Y-59600000D03*
X125750900Y-55510000D03*
X92850900Y-72740000D03*
%TO.N,/SIG2*%
X90940900Y-68580000D03*
X90940900Y-72240000D03*
%TO.N,+3.3V*%
X116370900Y-49800000D03*
X123610900Y-58328591D03*
%TO.N,/IDX1*%
X95663744Y-69367156D03*
X102730900Y-69430000D03*
%TO.N,/A1*%
X97540900Y-64090000D03*
X90170900Y-64090000D03*
%TO.N,/B1*%
X91770900Y-61800000D03*
X109034691Y-64516209D03*
X110910900Y-64520000D03*
X90170900Y-61800000D03*
%TO.N,/CAN TX*%
X102030900Y-77950000D03*
X102030900Y-73820000D03*
%TO.N,/CAN RX*%
X99640900Y-74048400D03*
X99640900Y-77871600D03*
%TO.N,/WS2812*%
X97940900Y-73990000D03*
X97940900Y-78620000D03*
%TD*%
D26*
%TO.N,GND*%
X92850900Y-71860000D02*
X92850900Y-72740000D01*
D27*
X118097700Y-47750000D02*
X118097700Y-52850320D01*
D28*
X125760900Y-55500000D02*
X125750900Y-55510000D01*
D27*
X114070900Y-46243200D02*
X114070900Y-44770000D01*
D26*
X91570900Y-58960000D02*
X91570900Y-59600000D01*
D27*
X118097700Y-48493200D02*
X118097700Y-50270000D01*
D28*
X125760900Y-54510000D02*
X125760900Y-55500000D01*
D27*
X118320900Y-48270000D02*
X118097700Y-48493200D01*
X118320900Y-48020000D02*
X118320900Y-48270000D01*
X118097700Y-50270000D02*
X114070900Y-46243200D01*
D28*
%TO.N,Net-(U2-VI)*%
X125370900Y-53160000D02*
X125760900Y-53550000D01*
X125370900Y-49120000D02*
X125370900Y-53160000D01*
X125760900Y-53550000D02*
X128610900Y-53550000D01*
X128610900Y-53550000D02*
X129390900Y-54330000D01*
D26*
%TO.N,Net-(D1-A)*%
X118320900Y-44010000D02*
X121360900Y-44010000D01*
D27*
X121550900Y-40780000D02*
X123070900Y-42300000D01*
D28*
X118320900Y-44010000D02*
X118320900Y-43877528D01*
D26*
X118320900Y-44010000D02*
X117698300Y-43387400D01*
X121360900Y-44010000D02*
X123070900Y-42300000D01*
X114203500Y-43387400D02*
X114070900Y-43520000D01*
X117698300Y-43387400D02*
X114203500Y-43387400D01*
D28*
X123070900Y-42820000D02*
X123070900Y-49120000D01*
D27*
X117680900Y-40780000D02*
X121550900Y-40780000D01*
D26*
%TO.N,/SIG1*%
X92850900Y-70900000D02*
X94968020Y-70900000D01*
X92850900Y-70900000D02*
X90990900Y-70900000D01*
X94968020Y-70900000D02*
X95237700Y-70630320D01*
X87010900Y-79190000D02*
X85130900Y-81070000D01*
D27*
X95118020Y-70750000D02*
X95237700Y-70630320D01*
D26*
X87010900Y-74880000D02*
X87010900Y-79190000D01*
X90990900Y-70900000D02*
X87010900Y-74880000D01*
D27*
%TO.N,/SIG2*%
X90940900Y-58630000D02*
X91570900Y-58000000D01*
X90940900Y-72240000D02*
X90959900Y-72259000D01*
X90940900Y-68580000D02*
X90940900Y-58630000D01*
X91570900Y-58000000D02*
X95168020Y-58000000D01*
X90959900Y-88241000D02*
X85130900Y-94070000D01*
X90959900Y-72259000D02*
X90959900Y-88241000D01*
X95168020Y-58000000D02*
X95237700Y-57930320D01*
D28*
%TO.N,+3.3V*%
X83704900Y-102384000D02*
X85070900Y-103750000D01*
X123610900Y-68840000D02*
X130000900Y-75230000D01*
X83704900Y-79996000D02*
X83704900Y-90144000D01*
X108970900Y-49800000D02*
X107770900Y-48600000D01*
X83704900Y-61996000D02*
X85130900Y-60570000D01*
X102130900Y-52840000D02*
X95248020Y-52840000D01*
X130000900Y-86500000D02*
X123730900Y-92770000D01*
X116370900Y-49800000D02*
X108970900Y-49800000D01*
X83704900Y-77144000D02*
X83704900Y-61996000D01*
X85230900Y-42570000D02*
X95237700Y-52576800D01*
X123610900Y-58328591D02*
X123610900Y-68840000D01*
X114190900Y-40780000D02*
X107770900Y-47200000D01*
X107770900Y-47200000D02*
X106770900Y-48200000D01*
X130000900Y-75230000D02*
X130000900Y-86500000D01*
X107770900Y-48600000D02*
X107770900Y-47200000D01*
X115380900Y-40780000D02*
X114190900Y-40780000D01*
X83704900Y-92996000D02*
X83704900Y-102384000D01*
X85130900Y-91570000D02*
X83704900Y-92996000D01*
X85130900Y-78570000D02*
X83704900Y-77144000D01*
X95248020Y-52840000D02*
X95237700Y-52850320D01*
X95237700Y-52576800D02*
X95237700Y-52850320D01*
X83704900Y-90144000D02*
X85130900Y-91570000D01*
X106770900Y-48200000D02*
X102130900Y-52840000D01*
X85130900Y-78570000D02*
X83704900Y-79996000D01*
D26*
%TO.N,/B2*%
X96170900Y-56600000D02*
X96970900Y-57400000D01*
X85230900Y-45070000D02*
X83953300Y-46347600D01*
X83953300Y-54312400D02*
X86240900Y-56600000D01*
X96970900Y-58737120D02*
X95237700Y-60470320D01*
X96970900Y-57400000D02*
X96970900Y-58737120D01*
X83953300Y-46347600D02*
X83953300Y-54312400D01*
X86240900Y-56600000D02*
X96170900Y-56600000D01*
D27*
%TO.N,/IDX2*%
X117451220Y-70630320D02*
X118097700Y-70630320D01*
D26*
X99569274Y-54200000D02*
X115999594Y-70630320D01*
X85230900Y-50070000D02*
X85840900Y-50070000D01*
X85840900Y-50070000D02*
X89970900Y-54200000D01*
X115999594Y-70630320D02*
X118097700Y-70630320D01*
X89970900Y-54200000D02*
X99569274Y-54200000D01*
%TO.N,/IDX1*%
X102730900Y-69430000D02*
X106471220Y-73170320D01*
X106471220Y-73170320D02*
X118097700Y-73170320D01*
X86400900Y-69340000D02*
X95690900Y-69340000D01*
X95690900Y-69340000D02*
X95663744Y-69367156D01*
X85130900Y-68070000D02*
X86400900Y-69340000D01*
%TO.N,/A1*%
X106180900Y-71800000D02*
X119170900Y-71800000D01*
X119770900Y-71200000D02*
X119770900Y-69763520D01*
X119770900Y-69763520D02*
X118097700Y-68090320D01*
X90170900Y-64090000D02*
X86610900Y-64090000D01*
X119170900Y-71800000D02*
X119770900Y-71200000D01*
X98470900Y-64090000D02*
X106180900Y-71800000D01*
X97540900Y-64090000D02*
X98470900Y-64090000D01*
X86610900Y-64090000D02*
X85130900Y-65570000D01*
%TO.N,/B1*%
X91770900Y-61800000D02*
X106330900Y-61800000D01*
X119660900Y-62033520D02*
X118097700Y-60470320D01*
X106330900Y-61800000D02*
X109040900Y-64510000D01*
X86400900Y-61800000D02*
X85130900Y-63070000D01*
X111030900Y-64400000D02*
X118580900Y-64400000D01*
X109040900Y-64510000D02*
X109034691Y-64516209D01*
X90170900Y-61875000D02*
X90095900Y-61800000D01*
X90095900Y-61800000D02*
X86400900Y-61800000D01*
X118580900Y-64400000D02*
X119660900Y-63320000D01*
X110910900Y-64520000D02*
X111030900Y-64400000D01*
X119660900Y-63320000D02*
X119660900Y-62033520D01*
%TO.N,/I2C SDA*%
X103370900Y-74400000D02*
X121970900Y-74400000D01*
X95748020Y-75200000D02*
X102570900Y-75200000D01*
X121970900Y-74400000D02*
X123610900Y-76040000D01*
X123610900Y-76040000D02*
X123610900Y-76220000D01*
X102570900Y-75200000D02*
X103370900Y-74400000D01*
X95237700Y-75710320D02*
X95748020Y-75200000D01*
%TO.N,/I2C SCL*%
X124170900Y-77600000D02*
X125170900Y-76600000D01*
X95237700Y-78250320D02*
X96488020Y-77000000D01*
X96488020Y-77000000D02*
X121770900Y-77000000D01*
X121770900Y-77000000D02*
X122370900Y-77600000D01*
X125170900Y-76600000D02*
X125170900Y-75060000D01*
X125170900Y-75060000D02*
X123610900Y-73500000D01*
X122370900Y-77600000D02*
X124170900Y-77600000D01*
%TO.N,Net-(U2-ADJ)*%
X117300900Y-47977438D02*
X117300900Y-48020000D01*
X118998300Y-47347400D02*
X117930938Y-47347400D01*
X117930938Y-47347400D02*
X117300900Y-47977438D01*
D27*
X117300900Y-44010000D02*
X117300900Y-48020000D01*
D26*
X120770900Y-49120000D02*
X118998300Y-47347400D01*
D27*
X117300900Y-47979700D02*
X117300900Y-48020000D01*
D26*
%TO.N,/CAN TX*%
X124550900Y-96460000D02*
X125160900Y-97070000D01*
X125160900Y-98840000D02*
X123730900Y-100270000D01*
X102030900Y-73820000D02*
X102030900Y-69803520D01*
X102030900Y-69803520D02*
X95237700Y-63010320D01*
X120540900Y-96460000D02*
X124550900Y-96460000D01*
X125160900Y-97070000D02*
X125160900Y-98840000D01*
X102030900Y-77950000D02*
X120540900Y-96460000D01*
%TO.N,/CAN RX*%
X99640900Y-69953520D02*
X95237700Y-65550320D01*
X99640900Y-74048400D02*
X99640900Y-69953520D01*
X119539300Y-97770000D02*
X123730900Y-97770000D01*
X99640900Y-77871600D02*
X119539300Y-97770000D01*
%TO.N,/WS2812*%
X97940900Y-70793520D02*
X97940900Y-73990000D01*
X95237700Y-68090320D02*
X97940900Y-70793520D01*
X85070900Y-106250000D02*
X97940900Y-93380000D01*
X97940900Y-78620000D02*
X97940900Y-93380000D01*
%TD*%
M02*
