%TF.GenerationSoftware,KiCad,Pcbnew,9.0.7*%
%TF.CreationDate,2026-02-19T22:53:12-05:00*%
%TF.ProjectId,ESP32-Adapter,45535033-322d-4416-9461-707465722e6b,rev?*%
%TF.SameCoordinates,Original*%
%TF.FileFunction,Soldermask,Bot*%
%TF.FilePolarity,Negative*%
%FSLAX46Y46*%
G04 Gerber Fmt 4.6, Leading zero omitted, Abs format (unit mm)*
G04 Created by KiCad (PCBNEW 9.0.7) date 2026-02-19 22:53:12*
%MOMM*%
%LPD*%
G01*
G04 APERTURE LIST*
G04 Aperture macros list*
%AMRoundRect*
0 Rectangle with rounded corners*
0 $1 Rounding radius*
0 $2 $3 $4 $5 $6 $7 $8 $9 X,Y pos of 4 corners*
0 Add a 4 corners polygon primitive as box body*
4,1,4,$2,$3,$4,$5,$6,$7,$8,$9,$2,$3,0*
0 Add four circle primitives for the rounded corners*
1,1,$1+$1,$2,$3*
1,1,$1+$1,$4,$5*
1,1,$1+$1,$6,$7*
1,1,$1+$1,$8,$9*
0 Add four rect primitives between the rounded corners*
20,1,$1+$1,$2,$3,$4,$5,0*
20,1,$1+$1,$4,$5,$6,$7,0*
20,1,$1+$1,$6,$7,$8,$9,0*
20,1,$1+$1,$8,$9,$2,$3,0*%
G04 Aperture macros list end*
%ADD10C,1.700000*%
%ADD11RoundRect,0.250000X-0.725000X0.600000X-0.725000X-0.600000X0.725000X-0.600000X0.725000X0.600000X0*%
%ADD12O,1.950000X1.700000*%
%ADD13C,4.500000*%
%ADD14R,1.700000X1.700000*%
%ADD15R,2.000000X1.200000*%
%ADD16O,2.000000X1.200000*%
%ADD17C,1.600000*%
%ADD18R,2.000000X4.000000*%
%ADD19O,2.000000X3.300000*%
%ADD20O,3.500000X2.000000*%
G04 APERTURE END LIST*
D10*
%TO.C,U4*%
X123610900Y-68600000D03*
X123610900Y-71140000D03*
X123610900Y-73680000D03*
X123610900Y-76220000D03*
X123610900Y-78760000D03*
X123610900Y-81300000D03*
%TD*%
D11*
%TO.C,Analog 1*%
X85130900Y-78570000D03*
D12*
X85130900Y-81070000D03*
X85130900Y-83570000D03*
%TD*%
D13*
%TO.C,REF\u002A\u002A*%
X139180900Y-34440000D03*
%TD*%
D11*
%TO.C,WS2812 LED*%
X85070900Y-103750000D03*
D12*
X85070900Y-106250000D03*
X85070900Y-108750000D03*
%TD*%
D13*
%TO.C,*%
X80770900Y-115220000D03*
%TD*%
%TO.C,REF\u002A\u002A*%
X139180900Y-115220000D03*
%TD*%
D14*
%TO.C,U3*%
X123760900Y-92750000D03*
D10*
X123760900Y-95290000D03*
X123760900Y-97830000D03*
X123760900Y-100370000D03*
X123760900Y-102910000D03*
X123760900Y-105450000D03*
X123760900Y-107990000D03*
%TD*%
D11*
%TO.C,Encoder 1*%
X85130900Y-60570000D03*
D12*
X85130900Y-63070000D03*
X85130900Y-65570000D03*
X85130900Y-68070000D03*
X85130900Y-70570000D03*
%TD*%
D15*
%TO.C,U1*%
X95237700Y-52850320D03*
D16*
X95237700Y-55390320D03*
X95237700Y-57930320D03*
X95237700Y-60470320D03*
X95237700Y-63010320D03*
X95237700Y-65550320D03*
X95237700Y-68090320D03*
X95237700Y-70630320D03*
X95237700Y-73170320D03*
X95237700Y-75710320D03*
X95237700Y-78250320D03*
X95237700Y-80790320D03*
X95237700Y-83330320D03*
X95237700Y-85870320D03*
X95237700Y-88410320D03*
X95237700Y-90950320D03*
X118097700Y-90950320D03*
X118097700Y-88410320D03*
X118097700Y-85870320D03*
X118097700Y-83330320D03*
X118097700Y-80790320D03*
X118097700Y-78250320D03*
X118097700Y-75710320D03*
X118097700Y-73170320D03*
X118097700Y-70630320D03*
X118097700Y-68090320D03*
X118097700Y-65550320D03*
X118097700Y-63010320D03*
X118097700Y-60470320D03*
X118097700Y-57930320D03*
X118097700Y-55390320D03*
X118097700Y-52850320D03*
%TD*%
D11*
%TO.C,Encoder 2*%
X85230900Y-42570000D03*
D12*
X85230900Y-45070000D03*
X85230900Y-47570000D03*
X85230900Y-50070000D03*
X85230900Y-52570000D03*
%TD*%
D11*
%TO.C,Analog 2*%
X85130900Y-91570000D03*
D12*
X85130900Y-94070000D03*
X85130900Y-96570000D03*
%TD*%
D17*
%TO.C,J10*%
X138390900Y-54330000D03*
D18*
X129390900Y-54330000D03*
D19*
X135390900Y-54330000D03*
D20*
X136390900Y-58830000D03*
X136390900Y-49830000D03*
%TD*%
D13*
%TO.C,*%
X80770900Y-34440000D03*
%TD*%
M02*
