%TF.GenerationSoftware,KiCad,Pcbnew,9.0.7*%
%TF.CreationDate,2026-04-03T01:04:05-04:00*%
%TF.ProjectId,ESP32-Adapter,45535033-322d-4416-9461-707465722e6b,rev?*%
%TF.SameCoordinates,Original*%
%TF.FileFunction,Copper,L2,Bot*%
%TF.FilePolarity,Positive*%
%FSLAX46Y46*%
G04 Gerber Fmt 4.6, Leading zero omitted, Abs format (unit mm)*
G04 Created by KiCad (PCBNEW 9.0.7) date 2026-04-03 01:04:05*
%MOMM*%
%LPD*%
G01*
G04 APERTURE LIST*
G04 Aperture macros list*
%AMRoundRect*
0 Rectangle with rounded corners*
0 $1 Rounding radius*
0 $2 $3 $4 $5 $6 $7 $8 $9 X,Y pos of 4 corners*
0 Add a 4 corners polygon primitive as box body*
4,1,4,$2,$3,$4,$5,$6,$7,$8,$9,$2,$3,0*
0 Add four circle primitives for the rounded corners*
1,1,$1+$1,$2,$3*
1,1,$1+$1,$4,$5*
1,1,$1+$1,$6,$7*
1,1,$1+$1,$8,$9*
0 Add four rect primitives between the rounded corners*
20,1,$1+$1,$2,$3,$4,$5,0*
20,1,$1+$1,$4,$5,$6,$7,0*
20,1,$1+$1,$6,$7,$8,$9,0*
20,1,$1+$1,$8,$9,$2,$3,0*%
G04 Aperture macros list end*
%TA.AperFunction,ComponentPad*%
%ADD10C,1.700000*%
%TD*%
%TA.AperFunction,ComponentPad*%
%ADD11RoundRect,0.250000X-0.725000X0.600000X-0.725000X-0.600000X0.725000X-0.600000X0.725000X0.600000X0*%
%TD*%
%TA.AperFunction,ComponentPad*%
%ADD12O,1.950000X1.700000*%
%TD*%
%TA.AperFunction,ComponentPad*%
%ADD13R,1.700000X1.700000*%
%TD*%
%TA.AperFunction,ComponentPad*%
%ADD14R,2.000000X4.000000*%
%TD*%
%TA.AperFunction,ComponentPad*%
%ADD15O,2.000000X3.300000*%
%TD*%
%TA.AperFunction,ComponentPad*%
%ADD16O,3.500000X2.000000*%
%TD*%
%TA.AperFunction,ComponentPad*%
%ADD17R,2.000000X1.200000*%
%TD*%
%TA.AperFunction,ComponentPad*%
%ADD18O,2.000000X1.200000*%
%TD*%
%TA.AperFunction,ViaPad*%
%ADD19C,0.600000*%
%TD*%
%TA.AperFunction,Conductor*%
%ADD20C,0.250000*%
%TD*%
%TA.AperFunction,Conductor*%
%ADD21C,0.200000*%
%TD*%
G04 APERTURE END LIST*
D10*
%TO.P,U4,1,VCC*%
%TO.N,+3.3V*%
X123610900Y-68600000D03*
%TO.P,U4,2,GND*%
%TO.N,GND*%
X123610900Y-71140000D03*
%TO.P,U4,3,SCL*%
%TO.N,/I2C SCL*%
X123610900Y-73680000D03*
%TO.P,U4,4,SDA*%
%TO.N,/I2C SDA*%
X123610900Y-76220000D03*
%TO.P,U4,5,VIN-*%
%TO.N,unconnected-(U4-VIN--Pad5)*%
X123610900Y-78760000D03*
%TO.P,U4,6,VIN+*%
%TO.N,unconnected-(U4-VIN+-Pad6)*%
X123610900Y-81300000D03*
%TD*%
D11*
%TO.P,J5,1,Pin_1*%
%TO.N,+3.3V*%
X70620900Y-78390000D03*
D12*
%TO.P,J5,2,Pin_2*%
%TO.N,/WS2812*%
X70620900Y-80890000D03*
%TO.P,J5,3,Pin_3*%
%TO.N,GND*%
X70620900Y-83390000D03*
%TD*%
D13*
%TO.P,U1,1,IT2*%
%TO.N,unconnected-(U1-IT2-Pad1)*%
X68390900Y-113890000D03*
D10*
%TO.P,U1,2,RST*%
%TO.N,unconnected-(U1-RST-Pad2)*%
X70930900Y-113890000D03*
%TO.P,U1,3,CS*%
%TO.N,unconnected-(U1-CS-Pad3)*%
X73470900Y-113890000D03*
%TO.P,U1,4,SCK*%
%TO.N,unconnected-(U1-SCK-Pad4)*%
X76010900Y-113890000D03*
%TO.P,U1,5,SDO*%
%TO.N,unconnected-(U1-SDO-Pad5)*%
X78550900Y-113890000D03*
%TO.P,U1,6,SDI*%
%TO.N,unconnected-(U1-SDI-Pad6)*%
X81090900Y-113890000D03*
%TO.P,U1,7,3V3*%
%TO.N,+3.3V*%
X83630900Y-113890000D03*
%TO.P,U1,8,GND*%
%TO.N,GND*%
X86170900Y-113890000D03*
D13*
%TO.P,U1,9,FSY*%
%TO.N,unconnected-(U1-FSY-Pad9)*%
X68390900Y-91030000D03*
D10*
%TO.P,U1,10,INT*%
%TO.N,unconnected-(U1-INT-Pad10)*%
X70930900Y-91030000D03*
%TO.P,U1,11*%
%TO.N,N/C*%
X73470900Y-91030000D03*
%TO.P,U1,12*%
X76010900Y-91030000D03*
%TO.P,U1,13,SCL*%
%TO.N,/I2C SCL*%
X78550900Y-91030000D03*
%TO.P,U1,14,SDA*%
%TO.N,/I2C SDA*%
X81090900Y-91030000D03*
%TO.P,U1,15*%
%TO.N,N/C*%
X83630900Y-91030000D03*
%TO.P,U1,16,GND*%
%TO.N,GND*%
X86170900Y-91030000D03*
%TD*%
D13*
%TO.P,U3,1,Vcc*%
%TO.N,+3.3V*%
X123760900Y-92750000D03*
D10*
%TO.P,U3,2,GND*%
%TO.N,GND*%
X123760900Y-95290000D03*
%TO.P,U3,3,RX*%
%TO.N,/CAN RX*%
X123760900Y-97830000D03*
%TO.P,U3,4,TX*%
%TO.N,/CAN TX*%
X123760900Y-100370000D03*
%TO.P,U3,5,SLNT*%
%TO.N,unconnected-(U3-SLNT-Pad5)*%
X123760900Y-102910000D03*
%TO.P,U3,6,CANH*%
%TO.N,unconnected-(U3-CANH-Pad6)*%
X123760900Y-105450000D03*
%TO.P,U3,7,CANL*%
%TO.N,unconnected-(U3-CANL-Pad7)*%
X123760900Y-107990000D03*
%TD*%
D11*
%TO.P,J13,1,Pin_1*%
%TO.N,+3.3V*%
X70620900Y-60800000D03*
D12*
%TO.P,J13,2,Pin_2*%
%TO.N,/A2*%
X70620900Y-63300000D03*
%TO.P,J13,3,Pin_3*%
%TO.N,/A1*%
X70620900Y-65800000D03*
%TO.P,J13,4,Pin_4*%
%TO.N,/IDXA*%
X70620900Y-68300000D03*
%TO.P,J13,5,Pin_5*%
%TO.N,GND*%
X70620900Y-70800000D03*
%TD*%
D11*
%TO.P,J12,1,Pin_1*%
%TO.N,+3.3V*%
X70620900Y-42800000D03*
D12*
%TO.P,J12,2,Pin_2*%
%TO.N,/B2*%
X70620900Y-45300000D03*
%TO.P,J12,3,Pin_3*%
%TO.N,/B1*%
X70620900Y-47800000D03*
%TO.P,J12,4,Pin_4*%
%TO.N,/IDXB*%
X70620900Y-50300000D03*
%TO.P,J12,5,Pin_5*%
%TO.N,GND*%
X70620900Y-52800000D03*
%TD*%
D14*
%TO.P,J10,1*%
%TO.N,Net-(U2-VI)*%
X129390900Y-54330000D03*
D15*
%TO.P,J10,2*%
%TO.N,GND*%
X135390900Y-54330000D03*
D16*
%TO.P,J10,MP*%
%TO.N,N/C*%
X136390900Y-58830000D03*
X136390900Y-49830000D03*
%TD*%
D17*
%TO.P,U5,1,3V3*%
%TO.N,+3.3V*%
X94790900Y-53750000D03*
D18*
%TO.P,U5,2,3V3*%
X94790900Y-56290000D03*
%TO.P,U5,3,CHIP_PU*%
%TO.N,unconnected-(U5-CHIP_PU-Pad3)*%
X94790900Y-58830000D03*
%TO.P,U5,4,GPIO4/ADC1_CH3*%
%TO.N,unconnected-(U5-GPIO4{slash}ADC1_CH3-Pad4)*%
X94790900Y-61370000D03*
%TO.P,U5,5,GPIO5/ADC1_CH4*%
%TO.N,unconnected-(U5-GPIO5{slash}ADC1_CH4-Pad5)*%
X94790900Y-63910000D03*
%TO.P,U5,6,GPIO6/ADC1_CH5*%
%TO.N,unconnected-(U5-GPIO6{slash}ADC1_CH5-Pad6)*%
X94790900Y-66450000D03*
%TO.P,U5,7,GPIO7/ADC1_CH6*%
%TO.N,/B2*%
X94790900Y-68990000D03*
%TO.P,U5,8,GPIO15/ADC2_CH4/32K_P*%
%TO.N,/B1*%
X94790900Y-71530000D03*
%TO.P,U5,9,GPIO16/ADC2_CH5/32K_N*%
%TO.N,/IDXB*%
X94790900Y-74070000D03*
%TO.P,U5,10,GPIO17/ADC2_CH6*%
%TO.N,/WS2812*%
X94790900Y-76610000D03*
%TO.P,U5,11,GPIO18/ADC2_CH7*%
%TO.N,unconnected-(U5-GPIO18{slash}ADC2_CH7-Pad11)*%
X94790900Y-79150000D03*
%TO.P,U5,12,GPIO8/ADC1_CH7*%
%TO.N,unconnected-(U5-GPIO8{slash}ADC1_CH7-Pad12)*%
X94790900Y-81690000D03*
%TO.P,U5,13,GPIO3/ADC1_CH2*%
%TO.N,unconnected-(U5-GPIO3{slash}ADC1_CH2-Pad13)*%
X94790900Y-84230000D03*
%TO.P,U5,14,GPIO46*%
%TO.N,unconnected-(U5-GPIO46-Pad14)*%
X94790900Y-86770000D03*
%TO.P,U5,15,GPIO9/ADC1_CH8*%
%TO.N,/I2C SCL*%
X94790900Y-89310000D03*
%TO.P,U5,16,GPIO10/ADC1_CH9*%
%TO.N,/I2C SDA*%
X94790900Y-91850000D03*
%TO.P,U5,17,GPIO11/ADC2_CH0*%
%TO.N,/A2*%
X94790900Y-94390000D03*
%TO.P,U5,18,GPIO12/ADC2_CH1*%
%TO.N,/A1*%
X94790900Y-96930000D03*
%TO.P,U5,19,GPIO13/ADC2_CH2*%
%TO.N,/IDXA*%
X94790900Y-99470000D03*
%TO.P,U5,20,GPIO14/ADC2_CH3*%
%TO.N,unconnected-(U5-GPIO14{slash}ADC2_CH3-Pad20)*%
X94787220Y-102007280D03*
%TO.P,U5,21,5V*%
%TO.N,unconnected-(U5-5V-Pad21)*%
X94787220Y-104547280D03*
%TO.P,U5,22,GND*%
%TO.N,GND*%
X94787220Y-107087280D03*
%TO.P,U5,23,GND*%
X117650900Y-107090000D03*
%TO.P,U5,24,GND*%
X117650900Y-104550000D03*
%TO.P,U5,25,GPIO19/USB_D-*%
%TO.N,unconnected-(U5-GPIO19{slash}USB_D--Pad25)*%
X117650900Y-102010000D03*
%TO.P,U5,26,GPIO20/USB_D+*%
%TO.N,unconnected-(U5-GPIO20{slash}USB_D+-Pad26)*%
X117650900Y-99470000D03*
%TO.P,U5,27,GPIO21*%
%TO.N,unconnected-(U5-GPIO21-Pad27)*%
X117650900Y-96930000D03*
%TO.P,U5,28,GPIO47*%
%TO.N,unconnected-(U5-GPIO47-Pad28)*%
X117650900Y-94390000D03*
%TO.P,U5,29,GPIO48*%
%TO.N,unconnected-(U5-GPIO48-Pad29)*%
X117650900Y-91850000D03*
%TO.P,U5,30,GPIO45*%
%TO.N,unconnected-(U5-GPIO45-Pad30)*%
X117650900Y-89310000D03*
%TO.P,U5,31,GPIO0*%
%TO.N,unconnected-(U5-GPIO0-Pad31)*%
X117650900Y-86770000D03*
%TO.P,U5,32,GPIO35*%
%TO.N,unconnected-(U5-GPIO35-Pad32)*%
X117650900Y-84230000D03*
%TO.P,U5,33,GPIO36*%
%TO.N,unconnected-(U5-GPIO36-Pad33)*%
X117650900Y-81690000D03*
%TO.P,U5,34,GPIO37*%
%TO.N,unconnected-(U5-GPIO37-Pad34)*%
X117650900Y-79150000D03*
%TO.P,U5,35,GPIO38*%
%TO.N,unconnected-(U5-GPIO38-Pad35)*%
X117650900Y-76610000D03*
%TO.P,U5,36,GPIO39/MTCK*%
%TO.N,unconnected-(U5-GPIO39{slash}MTCK-Pad36)*%
X117650900Y-74070000D03*
%TO.P,U5,37,GPIO40/MTDO*%
%TO.N,unconnected-(U5-GPIO40{slash}MTDO-Pad37)*%
X117650900Y-71530000D03*
%TO.P,U5,38,GPIO41/MTDI*%
%TO.N,unconnected-(U5-GPIO41{slash}MTDI-Pad38)*%
X117650900Y-68990000D03*
%TO.P,U5,39,GPIO42/MTMS*%
%TO.N,unconnected-(U5-GPIO42{slash}MTMS-Pad39)*%
X117650900Y-66450000D03*
%TO.P,U5,40,GPIO2/ADC1_CH1*%
%TO.N,/CAN RX*%
X117650900Y-63910000D03*
%TO.P,U5,41,GPIO1/ADC1_CH0*%
%TO.N,/CAN TX*%
X117650900Y-61370000D03*
%TO.P,U5,42,GPIO44/U0RXD*%
%TO.N,unconnected-(U5-GPIO44{slash}U0RXD-Pad42)*%
X117650900Y-58830000D03*
%TO.P,U5,43,GPIO43/U0TXD*%
%TO.N,unconnected-(U5-GPIO43{slash}U0TXD-Pad43)*%
X117650900Y-56290000D03*
%TO.P,U5,44,GND*%
%TO.N,GND*%
X117650900Y-53750000D03*
%TD*%
D19*
%TO.N,GND*%
X124945900Y-48375000D03*
X138470900Y-44825000D03*
X136420900Y-42200000D03*
%TO.N,/I2C SDA*%
X91195900Y-88175000D03*
X88670900Y-87100000D03*
%TO.N,/I2C SCL*%
X91220900Y-86300000D03*
X88670900Y-86300000D03*
%TO.N,/CAN TX*%
X113020900Y-78750000D03*
X113020900Y-74300000D03*
%TO.N,/CAN RX*%
X113870900Y-74250000D03*
X113870900Y-78800000D03*
%TO.N,/WS2812*%
X88220900Y-79600000D03*
X90070900Y-77750000D03*
%TD*%
D20*
%TO.N,/I2C SDA*%
X90120900Y-87100000D02*
X88570900Y-87100000D01*
X91195900Y-88175000D02*
X90120900Y-87100000D01*
%TO.N,/I2C SCL*%
X91220900Y-86300000D02*
X88570900Y-86300000D01*
%TO.N,/CAN TX*%
X113020900Y-74300000D02*
X113020900Y-78750000D01*
%TO.N,/CAN RX*%
X113870900Y-74250000D02*
X113870900Y-78800000D01*
%TO.N,/WS2812*%
X90070900Y-77750000D02*
X90170900Y-77650000D01*
X88220900Y-79600000D02*
X90070900Y-77750000D01*
X90170900Y-77650000D02*
X90220900Y-77650000D01*
D21*
%TO.N,unconnected-(U5-GPIO6{slash}ADC1_CH5-Pad6)*%
X94610900Y-66400000D02*
X94710900Y-66300000D01*
%TD*%
%TA.AperFunction,Conductor*%
%TO.N,GND*%
G36*
X141670989Y-31195099D02*
G01*
X141801310Y-31207935D01*
X141825146Y-31212677D01*
X141944630Y-31248923D01*
X141967083Y-31258223D01*
X142077199Y-31317080D01*
X142097407Y-31330583D01*
X142193921Y-31409790D01*
X142211109Y-31426978D01*
X142290316Y-31523492D01*
X142303820Y-31543702D01*
X142337233Y-31606214D01*
X142362675Y-31653813D01*
X142371976Y-31676269D01*
X142408222Y-31795753D01*
X142412965Y-31819595D01*
X142425803Y-31949938D01*
X142426400Y-31962092D01*
X142426400Y-129477907D01*
X142425803Y-129490061D01*
X142412965Y-129620404D01*
X142408222Y-129644246D01*
X142371976Y-129763730D01*
X142362675Y-129786186D01*
X142303822Y-129896294D01*
X142290316Y-129916507D01*
X142211109Y-130013021D01*
X142193921Y-130030209D01*
X142097407Y-130109416D01*
X142077194Y-130122922D01*
X141967086Y-130181775D01*
X141944630Y-130191076D01*
X141825146Y-130227322D01*
X141801304Y-130232065D01*
X141670961Y-130244903D01*
X141658807Y-130245500D01*
X63869198Y-130245500D01*
X63857045Y-130244903D01*
X63726701Y-130232066D01*
X63702859Y-130227324D01*
X63583377Y-130191080D01*
X63560920Y-130181778D01*
X63450807Y-130122923D01*
X63430595Y-130109418D01*
X63334084Y-130030214D01*
X63316895Y-130013025D01*
X63237682Y-129916505D01*
X63224180Y-129896298D01*
X63165322Y-129786183D01*
X63156023Y-129763737D01*
X63119774Y-129644239D01*
X63115035Y-129620414D01*
X63102207Y-129490170D01*
X63101611Y-129477993D01*
X63102816Y-127009345D01*
X63866400Y-127009345D01*
X63866400Y-127290654D01*
X63897894Y-127570167D01*
X63897896Y-127570183D01*
X63960490Y-127844424D01*
X64053399Y-128109944D01*
X64175447Y-128363380D01*
X64175449Y-128363383D01*
X64325110Y-128601566D01*
X64500497Y-128821494D01*
X64699406Y-129020403D01*
X64919334Y-129195790D01*
X65157517Y-129345451D01*
X65410959Y-129467502D01*
X65676473Y-129560409D01*
X65950720Y-129623004D01*
X66230245Y-129654499D01*
X66230246Y-129654500D01*
X66230250Y-129654500D01*
X66511554Y-129654500D01*
X66511554Y-129654499D01*
X66791080Y-129623004D01*
X67065327Y-129560409D01*
X67330841Y-129467502D01*
X67584283Y-129345451D01*
X67822466Y-129195790D01*
X68042394Y-129020403D01*
X68241303Y-128821494D01*
X68416690Y-128601566D01*
X68566351Y-128363383D01*
X68688402Y-128109941D01*
X68781309Y-127844427D01*
X68843904Y-127570180D01*
X68875400Y-127290650D01*
X68875400Y-127109345D01*
X136676400Y-127109345D01*
X136676400Y-127390654D01*
X136707894Y-127670167D01*
X136707896Y-127670183D01*
X136770490Y-127944424D01*
X136863399Y-128209944D01*
X136985447Y-128463380D01*
X136985449Y-128463383D01*
X137135110Y-128701566D01*
X137310497Y-128921494D01*
X137509406Y-129120403D01*
X137729334Y-129295790D01*
X137967517Y-129445451D01*
X138220959Y-129567502D01*
X138486473Y-129660409D01*
X138760720Y-129723004D01*
X139040245Y-129754499D01*
X139040246Y-129754500D01*
X139040250Y-129754500D01*
X139321554Y-129754500D01*
X139321554Y-129754499D01*
X139601080Y-129723004D01*
X139875327Y-129660409D01*
X140140841Y-129567502D01*
X140394283Y-129445451D01*
X140632466Y-129295790D01*
X140852394Y-129120403D01*
X141051303Y-128921494D01*
X141226690Y-128701566D01*
X141376351Y-128463383D01*
X141498402Y-128209941D01*
X141591309Y-127944427D01*
X141653904Y-127670180D01*
X141685400Y-127390650D01*
X141685400Y-127109350D01*
X141653904Y-126829820D01*
X141591309Y-126555573D01*
X141498402Y-126290059D01*
X141376351Y-126036617D01*
X141226690Y-125798434D01*
X141051303Y-125578506D01*
X140852394Y-125379597D01*
X140632466Y-125204210D01*
X140394283Y-125054549D01*
X140394280Y-125054547D01*
X140140844Y-124932499D01*
X139875324Y-124839590D01*
X139601083Y-124776996D01*
X139601067Y-124776994D01*
X139321554Y-124745500D01*
X139321550Y-124745500D01*
X139040250Y-124745500D01*
X139040246Y-124745500D01*
X138760732Y-124776994D01*
X138760716Y-124776996D01*
X138486475Y-124839590D01*
X138220955Y-124932499D01*
X137967519Y-125054547D01*
X137729335Y-125204209D01*
X137509406Y-125379596D01*
X137310496Y-125578506D01*
X137135109Y-125798435D01*
X136985447Y-126036619D01*
X136863399Y-126290055D01*
X136770490Y-126555575D01*
X136707896Y-126829816D01*
X136707894Y-126829832D01*
X136676400Y-127109345D01*
X68875400Y-127109345D01*
X68875400Y-127009350D01*
X68843904Y-126729820D01*
X68781309Y-126455573D01*
X68688402Y-126190059D01*
X68566351Y-125936617D01*
X68416690Y-125698434D01*
X68241303Y-125478506D01*
X68042394Y-125279597D01*
X67822466Y-125104210D01*
X67584283Y-124954549D01*
X67584280Y-124954547D01*
X67330844Y-124832499D01*
X67065324Y-124739590D01*
X66791083Y-124676996D01*
X66791067Y-124676994D01*
X66511554Y-124645500D01*
X66511550Y-124645500D01*
X66230250Y-124645500D01*
X66230246Y-124645500D01*
X65950732Y-124676994D01*
X65950716Y-124676996D01*
X65676475Y-124739590D01*
X65410955Y-124832499D01*
X65157519Y-124954547D01*
X64919335Y-125104209D01*
X64699406Y-125279596D01*
X64500496Y-125478506D01*
X64325109Y-125698435D01*
X64175447Y-125936619D01*
X64053399Y-126190055D01*
X63960490Y-126455575D01*
X63897896Y-126729816D01*
X63897894Y-126729832D01*
X63866400Y-127009345D01*
X63102816Y-127009345D01*
X63109658Y-112992135D01*
X67040400Y-112992135D01*
X67040400Y-114787870D01*
X67040401Y-114787876D01*
X67046808Y-114847483D01*
X67097102Y-114982328D01*
X67097106Y-114982335D01*
X67183352Y-115097544D01*
X67183355Y-115097547D01*
X67298564Y-115183793D01*
X67298571Y-115183797D01*
X67433417Y-115234091D01*
X67433416Y-115234091D01*
X67440344Y-115234835D01*
X67493027Y-115240500D01*
X69288772Y-115240499D01*
X69348383Y-115234091D01*
X69483231Y-115183796D01*
X69598446Y-115097546D01*
X69684696Y-114982331D01*
X69733710Y-114850916D01*
X69775581Y-114794984D01*
X69841045Y-114770566D01*
X69909318Y-114785417D01*
X69937573Y-114806569D01*
X70051113Y-114920109D01*
X70223079Y-115045048D01*
X70223081Y-115045049D01*
X70223084Y-115045051D01*
X70412488Y-115141557D01*
X70614657Y-115207246D01*
X70824613Y-115240500D01*
X70824614Y-115240500D01*
X71037186Y-115240500D01*
X71037187Y-115240500D01*
X71247143Y-115207246D01*
X71449312Y-115141557D01*
X71638716Y-115045051D01*
X71725038Y-114982335D01*
X71810686Y-114920109D01*
X71810688Y-114920106D01*
X71810692Y-114920104D01*
X71961004Y-114769792D01*
X71961006Y-114769788D01*
X71961009Y-114769786D01*
X72085948Y-114597820D01*
X72085947Y-114597820D01*
X72085951Y-114597816D01*
X72090414Y-114589054D01*
X72138388Y-114538259D01*
X72206208Y-114521463D01*
X72272344Y-114543999D01*
X72311386Y-114589056D01*
X72315851Y-114597820D01*
X72440790Y-114769786D01*
X72591113Y-114920109D01*
X72763079Y-115045048D01*
X72763081Y-115045049D01*
X72763084Y-115045051D01*
X72952488Y-115141557D01*
X73154657Y-115207246D01*
X73364613Y-115240500D01*
X73364614Y-115240500D01*
X73577186Y-115240500D01*
X73577187Y-115240500D01*
X73787143Y-115207246D01*
X73989312Y-115141557D01*
X74178716Y-115045051D01*
X74265038Y-114982335D01*
X74350686Y-114920109D01*
X74350688Y-114920106D01*
X74350692Y-114920104D01*
X74501004Y-114769792D01*
X74501006Y-114769788D01*
X74501009Y-114769786D01*
X74625948Y-114597820D01*
X74625947Y-114597820D01*
X74625951Y-114597816D01*
X74630414Y-114589054D01*
X74678388Y-114538259D01*
X74746208Y-114521463D01*
X74812344Y-114543999D01*
X74851386Y-114589056D01*
X74855851Y-114597820D01*
X74980790Y-114769786D01*
X75131113Y-114920109D01*
X75303079Y-115045048D01*
X75303081Y-115045049D01*
X75303084Y-115045051D01*
X75492488Y-115141557D01*
X75694657Y-115207246D01*
X75904613Y-115240500D01*
X75904614Y-115240500D01*
X76117186Y-115240500D01*
X76117187Y-115240500D01*
X76327143Y-115207246D01*
X76529312Y-115141557D01*
X76718716Y-115045051D01*
X76805038Y-114982335D01*
X76890686Y-114920109D01*
X76890688Y-114920106D01*
X76890692Y-114920104D01*
X77041004Y-114769792D01*
X77041006Y-114769788D01*
X77041009Y-114769786D01*
X77165948Y-114597820D01*
X77165947Y-114597820D01*
X77165951Y-114597816D01*
X77170414Y-114589054D01*
X77218388Y-114538259D01*
X77286208Y-114521463D01*
X77352344Y-114543999D01*
X77391386Y-114589056D01*
X77395851Y-114597820D01*
X77520790Y-114769786D01*
X77671113Y-114920109D01*
X77843079Y-115045048D01*
X77843081Y-115045049D01*
X77843084Y-115045051D01*
X78032488Y-115141557D01*
X78234657Y-115207246D01*
X78444613Y-115240500D01*
X78444614Y-115240500D01*
X78657186Y-115240500D01*
X78657187Y-115240500D01*
X78867143Y-115207246D01*
X79069312Y-115141557D01*
X79258716Y-115045051D01*
X79345038Y-114982335D01*
X79430686Y-114920109D01*
X79430688Y-114920106D01*
X79430692Y-114920104D01*
X79581004Y-114769792D01*
X79581006Y-114769788D01*
X79581009Y-114769786D01*
X79705948Y-114597820D01*
X79705947Y-114597820D01*
X79705951Y-114597816D01*
X79710414Y-114589054D01*
X79758388Y-114538259D01*
X79826208Y-114521463D01*
X79892344Y-114543999D01*
X79931386Y-114589056D01*
X79935851Y-114597820D01*
X80060790Y-114769786D01*
X80211113Y-114920109D01*
X80383079Y-115045048D01*
X80383081Y-115045049D01*
X80383084Y-115045051D01*
X80572488Y-115141557D01*
X80774657Y-115207246D01*
X80984613Y-115240500D01*
X80984614Y-115240500D01*
X81197186Y-115240500D01*
X81197187Y-115240500D01*
X81407143Y-115207246D01*
X81609312Y-115141557D01*
X81798716Y-115045051D01*
X81885038Y-114982335D01*
X81970686Y-114920109D01*
X81970688Y-114920106D01*
X81970692Y-114920104D01*
X82121004Y-114769792D01*
X82121006Y-114769788D01*
X82121009Y-114769786D01*
X82245948Y-114597820D01*
X82245947Y-114597820D01*
X82245951Y-114597816D01*
X82250414Y-114589054D01*
X82298388Y-114538259D01*
X82366208Y-114521463D01*
X82432344Y-114543999D01*
X82471386Y-114589056D01*
X82475851Y-114597820D01*
X82600790Y-114769786D01*
X82751113Y-114920109D01*
X82923079Y-115045048D01*
X82923081Y-115045049D01*
X82923084Y-115045051D01*
X83112488Y-115141557D01*
X83314657Y-115207246D01*
X83524613Y-115240500D01*
X83524614Y-115240500D01*
X83737186Y-115240500D01*
X83737187Y-115240500D01*
X83947143Y-115207246D01*
X84149312Y-115141557D01*
X84338716Y-115045051D01*
X84425038Y-114982335D01*
X84510686Y-114920109D01*
X84510688Y-114920106D01*
X84510692Y-114920104D01*
X84661004Y-114769792D01*
X84661006Y-114769788D01*
X84661009Y-114769786D01*
X84746790Y-114651717D01*
X84785951Y-114597816D01*
X84790693Y-114588508D01*
X84838663Y-114537711D01*
X84906483Y-114520911D01*
X84972619Y-114543445D01*
X85011663Y-114588500D01*
X85016273Y-114597547D01*
X85055628Y-114651716D01*
X85687937Y-114019408D01*
X85704975Y-114082993D01*
X85770801Y-114197007D01*
X85863893Y-114290099D01*
X85977907Y-114355925D01*
X86041490Y-114372962D01*
X85409182Y-115005269D01*
X85409182Y-115005270D01*
X85463349Y-115044624D01*
X85652682Y-115141095D01*
X85854770Y-115206757D01*
X86064654Y-115240000D01*
X86277146Y-115240000D01*
X86487027Y-115206757D01*
X86487030Y-115206757D01*
X86689117Y-115141095D01*
X86878454Y-115044622D01*
X86932616Y-115005270D01*
X86932617Y-115005270D01*
X86300308Y-114372962D01*
X86363893Y-114355925D01*
X86477907Y-114290099D01*
X86570999Y-114197007D01*
X86636825Y-114082993D01*
X86653862Y-114019408D01*
X87286170Y-114651717D01*
X87286170Y-114651716D01*
X87325522Y-114597554D01*
X87421995Y-114408217D01*
X87487657Y-114206130D01*
X87487657Y-114206127D01*
X87520900Y-113996246D01*
X87520900Y-113783753D01*
X87487657Y-113573872D01*
X87487657Y-113573869D01*
X87421995Y-113371782D01*
X87325524Y-113182449D01*
X87286170Y-113128282D01*
X87286169Y-113128282D01*
X86653862Y-113760590D01*
X86636825Y-113697007D01*
X86570999Y-113582993D01*
X86477907Y-113489901D01*
X86363893Y-113424075D01*
X86300309Y-113407037D01*
X86932616Y-112774728D01*
X86878450Y-112735375D01*
X86689117Y-112638904D01*
X86487029Y-112573242D01*
X86277146Y-112540000D01*
X86064654Y-112540000D01*
X85854772Y-112573242D01*
X85854769Y-112573242D01*
X85652682Y-112638904D01*
X85463339Y-112735380D01*
X85409182Y-112774727D01*
X85409182Y-112774728D01*
X86041491Y-113407037D01*
X85977907Y-113424075D01*
X85863893Y-113489901D01*
X85770801Y-113582993D01*
X85704975Y-113697007D01*
X85687937Y-113760591D01*
X85055628Y-113128282D01*
X85055627Y-113128282D01*
X85016280Y-113182440D01*
X85016276Y-113182446D01*
X85011660Y-113191505D01*
X84963681Y-113242297D01*
X84895859Y-113259087D01*
X84829726Y-113236543D01*
X84790694Y-113191493D01*
X84785951Y-113182184D01*
X84785949Y-113182181D01*
X84785948Y-113182179D01*
X84661009Y-113010213D01*
X84510686Y-112859890D01*
X84338720Y-112734951D01*
X84149314Y-112638444D01*
X84149313Y-112638443D01*
X84149312Y-112638443D01*
X83947143Y-112572754D01*
X83947141Y-112572753D01*
X83947140Y-112572753D01*
X83785857Y-112547208D01*
X83737187Y-112539500D01*
X83524613Y-112539500D01*
X83475942Y-112547208D01*
X83314660Y-112572753D01*
X83112485Y-112638444D01*
X82923079Y-112734951D01*
X82751113Y-112859890D01*
X82600790Y-113010213D01*
X82475849Y-113182182D01*
X82471384Y-113190946D01*
X82423409Y-113241742D01*
X82355588Y-113258536D01*
X82289453Y-113235998D01*
X82250416Y-113190946D01*
X82245950Y-113182182D01*
X82121009Y-113010213D01*
X81970686Y-112859890D01*
X81798720Y-112734951D01*
X81609314Y-112638444D01*
X81609313Y-112638443D01*
X81609312Y-112638443D01*
X81407143Y-112572754D01*
X81407141Y-112572753D01*
X81407140Y-112572753D01*
X81245857Y-112547208D01*
X81197187Y-112539500D01*
X80984613Y-112539500D01*
X80935942Y-112547208D01*
X80774660Y-112572753D01*
X80572485Y-112638444D01*
X80383079Y-112734951D01*
X80211113Y-112859890D01*
X80060790Y-113010213D01*
X79935849Y-113182182D01*
X79931384Y-113190946D01*
X79883409Y-113241742D01*
X79815588Y-113258536D01*
X79749453Y-113235998D01*
X79710416Y-113190946D01*
X79705950Y-113182182D01*
X79581009Y-113010213D01*
X79430686Y-112859890D01*
X79258720Y-112734951D01*
X79069314Y-112638444D01*
X79069313Y-112638443D01*
X79069312Y-112638443D01*
X78867143Y-112572754D01*
X78867141Y-112572753D01*
X78867140Y-112572753D01*
X78705857Y-112547208D01*
X78657187Y-112539500D01*
X78444613Y-112539500D01*
X78395942Y-112547208D01*
X78234660Y-112572753D01*
X78032485Y-112638444D01*
X77843079Y-112734951D01*
X77671113Y-112859890D01*
X77520790Y-113010213D01*
X77395849Y-113182182D01*
X77391384Y-113190946D01*
X77343409Y-113241742D01*
X77275588Y-113258536D01*
X77209453Y-113235998D01*
X77170416Y-113190946D01*
X77165950Y-113182182D01*
X77041009Y-113010213D01*
X76890686Y-112859890D01*
X76718720Y-112734951D01*
X76529314Y-112638444D01*
X76529313Y-112638443D01*
X76529312Y-112638443D01*
X76327143Y-112572754D01*
X76327141Y-112572753D01*
X76327140Y-112572753D01*
X76165857Y-112547208D01*
X76117187Y-112539500D01*
X75904613Y-112539500D01*
X75855942Y-112547208D01*
X75694660Y-112572753D01*
X75492485Y-112638444D01*
X75303079Y-112734951D01*
X75131113Y-112859890D01*
X74980790Y-113010213D01*
X74855849Y-113182182D01*
X74851384Y-113190946D01*
X74803409Y-113241742D01*
X74735588Y-113258536D01*
X74669453Y-113235998D01*
X74630416Y-113190946D01*
X74625950Y-113182182D01*
X74501009Y-113010213D01*
X74350686Y-112859890D01*
X74178720Y-112734951D01*
X73989314Y-112638444D01*
X73989313Y-112638443D01*
X73989312Y-112638443D01*
X73787143Y-112572754D01*
X73787141Y-112572753D01*
X73787140Y-112572753D01*
X73625857Y-112547208D01*
X73577187Y-112539500D01*
X73364613Y-112539500D01*
X73315942Y-112547208D01*
X73154660Y-112572753D01*
X72952485Y-112638444D01*
X72763079Y-112734951D01*
X72591113Y-112859890D01*
X72440790Y-113010213D01*
X72315849Y-113182182D01*
X72311384Y-113190946D01*
X72263409Y-113241742D01*
X72195588Y-113258536D01*
X72129453Y-113235998D01*
X72090416Y-113190946D01*
X72085950Y-113182182D01*
X71961009Y-113010213D01*
X71810686Y-112859890D01*
X71638720Y-112734951D01*
X71449314Y-112638444D01*
X71449313Y-112638443D01*
X71449312Y-112638443D01*
X71247143Y-112572754D01*
X71247141Y-112572753D01*
X71247140Y-112572753D01*
X71085857Y-112547208D01*
X71037187Y-112539500D01*
X70824613Y-112539500D01*
X70775942Y-112547208D01*
X70614660Y-112572753D01*
X70412485Y-112638444D01*
X70223079Y-112734951D01*
X70051115Y-112859889D01*
X69937573Y-112973431D01*
X69876250Y-113006915D01*
X69806558Y-113001931D01*
X69750625Y-112960059D01*
X69733710Y-112929082D01*
X69684697Y-112797671D01*
X69684693Y-112797664D01*
X69598447Y-112682455D01*
X69598444Y-112682452D01*
X69483235Y-112596206D01*
X69483228Y-112596202D01*
X69348382Y-112545908D01*
X69348383Y-112545908D01*
X69288783Y-112539501D01*
X69288781Y-112539500D01*
X69288773Y-112539500D01*
X69288764Y-112539500D01*
X67493029Y-112539500D01*
X67493023Y-112539501D01*
X67433416Y-112545908D01*
X67298571Y-112596202D01*
X67298564Y-112596206D01*
X67183355Y-112682452D01*
X67183352Y-112682455D01*
X67097106Y-112797664D01*
X67097102Y-112797671D01*
X67046808Y-112932517D01*
X67040401Y-112992116D01*
X67040400Y-112992135D01*
X63109658Y-112992135D01*
X63112662Y-106837279D01*
X93313104Y-106837279D01*
X93313105Y-106837280D01*
X94471534Y-106837280D01*
X94467140Y-106841674D01*
X94414479Y-106932886D01*
X94387220Y-107034619D01*
X94387220Y-107139941D01*
X94414479Y-107241674D01*
X94467140Y-107332886D01*
X94471534Y-107337280D01*
X93313105Y-107337280D01*
X93314305Y-107344864D01*
X93367811Y-107509535D01*
X93446415Y-107663804D01*
X93548187Y-107803882D01*
X93670617Y-107926312D01*
X93810695Y-108028084D01*
X93964962Y-108106688D01*
X94129635Y-108160194D01*
X94300649Y-108187280D01*
X94537220Y-108187280D01*
X94537220Y-107402966D01*
X94541614Y-107407360D01*
X94632826Y-107460021D01*
X94734559Y-107487280D01*
X94839881Y-107487280D01*
X94941614Y-107460021D01*
X95032826Y-107407360D01*
X95037220Y-107402966D01*
X95037220Y-108187280D01*
X95273791Y-108187280D01*
X95444804Y-108160194D01*
X95609477Y-108106688D01*
X95763744Y-108028084D01*
X95903822Y-107926312D01*
X96026252Y-107803882D01*
X96128024Y-107663804D01*
X96206628Y-107509535D01*
X96260134Y-107344864D01*
X96260134Y-107344863D01*
X96261335Y-107337280D01*
X95102906Y-107337280D01*
X95107300Y-107332886D01*
X95159961Y-107241674D01*
X95187220Y-107139941D01*
X95187220Y-107034619D01*
X95159961Y-106932886D01*
X95107300Y-106841674D01*
X95105625Y-106839999D01*
X116176784Y-106839999D01*
X116176785Y-106840000D01*
X117335214Y-106840000D01*
X117330820Y-106844394D01*
X117278159Y-106935606D01*
X117250900Y-107037339D01*
X117250900Y-107142661D01*
X117278159Y-107244394D01*
X117330820Y-107335606D01*
X117335214Y-107340000D01*
X116176785Y-107340000D01*
X116177985Y-107347584D01*
X116231491Y-107512255D01*
X116310095Y-107666524D01*
X116411867Y-107806602D01*
X116534297Y-107929032D01*
X116674375Y-108030804D01*
X116828642Y-108109408D01*
X116993315Y-108162914D01*
X117164329Y-108190000D01*
X117400900Y-108190000D01*
X117400900Y-107405686D01*
X117405294Y-107410080D01*
X117496506Y-107462741D01*
X117598239Y-107490000D01*
X117703561Y-107490000D01*
X117805294Y-107462741D01*
X117896506Y-107410080D01*
X117900900Y-107405686D01*
X117900900Y-108190000D01*
X118137471Y-108190000D01*
X118308484Y-108162914D01*
X118473157Y-108109408D01*
X118627424Y-108030804D01*
X118767502Y-107929032D01*
X118889932Y-107806602D01*
X118991704Y-107666524D01*
X119070308Y-107512255D01*
X119123814Y-107347584D01*
X119125015Y-107340000D01*
X117966586Y-107340000D01*
X117970980Y-107335606D01*
X118023641Y-107244394D01*
X118050900Y-107142661D01*
X118050900Y-107037339D01*
X118023641Y-106935606D01*
X117970980Y-106844394D01*
X117966586Y-106840000D01*
X119125015Y-106840000D01*
X119125015Y-106839999D01*
X119123814Y-106832415D01*
X119070308Y-106667744D01*
X118991704Y-106513475D01*
X118889932Y-106373397D01*
X118767502Y-106250967D01*
X118627424Y-106149195D01*
X118473157Y-106070591D01*
X118308484Y-106017085D01*
X118137471Y-105990000D01*
X117900900Y-105990000D01*
X117900900Y-106774314D01*
X117896506Y-106769920D01*
X117805294Y-106717259D01*
X117703561Y-106690000D01*
X117598239Y-106690000D01*
X117496506Y-106717259D01*
X117405294Y-106769920D01*
X117400900Y-106774314D01*
X117400900Y-105990000D01*
X117164329Y-105990000D01*
X116993315Y-106017085D01*
X116828642Y-106070591D01*
X116674375Y-106149195D01*
X116534297Y-106250967D01*
X116411867Y-106373397D01*
X116310095Y-106513475D01*
X116231491Y-106667744D01*
X116177985Y-106832415D01*
X116176784Y-106839999D01*
X95105625Y-106839999D01*
X95102906Y-106837280D01*
X96261335Y-106837280D01*
X96261335Y-106837279D01*
X96260134Y-106829695D01*
X96206628Y-106665024D01*
X96128024Y-106510755D01*
X96026252Y-106370677D01*
X95903822Y-106248247D01*
X95763744Y-106146475D01*
X95609477Y-106067871D01*
X95444804Y-106014365D01*
X95273791Y-105987280D01*
X95037220Y-105987280D01*
X95037220Y-106771594D01*
X95032826Y-106767200D01*
X94941614Y-106714539D01*
X94839881Y-106687280D01*
X94734559Y-106687280D01*
X94632826Y-106714539D01*
X94541614Y-106767200D01*
X94537220Y-106771594D01*
X94537220Y-105987280D01*
X94300649Y-105987280D01*
X94129635Y-106014365D01*
X93964962Y-106067871D01*
X93810695Y-106146475D01*
X93670617Y-106248247D01*
X93548187Y-106370677D01*
X93446415Y-106510755D01*
X93367811Y-106665024D01*
X93314305Y-106829695D01*
X93313104Y-106837279D01*
X63112662Y-106837279D01*
X63113822Y-104460669D01*
X93286720Y-104460669D01*
X93286720Y-104633891D01*
X93313818Y-104804981D01*
X93367347Y-104969725D01*
X93445988Y-105124068D01*
X93547806Y-105264208D01*
X93670292Y-105386694D01*
X93810432Y-105488512D01*
X93964775Y-105567153D01*
X94129519Y-105620682D01*
X94300609Y-105647780D01*
X94300610Y-105647780D01*
X95273830Y-105647780D01*
X95273831Y-105647780D01*
X95444921Y-105620682D01*
X95609665Y-105567153D01*
X95764008Y-105488512D01*
X95904148Y-105386694D01*
X96026634Y-105264208D01*
X96128452Y-105124068D01*
X96207093Y-104969725D01*
X96260622Y-104804981D01*
X96287720Y-104633891D01*
X96287720Y-104460669D01*
X96262272Y-104299999D01*
X116176784Y-104299999D01*
X116176785Y-104300000D01*
X117335214Y-104300000D01*
X117330820Y-104304394D01*
X117278159Y-104395606D01*
X117250900Y-104497339D01*
X117250900Y-104602661D01*
X117278159Y-104704394D01*
X117330820Y-104795606D01*
X117335214Y-104800000D01*
X116176785Y-104800000D01*
X116177985Y-104807584D01*
X116231491Y-104972255D01*
X116310095Y-105126524D01*
X116411867Y-105266602D01*
X116534297Y-105389032D01*
X116674375Y-105490804D01*
X116828642Y-105569408D01*
X116993315Y-105622914D01*
X117164329Y-105650000D01*
X117400900Y-105650000D01*
X117400900Y-104865686D01*
X117405294Y-104870080D01*
X117496506Y-104922741D01*
X117598239Y-104950000D01*
X117703561Y-104950000D01*
X117805294Y-104922741D01*
X117896506Y-104870080D01*
X117900900Y-104865686D01*
X117900900Y-105650000D01*
X118137471Y-105650000D01*
X118308484Y-105622914D01*
X118473157Y-105569408D01*
X118627424Y-105490804D01*
X118767502Y-105389032D01*
X118889932Y-105266602D01*
X118991704Y-105126524D01*
X119070308Y-104972255D01*
X119123814Y-104807584D01*
X119125015Y-104800000D01*
X117966586Y-104800000D01*
X117970980Y-104795606D01*
X118023641Y-104704394D01*
X118050900Y-104602661D01*
X118050900Y-104497339D01*
X118023641Y-104395606D01*
X117970980Y-104304394D01*
X117966586Y-104300000D01*
X119125015Y-104300000D01*
X119125015Y-104299999D01*
X119123814Y-104292415D01*
X119070308Y-104127744D01*
X118991704Y-103973475D01*
X118889932Y-103833397D01*
X118767502Y-103710967D01*
X118627424Y-103609195D01*
X118473157Y-103530591D01*
X118308484Y-103477085D01*
X118137471Y-103450000D01*
X117900900Y-103450000D01*
X117900900Y-104234314D01*
X117896506Y-104229920D01*
X117805294Y-104177259D01*
X117703561Y-104150000D01*
X117598239Y-104150000D01*
X117496506Y-104177259D01*
X117405294Y-104229920D01*
X117400900Y-104234314D01*
X117400900Y-103450000D01*
X117164329Y-103450000D01*
X116993315Y-103477085D01*
X116828642Y-103530591D01*
X116674375Y-103609195D01*
X116534297Y-103710967D01*
X116411867Y-103833397D01*
X116310095Y-103973475D01*
X116231491Y-104127744D01*
X116177985Y-104292415D01*
X116176784Y-104299999D01*
X96262272Y-104299999D01*
X96260622Y-104289579D01*
X96207093Y-104124835D01*
X96128452Y-103970492D01*
X96026634Y-103830352D01*
X95904148Y-103707866D01*
X95764008Y-103606048D01*
X95609665Y-103527407D01*
X95444921Y-103473878D01*
X95444919Y-103473877D01*
X95444918Y-103473877D01*
X95294161Y-103450000D01*
X95273831Y-103446780D01*
X94300609Y-103446780D01*
X94280279Y-103450000D01*
X94129522Y-103473877D01*
X93964772Y-103527408D01*
X93810431Y-103606048D01*
X93730476Y-103664139D01*
X93670292Y-103707866D01*
X93670290Y-103707868D01*
X93670289Y-103707868D01*
X93547808Y-103830349D01*
X93547808Y-103830350D01*
X93547806Y-103830352D01*
X93545594Y-103833397D01*
X93445988Y-103970491D01*
X93367348Y-104124832D01*
X93313817Y-104289582D01*
X93297025Y-104395606D01*
X93286720Y-104460669D01*
X63113822Y-104460669D01*
X63115062Y-101920669D01*
X93286720Y-101920669D01*
X93286720Y-102093891D01*
X93313818Y-102264981D01*
X93367347Y-102429725D01*
X93445988Y-102584068D01*
X93547806Y-102724208D01*
X93670292Y-102846694D01*
X93810432Y-102948512D01*
X93964775Y-103027153D01*
X94129519Y-103080682D01*
X94300609Y-103107780D01*
X94300610Y-103107780D01*
X95273830Y-103107780D01*
X95273831Y-103107780D01*
X95444921Y-103080682D01*
X95609665Y-103027153D01*
X95764008Y-102948512D01*
X95904148Y-102846694D01*
X96026634Y-102724208D01*
X96128452Y-102584068D01*
X96207093Y-102429725D01*
X96260622Y-102264981D01*
X96287720Y-102093891D01*
X96287720Y-101923389D01*
X116150400Y-101923389D01*
X116150400Y-102096610D01*
X116177066Y-102264977D01*
X116177498Y-102267701D01*
X116231027Y-102432445D01*
X116309668Y-102586788D01*
X116411486Y-102726928D01*
X116533972Y-102849414D01*
X116674112Y-102951232D01*
X116828455Y-103029873D01*
X116993199Y-103083402D01*
X117164289Y-103110500D01*
X117164290Y-103110500D01*
X118137510Y-103110500D01*
X118137511Y-103110500D01*
X118308601Y-103083402D01*
X118473345Y-103029873D01*
X118627688Y-102951232D01*
X118767828Y-102849414D01*
X118890314Y-102726928D01*
X118992132Y-102586788D01*
X119070773Y-102432445D01*
X119124302Y-102267701D01*
X119151400Y-102096611D01*
X119151400Y-101923389D01*
X119124302Y-101752299D01*
X119070773Y-101587555D01*
X118992132Y-101433212D01*
X118890314Y-101293072D01*
X118767828Y-101170586D01*
X118627688Y-101068768D01*
X118473345Y-100990127D01*
X118308601Y-100936598D01*
X118308599Y-100936597D01*
X118308598Y-100936597D01*
X118177171Y-100915781D01*
X118137511Y-100909500D01*
X117164289Y-100909500D01*
X117124628Y-100915781D01*
X116993202Y-100936597D01*
X116828452Y-100990128D01*
X116674111Y-101068768D01*
X116594156Y-101126859D01*
X116533972Y-101170586D01*
X116533970Y-101170588D01*
X116533969Y-101170588D01*
X116411488Y-101293069D01*
X116411488Y-101293070D01*
X116411486Y-101293072D01*
X116367759Y-101353256D01*
X116309668Y-101433211D01*
X116231028Y-101587552D01*
X116177497Y-101752302D01*
X116150400Y-101923389D01*
X96287720Y-101923389D01*
X96287720Y-101920669D01*
X96260622Y-101749579D01*
X96207093Y-101584835D01*
X96128452Y-101430492D01*
X96026634Y-101290352D01*
X95904148Y-101167866D01*
X95764008Y-101066048D01*
X95609665Y-100987407D01*
X95444921Y-100933878D01*
X95444919Y-100933877D01*
X95444918Y-100933877D01*
X95291004Y-100909500D01*
X95273831Y-100906780D01*
X94300609Y-100906780D01*
X94283436Y-100909500D01*
X94129522Y-100933877D01*
X93964772Y-100987408D01*
X93810431Y-101066048D01*
X93730476Y-101124139D01*
X93670292Y-101167866D01*
X93670290Y-101167868D01*
X93670289Y-101167868D01*
X93547808Y-101290349D01*
X93547808Y-101290350D01*
X93547806Y-101290352D01*
X93545830Y-101293072D01*
X93445988Y-101430491D01*
X93367348Y-101584832D01*
X93313817Y-101749582D01*
X93312967Y-101754949D01*
X93286720Y-101920669D01*
X63115062Y-101920669D01*
X63116300Y-99383389D01*
X93290400Y-99383389D01*
X93290400Y-99556611D01*
X93317498Y-99727701D01*
X93371027Y-99892445D01*
X93449668Y-100046788D01*
X93551486Y-100186928D01*
X93673972Y-100309414D01*
X93814112Y-100411232D01*
X93968455Y-100489873D01*
X94133199Y-100543402D01*
X94304289Y-100570500D01*
X94304290Y-100570500D01*
X95277510Y-100570500D01*
X95277511Y-100570500D01*
X95448601Y-100543402D01*
X95613345Y-100489873D01*
X95767688Y-100411232D01*
X95907828Y-100309414D01*
X96030314Y-100186928D01*
X96132132Y-100046788D01*
X96210773Y-99892445D01*
X96264302Y-99727701D01*
X96291400Y-99556611D01*
X96291400Y-99383389D01*
X116150400Y-99383389D01*
X116150400Y-99556611D01*
X116177498Y-99727701D01*
X116231027Y-99892445D01*
X116309668Y-100046788D01*
X116411486Y-100186928D01*
X116533972Y-100309414D01*
X116674112Y-100411232D01*
X116828455Y-100489873D01*
X116993199Y-100543402D01*
X117164289Y-100570500D01*
X117164290Y-100570500D01*
X118137510Y-100570500D01*
X118137511Y-100570500D01*
X118308601Y-100543402D01*
X118473345Y-100489873D01*
X118627688Y-100411232D01*
X118767828Y-100309414D01*
X118890314Y-100186928D01*
X118992132Y-100046788D01*
X119070773Y-99892445D01*
X119124302Y-99727701D01*
X119151400Y-99556611D01*
X119151400Y-99383389D01*
X119124302Y-99212299D01*
X119070773Y-99047555D01*
X118992132Y-98893212D01*
X118890314Y-98753072D01*
X118767828Y-98630586D01*
X118627688Y-98528768D01*
X118473345Y-98450127D01*
X118308601Y-98396598D01*
X118308599Y-98396597D01*
X118308598Y-98396597D01*
X118177171Y-98375781D01*
X118137511Y-98369500D01*
X117164289Y-98369500D01*
X117124628Y-98375781D01*
X116993202Y-98396597D01*
X116828452Y-98450128D01*
X116674111Y-98528768D01*
X116594156Y-98586859D01*
X116533972Y-98630586D01*
X116533970Y-98630588D01*
X116533969Y-98630588D01*
X116411488Y-98753069D01*
X116411488Y-98753070D01*
X116411486Y-98753072D01*
X116367759Y-98813256D01*
X116309668Y-98893211D01*
X116231028Y-99047552D01*
X116177497Y-99212302D01*
X116151181Y-99378456D01*
X116150400Y-99383389D01*
X96291400Y-99383389D01*
X96264302Y-99212299D01*
X96210773Y-99047555D01*
X96132132Y-98893212D01*
X96030314Y-98753072D01*
X95907828Y-98630586D01*
X95767688Y-98528768D01*
X95613345Y-98450127D01*
X95448601Y-98396598D01*
X95448599Y-98396597D01*
X95448598Y-98396597D01*
X95317171Y-98375781D01*
X95277511Y-98369500D01*
X94304289Y-98369500D01*
X94264628Y-98375781D01*
X94133202Y-98396597D01*
X93968452Y-98450128D01*
X93814111Y-98528768D01*
X93734156Y-98586859D01*
X93673972Y-98630586D01*
X93673970Y-98630588D01*
X93673969Y-98630588D01*
X93551488Y-98753069D01*
X93551488Y-98753070D01*
X93551486Y-98753072D01*
X93507759Y-98813256D01*
X93449668Y-98893211D01*
X93371028Y-99047552D01*
X93317497Y-99212302D01*
X93291181Y-99378456D01*
X93290400Y-99383389D01*
X63116300Y-99383389D01*
X63117540Y-96843389D01*
X93290400Y-96843389D01*
X93290400Y-97016611D01*
X93317498Y-97187701D01*
X93371027Y-97352445D01*
X93449668Y-97506788D01*
X93551486Y-97646928D01*
X93673972Y-97769414D01*
X93814112Y-97871232D01*
X93968455Y-97949873D01*
X94133199Y-98003402D01*
X94304289Y-98030500D01*
X94304290Y-98030500D01*
X95277510Y-98030500D01*
X95277511Y-98030500D01*
X95448601Y-98003402D01*
X95613345Y-97949873D01*
X95767688Y-97871232D01*
X95907828Y-97769414D01*
X96030314Y-97646928D01*
X96132132Y-97506788D01*
X96210773Y-97352445D01*
X96264302Y-97187701D01*
X96291400Y-97016611D01*
X96291400Y-96843389D01*
X116150400Y-96843389D01*
X116150400Y-97016611D01*
X116177498Y-97187701D01*
X116231027Y-97352445D01*
X116309668Y-97506788D01*
X116411486Y-97646928D01*
X116533972Y-97769414D01*
X116674112Y-97871232D01*
X116828455Y-97949873D01*
X116993199Y-98003402D01*
X117164289Y-98030500D01*
X117164290Y-98030500D01*
X118137510Y-98030500D01*
X118137511Y-98030500D01*
X118308601Y-98003402D01*
X118473345Y-97949873D01*
X118627688Y-97871232D01*
X118767828Y-97769414D01*
X118890314Y-97646928D01*
X118992132Y-97506788D01*
X119070773Y-97352445D01*
X119124302Y-97187701D01*
X119151400Y-97016611D01*
X119151400Y-96843389D01*
X119124302Y-96672299D01*
X119070773Y-96507555D01*
X118992132Y-96353212D01*
X118890314Y-96213072D01*
X118767828Y-96090586D01*
X118627688Y-95988768D01*
X118473345Y-95910127D01*
X118308601Y-95856598D01*
X118308599Y-95856597D01*
X118308598Y-95856597D01*
X118177171Y-95835781D01*
X118137511Y-95829500D01*
X117164289Y-95829500D01*
X117124628Y-95835781D01*
X116993202Y-95856597D01*
X116828452Y-95910128D01*
X116674111Y-95988768D01*
X116594156Y-96046859D01*
X116533972Y-96090586D01*
X116533970Y-96090588D01*
X116533969Y-96090588D01*
X116411488Y-96213069D01*
X116411488Y-96213070D01*
X116411486Y-96213072D01*
X116367759Y-96273256D01*
X116309668Y-96353211D01*
X116231028Y-96507552D01*
X116177497Y-96672302D01*
X116150400Y-96843389D01*
X96291400Y-96843389D01*
X96264302Y-96672299D01*
X96210773Y-96507555D01*
X96132132Y-96353212D01*
X96030314Y-96213072D01*
X95907828Y-96090586D01*
X95767688Y-95988768D01*
X95613345Y-95910127D01*
X95448601Y-95856598D01*
X95448599Y-95856597D01*
X95448598Y-95856597D01*
X95317171Y-95835781D01*
X95277511Y-95829500D01*
X94304289Y-95829500D01*
X94264628Y-95835781D01*
X94133202Y-95856597D01*
X93968452Y-95910128D01*
X93814111Y-95988768D01*
X93734156Y-96046859D01*
X93673972Y-96090586D01*
X93673970Y-96090588D01*
X93673969Y-96090588D01*
X93551488Y-96213069D01*
X93551488Y-96213070D01*
X93551486Y-96213072D01*
X93507759Y-96273256D01*
X93449668Y-96353211D01*
X93371028Y-96507552D01*
X93317497Y-96672302D01*
X93290400Y-96843389D01*
X63117540Y-96843389D01*
X63118780Y-94303389D01*
X93290400Y-94303389D01*
X93290400Y-94476610D01*
X93307161Y-94582439D01*
X93317498Y-94647701D01*
X93371027Y-94812445D01*
X93449668Y-94966788D01*
X93551486Y-95106928D01*
X93673972Y-95229414D01*
X93814112Y-95331232D01*
X93968455Y-95409873D01*
X94133199Y-95463402D01*
X94304289Y-95490500D01*
X94304290Y-95490500D01*
X95277510Y-95490500D01*
X95277511Y-95490500D01*
X95448601Y-95463402D01*
X95613345Y-95409873D01*
X95767688Y-95331232D01*
X95907828Y-95229414D01*
X96030314Y-95106928D01*
X96132132Y-94966788D01*
X96210773Y-94812445D01*
X96264302Y-94647701D01*
X96291400Y-94476611D01*
X96291400Y-94303389D01*
X116150400Y-94303389D01*
X116150400Y-94476610D01*
X116167161Y-94582439D01*
X116177498Y-94647701D01*
X116231027Y-94812445D01*
X116309668Y-94966788D01*
X116411486Y-95106928D01*
X116533972Y-95229414D01*
X116674112Y-95331232D01*
X116828455Y-95409873D01*
X116993199Y-95463402D01*
X117164289Y-95490500D01*
X117164290Y-95490500D01*
X118137510Y-95490500D01*
X118137511Y-95490500D01*
X118308601Y-95463402D01*
X118473345Y-95409873D01*
X118627688Y-95331232D01*
X118767828Y-95229414D01*
X118890314Y-95106928D01*
X118992132Y-94966788D01*
X119070773Y-94812445D01*
X119124302Y-94647701D01*
X119151400Y-94476611D01*
X119151400Y-94303389D01*
X119124302Y-94132299D01*
X119070773Y-93967555D01*
X118992132Y-93813212D01*
X118890314Y-93673072D01*
X118767828Y-93550586D01*
X118627688Y-93448768D01*
X118473345Y-93370127D01*
X118308601Y-93316598D01*
X118308599Y-93316597D01*
X118308598Y-93316597D01*
X118177171Y-93295781D01*
X118137511Y-93289500D01*
X117164289Y-93289500D01*
X117124628Y-93295781D01*
X116993202Y-93316597D01*
X116828452Y-93370128D01*
X116674111Y-93448768D01*
X116594156Y-93506859D01*
X116533972Y-93550586D01*
X116533970Y-93550588D01*
X116533969Y-93550588D01*
X116411488Y-93673069D01*
X116411488Y-93673070D01*
X116411486Y-93673072D01*
X116386486Y-93707482D01*
X116309668Y-93813211D01*
X116231028Y-93967552D01*
X116177497Y-94132302D01*
X116150400Y-94303389D01*
X96291400Y-94303389D01*
X96264302Y-94132299D01*
X96210773Y-93967555D01*
X96132132Y-93813212D01*
X96030314Y-93673072D01*
X95907828Y-93550586D01*
X95767688Y-93448768D01*
X95613345Y-93370127D01*
X95448601Y-93316598D01*
X95448599Y-93316597D01*
X95448598Y-93316597D01*
X95317171Y-93295781D01*
X95277511Y-93289500D01*
X94304289Y-93289500D01*
X94264628Y-93295781D01*
X94133202Y-93316597D01*
X93968452Y-93370128D01*
X93814111Y-93448768D01*
X93734156Y-93506859D01*
X93673972Y-93550586D01*
X93673970Y-93550588D01*
X93673969Y-93550588D01*
X93551488Y-93673069D01*
X93551488Y-93673070D01*
X93551486Y-93673072D01*
X93526486Y-93707482D01*
X93449668Y-93813211D01*
X93371028Y-93967552D01*
X93317497Y-94132302D01*
X93290400Y-94303389D01*
X63118780Y-94303389D01*
X63120816Y-90132135D01*
X67040400Y-90132135D01*
X67040400Y-91927870D01*
X67040401Y-91927876D01*
X67046808Y-91987483D01*
X67097102Y-92122328D01*
X67097106Y-92122335D01*
X67183352Y-92237544D01*
X67183355Y-92237547D01*
X67298564Y-92323793D01*
X67298571Y-92323797D01*
X67433417Y-92374091D01*
X67433416Y-92374091D01*
X67440344Y-92374835D01*
X67493027Y-92380500D01*
X69288772Y-92380499D01*
X69348383Y-92374091D01*
X69483231Y-92323796D01*
X69598446Y-92237546D01*
X69684696Y-92122331D01*
X69733710Y-91990916D01*
X69775581Y-91934984D01*
X69841045Y-91910566D01*
X69909318Y-91925417D01*
X69937573Y-91946569D01*
X70051113Y-92060109D01*
X70223079Y-92185048D01*
X70223081Y-92185049D01*
X70223084Y-92185051D01*
X70412488Y-92281557D01*
X70614657Y-92347246D01*
X70824613Y-92380500D01*
X70824614Y-92380500D01*
X71037186Y-92380500D01*
X71037187Y-92380500D01*
X71247143Y-92347246D01*
X71449312Y-92281557D01*
X71638716Y-92185051D01*
X71725038Y-92122335D01*
X71810686Y-92060109D01*
X71810688Y-92060106D01*
X71810692Y-92060104D01*
X71961004Y-91909792D01*
X71961006Y-91909788D01*
X71961009Y-91909786D01*
X72085948Y-91737820D01*
X72085947Y-91737820D01*
X72085951Y-91737816D01*
X72090414Y-91729054D01*
X72138388Y-91678259D01*
X72206208Y-91661463D01*
X72272344Y-91683999D01*
X72311386Y-91729056D01*
X72315851Y-91737820D01*
X72440790Y-91909786D01*
X72591113Y-92060109D01*
X72763079Y-92185048D01*
X72763081Y-92185049D01*
X72763084Y-92185051D01*
X72952488Y-92281557D01*
X73154657Y-92347246D01*
X73364613Y-92380500D01*
X73364614Y-92380500D01*
X73577186Y-92380500D01*
X73577187Y-92380500D01*
X73787143Y-92347246D01*
X73989312Y-92281557D01*
X74178716Y-92185051D01*
X74265038Y-92122335D01*
X74350686Y-92060109D01*
X74350688Y-92060106D01*
X74350692Y-92060104D01*
X74501004Y-91909792D01*
X74501006Y-91909788D01*
X74501009Y-91909786D01*
X74625948Y-91737820D01*
X74625947Y-91737820D01*
X74625951Y-91737816D01*
X74630414Y-91729054D01*
X74678388Y-91678259D01*
X74746208Y-91661463D01*
X74812344Y-91683999D01*
X74851386Y-91729056D01*
X74855851Y-91737820D01*
X74980790Y-91909786D01*
X75131113Y-92060109D01*
X75303079Y-92185048D01*
X75303081Y-92185049D01*
X75303084Y-92185051D01*
X75492488Y-92281557D01*
X75694657Y-92347246D01*
X75904613Y-92380500D01*
X75904614Y-92380500D01*
X76117186Y-92380500D01*
X76117187Y-92380500D01*
X76327143Y-92347246D01*
X76529312Y-92281557D01*
X76718716Y-92185051D01*
X76805038Y-92122335D01*
X76890686Y-92060109D01*
X76890688Y-92060106D01*
X76890692Y-92060104D01*
X77041004Y-91909792D01*
X77041006Y-91909788D01*
X77041009Y-91909786D01*
X77165948Y-91737820D01*
X77165947Y-91737820D01*
X77165951Y-91737816D01*
X77170414Y-91729054D01*
X77218388Y-91678259D01*
X77286208Y-91661463D01*
X77352344Y-91683999D01*
X77391386Y-91729056D01*
X77395851Y-91737820D01*
X77520790Y-91909786D01*
X77671113Y-92060109D01*
X77843079Y-92185048D01*
X77843081Y-92185049D01*
X77843084Y-92185051D01*
X78032488Y-92281557D01*
X78234657Y-92347246D01*
X78444613Y-92380500D01*
X78444614Y-92380500D01*
X78657186Y-92380500D01*
X78657187Y-92380500D01*
X78867143Y-92347246D01*
X79069312Y-92281557D01*
X79258716Y-92185051D01*
X79345038Y-92122335D01*
X79430686Y-92060109D01*
X79430688Y-92060106D01*
X79430692Y-92060104D01*
X79581004Y-91909792D01*
X79581006Y-91909788D01*
X79581009Y-91909786D01*
X79705948Y-91737820D01*
X79705947Y-91737820D01*
X79705951Y-91737816D01*
X79710414Y-91729054D01*
X79758388Y-91678259D01*
X79826208Y-91661463D01*
X79892344Y-91683999D01*
X79931386Y-91729056D01*
X79935851Y-91737820D01*
X80060790Y-91909786D01*
X80211113Y-92060109D01*
X80383079Y-92185048D01*
X80383081Y-92185049D01*
X80383084Y-92185051D01*
X80572488Y-92281557D01*
X80774657Y-92347246D01*
X80984613Y-92380500D01*
X80984614Y-92380500D01*
X81197186Y-92380500D01*
X81197187Y-92380500D01*
X81407143Y-92347246D01*
X81609312Y-92281557D01*
X81798716Y-92185051D01*
X81885038Y-92122335D01*
X81970686Y-92060109D01*
X81970688Y-92060106D01*
X81970692Y-92060104D01*
X82121004Y-91909792D01*
X82121006Y-91909788D01*
X82121009Y-91909786D01*
X82245948Y-91737820D01*
X82245947Y-91737820D01*
X82245951Y-91737816D01*
X82250414Y-91729054D01*
X82298388Y-91678259D01*
X82366208Y-91661463D01*
X82432344Y-91683999D01*
X82471386Y-91729056D01*
X82475851Y-91737820D01*
X82600790Y-91909786D01*
X82751113Y-92060109D01*
X82923079Y-92185048D01*
X82923081Y-92185049D01*
X82923084Y-92185051D01*
X83112488Y-92281557D01*
X83314657Y-92347246D01*
X83524613Y-92380500D01*
X83524614Y-92380500D01*
X83737186Y-92380500D01*
X83737187Y-92380500D01*
X83947143Y-92347246D01*
X84149312Y-92281557D01*
X84338716Y-92185051D01*
X84425038Y-92122335D01*
X84510686Y-92060109D01*
X84510688Y-92060106D01*
X84510692Y-92060104D01*
X84661004Y-91909792D01*
X84661006Y-91909788D01*
X84661009Y-91909786D01*
X84746790Y-91791717D01*
X84785951Y-91737816D01*
X84790693Y-91728508D01*
X84838663Y-91677711D01*
X84906483Y-91660911D01*
X84972619Y-91683445D01*
X85011663Y-91728500D01*
X85016273Y-91737547D01*
X85055628Y-91791716D01*
X85687937Y-91159408D01*
X85704975Y-91222993D01*
X85770801Y-91337007D01*
X85863893Y-91430099D01*
X85977907Y-91495925D01*
X86041490Y-91512962D01*
X85409182Y-92145269D01*
X85409182Y-92145270D01*
X85463349Y-92184624D01*
X85652682Y-92281095D01*
X85854770Y-92346757D01*
X86064654Y-92380000D01*
X86277146Y-92380000D01*
X86487027Y-92346757D01*
X86487030Y-92346757D01*
X86689117Y-92281095D01*
X86878454Y-92184622D01*
X86932616Y-92145270D01*
X86932617Y-92145270D01*
X86300308Y-91512962D01*
X86363893Y-91495925D01*
X86477907Y-91430099D01*
X86570999Y-91337007D01*
X86636825Y-91222993D01*
X86653862Y-91159408D01*
X87286170Y-91791717D01*
X87286170Y-91791716D01*
X87306751Y-91763389D01*
X93290400Y-91763389D01*
X93290400Y-91936610D01*
X93309959Y-92060105D01*
X93317498Y-92107701D01*
X93371027Y-92272445D01*
X93449668Y-92426788D01*
X93551486Y-92566928D01*
X93673972Y-92689414D01*
X93814112Y-92791232D01*
X93968455Y-92869873D01*
X94133199Y-92923402D01*
X94304289Y-92950500D01*
X94304290Y-92950500D01*
X95277510Y-92950500D01*
X95277511Y-92950500D01*
X95448601Y-92923402D01*
X95613345Y-92869873D01*
X95767688Y-92791232D01*
X95907828Y-92689414D01*
X96030314Y-92566928D01*
X96132132Y-92426788D01*
X96210773Y-92272445D01*
X96264302Y-92107701D01*
X96291400Y-91936611D01*
X96291400Y-91763389D01*
X116150400Y-91763389D01*
X116150400Y-91936610D01*
X116169959Y-92060105D01*
X116177498Y-92107701D01*
X116231027Y-92272445D01*
X116309668Y-92426788D01*
X116411486Y-92566928D01*
X116533972Y-92689414D01*
X116674112Y-92791232D01*
X116828455Y-92869873D01*
X116993199Y-92923402D01*
X117164289Y-92950500D01*
X117164290Y-92950500D01*
X118137510Y-92950500D01*
X118137511Y-92950500D01*
X118308601Y-92923402D01*
X118473345Y-92869873D01*
X118627688Y-92791232D01*
X118767828Y-92689414D01*
X118890314Y-92566928D01*
X118992132Y-92426788D01*
X119070773Y-92272445D01*
X119124302Y-92107701D01*
X119151400Y-91936611D01*
X119151400Y-91852135D01*
X122410400Y-91852135D01*
X122410400Y-93647870D01*
X122410401Y-93647876D01*
X122416808Y-93707483D01*
X122467102Y-93842328D01*
X122467106Y-93842335D01*
X122553352Y-93957544D01*
X122553355Y-93957547D01*
X122668564Y-94043793D01*
X122668571Y-94043797D01*
X122713518Y-94060561D01*
X122803417Y-94094091D01*
X122863027Y-94100500D01*
X122873585Y-94100499D01*
X122940623Y-94120179D01*
X122961272Y-94136818D01*
X123631491Y-94807037D01*
X123567907Y-94824075D01*
X123453893Y-94889901D01*
X123360801Y-94982993D01*
X123294975Y-95097007D01*
X123277937Y-95160591D01*
X122645628Y-94528282D01*
X122645627Y-94528282D01*
X122606280Y-94582439D01*
X122509804Y-94771782D01*
X122444142Y-94973869D01*
X122444142Y-94973872D01*
X122410900Y-95183753D01*
X122410900Y-95396246D01*
X122444142Y-95606127D01*
X122444142Y-95606130D01*
X122509804Y-95808217D01*
X122606275Y-95997550D01*
X122645628Y-96051716D01*
X123277937Y-95419408D01*
X123294975Y-95482993D01*
X123360801Y-95597007D01*
X123453893Y-95690099D01*
X123567907Y-95755925D01*
X123631490Y-95772962D01*
X122999182Y-96405269D01*
X122999182Y-96405270D01*
X123053352Y-96444626D01*
X123053351Y-96444626D01*
X123062395Y-96449234D01*
X123113192Y-96497208D01*
X123129987Y-96565029D01*
X123107450Y-96631164D01*
X123062399Y-96670202D01*
X123053082Y-96674949D01*
X122881113Y-96799890D01*
X122730790Y-96950213D01*
X122605851Y-97122179D01*
X122509344Y-97311585D01*
X122443653Y-97513760D01*
X122410400Y-97723713D01*
X122410400Y-97936286D01*
X122443653Y-98146239D01*
X122509344Y-98348414D01*
X122605851Y-98537820D01*
X122730790Y-98709786D01*
X122881113Y-98860109D01*
X123053082Y-98985050D01*
X123061846Y-98989516D01*
X123112642Y-99037491D01*
X123129436Y-99105312D01*
X123106898Y-99171447D01*
X123061846Y-99210484D01*
X123053082Y-99214949D01*
X122881113Y-99339890D01*
X122730790Y-99490213D01*
X122605851Y-99662179D01*
X122509344Y-99851585D01*
X122443653Y-100053760D01*
X122410400Y-100263713D01*
X122410400Y-100476286D01*
X122443653Y-100686239D01*
X122509344Y-100888414D01*
X122605851Y-101077820D01*
X122730790Y-101249786D01*
X122881113Y-101400109D01*
X123053082Y-101525050D01*
X123061846Y-101529516D01*
X123112642Y-101577491D01*
X123129436Y-101645312D01*
X123106898Y-101711447D01*
X123061846Y-101750484D01*
X123053082Y-101754949D01*
X122881113Y-101879890D01*
X122730790Y-102030213D01*
X122605851Y-102202179D01*
X122509344Y-102391585D01*
X122443653Y-102593760D01*
X122410400Y-102803713D01*
X122410400Y-103016286D01*
X122443653Y-103226239D01*
X122509344Y-103428414D01*
X122605851Y-103617820D01*
X122730790Y-103789786D01*
X122881113Y-103940109D01*
X123053082Y-104065050D01*
X123061846Y-104069516D01*
X123112642Y-104117491D01*
X123129436Y-104185312D01*
X123106898Y-104251447D01*
X123061846Y-104290484D01*
X123053082Y-104294949D01*
X122881113Y-104419890D01*
X122730790Y-104570213D01*
X122605851Y-104742179D01*
X122509344Y-104931585D01*
X122443653Y-105133760D01*
X122410400Y-105343713D01*
X122410400Y-105556286D01*
X122443653Y-105766239D01*
X122509344Y-105968414D01*
X122605851Y-106157820D01*
X122730790Y-106329786D01*
X122881113Y-106480109D01*
X123053082Y-106605050D01*
X123061846Y-106609516D01*
X123112642Y-106657491D01*
X123129436Y-106725312D01*
X123106898Y-106791447D01*
X123061846Y-106830484D01*
X123053082Y-106834949D01*
X122881113Y-106959890D01*
X122730790Y-107110213D01*
X122605851Y-107282179D01*
X122509344Y-107471585D01*
X122443653Y-107673760D01*
X122423044Y-107803882D01*
X122410400Y-107883713D01*
X122410400Y-108096287D01*
X122412478Y-108109408D01*
X122443653Y-108306239D01*
X122509344Y-108508414D01*
X122605851Y-108697820D01*
X122730790Y-108869786D01*
X122881113Y-109020109D01*
X123053079Y-109145048D01*
X123053081Y-109145049D01*
X123053084Y-109145051D01*
X123242488Y-109241557D01*
X123444657Y-109307246D01*
X123654613Y-109340500D01*
X123654614Y-109340500D01*
X123867186Y-109340500D01*
X123867187Y-109340500D01*
X124077143Y-109307246D01*
X124279312Y-109241557D01*
X124468716Y-109145051D01*
X124490689Y-109129086D01*
X124640686Y-109020109D01*
X124640688Y-109020106D01*
X124640692Y-109020104D01*
X124791004Y-108869792D01*
X124791006Y-108869788D01*
X124791009Y-108869786D01*
X124915948Y-108697820D01*
X124915947Y-108697820D01*
X124915951Y-108697816D01*
X125012457Y-108508412D01*
X125078146Y-108306243D01*
X125111400Y-108096287D01*
X125111400Y-107883713D01*
X125078146Y-107673757D01*
X125012457Y-107471588D01*
X124915951Y-107282184D01*
X124915949Y-107282181D01*
X124915948Y-107282179D01*
X124791009Y-107110213D01*
X124640686Y-106959890D01*
X124468720Y-106834951D01*
X124468015Y-106834591D01*
X124459954Y-106830485D01*
X124409159Y-106782512D01*
X124392363Y-106714692D01*
X124414899Y-106648556D01*
X124459954Y-106609515D01*
X124468716Y-106605051D01*
X124490689Y-106589086D01*
X124640686Y-106480109D01*
X124640688Y-106480106D01*
X124640692Y-106480104D01*
X124791004Y-106329792D01*
X124791006Y-106329788D01*
X124791009Y-106329786D01*
X124915948Y-106157820D01*
X124915947Y-106157820D01*
X124915951Y-106157816D01*
X125012457Y-105968412D01*
X125078146Y-105766243D01*
X125111400Y-105556287D01*
X125111400Y-105343713D01*
X125078146Y-105133757D01*
X125012457Y-104931588D01*
X124915951Y-104742184D01*
X124915949Y-104742181D01*
X124915948Y-104742179D01*
X124791009Y-104570213D01*
X124640686Y-104419890D01*
X124468720Y-104294951D01*
X124468015Y-104294591D01*
X124459954Y-104290485D01*
X124409159Y-104242512D01*
X124392363Y-104174692D01*
X124414899Y-104108556D01*
X124459954Y-104069515D01*
X124468716Y-104065051D01*
X124490689Y-104049086D01*
X124640686Y-103940109D01*
X124640688Y-103940106D01*
X124640692Y-103940104D01*
X124791004Y-103789792D01*
X124791006Y-103789788D01*
X124791009Y-103789786D01*
X124915948Y-103617820D01*
X124915947Y-103617820D01*
X124915951Y-103617816D01*
X125012457Y-103428412D01*
X125078146Y-103226243D01*
X125111400Y-103016287D01*
X125111400Y-102803713D01*
X125078146Y-102593757D01*
X125012457Y-102391588D01*
X124915951Y-102202184D01*
X124915949Y-102202181D01*
X124915948Y-102202179D01*
X124791009Y-102030213D01*
X124640686Y-101879890D01*
X124468720Y-101754951D01*
X124468015Y-101754591D01*
X124459954Y-101750485D01*
X124409159Y-101702512D01*
X124392363Y-101634692D01*
X124414899Y-101568556D01*
X124459954Y-101529515D01*
X124468716Y-101525051D01*
X124490689Y-101509086D01*
X124640686Y-101400109D01*
X124640688Y-101400106D01*
X124640692Y-101400104D01*
X124791004Y-101249792D01*
X124791006Y-101249788D01*
X124791009Y-101249786D01*
X124915948Y-101077820D01*
X124915947Y-101077820D01*
X124915951Y-101077816D01*
X125012457Y-100888412D01*
X125078146Y-100686243D01*
X125111400Y-100476287D01*
X125111400Y-100263713D01*
X125078146Y-100053757D01*
X125012457Y-99851588D01*
X124915951Y-99662184D01*
X124915949Y-99662181D01*
X124915948Y-99662179D01*
X124791009Y-99490213D01*
X124640686Y-99339890D01*
X124468720Y-99214951D01*
X124468015Y-99214591D01*
X124459954Y-99210485D01*
X124409159Y-99162512D01*
X124392363Y-99094692D01*
X124414899Y-99028556D01*
X124459954Y-98989515D01*
X124468716Y-98985051D01*
X124490689Y-98969086D01*
X124640686Y-98860109D01*
X124640688Y-98860106D01*
X124640692Y-98860104D01*
X124791004Y-98709792D01*
X124791006Y-98709788D01*
X124791009Y-98709786D01*
X124915948Y-98537820D01*
X124915947Y-98537820D01*
X124915951Y-98537816D01*
X125012457Y-98348412D01*
X125078146Y-98146243D01*
X125111400Y-97936287D01*
X125111400Y-97723713D01*
X125078146Y-97513757D01*
X125012457Y-97311588D01*
X124915951Y-97122184D01*
X124915949Y-97122181D01*
X124915948Y-97122179D01*
X124791009Y-96950213D01*
X124640686Y-96799890D01*
X124468717Y-96674949D01*
X124459404Y-96670204D01*
X124408607Y-96622230D01*
X124391812Y-96554409D01*
X124414349Y-96488274D01*
X124459407Y-96449232D01*
X124468455Y-96444622D01*
X124522616Y-96405270D01*
X124522617Y-96405270D01*
X123890308Y-95772962D01*
X123953893Y-95755925D01*
X124067907Y-95690099D01*
X124160999Y-95597007D01*
X124226825Y-95482993D01*
X124243862Y-95419409D01*
X124876170Y-96051717D01*
X124876170Y-96051716D01*
X124915522Y-95997554D01*
X125011995Y-95808217D01*
X125077657Y-95606130D01*
X125077657Y-95606127D01*
X125110900Y-95396246D01*
X125110900Y-95183753D01*
X125077657Y-94973872D01*
X125077657Y-94973869D01*
X125011995Y-94771782D01*
X124915524Y-94582449D01*
X124876170Y-94528282D01*
X124876169Y-94528282D01*
X124243862Y-95160590D01*
X124226825Y-95097007D01*
X124160999Y-94982993D01*
X124067907Y-94889901D01*
X123953893Y-94824075D01*
X123890309Y-94807037D01*
X124560527Y-94136818D01*
X124621850Y-94103333D01*
X124648207Y-94100499D01*
X124658772Y-94100499D01*
X124718383Y-94094091D01*
X124853231Y-94043796D01*
X124968446Y-93957546D01*
X125054696Y-93842331D01*
X125104991Y-93707483D01*
X125111400Y-93647873D01*
X125111399Y-91852128D01*
X125104991Y-91792517D01*
X125104692Y-91791716D01*
X125054697Y-91657671D01*
X125054693Y-91657664D01*
X124968447Y-91542455D01*
X124968444Y-91542452D01*
X124853235Y-91456206D01*
X124853228Y-91456202D01*
X124718382Y-91405908D01*
X124718383Y-91405908D01*
X124658783Y-91399501D01*
X124658781Y-91399500D01*
X124658773Y-91399500D01*
X124658764Y-91399500D01*
X122863029Y-91399500D01*
X122863023Y-91399501D01*
X122803416Y-91405908D01*
X122668571Y-91456202D01*
X122668564Y-91456206D01*
X122553355Y-91542452D01*
X122553352Y-91542455D01*
X122467106Y-91657664D01*
X122467102Y-91657671D01*
X122416808Y-91792517D01*
X122410401Y-91852116D01*
X122410401Y-91852123D01*
X122410400Y-91852135D01*
X119151400Y-91852135D01*
X119151400Y-91763389D01*
X119124302Y-91592299D01*
X119070773Y-91427555D01*
X118992132Y-91273212D01*
X118890314Y-91133072D01*
X118767828Y-91010586D01*
X118627688Y-90908768D01*
X118473345Y-90830127D01*
X118308601Y-90776598D01*
X118308599Y-90776597D01*
X118308598Y-90776597D01*
X118177171Y-90755781D01*
X118137511Y-90749500D01*
X117164289Y-90749500D01*
X117124628Y-90755781D01*
X116993202Y-90776597D01*
X116828452Y-90830128D01*
X116674111Y-90908768D01*
X116597852Y-90964174D01*
X116533972Y-91010586D01*
X116533970Y-91010588D01*
X116533969Y-91010588D01*
X116411488Y-91133069D01*
X116411488Y-91133070D01*
X116411486Y-91133072D01*
X116367759Y-91193256D01*
X116309668Y-91273211D01*
X116231028Y-91427552D01*
X116177497Y-91592302D01*
X116150400Y-91763389D01*
X96291400Y-91763389D01*
X96264302Y-91592299D01*
X96210773Y-91427555D01*
X96132132Y-91273212D01*
X96030314Y-91133072D01*
X95907828Y-91010586D01*
X95767688Y-90908768D01*
X95613345Y-90830127D01*
X95448601Y-90776598D01*
X95448599Y-90776597D01*
X95448598Y-90776597D01*
X95317171Y-90755781D01*
X95277511Y-90749500D01*
X94304289Y-90749500D01*
X94264628Y-90755781D01*
X94133202Y-90776597D01*
X93968452Y-90830128D01*
X93814111Y-90908768D01*
X93737852Y-90964174D01*
X93673972Y-91010586D01*
X93673970Y-91010588D01*
X93673969Y-91010588D01*
X93551488Y-91133069D01*
X93551488Y-91133070D01*
X93551486Y-91133072D01*
X93507759Y-91193256D01*
X93449668Y-91273211D01*
X93371028Y-91427552D01*
X93317497Y-91592302D01*
X93290400Y-91763389D01*
X87306751Y-91763389D01*
X87325524Y-91737551D01*
X87343527Y-91702221D01*
X87421995Y-91548217D01*
X87487657Y-91346130D01*
X87487657Y-91346127D01*
X87520900Y-91136246D01*
X87520900Y-90923753D01*
X87487657Y-90713872D01*
X87487657Y-90713869D01*
X87421995Y-90511782D01*
X87325524Y-90322449D01*
X87286170Y-90268282D01*
X87286169Y-90268282D01*
X86653862Y-90900590D01*
X86636825Y-90837007D01*
X86570999Y-90722993D01*
X86477907Y-90629901D01*
X86363893Y-90564075D01*
X86300309Y-90547037D01*
X86932616Y-89914728D01*
X86878450Y-89875375D01*
X86689117Y-89778904D01*
X86487029Y-89713242D01*
X86277146Y-89680000D01*
X86064654Y-89680000D01*
X85854772Y-89713242D01*
X85854769Y-89713242D01*
X85652682Y-89778904D01*
X85463339Y-89875380D01*
X85409182Y-89914727D01*
X85409182Y-89914728D01*
X86041491Y-90547037D01*
X85977907Y-90564075D01*
X85863893Y-90629901D01*
X85770801Y-90722993D01*
X85704975Y-90837007D01*
X85687937Y-90900591D01*
X85055628Y-90268282D01*
X85055627Y-90268282D01*
X85016280Y-90322440D01*
X85016276Y-90322446D01*
X85011660Y-90331505D01*
X84963681Y-90382297D01*
X84895859Y-90399087D01*
X84829726Y-90376543D01*
X84790694Y-90331493D01*
X84785951Y-90322184D01*
X84785949Y-90322181D01*
X84785948Y-90322179D01*
X84661009Y-90150213D01*
X84510686Y-89999890D01*
X84338720Y-89874951D01*
X84149314Y-89778444D01*
X84149313Y-89778443D01*
X84149312Y-89778443D01*
X83947143Y-89712754D01*
X83947141Y-89712753D01*
X83947140Y-89712753D01*
X83785857Y-89687208D01*
X83737187Y-89679500D01*
X83524613Y-89679500D01*
X83475942Y-89687208D01*
X83314660Y-89712753D01*
X83112485Y-89778444D01*
X82923079Y-89874951D01*
X82751113Y-89999890D01*
X82600790Y-90150213D01*
X82475849Y-90322182D01*
X82471384Y-90330946D01*
X82423409Y-90381742D01*
X82355588Y-90398536D01*
X82289453Y-90375998D01*
X82250416Y-90330946D01*
X82245950Y-90322182D01*
X82121009Y-90150213D01*
X81970686Y-89999890D01*
X81798720Y-89874951D01*
X81609314Y-89778444D01*
X81609313Y-89778443D01*
X81609312Y-89778443D01*
X81407143Y-89712754D01*
X81407141Y-89712753D01*
X81407140Y-89712753D01*
X81245857Y-89687208D01*
X81197187Y-89679500D01*
X80984613Y-89679500D01*
X80935942Y-89687208D01*
X80774660Y-89712753D01*
X80572485Y-89778444D01*
X80383079Y-89874951D01*
X80211113Y-89999890D01*
X80060790Y-90150213D01*
X79935849Y-90322182D01*
X79931384Y-90330946D01*
X79883409Y-90381742D01*
X79815588Y-90398536D01*
X79749453Y-90375998D01*
X79710416Y-90330946D01*
X79705950Y-90322182D01*
X79581009Y-90150213D01*
X79430686Y-89999890D01*
X79258720Y-89874951D01*
X79069314Y-89778444D01*
X79069313Y-89778443D01*
X79069312Y-89778443D01*
X78867143Y-89712754D01*
X78867141Y-89712753D01*
X78867140Y-89712753D01*
X78705857Y-89687208D01*
X78657187Y-89679500D01*
X78444613Y-89679500D01*
X78395942Y-89687208D01*
X78234660Y-89712753D01*
X78032485Y-89778444D01*
X77843079Y-89874951D01*
X77671113Y-89999890D01*
X77520790Y-90150213D01*
X77395849Y-90322182D01*
X77391384Y-90330946D01*
X77343409Y-90381742D01*
X77275588Y-90398536D01*
X77209453Y-90375998D01*
X77170416Y-90330946D01*
X77165950Y-90322182D01*
X77041009Y-90150213D01*
X76890686Y-89999890D01*
X76718720Y-89874951D01*
X76529314Y-89778444D01*
X76529313Y-89778443D01*
X76529312Y-89778443D01*
X76327143Y-89712754D01*
X76327141Y-89712753D01*
X76327140Y-89712753D01*
X76165857Y-89687208D01*
X76117187Y-89679500D01*
X75904613Y-89679500D01*
X75855942Y-89687208D01*
X75694660Y-89712753D01*
X75492485Y-89778444D01*
X75303079Y-89874951D01*
X75131113Y-89999890D01*
X74980790Y-90150213D01*
X74855849Y-90322182D01*
X74851384Y-90330946D01*
X74803409Y-90381742D01*
X74735588Y-90398536D01*
X74669453Y-90375998D01*
X74630416Y-90330946D01*
X74625950Y-90322182D01*
X74501009Y-90150213D01*
X74350686Y-89999890D01*
X74178720Y-89874951D01*
X73989314Y-89778444D01*
X73989313Y-89778443D01*
X73989312Y-89778443D01*
X73787143Y-89712754D01*
X73787141Y-89712753D01*
X73787140Y-89712753D01*
X73625857Y-89687208D01*
X73577187Y-89679500D01*
X73364613Y-89679500D01*
X73315942Y-89687208D01*
X73154660Y-89712753D01*
X72952485Y-89778444D01*
X72763079Y-89874951D01*
X72591113Y-89999890D01*
X72440790Y-90150213D01*
X72315849Y-90322182D01*
X72311384Y-90330946D01*
X72263409Y-90381742D01*
X72195588Y-90398536D01*
X72129453Y-90375998D01*
X72090416Y-90330946D01*
X72085950Y-90322182D01*
X71961009Y-90150213D01*
X71810686Y-89999890D01*
X71638720Y-89874951D01*
X71449314Y-89778444D01*
X71449313Y-89778443D01*
X71449312Y-89778443D01*
X71247143Y-89712754D01*
X71247141Y-89712753D01*
X71247140Y-89712753D01*
X71085857Y-89687208D01*
X71037187Y-89679500D01*
X70824613Y-89679500D01*
X70775942Y-89687208D01*
X70614660Y-89712753D01*
X70412485Y-89778444D01*
X70223079Y-89874951D01*
X70051115Y-89999889D01*
X69937573Y-90113431D01*
X69876250Y-90146915D01*
X69806558Y-90141931D01*
X69750625Y-90100059D01*
X69733710Y-90069082D01*
X69684697Y-89937671D01*
X69684693Y-89937664D01*
X69598447Y-89822455D01*
X69598444Y-89822452D01*
X69483235Y-89736206D01*
X69483228Y-89736202D01*
X69348382Y-89685908D01*
X69348383Y-89685908D01*
X69288783Y-89679501D01*
X69288781Y-89679500D01*
X69288773Y-89679500D01*
X69288764Y-89679500D01*
X67493029Y-89679500D01*
X67493023Y-89679501D01*
X67433416Y-89685908D01*
X67298571Y-89736202D01*
X67298564Y-89736206D01*
X67183355Y-89822452D01*
X67183352Y-89822455D01*
X67097106Y-89937664D01*
X67097102Y-89937671D01*
X67046808Y-90072517D01*
X67040401Y-90132116D01*
X67040400Y-90132135D01*
X63120816Y-90132135D01*
X63121260Y-89223389D01*
X93290400Y-89223389D01*
X93290400Y-89396611D01*
X93317498Y-89567701D01*
X93371027Y-89732445D01*
X93449668Y-89886788D01*
X93551486Y-90026928D01*
X93673972Y-90149414D01*
X93814112Y-90251232D01*
X93968455Y-90329873D01*
X94133199Y-90383402D01*
X94304289Y-90410500D01*
X94304290Y-90410500D01*
X95277510Y-90410500D01*
X95277511Y-90410500D01*
X95448601Y-90383402D01*
X95613345Y-90329873D01*
X95767688Y-90251232D01*
X95907828Y-90149414D01*
X96030314Y-90026928D01*
X96132132Y-89886788D01*
X96210773Y-89732445D01*
X96264302Y-89567701D01*
X96291400Y-89396611D01*
X96291400Y-89223389D01*
X116150400Y-89223389D01*
X116150400Y-89396611D01*
X116177498Y-89567701D01*
X116231027Y-89732445D01*
X116309668Y-89886788D01*
X116411486Y-90026928D01*
X116533972Y-90149414D01*
X116674112Y-90251232D01*
X116828455Y-90329873D01*
X116993199Y-90383402D01*
X117164289Y-90410500D01*
X117164290Y-90410500D01*
X118137510Y-90410500D01*
X118137511Y-90410500D01*
X118308601Y-90383402D01*
X118473345Y-90329873D01*
X118627688Y-90251232D01*
X118767828Y-90149414D01*
X118890314Y-90026928D01*
X118992132Y-89886788D01*
X119070773Y-89732445D01*
X119124302Y-89567701D01*
X119151400Y-89396611D01*
X119151400Y-89223389D01*
X119124302Y-89052299D01*
X119070773Y-88887555D01*
X118992132Y-88733212D01*
X118890314Y-88593072D01*
X118767828Y-88470586D01*
X118627688Y-88368768D01*
X118473347Y-88290128D01*
X118473346Y-88290127D01*
X118473345Y-88290127D01*
X118308601Y-88236598D01*
X118308599Y-88236597D01*
X118308598Y-88236597D01*
X118177171Y-88215781D01*
X118137511Y-88209500D01*
X117164289Y-88209500D01*
X117124628Y-88215781D01*
X116993202Y-88236597D01*
X116828452Y-88290128D01*
X116674111Y-88368768D01*
X116619441Y-88408489D01*
X116533972Y-88470586D01*
X116533970Y-88470588D01*
X116533969Y-88470588D01*
X116411488Y-88593069D01*
X116411488Y-88593070D01*
X116411486Y-88593072D01*
X116367759Y-88653256D01*
X116309668Y-88733211D01*
X116231028Y-88887552D01*
X116177497Y-89052302D01*
X116151181Y-89218456D01*
X116150400Y-89223389D01*
X96291400Y-89223389D01*
X96264302Y-89052299D01*
X96210773Y-88887555D01*
X96132132Y-88733212D01*
X96030314Y-88593072D01*
X95907828Y-88470586D01*
X95767688Y-88368768D01*
X95613347Y-88290128D01*
X95613346Y-88290127D01*
X95613345Y-88290127D01*
X95448601Y-88236598D01*
X95448599Y-88236597D01*
X95448598Y-88236597D01*
X95317171Y-88215781D01*
X95277511Y-88209500D01*
X94304289Y-88209500D01*
X94264628Y-88215781D01*
X94133202Y-88236597D01*
X93968452Y-88290128D01*
X93814111Y-88368768D01*
X93759441Y-88408489D01*
X93673972Y-88470586D01*
X93673970Y-88470588D01*
X93673969Y-88470588D01*
X93551488Y-88593069D01*
X93551488Y-88593070D01*
X93551486Y-88593072D01*
X93507759Y-88653256D01*
X93449668Y-88733211D01*
X93371028Y-88887552D01*
X93317497Y-89052302D01*
X93291181Y-89218456D01*
X93290400Y-89223389D01*
X63121260Y-89223389D01*
X63122725Y-86221153D01*
X87870400Y-86221153D01*
X87870400Y-86378846D01*
X87901161Y-86533489D01*
X87901164Y-86533501D01*
X87950474Y-86652548D01*
X87957943Y-86722018D01*
X87950474Y-86747452D01*
X87901164Y-86866498D01*
X87901161Y-86866510D01*
X87870400Y-87021153D01*
X87870400Y-87178846D01*
X87901161Y-87333489D01*
X87901164Y-87333501D01*
X87961502Y-87479172D01*
X87961509Y-87479185D01*
X88049110Y-87610288D01*
X88049113Y-87610292D01*
X88160607Y-87721786D01*
X88160611Y-87721789D01*
X88291714Y-87809390D01*
X88291727Y-87809397D01*
X88373824Y-87843402D01*
X88437403Y-87869737D01*
X88592053Y-87900499D01*
X88592056Y-87900500D01*
X88592058Y-87900500D01*
X88749744Y-87900500D01*
X88749745Y-87900499D01*
X88904397Y-87869737D01*
X89050079Y-87809394D01*
X89144359Y-87746398D01*
X89211036Y-87725520D01*
X89213250Y-87725500D01*
X89810448Y-87725500D01*
X89877487Y-87745185D01*
X89898129Y-87761819D01*
X90370105Y-88233795D01*
X90403590Y-88295118D01*
X90404041Y-88297285D01*
X90426161Y-88408489D01*
X90426164Y-88408501D01*
X90486502Y-88554172D01*
X90486509Y-88554185D01*
X90574110Y-88685288D01*
X90574113Y-88685292D01*
X90685607Y-88796786D01*
X90685611Y-88796789D01*
X90816714Y-88884390D01*
X90816727Y-88884397D01*
X90962398Y-88944735D01*
X90962403Y-88944737D01*
X91117053Y-88975499D01*
X91117056Y-88975500D01*
X91117058Y-88975500D01*
X91274744Y-88975500D01*
X91274745Y-88975499D01*
X91429397Y-88944737D01*
X91575079Y-88884394D01*
X91706189Y-88796789D01*
X91817689Y-88685289D01*
X91905294Y-88554179D01*
X91965637Y-88408497D01*
X91996400Y-88253842D01*
X91996400Y-88096158D01*
X91996400Y-88096155D01*
X91996399Y-88096153D01*
X91965638Y-87941510D01*
X91965637Y-87941503D01*
X91925003Y-87843402D01*
X91905297Y-87795827D01*
X91905290Y-87795814D01*
X91817689Y-87664711D01*
X91817686Y-87664707D01*
X91706192Y-87553213D01*
X91706188Y-87553210D01*
X91575085Y-87465609D01*
X91575072Y-87465602D01*
X91429401Y-87405264D01*
X91429389Y-87405261D01*
X91318185Y-87383141D01*
X91301428Y-87374376D01*
X91282949Y-87370356D01*
X91257910Y-87351611D01*
X91256274Y-87350756D01*
X91254695Y-87349205D01*
X91217671Y-87312181D01*
X91184186Y-87250858D01*
X91189170Y-87181166D01*
X91231042Y-87125233D01*
X91293755Y-87101841D01*
X91293682Y-87101097D01*
X91296495Y-87100819D01*
X91296506Y-87100816D01*
X91296552Y-87100814D01*
X91299736Y-87100500D01*
X91299742Y-87100500D01*
X91454397Y-87069737D01*
X91600079Y-87009394D01*
X91731189Y-86921789D01*
X91842689Y-86810289D01*
X91927481Y-86683389D01*
X93290400Y-86683389D01*
X93290400Y-86856610D01*
X93316461Y-87021158D01*
X93317498Y-87027701D01*
X93371027Y-87192445D01*
X93449668Y-87346788D01*
X93551486Y-87486928D01*
X93673972Y-87609414D01*
X93814112Y-87711232D01*
X93968455Y-87789873D01*
X94133199Y-87843402D01*
X94304289Y-87870500D01*
X94304290Y-87870500D01*
X95277510Y-87870500D01*
X95277511Y-87870500D01*
X95448601Y-87843402D01*
X95613345Y-87789873D01*
X95767688Y-87711232D01*
X95907828Y-87609414D01*
X96030314Y-87486928D01*
X96132132Y-87346788D01*
X96210773Y-87192445D01*
X96264302Y-87027701D01*
X96291400Y-86856611D01*
X96291400Y-86683389D01*
X116150400Y-86683389D01*
X116150400Y-86856610D01*
X116176461Y-87021158D01*
X116177498Y-87027701D01*
X116231027Y-87192445D01*
X116309668Y-87346788D01*
X116411486Y-87486928D01*
X116533972Y-87609414D01*
X116674112Y-87711232D01*
X116828455Y-87789873D01*
X116993199Y-87843402D01*
X117164289Y-87870500D01*
X117164290Y-87870500D01*
X118137510Y-87870500D01*
X118137511Y-87870500D01*
X118308601Y-87843402D01*
X118473345Y-87789873D01*
X118627688Y-87711232D01*
X118767828Y-87609414D01*
X118890314Y-87486928D01*
X118992132Y-87346788D01*
X119070773Y-87192445D01*
X119124302Y-87027701D01*
X119151400Y-86856611D01*
X119151400Y-86683389D01*
X119124302Y-86512299D01*
X119070773Y-86347555D01*
X118992132Y-86193212D01*
X118890314Y-86053072D01*
X118767828Y-85930586D01*
X118627688Y-85828768D01*
X118473345Y-85750127D01*
X118308601Y-85696598D01*
X118308599Y-85696597D01*
X118308598Y-85696597D01*
X118168953Y-85674480D01*
X118137511Y-85669500D01*
X117164289Y-85669500D01*
X117132847Y-85674480D01*
X116993202Y-85696597D01*
X116828452Y-85750128D01*
X116674111Y-85828768D01*
X116594156Y-85886859D01*
X116533972Y-85930586D01*
X116533970Y-85930588D01*
X116533969Y-85930588D01*
X116411488Y-86053069D01*
X116411488Y-86053070D01*
X116411486Y-86053072D01*
X116401728Y-86066503D01*
X116309668Y-86193211D01*
X116231028Y-86347552D01*
X116177497Y-86512302D01*
X116150400Y-86683389D01*
X96291400Y-86683389D01*
X96264302Y-86512299D01*
X96210773Y-86347555D01*
X96132132Y-86193212D01*
X96030314Y-86053072D01*
X95907828Y-85930586D01*
X95767688Y-85828768D01*
X95613345Y-85750127D01*
X95448601Y-85696598D01*
X95448599Y-85696597D01*
X95448598Y-85696597D01*
X95308953Y-85674480D01*
X95277511Y-85669500D01*
X94304289Y-85669500D01*
X94272847Y-85674480D01*
X94133202Y-85696597D01*
X93968452Y-85750128D01*
X93814111Y-85828768D01*
X93734156Y-85886859D01*
X93673972Y-85930586D01*
X93673970Y-85930588D01*
X93673969Y-85930588D01*
X93551488Y-86053069D01*
X93551488Y-86053070D01*
X93551486Y-86053072D01*
X93541728Y-86066503D01*
X93449668Y-86193211D01*
X93371028Y-86347552D01*
X93317497Y-86512302D01*
X93290400Y-86683389D01*
X91927481Y-86683389D01*
X91930294Y-86679179D01*
X91990637Y-86533497D01*
X92021400Y-86378842D01*
X92021400Y-86221158D01*
X92021400Y-86221155D01*
X92021399Y-86221153D01*
X91990638Y-86066510D01*
X91990637Y-86066503D01*
X91985073Y-86053070D01*
X91930297Y-85920827D01*
X91930290Y-85920814D01*
X91842689Y-85789711D01*
X91842686Y-85789707D01*
X91731192Y-85678213D01*
X91731188Y-85678210D01*
X91600085Y-85590609D01*
X91600072Y-85590602D01*
X91454401Y-85530264D01*
X91454389Y-85530261D01*
X91299745Y-85499500D01*
X91299742Y-85499500D01*
X91142058Y-85499500D01*
X91142055Y-85499500D01*
X90987410Y-85530261D01*
X90987398Y-85530264D01*
X90841727Y-85590602D01*
X90841715Y-85590609D01*
X90747441Y-85653602D01*
X90680764Y-85674480D01*
X90678550Y-85674500D01*
X89213250Y-85674500D01*
X89146211Y-85654815D01*
X89144359Y-85653602D01*
X89050084Y-85590609D01*
X89050072Y-85590602D01*
X88904401Y-85530264D01*
X88904389Y-85530261D01*
X88749745Y-85499500D01*
X88749742Y-85499500D01*
X88592058Y-85499500D01*
X88592055Y-85499500D01*
X88437410Y-85530261D01*
X88437398Y-85530264D01*
X88291727Y-85590602D01*
X88291714Y-85590609D01*
X88160611Y-85678210D01*
X88160607Y-85678213D01*
X88049113Y-85789707D01*
X88049110Y-85789711D01*
X87961509Y-85920814D01*
X87961502Y-85920827D01*
X87901164Y-86066498D01*
X87901161Y-86066510D01*
X87870400Y-86221153D01*
X63122725Y-86221153D01*
X63126864Y-77739983D01*
X69145400Y-77739983D01*
X69145400Y-79040001D01*
X69145401Y-79040018D01*
X69155900Y-79142796D01*
X69155901Y-79142799D01*
X69211085Y-79309331D01*
X69211087Y-79309336D01*
X69211674Y-79310288D01*
X69303187Y-79458655D01*
X69303189Y-79458657D01*
X69427244Y-79582712D01*
X69582020Y-79678178D01*
X69628745Y-79730126D01*
X69639968Y-79799088D01*
X69612124Y-79863171D01*
X69604606Y-79871398D01*
X69465789Y-80010215D01*
X69340851Y-80182179D01*
X69244344Y-80371585D01*
X69178653Y-80573760D01*
X69163390Y-80670127D01*
X69145400Y-80783713D01*
X69145400Y-80996287D01*
X69178654Y-81206243D01*
X69243652Y-81406286D01*
X69244344Y-81408414D01*
X69340851Y-81597820D01*
X69465790Y-81769786D01*
X69616109Y-81920105D01*
X69616114Y-81920109D01*
X69781118Y-82039991D01*
X69823784Y-82095320D01*
X69829763Y-82164934D01*
X69797158Y-82226729D01*
X69781118Y-82240627D01*
X69616440Y-82360272D01*
X69616435Y-82360276D01*
X69466176Y-82510535D01*
X69466172Y-82510540D01*
X69341279Y-82682442D01*
X69244804Y-82871782D01*
X69179142Y-83073870D01*
X69179142Y-83073873D01*
X69168669Y-83140000D01*
X70216754Y-83140000D01*
X70178270Y-83206657D01*
X70145900Y-83327465D01*
X70145900Y-83452535D01*
X70178270Y-83573343D01*
X70216754Y-83640000D01*
X69168669Y-83640000D01*
X69179142Y-83706126D01*
X69179142Y-83706129D01*
X69244804Y-83908217D01*
X69341279Y-84097557D01*
X69466172Y-84269459D01*
X69466176Y-84269464D01*
X69616435Y-84419723D01*
X69616440Y-84419727D01*
X69788342Y-84544620D01*
X69977682Y-84641095D01*
X70179772Y-84706757D01*
X70370900Y-84737029D01*
X70370900Y-83794145D01*
X70437557Y-83832630D01*
X70558365Y-83865000D01*
X70683435Y-83865000D01*
X70804243Y-83832630D01*
X70870900Y-83794145D01*
X70870900Y-84737028D01*
X71062027Y-84706757D01*
X71264117Y-84641095D01*
X71453457Y-84544620D01*
X71625359Y-84419727D01*
X71625364Y-84419723D01*
X71775623Y-84269464D01*
X71775627Y-84269459D01*
X71867221Y-84143389D01*
X93290400Y-84143389D01*
X93290400Y-84316611D01*
X93317498Y-84487701D01*
X93371027Y-84652445D01*
X93449668Y-84806788D01*
X93551486Y-84946928D01*
X93673972Y-85069414D01*
X93814112Y-85171232D01*
X93968455Y-85249873D01*
X94133199Y-85303402D01*
X94304289Y-85330500D01*
X94304290Y-85330500D01*
X95277510Y-85330500D01*
X95277511Y-85330500D01*
X95448601Y-85303402D01*
X95613345Y-85249873D01*
X95767688Y-85171232D01*
X95907828Y-85069414D01*
X96030314Y-84946928D01*
X96132132Y-84806788D01*
X96210773Y-84652445D01*
X96264302Y-84487701D01*
X96291400Y-84316611D01*
X96291400Y-84143389D01*
X116150400Y-84143389D01*
X116150400Y-84316611D01*
X116177498Y-84487701D01*
X116231027Y-84652445D01*
X116309668Y-84806788D01*
X116411486Y-84946928D01*
X116533972Y-85069414D01*
X116674112Y-85171232D01*
X116828455Y-85249873D01*
X116993199Y-85303402D01*
X117164289Y-85330500D01*
X117164290Y-85330500D01*
X118137510Y-85330500D01*
X118137511Y-85330500D01*
X118308601Y-85303402D01*
X118473345Y-85249873D01*
X118627688Y-85171232D01*
X118767828Y-85069414D01*
X118890314Y-84946928D01*
X118992132Y-84806788D01*
X119070773Y-84652445D01*
X119124302Y-84487701D01*
X119151400Y-84316611D01*
X119151400Y-84143389D01*
X119124302Y-83972299D01*
X119070773Y-83807555D01*
X118992132Y-83653212D01*
X118890314Y-83513072D01*
X118767828Y-83390586D01*
X118627688Y-83288768D01*
X118473345Y-83210127D01*
X118308601Y-83156598D01*
X118308599Y-83156597D01*
X118308598Y-83156597D01*
X118177171Y-83135781D01*
X118137511Y-83129500D01*
X117164289Y-83129500D01*
X117124628Y-83135781D01*
X116993202Y-83156597D01*
X116993199Y-83156598D01*
X116839135Y-83206657D01*
X116828452Y-83210128D01*
X116674111Y-83288768D01*
X116620850Y-83327465D01*
X116533972Y-83390586D01*
X116533970Y-83390588D01*
X116533969Y-83390588D01*
X116411488Y-83513069D01*
X116411488Y-83513070D01*
X116411486Y-83513072D01*
X116367759Y-83573256D01*
X116309668Y-83653211D01*
X116231028Y-83807552D01*
X116177497Y-83972302D01*
X116160088Y-84082222D01*
X116150400Y-84143389D01*
X96291400Y-84143389D01*
X96264302Y-83972299D01*
X96210773Y-83807555D01*
X96132132Y-83653212D01*
X96030314Y-83513072D01*
X95907828Y-83390586D01*
X95767688Y-83288768D01*
X95613345Y-83210127D01*
X95448601Y-83156598D01*
X95448599Y-83156597D01*
X95448598Y-83156597D01*
X95317171Y-83135781D01*
X95277511Y-83129500D01*
X94304289Y-83129500D01*
X94264628Y-83135781D01*
X94133202Y-83156597D01*
X94133199Y-83156598D01*
X93979135Y-83206657D01*
X93968452Y-83210128D01*
X93814111Y-83288768D01*
X93760850Y-83327465D01*
X93673972Y-83390586D01*
X93673970Y-83390588D01*
X93673969Y-83390588D01*
X93551488Y-83513069D01*
X93551488Y-83513070D01*
X93551486Y-83513072D01*
X93507759Y-83573256D01*
X93449668Y-83653211D01*
X93371028Y-83807552D01*
X93317497Y-83972302D01*
X93300088Y-84082222D01*
X93290400Y-84143389D01*
X71867221Y-84143389D01*
X71900520Y-84097557D01*
X71908335Y-84082222D01*
X71996995Y-83908217D01*
X72062657Y-83706129D01*
X72062657Y-83706126D01*
X72073131Y-83640000D01*
X71025046Y-83640000D01*
X71063530Y-83573343D01*
X71095900Y-83452535D01*
X71095900Y-83327465D01*
X71063530Y-83206657D01*
X71025046Y-83140000D01*
X72073131Y-83140000D01*
X72062657Y-83073873D01*
X72062657Y-83073870D01*
X71996995Y-82871782D01*
X71900520Y-82682442D01*
X71775627Y-82510540D01*
X71775623Y-82510535D01*
X71625364Y-82360276D01*
X71625359Y-82360272D01*
X71460681Y-82240627D01*
X71418015Y-82185297D01*
X71412036Y-82115684D01*
X71444641Y-82053889D01*
X71460676Y-82039994D01*
X71625692Y-81920104D01*
X71776004Y-81769792D01*
X71776006Y-81769788D01*
X71776009Y-81769786D01*
X71896902Y-81603389D01*
X93290400Y-81603389D01*
X93290400Y-81776611D01*
X93317498Y-81947701D01*
X93371027Y-82112445D01*
X93449668Y-82266788D01*
X93551486Y-82406928D01*
X93673972Y-82529414D01*
X93814112Y-82631232D01*
X93968455Y-82709873D01*
X94133199Y-82763402D01*
X94304289Y-82790500D01*
X94304290Y-82790500D01*
X95277510Y-82790500D01*
X95277511Y-82790500D01*
X95448601Y-82763402D01*
X95613345Y-82709873D01*
X95767688Y-82631232D01*
X95907828Y-82529414D01*
X96030314Y-82406928D01*
X96132132Y-82266788D01*
X96210773Y-82112445D01*
X96264302Y-81947701D01*
X96291400Y-81776611D01*
X96291400Y-81603389D01*
X116150400Y-81603389D01*
X116150400Y-81776611D01*
X116177498Y-81947701D01*
X116231027Y-82112445D01*
X116309668Y-82266788D01*
X116411486Y-82406928D01*
X116533972Y-82529414D01*
X116674112Y-82631232D01*
X116828455Y-82709873D01*
X116993199Y-82763402D01*
X117164289Y-82790500D01*
X117164290Y-82790500D01*
X118137510Y-82790500D01*
X118137511Y-82790500D01*
X118308601Y-82763402D01*
X118473345Y-82709873D01*
X118627688Y-82631232D01*
X118767828Y-82529414D01*
X118890314Y-82406928D01*
X118992132Y-82266788D01*
X119070773Y-82112445D01*
X119124302Y-81947701D01*
X119151400Y-81776611D01*
X119151400Y-81603389D01*
X119124302Y-81432299D01*
X119070773Y-81267555D01*
X118992132Y-81113212D01*
X118890314Y-80973072D01*
X118767828Y-80850586D01*
X118627688Y-80748768D01*
X118473345Y-80670127D01*
X118308601Y-80616598D01*
X118308599Y-80616597D01*
X118308598Y-80616597D01*
X118154457Y-80592184D01*
X118137511Y-80589500D01*
X117164289Y-80589500D01*
X117147343Y-80592184D01*
X116993202Y-80616597D01*
X116828452Y-80670128D01*
X116674111Y-80748768D01*
X116628943Y-80781585D01*
X116533972Y-80850586D01*
X116533970Y-80850588D01*
X116533969Y-80850588D01*
X116411488Y-80973069D01*
X116411488Y-80973070D01*
X116411486Y-80973072D01*
X116367759Y-81033256D01*
X116309668Y-81113211D01*
X116231028Y-81267552D01*
X116177497Y-81432302D01*
X116160088Y-81542222D01*
X116150400Y-81603389D01*
X96291400Y-81603389D01*
X96264302Y-81432299D01*
X96210773Y-81267555D01*
X96132132Y-81113212D01*
X96030314Y-80973072D01*
X95907828Y-80850586D01*
X95767688Y-80748768D01*
X95613345Y-80670127D01*
X95448601Y-80616598D01*
X95448599Y-80616597D01*
X95448598Y-80616597D01*
X95294457Y-80592184D01*
X95277511Y-80589500D01*
X94304289Y-80589500D01*
X94287343Y-80592184D01*
X94133202Y-80616597D01*
X93968452Y-80670128D01*
X93814111Y-80748768D01*
X93768943Y-80781585D01*
X93673972Y-80850586D01*
X93673970Y-80850588D01*
X93673969Y-80850588D01*
X93551488Y-80973069D01*
X93551488Y-80973070D01*
X93551486Y-80973072D01*
X93507759Y-81033256D01*
X93449668Y-81113211D01*
X93371028Y-81267552D01*
X93317497Y-81432302D01*
X93300088Y-81542222D01*
X93290400Y-81603389D01*
X71896902Y-81603389D01*
X71900950Y-81597817D01*
X71929277Y-81542223D01*
X71997457Y-81408412D01*
X72063146Y-81206243D01*
X72096400Y-80996287D01*
X72096400Y-80783713D01*
X72063146Y-80573757D01*
X71997457Y-80371588D01*
X71900951Y-80182184D01*
X71900949Y-80182181D01*
X71900948Y-80182179D01*
X71776009Y-80010213D01*
X71637194Y-79871398D01*
X71603709Y-79810075D01*
X71608693Y-79740383D01*
X71650565Y-79684450D01*
X71659779Y-79678178D01*
X71665231Y-79674814D01*
X71665234Y-79674814D01*
X71814556Y-79582712D01*
X71876115Y-79521153D01*
X87420400Y-79521153D01*
X87420400Y-79678846D01*
X87451161Y-79833489D01*
X87451164Y-79833501D01*
X87511502Y-79979172D01*
X87511509Y-79979185D01*
X87599110Y-80110288D01*
X87599113Y-80110292D01*
X87710607Y-80221786D01*
X87710611Y-80221789D01*
X87841714Y-80309390D01*
X87841727Y-80309397D01*
X87987398Y-80369735D01*
X87987403Y-80369737D01*
X88142053Y-80400499D01*
X88142056Y-80400500D01*
X88142058Y-80400500D01*
X88299744Y-80400500D01*
X88299745Y-80400499D01*
X88454397Y-80369737D01*
X88600079Y-80309394D01*
X88731189Y-80221789D01*
X88842689Y-80110289D01*
X88930294Y-79979179D01*
X88990637Y-79833497D01*
X89012758Y-79722282D01*
X89045140Y-79660375D01*
X89046635Y-79658853D01*
X89642099Y-79063389D01*
X93290400Y-79063389D01*
X93290400Y-79236610D01*
X93311809Y-79371786D01*
X93317498Y-79407701D01*
X93371027Y-79572445D01*
X93449668Y-79726788D01*
X93551486Y-79866928D01*
X93673972Y-79989414D01*
X93814112Y-80091232D01*
X93968455Y-80169873D01*
X94133199Y-80223402D01*
X94304289Y-80250500D01*
X94304290Y-80250500D01*
X95277510Y-80250500D01*
X95277511Y-80250500D01*
X95448601Y-80223402D01*
X95613345Y-80169873D01*
X95767688Y-80091232D01*
X95907828Y-79989414D01*
X96030314Y-79866928D01*
X96132132Y-79726788D01*
X96210773Y-79572445D01*
X96264302Y-79407701D01*
X96291400Y-79236611D01*
X96291400Y-79063389D01*
X96264302Y-78892299D01*
X96210773Y-78727555D01*
X96132132Y-78573212D01*
X96030314Y-78433072D01*
X95907828Y-78310586D01*
X95767688Y-78208768D01*
X95613345Y-78130127D01*
X95448601Y-78076598D01*
X95448599Y-78076597D01*
X95448598Y-78076597D01*
X95294457Y-78052184D01*
X95277511Y-78049500D01*
X94304289Y-78049500D01*
X94287343Y-78052184D01*
X94133202Y-78076597D01*
X93968452Y-78130128D01*
X93814111Y-78208768D01*
X93734156Y-78266859D01*
X93673972Y-78310586D01*
X93673970Y-78310588D01*
X93673969Y-78310588D01*
X93551488Y-78433069D01*
X93551488Y-78433070D01*
X93551486Y-78433072D01*
X93543723Y-78443757D01*
X93449668Y-78573211D01*
X93371028Y-78727552D01*
X93317497Y-78892302D01*
X93290400Y-79063389D01*
X89642099Y-79063389D01*
X90129697Y-78575791D01*
X90191018Y-78542308D01*
X90193028Y-78541889D01*
X90304397Y-78519737D01*
X90450079Y-78459394D01*
X90581189Y-78371789D01*
X90692689Y-78260289D01*
X90780294Y-78129179D01*
X90840637Y-77983497D01*
X90871400Y-77828842D01*
X90871400Y-77671158D01*
X90871400Y-77671155D01*
X90871399Y-77671153D01*
X90840639Y-77516511D01*
X90840636Y-77516501D01*
X90828888Y-77488138D01*
X90824387Y-77473300D01*
X90824131Y-77473378D01*
X90822365Y-77467558D01*
X90822363Y-77467548D01*
X90783920Y-77374739D01*
X90775212Y-77353716D01*
X90775207Y-77353707D01*
X90706759Y-77251268D01*
X90695198Y-77239707D01*
X90619633Y-77164142D01*
X90619629Y-77164139D01*
X90614921Y-77160275D01*
X90615113Y-77160040D01*
X90603423Y-77150444D01*
X90581192Y-77128213D01*
X90581188Y-77128210D01*
X90450085Y-77040609D01*
X90450072Y-77040602D01*
X90304401Y-76980264D01*
X90304389Y-76980261D01*
X90149745Y-76949500D01*
X90149742Y-76949500D01*
X89992058Y-76949500D01*
X89992055Y-76949500D01*
X89837410Y-76980261D01*
X89837398Y-76980264D01*
X89691727Y-77040602D01*
X89691714Y-77040609D01*
X89560611Y-77128210D01*
X89560607Y-77128213D01*
X89449113Y-77239707D01*
X89449110Y-77239711D01*
X89361509Y-77370814D01*
X89361502Y-77370827D01*
X89301164Y-77516498D01*
X89301161Y-77516508D01*
X89279041Y-77627714D01*
X89246656Y-77689625D01*
X89245105Y-77691203D01*
X88162103Y-78774205D01*
X88100780Y-78807690D01*
X88098614Y-78808141D01*
X87987408Y-78830261D01*
X87987398Y-78830264D01*
X87841727Y-78890602D01*
X87841714Y-78890609D01*
X87710611Y-78978210D01*
X87710607Y-78978213D01*
X87599113Y-79089707D01*
X87599110Y-79089711D01*
X87511509Y-79220814D01*
X87511502Y-79220827D01*
X87451164Y-79366498D01*
X87451161Y-79366510D01*
X87420400Y-79521153D01*
X71876115Y-79521153D01*
X71938612Y-79458656D01*
X72030714Y-79309334D01*
X72085899Y-79142797D01*
X72096400Y-79040009D01*
X72096399Y-77739992D01*
X72085899Y-77637203D01*
X72030714Y-77470666D01*
X71938612Y-77321344D01*
X71814556Y-77197288D01*
X71665234Y-77105186D01*
X71498697Y-77050001D01*
X71498695Y-77050000D01*
X71395910Y-77039500D01*
X69845898Y-77039500D01*
X69845881Y-77039501D01*
X69743103Y-77050000D01*
X69743100Y-77050001D01*
X69576568Y-77105185D01*
X69576563Y-77105187D01*
X69427242Y-77197289D01*
X69303189Y-77321342D01*
X69211087Y-77470663D01*
X69211085Y-77470668D01*
X69210213Y-77473300D01*
X69155901Y-77637203D01*
X69155901Y-77637204D01*
X69155900Y-77637204D01*
X69145400Y-77739983D01*
X63126864Y-77739983D01*
X63127458Y-76523389D01*
X93290400Y-76523389D01*
X93290400Y-76696611D01*
X93317498Y-76867701D01*
X93371027Y-77032445D01*
X93449668Y-77186788D01*
X93551486Y-77326928D01*
X93673972Y-77449414D01*
X93814112Y-77551232D01*
X93968455Y-77629873D01*
X94133199Y-77683402D01*
X94304289Y-77710500D01*
X94304290Y-77710500D01*
X95277510Y-77710500D01*
X95277511Y-77710500D01*
X95448601Y-77683402D01*
X95613345Y-77629873D01*
X95767688Y-77551232D01*
X95907828Y-77449414D01*
X96030314Y-77326928D01*
X96132132Y-77186788D01*
X96210773Y-77032445D01*
X96264302Y-76867701D01*
X96291400Y-76696611D01*
X96291400Y-76523389D01*
X96264302Y-76352299D01*
X96210773Y-76187555D01*
X96132132Y-76033212D01*
X96030314Y-75893072D01*
X95907828Y-75770586D01*
X95767688Y-75668768D01*
X95613345Y-75590127D01*
X95448601Y-75536598D01*
X95448599Y-75536597D01*
X95448598Y-75536597D01*
X95294457Y-75512184D01*
X95277511Y-75509500D01*
X94304289Y-75509500D01*
X94287343Y-75512184D01*
X94133202Y-75536597D01*
X93968452Y-75590128D01*
X93814111Y-75668768D01*
X93768943Y-75701585D01*
X93673972Y-75770586D01*
X93673970Y-75770588D01*
X93673969Y-75770588D01*
X93551488Y-75893069D01*
X93551488Y-75893070D01*
X93551486Y-75893072D01*
X93543723Y-75903757D01*
X93449668Y-76033211D01*
X93371028Y-76187552D01*
X93317497Y-76352302D01*
X93291181Y-76518455D01*
X93290400Y-76523389D01*
X63127458Y-76523389D01*
X63128698Y-73983389D01*
X93290400Y-73983389D01*
X93290400Y-74156611D01*
X93317498Y-74327701D01*
X93371027Y-74492445D01*
X93449668Y-74646788D01*
X93551486Y-74786928D01*
X93673972Y-74909414D01*
X93814112Y-75011232D01*
X93968455Y-75089873D01*
X94133199Y-75143402D01*
X94304289Y-75170500D01*
X94304290Y-75170500D01*
X95277510Y-75170500D01*
X95277511Y-75170500D01*
X95448601Y-75143402D01*
X95613345Y-75089873D01*
X95767688Y-75011232D01*
X95907828Y-74909414D01*
X96030314Y-74786928D01*
X96132132Y-74646788D01*
X96210773Y-74492445D01*
X96264302Y-74327701D01*
X96281178Y-74221153D01*
X112220400Y-74221153D01*
X112220400Y-74378846D01*
X112251161Y-74533489D01*
X112251164Y-74533501D01*
X112311502Y-74679172D01*
X112311509Y-74679184D01*
X112374502Y-74773459D01*
X112395380Y-74840136D01*
X112395400Y-74842350D01*
X112395400Y-78207650D01*
X112375715Y-78274689D01*
X112374502Y-78276541D01*
X112311509Y-78370815D01*
X112311502Y-78370828D01*
X112251164Y-78516498D01*
X112251161Y-78516510D01*
X112220400Y-78671153D01*
X112220400Y-78828846D01*
X112251161Y-78983489D01*
X112251164Y-78983501D01*
X112311502Y-79129172D01*
X112311509Y-79129185D01*
X112399110Y-79260288D01*
X112399113Y-79260292D01*
X112510607Y-79371786D01*
X112510611Y-79371789D01*
X112641714Y-79459390D01*
X112641727Y-79459397D01*
X112787398Y-79519735D01*
X112787403Y-79519737D01*
X112942053Y-79550499D01*
X112942056Y-79550500D01*
X112942058Y-79550500D01*
X113099744Y-79550500D01*
X113099745Y-79550499D01*
X113254397Y-79519737D01*
X113349223Y-79480458D01*
X113418692Y-79472990D01*
X113465564Y-79491916D01*
X113491721Y-79509394D01*
X113637403Y-79569737D01*
X113792053Y-79600499D01*
X113792056Y-79600500D01*
X113792058Y-79600500D01*
X113949744Y-79600500D01*
X113949745Y-79600499D01*
X114104397Y-79569737D01*
X114250079Y-79509394D01*
X114381189Y-79421789D01*
X114492689Y-79310289D01*
X114580294Y-79179179D01*
X114628255Y-79063389D01*
X116150400Y-79063389D01*
X116150400Y-79236610D01*
X116171809Y-79371786D01*
X116177498Y-79407701D01*
X116231027Y-79572445D01*
X116309668Y-79726788D01*
X116411486Y-79866928D01*
X116533972Y-79989414D01*
X116674112Y-80091232D01*
X116828455Y-80169873D01*
X116993199Y-80223402D01*
X117164289Y-80250500D01*
X117164290Y-80250500D01*
X118137510Y-80250500D01*
X118137511Y-80250500D01*
X118308601Y-80223402D01*
X118473345Y-80169873D01*
X118627688Y-80091232D01*
X118767828Y-79989414D01*
X118890314Y-79866928D01*
X118992132Y-79726788D01*
X119070773Y-79572445D01*
X119124302Y-79407701D01*
X119151400Y-79236611D01*
X119151400Y-79063389D01*
X119124302Y-78892299D01*
X119070773Y-78727555D01*
X118992132Y-78573212D01*
X118890314Y-78433072D01*
X118767828Y-78310586D01*
X118627688Y-78208768D01*
X118473345Y-78130127D01*
X118308601Y-78076598D01*
X118308599Y-78076597D01*
X118308598Y-78076597D01*
X118154457Y-78052184D01*
X118137511Y-78049500D01*
X117164289Y-78049500D01*
X117147343Y-78052184D01*
X116993202Y-78076597D01*
X116828452Y-78130128D01*
X116674111Y-78208768D01*
X116594156Y-78266859D01*
X116533972Y-78310586D01*
X116533970Y-78310588D01*
X116533969Y-78310588D01*
X116411488Y-78433069D01*
X116411488Y-78433070D01*
X116411486Y-78433072D01*
X116403723Y-78443757D01*
X116309668Y-78573211D01*
X116231028Y-78727552D01*
X116177497Y-78892302D01*
X116150400Y-79063389D01*
X114628255Y-79063389D01*
X114640637Y-79033497D01*
X114640638Y-79033490D01*
X114640640Y-79033485D01*
X114663709Y-78917505D01*
X114671400Y-78878842D01*
X114671400Y-78721158D01*
X114671400Y-78721155D01*
X114671399Y-78721153D01*
X114642485Y-78575793D01*
X114640637Y-78566503D01*
X114619929Y-78516510D01*
X114580297Y-78420828D01*
X114580296Y-78420827D01*
X114580294Y-78420821D01*
X114517297Y-78326539D01*
X114496420Y-78259863D01*
X114496400Y-78257650D01*
X114496400Y-76523389D01*
X116150400Y-76523389D01*
X116150400Y-76696611D01*
X116177498Y-76867701D01*
X116231027Y-77032445D01*
X116309668Y-77186788D01*
X116411486Y-77326928D01*
X116533972Y-77449414D01*
X116674112Y-77551232D01*
X116828455Y-77629873D01*
X116993199Y-77683402D01*
X117164289Y-77710500D01*
X117164290Y-77710500D01*
X118137510Y-77710500D01*
X118137511Y-77710500D01*
X118308601Y-77683402D01*
X118473345Y-77629873D01*
X118627688Y-77551232D01*
X118767828Y-77449414D01*
X118890314Y-77326928D01*
X118992132Y-77186788D01*
X119070773Y-77032445D01*
X119124302Y-76867701D01*
X119151400Y-76696611D01*
X119151400Y-76523389D01*
X119124302Y-76352299D01*
X119070773Y-76187555D01*
X118992132Y-76033212D01*
X118890314Y-75893072D01*
X118767828Y-75770586D01*
X118627688Y-75668768D01*
X118473345Y-75590127D01*
X118308601Y-75536598D01*
X118308599Y-75536597D01*
X118308598Y-75536597D01*
X118154457Y-75512184D01*
X118137511Y-75509500D01*
X117164289Y-75509500D01*
X117147343Y-75512184D01*
X116993202Y-75536597D01*
X116828452Y-75590128D01*
X116674111Y-75668768D01*
X116628943Y-75701585D01*
X116533972Y-75770586D01*
X116533970Y-75770588D01*
X116533969Y-75770588D01*
X116411488Y-75893069D01*
X116411488Y-75893070D01*
X116411486Y-75893072D01*
X116403723Y-75903757D01*
X116309668Y-76033211D01*
X116231028Y-76187552D01*
X116177497Y-76352302D01*
X116151181Y-76518455D01*
X116150400Y-76523389D01*
X114496400Y-76523389D01*
X114496400Y-74792350D01*
X114516085Y-74725311D01*
X114517298Y-74723459D01*
X114526218Y-74710109D01*
X114580294Y-74629179D01*
X114640637Y-74483497D01*
X114671400Y-74328842D01*
X114671400Y-74171158D01*
X114671400Y-74171155D01*
X114671399Y-74171153D01*
X114640637Y-74016504D01*
X114626920Y-73983389D01*
X116150400Y-73983389D01*
X116150400Y-74156611D01*
X116177498Y-74327701D01*
X116231027Y-74492445D01*
X116309668Y-74646788D01*
X116411486Y-74786928D01*
X116533972Y-74909414D01*
X116674112Y-75011232D01*
X116828455Y-75089873D01*
X116993199Y-75143402D01*
X117164289Y-75170500D01*
X117164290Y-75170500D01*
X118137510Y-75170500D01*
X118137511Y-75170500D01*
X118308601Y-75143402D01*
X118473345Y-75089873D01*
X118627688Y-75011232D01*
X118767828Y-74909414D01*
X118890314Y-74786928D01*
X118992132Y-74646788D01*
X119070773Y-74492445D01*
X119124302Y-74327701D01*
X119151400Y-74156611D01*
X119151400Y-73983389D01*
X119124302Y-73812299D01*
X119070773Y-73647555D01*
X118992132Y-73493212D01*
X118890314Y-73353072D01*
X118767828Y-73230586D01*
X118627688Y-73128768D01*
X118473345Y-73050127D01*
X118308601Y-72996598D01*
X118308599Y-72996597D01*
X118308598Y-72996597D01*
X118154457Y-72972184D01*
X118137511Y-72969500D01*
X117164289Y-72969500D01*
X117147343Y-72972184D01*
X116993202Y-72996597D01*
X116828452Y-73050128D01*
X116674111Y-73128768D01*
X116628943Y-73161585D01*
X116533972Y-73230586D01*
X116533970Y-73230588D01*
X116533969Y-73230588D01*
X116411488Y-73353069D01*
X116411488Y-73353070D01*
X116411486Y-73353072D01*
X116403723Y-73363757D01*
X116309668Y-73493211D01*
X116231028Y-73647552D01*
X116177497Y-73812302D01*
X116168230Y-73870814D01*
X116150400Y-73983389D01*
X114626920Y-73983389D01*
X114624877Y-73978456D01*
X114601002Y-73920814D01*
X114580297Y-73870827D01*
X114580290Y-73870814D01*
X114492689Y-73739711D01*
X114492686Y-73739707D01*
X114381192Y-73628213D01*
X114381188Y-73628210D01*
X114250085Y-73540609D01*
X114250072Y-73540602D01*
X114104401Y-73480264D01*
X114104389Y-73480261D01*
X113949745Y-73449500D01*
X113949742Y-73449500D01*
X113792058Y-73449500D01*
X113792055Y-73449500D01*
X113637410Y-73480261D01*
X113637398Y-73480264D01*
X113491728Y-73540602D01*
X113491710Y-73540612D01*
X113465560Y-73558084D01*
X113398882Y-73578959D01*
X113349222Y-73569540D01*
X113254401Y-73530264D01*
X113254389Y-73530261D01*
X113099745Y-73499500D01*
X113099742Y-73499500D01*
X112942058Y-73499500D01*
X112942055Y-73499500D01*
X112787410Y-73530261D01*
X112787398Y-73530264D01*
X112641727Y-73590602D01*
X112641714Y-73590609D01*
X112510611Y-73678210D01*
X112510607Y-73678213D01*
X112399113Y-73789707D01*
X112399110Y-73789711D01*
X112311509Y-73920814D01*
X112311502Y-73920827D01*
X112251164Y-74066498D01*
X112251161Y-74066510D01*
X112220400Y-74221153D01*
X96281178Y-74221153D01*
X96291400Y-74156611D01*
X96291400Y-73983389D01*
X96264302Y-73812299D01*
X96210773Y-73647555D01*
X96132132Y-73493212D01*
X96030314Y-73353072D01*
X95907828Y-73230586D01*
X95767688Y-73128768D01*
X95613345Y-73050127D01*
X95448601Y-72996598D01*
X95448599Y-72996597D01*
X95448598Y-72996597D01*
X95294457Y-72972184D01*
X95277511Y-72969500D01*
X94304289Y-72969500D01*
X94287343Y-72972184D01*
X94133202Y-72996597D01*
X93968452Y-73050128D01*
X93814111Y-73128768D01*
X93768943Y-73161585D01*
X93673972Y-73230586D01*
X93673970Y-73230588D01*
X93673969Y-73230588D01*
X93551488Y-73353069D01*
X93551488Y-73353070D01*
X93551486Y-73353072D01*
X93543723Y-73363757D01*
X93449668Y-73493211D01*
X93371028Y-73647552D01*
X93317497Y-73812302D01*
X93308230Y-73870814D01*
X93290400Y-73983389D01*
X63128698Y-73983389D01*
X63135450Y-60149983D01*
X69145400Y-60149983D01*
X69145400Y-61450001D01*
X69145401Y-61450018D01*
X69155900Y-61552796D01*
X69155901Y-61552799D01*
X69211085Y-61719331D01*
X69211087Y-61719336D01*
X69303189Y-61868657D01*
X69427244Y-61992712D01*
X69582020Y-62088178D01*
X69628745Y-62140126D01*
X69639968Y-62209088D01*
X69612124Y-62273171D01*
X69604606Y-62281398D01*
X69465789Y-62420215D01*
X69340851Y-62592179D01*
X69244344Y-62781585D01*
X69178653Y-62983760D01*
X69164901Y-63070588D01*
X69145400Y-63193713D01*
X69145400Y-63406287D01*
X69178654Y-63616243D01*
X69231926Y-63780198D01*
X69244344Y-63818414D01*
X69340851Y-64007820D01*
X69465790Y-64179786D01*
X69616109Y-64330105D01*
X69616114Y-64330109D01*
X69780693Y-64449682D01*
X69823359Y-64505011D01*
X69829338Y-64574625D01*
X69796733Y-64636420D01*
X69780693Y-64650318D01*
X69616114Y-64769890D01*
X69616109Y-64769894D01*
X69465790Y-64920213D01*
X69340851Y-65092179D01*
X69244344Y-65281585D01*
X69178653Y-65483760D01*
X69145400Y-65693713D01*
X69145400Y-65906286D01*
X69164606Y-66027552D01*
X69178654Y-66116243D01*
X69203367Y-66192302D01*
X69244344Y-66318414D01*
X69340851Y-66507820D01*
X69465790Y-66679786D01*
X69616109Y-66830105D01*
X69616114Y-66830109D01*
X69780693Y-66949682D01*
X69823359Y-67005011D01*
X69829338Y-67074625D01*
X69796733Y-67136420D01*
X69780693Y-67150318D01*
X69616114Y-67269890D01*
X69616109Y-67269894D01*
X69465790Y-67420213D01*
X69340851Y-67592179D01*
X69244344Y-67781585D01*
X69178653Y-67983760D01*
X69145400Y-68193713D01*
X69145400Y-68406286D01*
X69170942Y-68567555D01*
X69178654Y-68616243D01*
X69207911Y-68706287D01*
X69244344Y-68818414D01*
X69340851Y-69007820D01*
X69465790Y-69179786D01*
X69616109Y-69330105D01*
X69616114Y-69330109D01*
X69781118Y-69449991D01*
X69823784Y-69505320D01*
X69829763Y-69574934D01*
X69797158Y-69636729D01*
X69781118Y-69650627D01*
X69616440Y-69770272D01*
X69616435Y-69770276D01*
X69466176Y-69920535D01*
X69466172Y-69920540D01*
X69341279Y-70092442D01*
X69244804Y-70281782D01*
X69179142Y-70483870D01*
X69179142Y-70483873D01*
X69168669Y-70550000D01*
X70216754Y-70550000D01*
X70178270Y-70616657D01*
X70145900Y-70737465D01*
X70145900Y-70862535D01*
X70178270Y-70983343D01*
X70216754Y-71050000D01*
X69168669Y-71050000D01*
X69179142Y-71116126D01*
X69179142Y-71116129D01*
X69244804Y-71318217D01*
X69341279Y-71507557D01*
X69466172Y-71679459D01*
X69466176Y-71679464D01*
X69616435Y-71829723D01*
X69616440Y-71829727D01*
X69788342Y-71954620D01*
X69977682Y-72051095D01*
X70179772Y-72116757D01*
X70370900Y-72147029D01*
X70370900Y-71204145D01*
X70437557Y-71242630D01*
X70558365Y-71275000D01*
X70683435Y-71275000D01*
X70804243Y-71242630D01*
X70870900Y-71204145D01*
X70870900Y-72147028D01*
X71062027Y-72116757D01*
X71264117Y-72051095D01*
X71453457Y-71954620D01*
X71625359Y-71829727D01*
X71625364Y-71829723D01*
X71775623Y-71679464D01*
X71775627Y-71679459D01*
X71900520Y-71507557D01*
X71933216Y-71443389D01*
X93290400Y-71443389D01*
X93290400Y-71616611D01*
X93317498Y-71787701D01*
X93371027Y-71952445D01*
X93449668Y-72106788D01*
X93551486Y-72246928D01*
X93673972Y-72369414D01*
X93814112Y-72471232D01*
X93968455Y-72549873D01*
X94133199Y-72603402D01*
X94304289Y-72630500D01*
X94304290Y-72630500D01*
X95277510Y-72630500D01*
X95277511Y-72630500D01*
X95448601Y-72603402D01*
X95613345Y-72549873D01*
X95767688Y-72471232D01*
X95907828Y-72369414D01*
X96030314Y-72246928D01*
X96132132Y-72106788D01*
X96210773Y-71952445D01*
X96264302Y-71787701D01*
X96291400Y-71616611D01*
X96291400Y-71443389D01*
X116150400Y-71443389D01*
X116150400Y-71616611D01*
X116177498Y-71787701D01*
X116231027Y-71952445D01*
X116309668Y-72106788D01*
X116411486Y-72246928D01*
X116533972Y-72369414D01*
X116674112Y-72471232D01*
X116828455Y-72549873D01*
X116993199Y-72603402D01*
X117164289Y-72630500D01*
X117164290Y-72630500D01*
X118137510Y-72630500D01*
X118137511Y-72630500D01*
X118308601Y-72603402D01*
X118473345Y-72549873D01*
X118627688Y-72471232D01*
X118767828Y-72369414D01*
X118890314Y-72246928D01*
X118992132Y-72106788D01*
X119070773Y-71952445D01*
X119124302Y-71787701D01*
X119151400Y-71616611D01*
X119151400Y-71443389D01*
X119124302Y-71272299D01*
X119070773Y-71107555D01*
X119062673Y-71091657D01*
X119059370Y-71085174D01*
X118992131Y-70953211D01*
X118890314Y-70813072D01*
X118767828Y-70690586D01*
X118627688Y-70588768D01*
X118473345Y-70510127D01*
X118308601Y-70456598D01*
X118308599Y-70456597D01*
X118308598Y-70456597D01*
X118156067Y-70432439D01*
X118137511Y-70429500D01*
X117164289Y-70429500D01*
X117145733Y-70432439D01*
X116993202Y-70456597D01*
X116828452Y-70510128D01*
X116674111Y-70588768D01*
X116635726Y-70616657D01*
X116533972Y-70690586D01*
X116533970Y-70690588D01*
X116533969Y-70690588D01*
X116411488Y-70813069D01*
X116411488Y-70813070D01*
X116411486Y-70813072D01*
X116385860Y-70848343D01*
X116309668Y-70953211D01*
X116231028Y-71107552D01*
X116177497Y-71272302D01*
X116170224Y-71318224D01*
X116150400Y-71443389D01*
X96291400Y-71443389D01*
X96264302Y-71272299D01*
X96210773Y-71107555D01*
X96132132Y-70953212D01*
X96030314Y-70813072D01*
X95907828Y-70690586D01*
X95767688Y-70588768D01*
X95613345Y-70510127D01*
X95448601Y-70456598D01*
X95448599Y-70456597D01*
X95448598Y-70456597D01*
X95296067Y-70432439D01*
X95277511Y-70429500D01*
X94304289Y-70429500D01*
X94285733Y-70432439D01*
X94133202Y-70456597D01*
X93968452Y-70510128D01*
X93814111Y-70588768D01*
X93775726Y-70616657D01*
X93673972Y-70690586D01*
X93673970Y-70690588D01*
X93673969Y-70690588D01*
X93551488Y-70813069D01*
X93551488Y-70813070D01*
X93551486Y-70813072D01*
X93525860Y-70848343D01*
X93449668Y-70953211D01*
X93371028Y-71107552D01*
X93317497Y-71272302D01*
X93310224Y-71318224D01*
X93290400Y-71443389D01*
X71933216Y-71443389D01*
X71964383Y-71382222D01*
X71964385Y-71382219D01*
X71996992Y-71318224D01*
X71996994Y-71318220D01*
X72062657Y-71116129D01*
X72062657Y-71116126D01*
X72073131Y-71050000D01*
X71025046Y-71050000D01*
X71063530Y-70983343D01*
X71095900Y-70862535D01*
X71095900Y-70737465D01*
X71063530Y-70616657D01*
X71025046Y-70550000D01*
X72073131Y-70550000D01*
X72062657Y-70483873D01*
X72062657Y-70483870D01*
X71996995Y-70281782D01*
X71900520Y-70092442D01*
X71775627Y-69920540D01*
X71775623Y-69920535D01*
X71625364Y-69770276D01*
X71625359Y-69770272D01*
X71460681Y-69650627D01*
X71418015Y-69595297D01*
X71412036Y-69525684D01*
X71444641Y-69463889D01*
X71460676Y-69449994D01*
X71625692Y-69330104D01*
X71776004Y-69179792D01*
X71776006Y-69179788D01*
X71776009Y-69179786D01*
X71900948Y-69007820D01*
X71900947Y-69007820D01*
X71900951Y-69007816D01*
X71954159Y-68903389D01*
X93290400Y-68903389D01*
X93290400Y-69076611D01*
X93317498Y-69247701D01*
X93371027Y-69412445D01*
X93449668Y-69566788D01*
X93551486Y-69706928D01*
X93673972Y-69829414D01*
X93814112Y-69931232D01*
X93968455Y-70009873D01*
X94133199Y-70063402D01*
X94304289Y-70090500D01*
X94304290Y-70090500D01*
X95277510Y-70090500D01*
X95277511Y-70090500D01*
X95448601Y-70063402D01*
X95613345Y-70009873D01*
X95767688Y-69931232D01*
X95907828Y-69829414D01*
X96030314Y-69706928D01*
X96132132Y-69566788D01*
X96210773Y-69412445D01*
X96264302Y-69247701D01*
X96291400Y-69076611D01*
X96291400Y-68903389D01*
X116150400Y-68903389D01*
X116150400Y-69076611D01*
X116177498Y-69247701D01*
X116231027Y-69412445D01*
X116309668Y-69566788D01*
X116411486Y-69706928D01*
X116533972Y-69829414D01*
X116674112Y-69931232D01*
X116828455Y-70009873D01*
X116993199Y-70063402D01*
X117164289Y-70090500D01*
X117164290Y-70090500D01*
X118137510Y-70090500D01*
X118137511Y-70090500D01*
X118308601Y-70063402D01*
X118473345Y-70009873D01*
X118627688Y-69931232D01*
X118767828Y-69829414D01*
X118890314Y-69706928D01*
X118992132Y-69566788D01*
X119070773Y-69412445D01*
X119124302Y-69247701D01*
X119151400Y-69076611D01*
X119151400Y-68903389D01*
X119124302Y-68732299D01*
X119070773Y-68567555D01*
X119033149Y-68493713D01*
X122260400Y-68493713D01*
X122260400Y-68706286D01*
X122278159Y-68818416D01*
X122293654Y-68916243D01*
X122323409Y-69007820D01*
X122359344Y-69118414D01*
X122455851Y-69307820D01*
X122580790Y-69479786D01*
X122731113Y-69630109D01*
X122903079Y-69755048D01*
X122903081Y-69755049D01*
X122903084Y-69755051D01*
X122912393Y-69759794D01*
X122963190Y-69807766D01*
X122979987Y-69875587D01*
X122957452Y-69941722D01*
X122912405Y-69980760D01*
X122903346Y-69985376D01*
X122903340Y-69985380D01*
X122849182Y-70024727D01*
X122849182Y-70024728D01*
X123501903Y-70677449D01*
X123427557Y-70697370D01*
X123319243Y-70759905D01*
X123230805Y-70848343D01*
X123168270Y-70956657D01*
X123148349Y-71031003D01*
X122495628Y-70378282D01*
X122495627Y-70378282D01*
X122456280Y-70432439D01*
X122359804Y-70621782D01*
X122294142Y-70823869D01*
X122294142Y-70823872D01*
X122260900Y-71033753D01*
X122260900Y-71246246D01*
X122294142Y-71456127D01*
X122294142Y-71456130D01*
X122359804Y-71658217D01*
X122456275Y-71847550D01*
X122495628Y-71901716D01*
X123148349Y-71248996D01*
X123168270Y-71323343D01*
X123230805Y-71431657D01*
X123319243Y-71520095D01*
X123427557Y-71582630D01*
X123501902Y-71602550D01*
X122849182Y-72255269D01*
X122849182Y-72255270D01*
X122903352Y-72294626D01*
X122903351Y-72294626D01*
X122912395Y-72299234D01*
X122963192Y-72347208D01*
X122979987Y-72415029D01*
X122957450Y-72481164D01*
X122912399Y-72520202D01*
X122903082Y-72524949D01*
X122731113Y-72649890D01*
X122580790Y-72800213D01*
X122455851Y-72972179D01*
X122359344Y-73161585D01*
X122293653Y-73363760D01*
X122260400Y-73573713D01*
X122260400Y-73786286D01*
X122290836Y-73978456D01*
X122293654Y-73996243D01*
X122358451Y-74195668D01*
X122359344Y-74198414D01*
X122455851Y-74387820D01*
X122580790Y-74559786D01*
X122731113Y-74710109D01*
X122903082Y-74835050D01*
X122911846Y-74839516D01*
X122962642Y-74887491D01*
X122979436Y-74955312D01*
X122956898Y-75021447D01*
X122911846Y-75060484D01*
X122903082Y-75064949D01*
X122731113Y-75189890D01*
X122580790Y-75340213D01*
X122455851Y-75512179D01*
X122359344Y-75701585D01*
X122293653Y-75903760D01*
X122260400Y-76113713D01*
X122260400Y-76326286D01*
X122293653Y-76536239D01*
X122359344Y-76738414D01*
X122455851Y-76927820D01*
X122580790Y-77099786D01*
X122731113Y-77250109D01*
X122903082Y-77375050D01*
X122911846Y-77379516D01*
X122962642Y-77427491D01*
X122979436Y-77495312D01*
X122956898Y-77561447D01*
X122911846Y-77600484D01*
X122903082Y-77604949D01*
X122731113Y-77729890D01*
X122580790Y-77880213D01*
X122455851Y-78052179D01*
X122359344Y-78241585D01*
X122293653Y-78443760D01*
X122260400Y-78653713D01*
X122260400Y-78866286D01*
X122286883Y-79033497D01*
X122293654Y-79076243D01*
X122353455Y-79260292D01*
X122359344Y-79278414D01*
X122455851Y-79467820D01*
X122580790Y-79639786D01*
X122731113Y-79790109D01*
X122903082Y-79915050D01*
X122911846Y-79919516D01*
X122962642Y-79967491D01*
X122979436Y-80035312D01*
X122956898Y-80101447D01*
X122911846Y-80140484D01*
X122903082Y-80144949D01*
X122731113Y-80269890D01*
X122580790Y-80420213D01*
X122455851Y-80592179D01*
X122359344Y-80781585D01*
X122293653Y-80983760D01*
X122260400Y-81193713D01*
X122260400Y-81406286D01*
X122290735Y-81597817D01*
X122293654Y-81616243D01*
X122343545Y-81769792D01*
X122359344Y-81818414D01*
X122455851Y-82007820D01*
X122580790Y-82179786D01*
X122731113Y-82330109D01*
X122903079Y-82455048D01*
X122903081Y-82455049D01*
X122903084Y-82455051D01*
X123092488Y-82551557D01*
X123294657Y-82617246D01*
X123504613Y-82650500D01*
X123504614Y-82650500D01*
X123717186Y-82650500D01*
X123717187Y-82650500D01*
X123927143Y-82617246D01*
X124129312Y-82551557D01*
X124318716Y-82455051D01*
X124340689Y-82439086D01*
X124490686Y-82330109D01*
X124490688Y-82330106D01*
X124490692Y-82330104D01*
X124641004Y-82179792D01*
X124641006Y-82179788D01*
X124641009Y-82179786D01*
X124765948Y-82007820D01*
X124765947Y-82007820D01*
X124765951Y-82007816D01*
X124862457Y-81818412D01*
X124928146Y-81616243D01*
X124961400Y-81406287D01*
X124961400Y-81193713D01*
X124928146Y-80983757D01*
X124862457Y-80781588D01*
X124765951Y-80592184D01*
X124765949Y-80592181D01*
X124765948Y-80592179D01*
X124641009Y-80420213D01*
X124490686Y-80269890D01*
X124318720Y-80144951D01*
X124318015Y-80144591D01*
X124309954Y-80140485D01*
X124259159Y-80092512D01*
X124242363Y-80024692D01*
X124264899Y-79958556D01*
X124309954Y-79919515D01*
X124318716Y-79915051D01*
X124378800Y-79871398D01*
X124490686Y-79790109D01*
X124490688Y-79790106D01*
X124490692Y-79790104D01*
X124641004Y-79639792D01*
X124641006Y-79639788D01*
X124641009Y-79639786D01*
X124765948Y-79467820D01*
X124765947Y-79467820D01*
X124765951Y-79467816D01*
X124862457Y-79278412D01*
X124928146Y-79076243D01*
X124961400Y-78866287D01*
X124961400Y-78653713D01*
X124928146Y-78443757D01*
X124862457Y-78241588D01*
X124765951Y-78052184D01*
X124765949Y-78052181D01*
X124765948Y-78052179D01*
X124641009Y-77880213D01*
X124490686Y-77729890D01*
X124318720Y-77604951D01*
X124318015Y-77604591D01*
X124309954Y-77600485D01*
X124259159Y-77552512D01*
X124242363Y-77484692D01*
X124264899Y-77418556D01*
X124309954Y-77379515D01*
X124318716Y-77375051D01*
X124348094Y-77353707D01*
X124490686Y-77250109D01*
X124490688Y-77250106D01*
X124490692Y-77250104D01*
X124641004Y-77099792D01*
X124641006Y-77099788D01*
X124641009Y-77099786D01*
X124765948Y-76927820D01*
X124765947Y-76927820D01*
X124765951Y-76927816D01*
X124862457Y-76738412D01*
X124928146Y-76536243D01*
X124961400Y-76326287D01*
X124961400Y-76113713D01*
X124928146Y-75903757D01*
X124862457Y-75701588D01*
X124765951Y-75512184D01*
X124765949Y-75512181D01*
X124765948Y-75512179D01*
X124641009Y-75340213D01*
X124490686Y-75189890D01*
X124318720Y-75064951D01*
X124318015Y-75064591D01*
X124309954Y-75060485D01*
X124259159Y-75012512D01*
X124242363Y-74944692D01*
X124264899Y-74878556D01*
X124309954Y-74839515D01*
X124318716Y-74835051D01*
X124360443Y-74804735D01*
X124490686Y-74710109D01*
X124490688Y-74710106D01*
X124490692Y-74710104D01*
X124641004Y-74559792D01*
X124641006Y-74559788D01*
X124641009Y-74559786D01*
X124765948Y-74387820D01*
X124765947Y-74387820D01*
X124765951Y-74387816D01*
X124862457Y-74198412D01*
X124928146Y-73996243D01*
X124961400Y-73786287D01*
X124961400Y-73573713D01*
X124928146Y-73363757D01*
X124862457Y-73161588D01*
X124765951Y-72972184D01*
X124765949Y-72972181D01*
X124765948Y-72972179D01*
X124641009Y-72800213D01*
X124490686Y-72649890D01*
X124318717Y-72524949D01*
X124309404Y-72520204D01*
X124258607Y-72472230D01*
X124241812Y-72404409D01*
X124264349Y-72338274D01*
X124309407Y-72299232D01*
X124318455Y-72294622D01*
X124372616Y-72255270D01*
X124372617Y-72255270D01*
X123719896Y-71602550D01*
X123794243Y-71582630D01*
X123902557Y-71520095D01*
X123990995Y-71431657D01*
X124053530Y-71323343D01*
X124073450Y-71248997D01*
X124726170Y-71901717D01*
X124726170Y-71901716D01*
X124765522Y-71847554D01*
X124861995Y-71658217D01*
X124927657Y-71456130D01*
X124927657Y-71456127D01*
X124960900Y-71246246D01*
X124960900Y-71033753D01*
X124927657Y-70823872D01*
X124927657Y-70823869D01*
X124861995Y-70621782D01*
X124765524Y-70432449D01*
X124726170Y-70378282D01*
X124726169Y-70378282D01*
X124073450Y-71031002D01*
X124053530Y-70956657D01*
X123990995Y-70848343D01*
X123902557Y-70759905D01*
X123794243Y-70697370D01*
X123719897Y-70677449D01*
X124372616Y-70024728D01*
X124318447Y-69985373D01*
X124318447Y-69985372D01*
X124309400Y-69980763D01*
X124258606Y-69932788D01*
X124241812Y-69864966D01*
X124264351Y-69798832D01*
X124309408Y-69759793D01*
X124318716Y-69755051D01*
X124397907Y-69697515D01*
X124490686Y-69630109D01*
X124490688Y-69630106D01*
X124490692Y-69630104D01*
X124641004Y-69479792D01*
X124641006Y-69479788D01*
X124641009Y-69479786D01*
X124765948Y-69307820D01*
X124765947Y-69307820D01*
X124765951Y-69307816D01*
X124862457Y-69118412D01*
X124928146Y-68916243D01*
X124961400Y-68706287D01*
X124961400Y-68493713D01*
X124928146Y-68283757D01*
X124862457Y-68081588D01*
X124765951Y-67892184D01*
X124765949Y-67892181D01*
X124765948Y-67892179D01*
X124641009Y-67720213D01*
X124490686Y-67569890D01*
X124318720Y-67444951D01*
X124129314Y-67348444D01*
X124129313Y-67348443D01*
X124129312Y-67348443D01*
X123927143Y-67282754D01*
X123927141Y-67282753D01*
X123927140Y-67282753D01*
X123765857Y-67257208D01*
X123717187Y-67249500D01*
X123504613Y-67249500D01*
X123455942Y-67257208D01*
X123294660Y-67282753D01*
X123092485Y-67348444D01*
X122903079Y-67444951D01*
X122731113Y-67569890D01*
X122580790Y-67720213D01*
X122455851Y-67892179D01*
X122359344Y-68081585D01*
X122293653Y-68283760D01*
X122260400Y-68493713D01*
X119033149Y-68493713D01*
X118992132Y-68413212D01*
X118890314Y-68273072D01*
X118767828Y-68150586D01*
X118627688Y-68048768D01*
X118473345Y-67970127D01*
X118308601Y-67916598D01*
X118308599Y-67916597D01*
X118308598Y-67916597D01*
X118154457Y-67892184D01*
X118137511Y-67889500D01*
X117164289Y-67889500D01*
X117147343Y-67892184D01*
X116993202Y-67916597D01*
X116828452Y-67970128D01*
X116674111Y-68048768D01*
X116628943Y-68081585D01*
X116533972Y-68150586D01*
X116533970Y-68150588D01*
X116533969Y-68150588D01*
X116411488Y-68273069D01*
X116411488Y-68273070D01*
X116411486Y-68273072D01*
X116403723Y-68283757D01*
X116309668Y-68413211D01*
X116231028Y-68567552D01*
X116177497Y-68732302D01*
X116163858Y-68818416D01*
X116150400Y-68903389D01*
X96291400Y-68903389D01*
X96264302Y-68732299D01*
X96210773Y-68567555D01*
X96132132Y-68413212D01*
X96030314Y-68273072D01*
X95907828Y-68150586D01*
X95767688Y-68048768D01*
X95613345Y-67970127D01*
X95448601Y-67916598D01*
X95448599Y-67916597D01*
X95448598Y-67916597D01*
X95294457Y-67892184D01*
X95277511Y-67889500D01*
X94304289Y-67889500D01*
X94287343Y-67892184D01*
X94133202Y-67916597D01*
X93968452Y-67970128D01*
X93814111Y-68048768D01*
X93768943Y-68081585D01*
X93673972Y-68150586D01*
X93673970Y-68150588D01*
X93673969Y-68150588D01*
X93551488Y-68273069D01*
X93551488Y-68273070D01*
X93551486Y-68273072D01*
X93543723Y-68283757D01*
X93449668Y-68413211D01*
X93371028Y-68567552D01*
X93317497Y-68732302D01*
X93303858Y-68818416D01*
X93290400Y-68903389D01*
X71954159Y-68903389D01*
X71997457Y-68818412D01*
X72063146Y-68616243D01*
X72096400Y-68406287D01*
X72096400Y-68193713D01*
X72063146Y-67983757D01*
X71997457Y-67781588D01*
X71900951Y-67592184D01*
X71900949Y-67592181D01*
X71900948Y-67592179D01*
X71776009Y-67420213D01*
X71625692Y-67269896D01*
X71597619Y-67249500D01*
X71461104Y-67150316D01*
X71418440Y-67094989D01*
X71412461Y-67025376D01*
X71445066Y-66963580D01*
X71461099Y-66949686D01*
X71625692Y-66830104D01*
X71776004Y-66679792D01*
X71776006Y-66679788D01*
X71776009Y-66679786D01*
X71900948Y-66507820D01*
X71900947Y-66507820D01*
X71900951Y-66507816D01*
X71974540Y-66363389D01*
X93290400Y-66363389D01*
X93290400Y-66536610D01*
X93313077Y-66679792D01*
X93317498Y-66707701D01*
X93371027Y-66872445D01*
X93449668Y-67026788D01*
X93551486Y-67166928D01*
X93673972Y-67289414D01*
X93814112Y-67391232D01*
X93968455Y-67469873D01*
X94133199Y-67523402D01*
X94304289Y-67550500D01*
X94304290Y-67550500D01*
X95277510Y-67550500D01*
X95277511Y-67550500D01*
X95448601Y-67523402D01*
X95613345Y-67469873D01*
X95767688Y-67391232D01*
X95907828Y-67289414D01*
X96030314Y-67166928D01*
X96132132Y-67026788D01*
X96210773Y-66872445D01*
X96264302Y-66707701D01*
X96291400Y-66536611D01*
X96291400Y-66363389D01*
X116150400Y-66363389D01*
X116150400Y-66536610D01*
X116173077Y-66679792D01*
X116177498Y-66707701D01*
X116231027Y-66872445D01*
X116309668Y-67026788D01*
X116411486Y-67166928D01*
X116533972Y-67289414D01*
X116674112Y-67391232D01*
X116828455Y-67469873D01*
X116993199Y-67523402D01*
X117164289Y-67550500D01*
X117164290Y-67550500D01*
X118137510Y-67550500D01*
X118137511Y-67550500D01*
X118308601Y-67523402D01*
X118473345Y-67469873D01*
X118627688Y-67391232D01*
X118767828Y-67289414D01*
X118890314Y-67166928D01*
X118992132Y-67026788D01*
X119070773Y-66872445D01*
X119124302Y-66707701D01*
X119151400Y-66536611D01*
X119151400Y-66363389D01*
X119124302Y-66192299D01*
X119070773Y-66027555D01*
X118992132Y-65873212D01*
X118890314Y-65733072D01*
X118767828Y-65610586D01*
X118627688Y-65508768D01*
X118473345Y-65430127D01*
X118308601Y-65376598D01*
X118308599Y-65376597D01*
X118308598Y-65376597D01*
X118177171Y-65355781D01*
X118137511Y-65349500D01*
X117164289Y-65349500D01*
X117124628Y-65355781D01*
X116993202Y-65376597D01*
X116828452Y-65430128D01*
X116674111Y-65508768D01*
X116594156Y-65566859D01*
X116533972Y-65610586D01*
X116533970Y-65610588D01*
X116533969Y-65610588D01*
X116411488Y-65733069D01*
X116411488Y-65733070D01*
X116411486Y-65733072D01*
X116367759Y-65793256D01*
X116309668Y-65873211D01*
X116231028Y-66027552D01*
X116177497Y-66192302D01*
X116150400Y-66363389D01*
X96291400Y-66363389D01*
X96264302Y-66192299D01*
X96210773Y-66027555D01*
X96132132Y-65873212D01*
X96030314Y-65733072D01*
X95907828Y-65610586D01*
X95767688Y-65508768D01*
X95613345Y-65430127D01*
X95448601Y-65376598D01*
X95448599Y-65376597D01*
X95448598Y-65376597D01*
X95317171Y-65355781D01*
X95277511Y-65349500D01*
X94304289Y-65349500D01*
X94264628Y-65355781D01*
X94133202Y-65376597D01*
X93968452Y-65430128D01*
X93814111Y-65508768D01*
X93734156Y-65566859D01*
X93673972Y-65610586D01*
X93673970Y-65610588D01*
X93673969Y-65610588D01*
X93551488Y-65733069D01*
X93551488Y-65733070D01*
X93551486Y-65733072D01*
X93507759Y-65793256D01*
X93449668Y-65873211D01*
X93371028Y-66027552D01*
X93317497Y-66192302D01*
X93290400Y-66363389D01*
X71974540Y-66363389D01*
X71997457Y-66318412D01*
X72063146Y-66116243D01*
X72096400Y-65906287D01*
X72096400Y-65693713D01*
X72063146Y-65483757D01*
X71997457Y-65281588D01*
X71900951Y-65092184D01*
X71900949Y-65092181D01*
X71900948Y-65092179D01*
X71776009Y-64920213D01*
X71625692Y-64769896D01*
X71597501Y-64749414D01*
X71461104Y-64650316D01*
X71418440Y-64594989D01*
X71412461Y-64525376D01*
X71445066Y-64463580D01*
X71461099Y-64449686D01*
X71625692Y-64330104D01*
X71776004Y-64179792D01*
X71776006Y-64179788D01*
X71776009Y-64179786D01*
X71900948Y-64007820D01*
X71900947Y-64007820D01*
X71900951Y-64007816D01*
X71994921Y-63823389D01*
X93290400Y-63823389D01*
X93290400Y-63996611D01*
X93317498Y-64167701D01*
X93371027Y-64332445D01*
X93449668Y-64486788D01*
X93551486Y-64626928D01*
X93673972Y-64749414D01*
X93814112Y-64851232D01*
X93968455Y-64929873D01*
X94133199Y-64983402D01*
X94304289Y-65010500D01*
X94304290Y-65010500D01*
X95277510Y-65010500D01*
X95277511Y-65010500D01*
X95448601Y-64983402D01*
X95613345Y-64929873D01*
X95767688Y-64851232D01*
X95907828Y-64749414D01*
X96030314Y-64626928D01*
X96132132Y-64486788D01*
X96210773Y-64332445D01*
X96264302Y-64167701D01*
X96291400Y-63996611D01*
X96291400Y-63823389D01*
X116150400Y-63823389D01*
X116150400Y-63996611D01*
X116177498Y-64167701D01*
X116231027Y-64332445D01*
X116309668Y-64486788D01*
X116411486Y-64626928D01*
X116533972Y-64749414D01*
X116674112Y-64851232D01*
X116828455Y-64929873D01*
X116993199Y-64983402D01*
X117164289Y-65010500D01*
X117164290Y-65010500D01*
X118137510Y-65010500D01*
X118137511Y-65010500D01*
X118308601Y-64983402D01*
X118473345Y-64929873D01*
X118627688Y-64851232D01*
X118767828Y-64749414D01*
X118890314Y-64626928D01*
X118992132Y-64486788D01*
X119070773Y-64332445D01*
X119124302Y-64167701D01*
X119151400Y-63996611D01*
X119151400Y-63823389D01*
X119124302Y-63652299D01*
X119070773Y-63487555D01*
X118992132Y-63333212D01*
X118890314Y-63193072D01*
X118767828Y-63070586D01*
X118627688Y-62968768D01*
X118473345Y-62890127D01*
X118308601Y-62836598D01*
X118308599Y-62836597D01*
X118308598Y-62836597D01*
X118177171Y-62815781D01*
X118137511Y-62809500D01*
X117164289Y-62809500D01*
X117124628Y-62815781D01*
X116993202Y-62836597D01*
X116828452Y-62890128D01*
X116674111Y-62968768D01*
X116653481Y-62983757D01*
X116533972Y-63070586D01*
X116533970Y-63070588D01*
X116533969Y-63070588D01*
X116411488Y-63193069D01*
X116411488Y-63193070D01*
X116411486Y-63193072D01*
X116367759Y-63253256D01*
X116309668Y-63333211D01*
X116231028Y-63487552D01*
X116177497Y-63652302D01*
X116157241Y-63780197D01*
X116150400Y-63823389D01*
X96291400Y-63823389D01*
X96264302Y-63652299D01*
X96210773Y-63487555D01*
X96132132Y-63333212D01*
X96030314Y-63193072D01*
X95907828Y-63070586D01*
X95767688Y-62968768D01*
X95613345Y-62890127D01*
X95448601Y-62836598D01*
X95448599Y-62836597D01*
X95448598Y-62836597D01*
X95317171Y-62815781D01*
X95277511Y-62809500D01*
X94304289Y-62809500D01*
X94264628Y-62815781D01*
X94133202Y-62836597D01*
X93968452Y-62890128D01*
X93814111Y-62968768D01*
X93793481Y-62983757D01*
X93673972Y-63070586D01*
X93673970Y-63070588D01*
X93673969Y-63070588D01*
X93551488Y-63193069D01*
X93551488Y-63193070D01*
X93551486Y-63193072D01*
X93507759Y-63253256D01*
X93449668Y-63333211D01*
X93371028Y-63487552D01*
X93317497Y-63652302D01*
X93297241Y-63780197D01*
X93290400Y-63823389D01*
X71994921Y-63823389D01*
X71997457Y-63818412D01*
X72063146Y-63616243D01*
X72096400Y-63406287D01*
X72096400Y-63193713D01*
X72063146Y-62983757D01*
X71997457Y-62781588D01*
X71900951Y-62592184D01*
X71900949Y-62592181D01*
X71900948Y-62592179D01*
X71776009Y-62420213D01*
X71637194Y-62281398D01*
X71603709Y-62220075D01*
X71608693Y-62150383D01*
X71650565Y-62094450D01*
X71659779Y-62088178D01*
X71665231Y-62084814D01*
X71665234Y-62084814D01*
X71814556Y-61992712D01*
X71938612Y-61868656D01*
X72030714Y-61719334D01*
X72085899Y-61552797D01*
X72096400Y-61450009D01*
X72096400Y-61283389D01*
X93290400Y-61283389D01*
X93290400Y-61456611D01*
X93317498Y-61627701D01*
X93371027Y-61792445D01*
X93449668Y-61946788D01*
X93551486Y-62086928D01*
X93673972Y-62209414D01*
X93814112Y-62311232D01*
X93968455Y-62389873D01*
X94133199Y-62443402D01*
X94304289Y-62470500D01*
X94304290Y-62470500D01*
X95277510Y-62470500D01*
X95277511Y-62470500D01*
X95448601Y-62443402D01*
X95613345Y-62389873D01*
X95767688Y-62311232D01*
X95907828Y-62209414D01*
X96030314Y-62086928D01*
X96132132Y-61946788D01*
X96210773Y-61792445D01*
X96264302Y-61627701D01*
X96291400Y-61456611D01*
X96291400Y-61283389D01*
X116150400Y-61283389D01*
X116150400Y-61456611D01*
X116177498Y-61627701D01*
X116231027Y-61792445D01*
X116309668Y-61946788D01*
X116411486Y-62086928D01*
X116533972Y-62209414D01*
X116674112Y-62311232D01*
X116828455Y-62389873D01*
X116993199Y-62443402D01*
X117164289Y-62470500D01*
X117164290Y-62470500D01*
X118137510Y-62470500D01*
X118137511Y-62470500D01*
X118308601Y-62443402D01*
X118473345Y-62389873D01*
X118627688Y-62311232D01*
X118767828Y-62209414D01*
X118890314Y-62086928D01*
X118992132Y-61946788D01*
X119070773Y-61792445D01*
X119124302Y-61627701D01*
X119151400Y-61456611D01*
X119151400Y-61283389D01*
X119124302Y-61112299D01*
X119070773Y-60947555D01*
X118992132Y-60793212D01*
X118890314Y-60653072D01*
X118767828Y-60530586D01*
X118627688Y-60428768D01*
X118473345Y-60350127D01*
X118308601Y-60296598D01*
X118308599Y-60296597D01*
X118308598Y-60296597D01*
X118177171Y-60275781D01*
X118137511Y-60269500D01*
X117164289Y-60269500D01*
X117124628Y-60275781D01*
X116993202Y-60296597D01*
X116828452Y-60350128D01*
X116674111Y-60428768D01*
X116594156Y-60486859D01*
X116533972Y-60530586D01*
X116533970Y-60530588D01*
X116533969Y-60530588D01*
X116411488Y-60653069D01*
X116411488Y-60653070D01*
X116411486Y-60653072D01*
X116367759Y-60713256D01*
X116309668Y-60793211D01*
X116231028Y-60947552D01*
X116177497Y-61112302D01*
X116151172Y-61278517D01*
X116150400Y-61283389D01*
X96291400Y-61283389D01*
X96264302Y-61112299D01*
X96210773Y-60947555D01*
X96132132Y-60793212D01*
X96030314Y-60653072D01*
X95907828Y-60530586D01*
X95767688Y-60428768D01*
X95613345Y-60350127D01*
X95448601Y-60296598D01*
X95448599Y-60296597D01*
X95448598Y-60296597D01*
X95317171Y-60275781D01*
X95277511Y-60269500D01*
X94304289Y-60269500D01*
X94264628Y-60275781D01*
X94133202Y-60296597D01*
X93968452Y-60350128D01*
X93814111Y-60428768D01*
X93734156Y-60486859D01*
X93673972Y-60530586D01*
X93673970Y-60530588D01*
X93673969Y-60530588D01*
X93551488Y-60653069D01*
X93551488Y-60653070D01*
X93551486Y-60653072D01*
X93507759Y-60713256D01*
X93449668Y-60793211D01*
X93371028Y-60947552D01*
X93317497Y-61112302D01*
X93291172Y-61278517D01*
X93290400Y-61283389D01*
X72096400Y-61283389D01*
X72096399Y-60793212D01*
X72096399Y-60149998D01*
X72096398Y-60149981D01*
X72085899Y-60047203D01*
X72085898Y-60047200D01*
X72047227Y-59930500D01*
X72030714Y-59880666D01*
X71938612Y-59731344D01*
X71814556Y-59607288D01*
X71665234Y-59515186D01*
X71498697Y-59460001D01*
X71498695Y-59460000D01*
X71395910Y-59449500D01*
X69845898Y-59449500D01*
X69845881Y-59449501D01*
X69743103Y-59460000D01*
X69743100Y-59460001D01*
X69576568Y-59515185D01*
X69576563Y-59515187D01*
X69427242Y-59607289D01*
X69303189Y-59731342D01*
X69211087Y-59880663D01*
X69211085Y-59880668D01*
X69183249Y-59964670D01*
X69155901Y-60047203D01*
X69155901Y-60047204D01*
X69155900Y-60047204D01*
X69145400Y-60149983D01*
X63135450Y-60149983D01*
X63136136Y-58743389D01*
X93290400Y-58743389D01*
X93290400Y-58916611D01*
X93317498Y-59087701D01*
X93371027Y-59252445D01*
X93449668Y-59406788D01*
X93551486Y-59546928D01*
X93673972Y-59669414D01*
X93814112Y-59771232D01*
X93968455Y-59849873D01*
X94133199Y-59903402D01*
X94304289Y-59930500D01*
X94304290Y-59930500D01*
X95277510Y-59930500D01*
X95277511Y-59930500D01*
X95448601Y-59903402D01*
X95613345Y-59849873D01*
X95767688Y-59771232D01*
X95907828Y-59669414D01*
X96030314Y-59546928D01*
X96132132Y-59406788D01*
X96210773Y-59252445D01*
X96264302Y-59087701D01*
X96291400Y-58916611D01*
X96291400Y-58743389D01*
X116150400Y-58743389D01*
X116150400Y-58916611D01*
X116177498Y-59087701D01*
X116231027Y-59252445D01*
X116309668Y-59406788D01*
X116411486Y-59546928D01*
X116533972Y-59669414D01*
X116674112Y-59771232D01*
X116828455Y-59849873D01*
X116993199Y-59903402D01*
X117164289Y-59930500D01*
X117164290Y-59930500D01*
X118137510Y-59930500D01*
X118137511Y-59930500D01*
X118308601Y-59903402D01*
X118473345Y-59849873D01*
X118627688Y-59771232D01*
X118767828Y-59669414D01*
X118890314Y-59546928D01*
X118992132Y-59406788D01*
X119070773Y-59252445D01*
X119124302Y-59087701D01*
X119151400Y-58916611D01*
X119151400Y-58743389D01*
X119146413Y-58711902D01*
X134140400Y-58711902D01*
X134140400Y-58948097D01*
X134177346Y-59181368D01*
X134250333Y-59405996D01*
X134322142Y-59546928D01*
X134357557Y-59616433D01*
X134496383Y-59807510D01*
X134663390Y-59974517D01*
X134854467Y-60113343D01*
X134920075Y-60146772D01*
X135064903Y-60220566D01*
X135064905Y-60220566D01*
X135064908Y-60220568D01*
X135185312Y-60259689D01*
X135289531Y-60293553D01*
X135522803Y-60330500D01*
X135522808Y-60330500D01*
X137258997Y-60330500D01*
X137492268Y-60293553D01*
X137566295Y-60269500D01*
X137716892Y-60220568D01*
X137927333Y-60113343D01*
X138118410Y-59974517D01*
X138285417Y-59807510D01*
X138424243Y-59616433D01*
X138531468Y-59405992D01*
X138604453Y-59181368D01*
X138641400Y-58948097D01*
X138641400Y-58711902D01*
X138604453Y-58478631D01*
X138531466Y-58254003D01*
X138474902Y-58142991D01*
X138424243Y-58043567D01*
X138285417Y-57852490D01*
X138118410Y-57685483D01*
X137927333Y-57546657D01*
X137716896Y-57439433D01*
X137492268Y-57366446D01*
X137258997Y-57329500D01*
X137258992Y-57329500D01*
X135522808Y-57329500D01*
X135522803Y-57329500D01*
X135289531Y-57366446D01*
X135064903Y-57439433D01*
X134854466Y-57546657D01*
X134745450Y-57625862D01*
X134663390Y-57685483D01*
X134663388Y-57685485D01*
X134663387Y-57685485D01*
X134496385Y-57852487D01*
X134496385Y-57852488D01*
X134496383Y-57852490D01*
X134436762Y-57934550D01*
X134357557Y-58043566D01*
X134250333Y-58254003D01*
X134177346Y-58478631D01*
X134140400Y-58711902D01*
X119146413Y-58711902D01*
X119124302Y-58572299D01*
X119070773Y-58407555D01*
X118992132Y-58253212D01*
X118890314Y-58113072D01*
X118767828Y-57990586D01*
X118627688Y-57888768D01*
X118473345Y-57810127D01*
X118308601Y-57756598D01*
X118308599Y-57756597D01*
X118308598Y-57756597D01*
X118177171Y-57735781D01*
X118137511Y-57729500D01*
X117164289Y-57729500D01*
X117124628Y-57735781D01*
X116993202Y-57756597D01*
X116828452Y-57810128D01*
X116674111Y-57888768D01*
X116594156Y-57946859D01*
X116533972Y-57990586D01*
X116533970Y-57990588D01*
X116533969Y-57990588D01*
X116411488Y-58113069D01*
X116411488Y-58113070D01*
X116411486Y-58113072D01*
X116367759Y-58173256D01*
X116309668Y-58253211D01*
X116231028Y-58407552D01*
X116231027Y-58407554D01*
X116231027Y-58407555D01*
X116204262Y-58489927D01*
X116177497Y-58572302D01*
X116177497Y-58572303D01*
X116150400Y-58743389D01*
X96291400Y-58743389D01*
X96264302Y-58572299D01*
X96210773Y-58407555D01*
X96132132Y-58253212D01*
X96030314Y-58113072D01*
X95907828Y-57990586D01*
X95767688Y-57888768D01*
X95613345Y-57810127D01*
X95448601Y-57756598D01*
X95448599Y-57756597D01*
X95448598Y-57756597D01*
X95317171Y-57735781D01*
X95277511Y-57729500D01*
X94304289Y-57729500D01*
X94264628Y-57735781D01*
X94133202Y-57756597D01*
X93968452Y-57810128D01*
X93814111Y-57888768D01*
X93734156Y-57946859D01*
X93673972Y-57990586D01*
X93673970Y-57990588D01*
X93673969Y-57990588D01*
X93551488Y-58113069D01*
X93551488Y-58113070D01*
X93551486Y-58113072D01*
X93507759Y-58173256D01*
X93449668Y-58253211D01*
X93371028Y-58407552D01*
X93371027Y-58407554D01*
X93371027Y-58407555D01*
X93344262Y-58489927D01*
X93317497Y-58572302D01*
X93317497Y-58572303D01*
X93290400Y-58743389D01*
X63136136Y-58743389D01*
X63137376Y-56203389D01*
X93290400Y-56203389D01*
X93290400Y-56376611D01*
X93298577Y-56428239D01*
X93317497Y-56547697D01*
X93371028Y-56712447D01*
X93449668Y-56866788D01*
X93551486Y-57006928D01*
X93673972Y-57129414D01*
X93814112Y-57231232D01*
X93968455Y-57309873D01*
X94133199Y-57363402D01*
X94304289Y-57390500D01*
X94304290Y-57390500D01*
X95277510Y-57390500D01*
X95277511Y-57390500D01*
X95448601Y-57363402D01*
X95613345Y-57309873D01*
X95767688Y-57231232D01*
X95907828Y-57129414D01*
X96030314Y-57006928D01*
X96132132Y-56866788D01*
X96210773Y-56712445D01*
X96264302Y-56547701D01*
X96291400Y-56376611D01*
X96291400Y-56203389D01*
X116150400Y-56203389D01*
X116150400Y-56376611D01*
X116158577Y-56428239D01*
X116177497Y-56547697D01*
X116231028Y-56712447D01*
X116309668Y-56866788D01*
X116411486Y-57006928D01*
X116533972Y-57129414D01*
X116674112Y-57231232D01*
X116828455Y-57309873D01*
X116993199Y-57363402D01*
X117164289Y-57390500D01*
X117164290Y-57390500D01*
X118137510Y-57390500D01*
X118137511Y-57390500D01*
X118308601Y-57363402D01*
X118473345Y-57309873D01*
X118627688Y-57231232D01*
X118767828Y-57129414D01*
X118890314Y-57006928D01*
X118992132Y-56866788D01*
X119070773Y-56712445D01*
X119124302Y-56547701D01*
X119151400Y-56376611D01*
X119151400Y-56203389D01*
X119124302Y-56032299D01*
X119070773Y-55867555D01*
X118992132Y-55713212D01*
X118890314Y-55573072D01*
X118767828Y-55450586D01*
X118627688Y-55348768D01*
X118473345Y-55270127D01*
X118308601Y-55216598D01*
X118308599Y-55216597D01*
X118308598Y-55216597D01*
X118177171Y-55195781D01*
X118137511Y-55189500D01*
X117164289Y-55189500D01*
X117124628Y-55195781D01*
X116993202Y-55216597D01*
X116828452Y-55270128D01*
X116674111Y-55348768D01*
X116624931Y-55384500D01*
X116533972Y-55450586D01*
X116533970Y-55450588D01*
X116533969Y-55450588D01*
X116411488Y-55573069D01*
X116411488Y-55573070D01*
X116411486Y-55573072D01*
X116367759Y-55633256D01*
X116309668Y-55713211D01*
X116231028Y-55867552D01*
X116177497Y-56032302D01*
X116162953Y-56124133D01*
X116150400Y-56203389D01*
X96291400Y-56203389D01*
X96264302Y-56032299D01*
X96210773Y-55867555D01*
X96132132Y-55713212D01*
X96030314Y-55573072D01*
X95907828Y-55450586D01*
X95767688Y-55348768D01*
X95613345Y-55270127D01*
X95448601Y-55216598D01*
X95448599Y-55216597D01*
X95448598Y-55216597D01*
X95317171Y-55195781D01*
X95277511Y-55189500D01*
X94304289Y-55189500D01*
X94264628Y-55195781D01*
X94133202Y-55216597D01*
X93968452Y-55270128D01*
X93814111Y-55348768D01*
X93764931Y-55384500D01*
X93673972Y-55450586D01*
X93673970Y-55450588D01*
X93673969Y-55450588D01*
X93551488Y-55573069D01*
X93551488Y-55573070D01*
X93551486Y-55573072D01*
X93507759Y-55633256D01*
X93449668Y-55713211D01*
X93371028Y-55867552D01*
X93317497Y-56032302D01*
X93302953Y-56124133D01*
X93290400Y-56203389D01*
X63137376Y-56203389D01*
X63144235Y-42149983D01*
X69145400Y-42149983D01*
X69145400Y-43450001D01*
X69145401Y-43450018D01*
X69155900Y-43552796D01*
X69155901Y-43552799D01*
X69211085Y-43719331D01*
X69211087Y-43719336D01*
X69303189Y-43868657D01*
X69427244Y-43992712D01*
X69582020Y-44088178D01*
X69628745Y-44140126D01*
X69639968Y-44209088D01*
X69612124Y-44273171D01*
X69604606Y-44281398D01*
X69465789Y-44420215D01*
X69340851Y-44592179D01*
X69244344Y-44781585D01*
X69178653Y-44983760D01*
X69145400Y-45193713D01*
X69145400Y-45406286D01*
X69178653Y-45616239D01*
X69244344Y-45818414D01*
X69340851Y-46007820D01*
X69465790Y-46179786D01*
X69616109Y-46330105D01*
X69616114Y-46330109D01*
X69780693Y-46449682D01*
X69823359Y-46505011D01*
X69829338Y-46574625D01*
X69796733Y-46636420D01*
X69780693Y-46650318D01*
X69616114Y-46769890D01*
X69616109Y-46769894D01*
X69465790Y-46920213D01*
X69340851Y-47092179D01*
X69244344Y-47281585D01*
X69178653Y-47483760D01*
X69145400Y-47693713D01*
X69145400Y-47906286D01*
X69178653Y-48116239D01*
X69244344Y-48318414D01*
X69340851Y-48507820D01*
X69465790Y-48679786D01*
X69616109Y-48830105D01*
X69616114Y-48830109D01*
X69780693Y-48949682D01*
X69823359Y-49005011D01*
X69829338Y-49074625D01*
X69796733Y-49136420D01*
X69780693Y-49150318D01*
X69616114Y-49269890D01*
X69616109Y-49269894D01*
X69465790Y-49420213D01*
X69340851Y-49592179D01*
X69244344Y-49781585D01*
X69178653Y-49983760D01*
X69147355Y-50181368D01*
X69145400Y-50193713D01*
X69145400Y-50406287D01*
X69178654Y-50616243D01*
X69240801Y-50807512D01*
X69244344Y-50818414D01*
X69340851Y-51007820D01*
X69465790Y-51179786D01*
X69616109Y-51330105D01*
X69616114Y-51330109D01*
X69781118Y-51449991D01*
X69823784Y-51505320D01*
X69829763Y-51574934D01*
X69797158Y-51636729D01*
X69781118Y-51650627D01*
X69616440Y-51770272D01*
X69616435Y-51770276D01*
X69466176Y-51920535D01*
X69466172Y-51920540D01*
X69341279Y-52092442D01*
X69244804Y-52281782D01*
X69179142Y-52483870D01*
X69179142Y-52483873D01*
X69168669Y-52550000D01*
X70216754Y-52550000D01*
X70178270Y-52616657D01*
X70145900Y-52737465D01*
X70145900Y-52862535D01*
X70178270Y-52983343D01*
X70216754Y-53050000D01*
X69168669Y-53050000D01*
X69179142Y-53116126D01*
X69179142Y-53116129D01*
X69244804Y-53318217D01*
X69341279Y-53507557D01*
X69466172Y-53679459D01*
X69466176Y-53679464D01*
X69616435Y-53829723D01*
X69616440Y-53829727D01*
X69788342Y-53954620D01*
X69977682Y-54051095D01*
X70179772Y-54116757D01*
X70370900Y-54147029D01*
X70370900Y-53204145D01*
X70437557Y-53242630D01*
X70558365Y-53275000D01*
X70683435Y-53275000D01*
X70804243Y-53242630D01*
X70870900Y-53204145D01*
X70870900Y-54147028D01*
X71062027Y-54116757D01*
X71264117Y-54051095D01*
X71453457Y-53954620D01*
X71625359Y-53829727D01*
X71625364Y-53829723D01*
X71775623Y-53679464D01*
X71775627Y-53679459D01*
X71900520Y-53507557D01*
X71996995Y-53318217D01*
X72062657Y-53116129D01*
X72062657Y-53116127D01*
X72064874Y-53102135D01*
X93290400Y-53102135D01*
X93290400Y-54397870D01*
X93290401Y-54397876D01*
X93296808Y-54457483D01*
X93347102Y-54592328D01*
X93347106Y-54592335D01*
X93433352Y-54707544D01*
X93433355Y-54707547D01*
X93548564Y-54793793D01*
X93548571Y-54793797D01*
X93683417Y-54844091D01*
X93683416Y-54844091D01*
X93690344Y-54844835D01*
X93743027Y-54850500D01*
X95838772Y-54850499D01*
X95898383Y-54844091D01*
X96033231Y-54793796D01*
X96148446Y-54707546D01*
X96234696Y-54592331D01*
X96284991Y-54457483D01*
X96291400Y-54397873D01*
X96291399Y-53499999D01*
X116176784Y-53499999D01*
X116176785Y-53500000D01*
X117335214Y-53500000D01*
X117330820Y-53504394D01*
X117278159Y-53595606D01*
X117250900Y-53697339D01*
X117250900Y-53802661D01*
X117278159Y-53904394D01*
X117330820Y-53995606D01*
X117335214Y-54000000D01*
X116176785Y-54000000D01*
X116177985Y-54007584D01*
X116231491Y-54172255D01*
X116310095Y-54326524D01*
X116411867Y-54466602D01*
X116534297Y-54589032D01*
X116674375Y-54690804D01*
X116828642Y-54769408D01*
X116993315Y-54822914D01*
X117164329Y-54850000D01*
X117400900Y-54850000D01*
X117400900Y-54065686D01*
X117405294Y-54070080D01*
X117496506Y-54122741D01*
X117598239Y-54150000D01*
X117703561Y-54150000D01*
X117805294Y-54122741D01*
X117896506Y-54070080D01*
X117900900Y-54065686D01*
X117900900Y-54850000D01*
X118137471Y-54850000D01*
X118308484Y-54822914D01*
X118473157Y-54769408D01*
X118627424Y-54690804D01*
X118767502Y-54589032D01*
X118889932Y-54466602D01*
X118991704Y-54326524D01*
X119070308Y-54172255D01*
X119123814Y-54007584D01*
X119125015Y-54000000D01*
X117966586Y-54000000D01*
X117970980Y-53995606D01*
X118023641Y-53904394D01*
X118050900Y-53802661D01*
X118050900Y-53697339D01*
X118023641Y-53595606D01*
X117970980Y-53504394D01*
X117966586Y-53500000D01*
X119125015Y-53500000D01*
X119125015Y-53499999D01*
X119123814Y-53492415D01*
X119070308Y-53327744D01*
X118991704Y-53173475D01*
X118889932Y-53033397D01*
X118767502Y-52910967D01*
X118627424Y-52809195D01*
X118473157Y-52730591D01*
X118308484Y-52677085D01*
X118137471Y-52650000D01*
X117900900Y-52650000D01*
X117900900Y-53434314D01*
X117896506Y-53429920D01*
X117805294Y-53377259D01*
X117703561Y-53350000D01*
X117598239Y-53350000D01*
X117496506Y-53377259D01*
X117405294Y-53429920D01*
X117400900Y-53434314D01*
X117400900Y-52650000D01*
X117164329Y-52650000D01*
X116993315Y-52677085D01*
X116828642Y-52730591D01*
X116674375Y-52809195D01*
X116534297Y-52910967D01*
X116411867Y-53033397D01*
X116310095Y-53173475D01*
X116231491Y-53327744D01*
X116177985Y-53492415D01*
X116176784Y-53499999D01*
X96291399Y-53499999D01*
X96291399Y-53102128D01*
X96284991Y-53042517D01*
X96281589Y-53033397D01*
X96234697Y-52907671D01*
X96234693Y-52907664D01*
X96148447Y-52792455D01*
X96148444Y-52792452D01*
X96033235Y-52706206D01*
X96033228Y-52706202D01*
X95898382Y-52655908D01*
X95898383Y-52655908D01*
X95838783Y-52649501D01*
X95838781Y-52649500D01*
X95838773Y-52649500D01*
X95838764Y-52649500D01*
X93743029Y-52649500D01*
X93743023Y-52649501D01*
X93683416Y-52655908D01*
X93548571Y-52706202D01*
X93548564Y-52706206D01*
X93433355Y-52792452D01*
X93433352Y-52792455D01*
X93347106Y-52907664D01*
X93347102Y-52907671D01*
X93296808Y-53042517D01*
X93290401Y-53102116D01*
X93290401Y-53102123D01*
X93290400Y-53102135D01*
X72064874Y-53102135D01*
X72068474Y-53079407D01*
X72068474Y-53079405D01*
X72073131Y-53050000D01*
X71025046Y-53050000D01*
X71063530Y-52983343D01*
X71095900Y-52862535D01*
X71095900Y-52737465D01*
X71063530Y-52616657D01*
X71025046Y-52550000D01*
X72073131Y-52550000D01*
X72062657Y-52483873D01*
X72062656Y-52483866D01*
X72008482Y-52317135D01*
X72008479Y-52317125D01*
X71997109Y-52282135D01*
X127890400Y-52282135D01*
X127890400Y-56377870D01*
X127890401Y-56377876D01*
X127896808Y-56437483D01*
X127947102Y-56572328D01*
X127947106Y-56572335D01*
X128033352Y-56687544D01*
X128033355Y-56687547D01*
X128148564Y-56773793D01*
X128148571Y-56773797D01*
X128283417Y-56824091D01*
X128283416Y-56824091D01*
X128290344Y-56824835D01*
X128343027Y-56830500D01*
X130438772Y-56830499D01*
X130498383Y-56824091D01*
X130633231Y-56773796D01*
X130748446Y-56687546D01*
X130834696Y-56572331D01*
X130884991Y-56437483D01*
X130891400Y-56377873D01*
X130891399Y-53561947D01*
X133890900Y-53561947D01*
X133890900Y-54080000D01*
X134890900Y-54080000D01*
X134890900Y-54580000D01*
X133890900Y-54580000D01*
X133890900Y-55098052D01*
X133927834Y-55331247D01*
X134000797Y-55555802D01*
X134107985Y-55766171D01*
X134246766Y-55957186D01*
X134413713Y-56124133D01*
X134604728Y-56262914D01*
X134815095Y-56370102D01*
X135039644Y-56443063D01*
X135039650Y-56443065D01*
X135140900Y-56459101D01*
X135140900Y-55413012D01*
X135197907Y-55445925D01*
X135325074Y-55480000D01*
X135456726Y-55480000D01*
X135583893Y-55445925D01*
X135640900Y-55413012D01*
X135640900Y-56459100D01*
X135742149Y-56443065D01*
X135742155Y-56443063D01*
X135966704Y-56370102D01*
X136177071Y-56262914D01*
X136368086Y-56124133D01*
X136535033Y-55957186D01*
X136673814Y-55766171D01*
X136781002Y-55555802D01*
X136853965Y-55331247D01*
X136890900Y-55098052D01*
X136890900Y-54580000D01*
X135890900Y-54580000D01*
X135890900Y-54226136D01*
X137336400Y-54226136D01*
X137336400Y-54433863D01*
X137376922Y-54637578D01*
X137376925Y-54637590D01*
X137456411Y-54829488D01*
X137456412Y-54829490D01*
X137571816Y-55002203D01*
X137571819Y-55002207D01*
X137718692Y-55149080D01*
X137718696Y-55149083D01*
X137891407Y-55264486D01*
X137891408Y-55264486D01*
X137891409Y-55264487D01*
X137891411Y-55264488D01*
X138052583Y-55331247D01*
X138083314Y-55343976D01*
X138264916Y-55380099D01*
X138287036Y-55384499D01*
X138287039Y-55384500D01*
X138287041Y-55384500D01*
X138494761Y-55384500D01*
X138494762Y-55384499D01*
X138698486Y-55343976D01*
X138890393Y-55264486D01*
X139063104Y-55149083D01*
X139209983Y-55002204D01*
X139325386Y-54829493D01*
X139404876Y-54637586D01*
X139445400Y-54433859D01*
X139445400Y-54226141D01*
X139445400Y-54226138D01*
X139445399Y-54226136D01*
X139434681Y-54172255D01*
X139404876Y-54022414D01*
X139325386Y-53830507D01*
X139209983Y-53657796D01*
X139209980Y-53657792D01*
X139063107Y-53510919D01*
X139063103Y-53510916D01*
X138890390Y-53395512D01*
X138890388Y-53395511D01*
X138698490Y-53316025D01*
X138698478Y-53316022D01*
X138494762Y-53275500D01*
X138494759Y-53275500D01*
X138287041Y-53275500D01*
X138287038Y-53275500D01*
X138083321Y-53316022D01*
X138083309Y-53316025D01*
X137891411Y-53395511D01*
X137891409Y-53395512D01*
X137718696Y-53510916D01*
X137718692Y-53510919D01*
X137571819Y-53657792D01*
X137571816Y-53657796D01*
X137456412Y-53830509D01*
X137456411Y-53830511D01*
X137376925Y-54022409D01*
X137376922Y-54022421D01*
X137336400Y-54226136D01*
X135890900Y-54226136D01*
X135890900Y-54080000D01*
X136890900Y-54080000D01*
X136890900Y-53561947D01*
X136853965Y-53328752D01*
X136781002Y-53104197D01*
X136673814Y-52893828D01*
X136535033Y-52702813D01*
X136368086Y-52535866D01*
X136177071Y-52397085D01*
X135966702Y-52289897D01*
X135742147Y-52216934D01*
X135640900Y-52200897D01*
X135640900Y-53246988D01*
X135583893Y-53214075D01*
X135456726Y-53180000D01*
X135325074Y-53180000D01*
X135197907Y-53214075D01*
X135140900Y-53246988D01*
X135140900Y-52200897D01*
X135039652Y-52216934D01*
X134815097Y-52289897D01*
X134604728Y-52397085D01*
X134413713Y-52535866D01*
X134246766Y-52702813D01*
X134107985Y-52893828D01*
X134000797Y-53104197D01*
X133927834Y-53328752D01*
X133890900Y-53561947D01*
X130891399Y-53561947D01*
X130891399Y-52282128D01*
X130884991Y-52222517D01*
X130876927Y-52200897D01*
X130834697Y-52087671D01*
X130834693Y-52087664D01*
X130748447Y-51972455D01*
X130748444Y-51972452D01*
X130633235Y-51886206D01*
X130633228Y-51886202D01*
X130498382Y-51835908D01*
X130498383Y-51835908D01*
X130438783Y-51829501D01*
X130438781Y-51829500D01*
X130438773Y-51829500D01*
X130438764Y-51829500D01*
X128343029Y-51829500D01*
X128343023Y-51829501D01*
X128283416Y-51835908D01*
X128148571Y-51886202D01*
X128148564Y-51886206D01*
X128033355Y-51972452D01*
X128033352Y-51972455D01*
X127947106Y-52087664D01*
X127947102Y-52087671D01*
X127896808Y-52222517D01*
X127890437Y-52281781D01*
X127890401Y-52282123D01*
X127890400Y-52282135D01*
X71997109Y-52282135D01*
X71996994Y-52281781D01*
X71900520Y-52092442D01*
X71775627Y-51920540D01*
X71775623Y-51920535D01*
X71625364Y-51770276D01*
X71625359Y-51770272D01*
X71460681Y-51650627D01*
X71418015Y-51595297D01*
X71412036Y-51525684D01*
X71444641Y-51463889D01*
X71460676Y-51449994D01*
X71625692Y-51330104D01*
X71776004Y-51179792D01*
X71776006Y-51179788D01*
X71776009Y-51179786D01*
X71900948Y-51007820D01*
X71900947Y-51007820D01*
X71900951Y-51007816D01*
X71997457Y-50818412D01*
X72063146Y-50616243D01*
X72096400Y-50406287D01*
X72096400Y-50193713D01*
X72063146Y-49983757D01*
X71997457Y-49781588D01*
X71997454Y-49781582D01*
X71988156Y-49763332D01*
X71988155Y-49763331D01*
X71961950Y-49711902D01*
X134140400Y-49711902D01*
X134140400Y-49948097D01*
X134177346Y-50181368D01*
X134250333Y-50405996D01*
X134357458Y-50616239D01*
X134357557Y-50616433D01*
X134496383Y-50807510D01*
X134663390Y-50974517D01*
X134854467Y-51113343D01*
X134953891Y-51164002D01*
X135064903Y-51220566D01*
X135064905Y-51220566D01*
X135064908Y-51220568D01*
X135185312Y-51259689D01*
X135289531Y-51293553D01*
X135522803Y-51330500D01*
X135522808Y-51330500D01*
X137258997Y-51330500D01*
X137492268Y-51293553D01*
X137716892Y-51220568D01*
X137927333Y-51113343D01*
X138118410Y-50974517D01*
X138285417Y-50807510D01*
X138424243Y-50616433D01*
X138531468Y-50405992D01*
X138604453Y-50181368D01*
X138635751Y-49983760D01*
X138641400Y-49948097D01*
X138641400Y-49711902D01*
X138604453Y-49478631D01*
X138536630Y-49269896D01*
X138531468Y-49254008D01*
X138531466Y-49254005D01*
X138531466Y-49254003D01*
X138450444Y-49094989D01*
X138424243Y-49043567D01*
X138285417Y-48852490D01*
X138118410Y-48685483D01*
X137927333Y-48546657D01*
X137716896Y-48439433D01*
X137492268Y-48366446D01*
X137258997Y-48329500D01*
X137258992Y-48329500D01*
X135522808Y-48329500D01*
X135522803Y-48329500D01*
X135289531Y-48366446D01*
X135064903Y-48439433D01*
X134854466Y-48546657D01*
X134745450Y-48625862D01*
X134663390Y-48685483D01*
X134663388Y-48685485D01*
X134663387Y-48685485D01*
X134496385Y-48852487D01*
X134496385Y-48852488D01*
X134496383Y-48852490D01*
X134436762Y-48934550D01*
X134357557Y-49043566D01*
X134250333Y-49254003D01*
X134177346Y-49478631D01*
X134140400Y-49711902D01*
X71961950Y-49711902D01*
X71900951Y-49592184D01*
X71892923Y-49581134D01*
X71776009Y-49420213D01*
X71625692Y-49269896D01*
X71603817Y-49254003D01*
X71461104Y-49150316D01*
X71418440Y-49094989D01*
X71412461Y-49025376D01*
X71445066Y-48963580D01*
X71461099Y-48949686D01*
X71625692Y-48830104D01*
X71776004Y-48679792D01*
X71776006Y-48679788D01*
X71776009Y-48679786D01*
X71900948Y-48507820D01*
X71900947Y-48507820D01*
X71900951Y-48507816D01*
X71997457Y-48318412D01*
X72063146Y-48116243D01*
X72096400Y-47906287D01*
X72096400Y-47693713D01*
X72063146Y-47483757D01*
X71997457Y-47281588D01*
X71900951Y-47092184D01*
X71900949Y-47092181D01*
X71900948Y-47092179D01*
X71776009Y-46920213D01*
X71625692Y-46769896D01*
X71625684Y-46769890D01*
X71461104Y-46650316D01*
X71418440Y-46594989D01*
X71412461Y-46525376D01*
X71445066Y-46463580D01*
X71461099Y-46449686D01*
X71625692Y-46330104D01*
X71776004Y-46179792D01*
X71776006Y-46179788D01*
X71776009Y-46179786D01*
X71900948Y-46007820D01*
X71900947Y-46007820D01*
X71900951Y-46007816D01*
X71997457Y-45818412D01*
X72063146Y-45616243D01*
X72096400Y-45406287D01*
X72096400Y-45193713D01*
X72063146Y-44983757D01*
X71997457Y-44781588D01*
X71900951Y-44592184D01*
X71900949Y-44592181D01*
X71900948Y-44592179D01*
X71776009Y-44420213D01*
X71637194Y-44281398D01*
X71603709Y-44220075D01*
X71608693Y-44150383D01*
X71650565Y-44094450D01*
X71659779Y-44088178D01*
X71665231Y-44084814D01*
X71665234Y-44084814D01*
X71814556Y-43992712D01*
X71938612Y-43868656D01*
X72030714Y-43719334D01*
X72085899Y-43552797D01*
X72096400Y-43450009D01*
X72096399Y-42149992D01*
X72085899Y-42047203D01*
X72030714Y-41880666D01*
X71938612Y-41731344D01*
X71814556Y-41607288D01*
X71665234Y-41515186D01*
X71498697Y-41460001D01*
X71498695Y-41460000D01*
X71395910Y-41449500D01*
X69845898Y-41449500D01*
X69845881Y-41449501D01*
X69743103Y-41460000D01*
X69743100Y-41460001D01*
X69576568Y-41515185D01*
X69576563Y-41515187D01*
X69427242Y-41607289D01*
X69303189Y-41731342D01*
X69211087Y-41880663D01*
X69211086Y-41880666D01*
X69155901Y-42047203D01*
X69155901Y-42047204D01*
X69155900Y-42047204D01*
X69145400Y-42149983D01*
X63144235Y-42149983D01*
X63148116Y-34199345D01*
X63866400Y-34199345D01*
X63866400Y-34480654D01*
X63897894Y-34760167D01*
X63897896Y-34760183D01*
X63960490Y-35034424D01*
X64053399Y-35299944D01*
X64175447Y-35553380D01*
X64175449Y-35553383D01*
X64325110Y-35791566D01*
X64500497Y-36011494D01*
X64699406Y-36210403D01*
X64919334Y-36385790D01*
X65157517Y-36535451D01*
X65410959Y-36657502D01*
X65676473Y-36750409D01*
X65950720Y-36813004D01*
X66230245Y-36844499D01*
X66230246Y-36844500D01*
X66230250Y-36844500D01*
X66511554Y-36844500D01*
X66511554Y-36844499D01*
X66791080Y-36813004D01*
X67065327Y-36750409D01*
X67330841Y-36657502D01*
X67584283Y-36535451D01*
X67822466Y-36385790D01*
X68042394Y-36210403D01*
X68241303Y-36011494D01*
X68416690Y-35791566D01*
X68566351Y-35553383D01*
X68688402Y-35299941D01*
X68781309Y-35034427D01*
X68843904Y-34760180D01*
X68875400Y-34480650D01*
X68875400Y-34299345D01*
X136676400Y-34299345D01*
X136676400Y-34580654D01*
X136707894Y-34860167D01*
X136707896Y-34860183D01*
X136770490Y-35134424D01*
X136863399Y-35399944D01*
X136985447Y-35653380D01*
X136985449Y-35653383D01*
X137135110Y-35891566D01*
X137310497Y-36111494D01*
X137509406Y-36310403D01*
X137729334Y-36485790D01*
X137967517Y-36635451D01*
X138220959Y-36757502D01*
X138486473Y-36850409D01*
X138760720Y-36913004D01*
X139040245Y-36944499D01*
X139040246Y-36944500D01*
X139040250Y-36944500D01*
X139321554Y-36944500D01*
X139321554Y-36944499D01*
X139601080Y-36913004D01*
X139875327Y-36850409D01*
X140140841Y-36757502D01*
X140394283Y-36635451D01*
X140632466Y-36485790D01*
X140852394Y-36310403D01*
X141051303Y-36111494D01*
X141226690Y-35891566D01*
X141376351Y-35653383D01*
X141498402Y-35399941D01*
X141591309Y-35134427D01*
X141653904Y-34860180D01*
X141685400Y-34580650D01*
X141685400Y-34299350D01*
X141653904Y-34019820D01*
X141591309Y-33745573D01*
X141498402Y-33480059D01*
X141376351Y-33226617D01*
X141226690Y-32988434D01*
X141051303Y-32768506D01*
X140852394Y-32569597D01*
X140632466Y-32394210D01*
X140394283Y-32244549D01*
X140394280Y-32244547D01*
X140140844Y-32122499D01*
X139875324Y-32029590D01*
X139601083Y-31966996D01*
X139601067Y-31966994D01*
X139321554Y-31935500D01*
X139321550Y-31935500D01*
X139040250Y-31935500D01*
X139040246Y-31935500D01*
X138760732Y-31966994D01*
X138760716Y-31966996D01*
X138486475Y-32029590D01*
X138220955Y-32122499D01*
X137967519Y-32244547D01*
X137729335Y-32394209D01*
X137509406Y-32569596D01*
X137310496Y-32768506D01*
X137135109Y-32988435D01*
X136985447Y-33226619D01*
X136863399Y-33480055D01*
X136770490Y-33745575D01*
X136707896Y-34019816D01*
X136707894Y-34019832D01*
X136676400Y-34299345D01*
X68875400Y-34299345D01*
X68875400Y-34199350D01*
X68843904Y-33919820D01*
X68781309Y-33645573D01*
X68688402Y-33380059D01*
X68566351Y-33126617D01*
X68416690Y-32888434D01*
X68241303Y-32668506D01*
X68042394Y-32469597D01*
X67822466Y-32294210D01*
X67584283Y-32144549D01*
X67584280Y-32144547D01*
X67330844Y-32022499D01*
X67065324Y-31929590D01*
X66791083Y-31866996D01*
X66791067Y-31866994D01*
X66511554Y-31835500D01*
X66511550Y-31835500D01*
X66230250Y-31835500D01*
X66230246Y-31835500D01*
X65950732Y-31866994D01*
X65950716Y-31866996D01*
X65676475Y-31929590D01*
X65410955Y-32022499D01*
X65157519Y-32144547D01*
X64919335Y-32294209D01*
X64699406Y-32469596D01*
X64500496Y-32668506D01*
X64325109Y-32888435D01*
X64175447Y-33126619D01*
X64053399Y-33380055D01*
X63960490Y-33645575D01*
X63897896Y-33919816D01*
X63897894Y-33919832D01*
X63866400Y-34199345D01*
X63148116Y-34199345D01*
X63149168Y-32044934D01*
X63149190Y-32044875D01*
X63149190Y-32006023D01*
X63149194Y-32006009D01*
X63149787Y-31993939D01*
X63150546Y-31986225D01*
X63162625Y-31863586D01*
X63167364Y-31839760D01*
X63203613Y-31720261D01*
X63212911Y-31697816D01*
X63271769Y-31587699D01*
X63285272Y-31567491D01*
X63364484Y-31470969D01*
X63381664Y-31453789D01*
X63478185Y-31374575D01*
X63498389Y-31361075D01*
X63608512Y-31302213D01*
X63630957Y-31292915D01*
X63750452Y-31256665D01*
X63774273Y-31251926D01*
X63904555Y-31239094D01*
X63913841Y-31238532D01*
X63915239Y-31238499D01*
X63955568Y-31238499D01*
X63958277Y-31237512D01*
X63971009Y-31237220D01*
X63971600Y-31237379D01*
X63973775Y-31237187D01*
X141658777Y-31194503D01*
X141670989Y-31195099D01*
G37*
%TD.AperFunction*%
%TD*%
M02*
