%TF.GenerationSoftware,KiCad,Pcbnew,9.0.7*%
%TF.CreationDate,2026-04-03T14:04:00-04:00*%
%TF.ProjectId,ESP32-Adapter,45535033-322d-4416-9461-707465722e6b,rev?*%
%TF.SameCoordinates,Original*%
%TF.FileFunction,Copper,L1,Top*%
%TF.FilePolarity,Positive*%
%FSLAX46Y46*%
G04 Gerber Fmt 4.6, Leading zero omitted, Abs format (unit mm)*
G04 Created by KiCad (PCBNEW 9.0.7) date 2026-04-03 14:04:00*
%MOMM*%
%LPD*%
G01*
G04 APERTURE LIST*
G04 Aperture macros list*
%AMRoundRect*
0 Rectangle with rounded corners*
0 $1 Rounding radius*
0 $2 $3 $4 $5 $6 $7 $8 $9 X,Y pos of 4 corners*
0 Add a 4 corners polygon primitive as box body*
4,1,4,$2,$3,$4,$5,$6,$7,$8,$9,$2,$3,0*
0 Add four circle primitives for the rounded corners*
1,1,$1+$1,$2,$3*
1,1,$1+$1,$4,$5*
1,1,$1+$1,$6,$7*
1,1,$1+$1,$8,$9*
0 Add four rect primitives between the rounded corners*
20,1,$1+$1,$2,$3,$4,$5,0*
20,1,$1+$1,$4,$5,$6,$7,0*
20,1,$1+$1,$6,$7,$8,$9,0*
20,1,$1+$1,$8,$9,$2,$3,0*%
G04 Aperture macros list end*
%TA.AperFunction,ComponentPad*%
%ADD10C,1.700000*%
%TD*%
%TA.AperFunction,SMDPad,CuDef*%
%ADD11RoundRect,0.375000X0.625000X0.375000X-0.625000X0.375000X-0.625000X-0.375000X0.625000X-0.375000X0*%
%TD*%
%TA.AperFunction,SMDPad,CuDef*%
%ADD12RoundRect,0.500000X0.500000X1.400000X-0.500000X1.400000X-0.500000X-1.400000X0.500000X-1.400000X0*%
%TD*%
%TA.AperFunction,ComponentPad*%
%ADD13RoundRect,0.250000X-0.725000X0.600000X-0.725000X-0.600000X0.725000X-0.600000X0.725000X0.600000X0*%
%TD*%
%TA.AperFunction,ComponentPad*%
%ADD14O,1.950000X1.700000*%
%TD*%
%TA.AperFunction,ComponentPad*%
%ADD15R,1.700000X1.700000*%
%TD*%
%TA.AperFunction,SMDPad,CuDef*%
%ADD16RoundRect,0.140000X-0.170000X0.140000X-0.170000X-0.140000X0.170000X-0.140000X0.170000X0.140000X0*%
%TD*%
%TA.AperFunction,SMDPad,CuDef*%
%ADD17RoundRect,0.135000X-0.185000X0.135000X-0.185000X-0.135000X0.185000X-0.135000X0.185000X0.135000X0*%
%TD*%
%TA.AperFunction,ComponentPad*%
%ADD18R,2.000000X4.000000*%
%TD*%
%TA.AperFunction,ComponentPad*%
%ADD19O,2.000000X3.300000*%
%TD*%
%TA.AperFunction,ComponentPad*%
%ADD20O,3.500000X2.000000*%
%TD*%
%TA.AperFunction,SMDPad,CuDef*%
%ADD21RoundRect,0.135000X0.135000X0.185000X-0.135000X0.185000X-0.135000X-0.185000X0.135000X-0.185000X0*%
%TD*%
%TA.AperFunction,SMDPad,CuDef*%
%ADD22RoundRect,0.135000X-0.135000X-0.185000X0.135000X-0.185000X0.135000X0.185000X-0.135000X0.185000X0*%
%TD*%
%TA.AperFunction,SMDPad,CuDef*%
%ADD23R,0.450800X1.111200*%
%TD*%
%TA.AperFunction,ComponentPad*%
%ADD24R,2.000000X1.200000*%
%TD*%
%TA.AperFunction,ComponentPad*%
%ADD25O,2.000000X1.200000*%
%TD*%
%TA.AperFunction,ViaPad*%
%ADD26C,0.600000*%
%TD*%
%TA.AperFunction,Conductor*%
%ADD27C,0.200000*%
%TD*%
%TA.AperFunction,Conductor*%
%ADD28C,0.750000*%
%TD*%
%TA.AperFunction,Conductor*%
%ADD29C,0.250000*%
%TD*%
%TA.AperFunction,Conductor*%
%ADD30C,0.203200*%
%TD*%
G04 APERTURE END LIST*
D10*
%TO.P,U4,1,VCC*%
%TO.N,+3.3V*%
X123610900Y-68600000D03*
%TO.P,U4,2,GND*%
%TO.N,GND*%
X123610900Y-71140000D03*
%TO.P,U4,3,SCL*%
%TO.N,/I2C SCL*%
X123610900Y-73680000D03*
%TO.P,U4,4,SDA*%
%TO.N,/I2C SDA*%
X123610900Y-76220000D03*
%TO.P,U4,5,VIN-*%
%TO.N,unconnected-(U4-VIN--Pad5)*%
X123610900Y-78760000D03*
%TO.P,U4,6,VIN+*%
%TO.N,unconnected-(U4-VIN+-Pad6)*%
X123610900Y-81300000D03*
%TD*%
D11*
%TO.P,U2,1,ADJ*%
%TO.N,Net-(U2-ADJ)*%
X132283400Y-44975000D03*
%TO.P,U2,2,VO*%
%TO.N,Net-(D1-A)*%
X132283400Y-42675000D03*
D12*
X125983400Y-42675000D03*
D11*
%TO.P,U2,3,VI*%
%TO.N,Net-(U2-VI)*%
X132283400Y-40375000D03*
%TD*%
D13*
%TO.P,J5,1,Pin_1*%
%TO.N,+3.3V*%
X70470900Y-72550000D03*
D14*
%TO.P,J5,2,Pin_2*%
%TO.N,/WS2812*%
X70470900Y-75050000D03*
%TO.P,J5,3,Pin_3*%
%TO.N,GND*%
X70470900Y-77550000D03*
%TD*%
D15*
%TO.P,U1,1,IT2*%
%TO.N,unconnected-(U1-IT2-Pad1)*%
X68370900Y-107660000D03*
D10*
%TO.P,U1,2,RST*%
%TO.N,unconnected-(U1-RST-Pad2)*%
X70910900Y-107660000D03*
%TO.P,U1,3,CS*%
%TO.N,unconnected-(U1-CS-Pad3)*%
X73450900Y-107660000D03*
%TO.P,U1,4,SCK*%
%TO.N,unconnected-(U1-SCK-Pad4)*%
X75990900Y-107660000D03*
%TO.P,U1,5,SDO*%
%TO.N,unconnected-(U1-SDO-Pad5)*%
X78530900Y-107660000D03*
%TO.P,U1,6,SDI*%
%TO.N,unconnected-(U1-SDI-Pad6)*%
X81070900Y-107660000D03*
%TO.P,U1,7,3V3*%
%TO.N,+3.3V*%
X83610900Y-107660000D03*
%TO.P,U1,8,GND*%
%TO.N,GND*%
X86150900Y-107660000D03*
D15*
%TO.P,U1,9,FSY*%
%TO.N,unconnected-(U1-FSY-Pad9)*%
X68370900Y-84800000D03*
D10*
%TO.P,U1,10,INT*%
%TO.N,unconnected-(U1-INT-Pad10)*%
X70910900Y-84800000D03*
%TO.P,U1,11*%
%TO.N,N/C*%
X73450900Y-84800000D03*
%TO.P,U1,12*%
X75990900Y-84800000D03*
%TO.P,U1,13,SCL*%
%TO.N,/I2C SCL*%
X78530900Y-84800000D03*
%TO.P,U1,14,SDA*%
%TO.N,/I2C SDA*%
X81070900Y-84800000D03*
%TO.P,U1,15*%
%TO.N,N/C*%
X83610900Y-84800000D03*
%TO.P,U1,16,GND*%
%TO.N,GND*%
X86150900Y-84800000D03*
%TD*%
D15*
%TO.P,U3,1,Vcc*%
%TO.N,+3.3V*%
X123760900Y-92750000D03*
D10*
%TO.P,U3,2,GND*%
%TO.N,GND*%
X123760900Y-95290000D03*
%TO.P,U3,3,RX*%
%TO.N,/CAN RX*%
X123760900Y-97830000D03*
%TO.P,U3,4,TX*%
%TO.N,/CAN TX*%
X123760900Y-100370000D03*
%TO.P,U3,5,SLNT*%
%TO.N,unconnected-(U3-SLNT-Pad5)*%
X123760900Y-102910000D03*
%TO.P,U3,6,CANH*%
%TO.N,unconnected-(U3-CANH-Pad6)*%
X123760900Y-105450000D03*
%TO.P,U3,7,CANL*%
%TO.N,unconnected-(U3-CANL-Pad7)*%
X123760900Y-107990000D03*
%TD*%
D16*
%TO.P,C2,1*%
%TO.N,Net-(D1-A)*%
X124150900Y-46460000D03*
%TO.P,C2,2*%
%TO.N,GND*%
X124150900Y-47420000D03*
%TD*%
%TO.P,C1,1*%
%TO.N,Net-(U2-VI)*%
X135520900Y-40400000D03*
%TO.P,C1,2*%
%TO.N,GND*%
X135520900Y-41360000D03*
%TD*%
D17*
%TO.P,R4,1*%
%TO.N,+3.3V*%
X103320900Y-77140000D03*
%TO.P,R4,2*%
%TO.N,/I2C SCL*%
X103320900Y-78160000D03*
%TD*%
D13*
%TO.P,J13,1,Pin_1*%
%TO.N,+3.3V*%
X70570900Y-55900000D03*
D14*
%TO.P,J13,2,Pin_2*%
%TO.N,/A2*%
X70570900Y-58400000D03*
%TO.P,J13,3,Pin_3*%
%TO.N,/A1*%
X70570900Y-60900000D03*
%TO.P,J13,4,Pin_4*%
%TO.N,/IDX1*%
X70570900Y-63400000D03*
%TO.P,J13,5,Pin_5*%
%TO.N,GND*%
X70570900Y-65900000D03*
%TD*%
D17*
%TO.P,R3,1*%
%TO.N,+3.3V*%
X109420900Y-76140000D03*
%TO.P,R3,2*%
%TO.N,/I2C SDA*%
X109420900Y-77160000D03*
%TD*%
D13*
%TO.P,J12,1,Pin_1*%
%TO.N,+3.3V*%
X70570900Y-39150000D03*
D14*
%TO.P,J12,2,Pin_2*%
%TO.N,/B2*%
X70570900Y-41650000D03*
%TO.P,J12,3,Pin_3*%
%TO.N,/B1*%
X70570900Y-44150000D03*
%TO.P,J12,4,Pin_4*%
%TO.N,/IDX2*%
X70570900Y-46650000D03*
%TO.P,J12,5,Pin_5*%
%TO.N,GND*%
X70570900Y-49150000D03*
%TD*%
D18*
%TO.P,J10,1*%
%TO.N,Net-(U2-VI)*%
X129390900Y-54330000D03*
D19*
%TO.P,J10,2*%
%TO.N,GND*%
X135390900Y-54330000D03*
D20*
%TO.P,J10,MP*%
%TO.N,N/C*%
X136390900Y-58830000D03*
X136390900Y-49830000D03*
%TD*%
D21*
%TO.P,R1,1*%
%TO.N,GND*%
X136865900Y-46400000D03*
%TO.P,R1,2*%
%TO.N,Net-(U2-ADJ)*%
X135845900Y-46400000D03*
%TD*%
D22*
%TO.P,R2,1*%
%TO.N,Net-(U2-ADJ)*%
X135810900Y-45200000D03*
%TO.P,R2,2*%
%TO.N,Net-(D1-A)*%
X136830900Y-45200000D03*
%TD*%
D23*
%TO.P,D1,1,K*%
%TO.N,+3.3V*%
X118020900Y-48950000D03*
%TO.P,D1,2,A*%
%TO.N,Net-(D1-A)*%
X118020900Y-46650000D03*
%TD*%
D24*
%TO.P,U5,1,3V3*%
%TO.N,+3.3V*%
X94790900Y-53750000D03*
D25*
%TO.P,U5,2,3V3*%
X94790900Y-56290000D03*
%TO.P,U5,3,CHIP_PU*%
%TO.N,unconnected-(U5-CHIP_PU-Pad3)*%
X94790900Y-58830000D03*
%TO.P,U5,4,GPIO4/ADC1_CH3*%
%TO.N,unconnected-(U5-GPIO4{slash}ADC1_CH3-Pad4)*%
X94790900Y-61370000D03*
%TO.P,U5,5,GPIO5/ADC1_CH4*%
%TO.N,unconnected-(U5-GPIO5{slash}ADC1_CH4-Pad5)*%
X94790900Y-63910000D03*
%TO.P,U5,6,GPIO6/ADC1_CH5*%
%TO.N,unconnected-(U5-GPIO6{slash}ADC1_CH5-Pad6)*%
X94790900Y-66450000D03*
%TO.P,U5,7,GPIO7/ADC1_CH6*%
%TO.N,/B2*%
X94790900Y-68990000D03*
%TO.P,U5,8,GPIO15/ADC2_CH4/32K_P*%
%TO.N,/B1*%
X94790900Y-71530000D03*
%TO.P,U5,9,GPIO16/ADC2_CH5/32K_N*%
%TO.N,/IDX2*%
X94790900Y-74070000D03*
%TO.P,U5,10,GPIO17/ADC2_CH6*%
%TO.N,/WS2812*%
X94790900Y-76610000D03*
%TO.P,U5,11,GPIO18/ADC2_CH7*%
%TO.N,unconnected-(U5-GPIO18{slash}ADC2_CH7-Pad11)*%
X94790900Y-79150000D03*
%TO.P,U5,12,GPIO8/ADC1_CH7*%
%TO.N,unconnected-(U5-GPIO8{slash}ADC1_CH7-Pad12)*%
X94790900Y-81690000D03*
%TO.P,U5,13,GPIO3/ADC1_CH2*%
%TO.N,unconnected-(U5-GPIO3{slash}ADC1_CH2-Pad13)*%
X94790900Y-84230000D03*
%TO.P,U5,14,GPIO46*%
%TO.N,unconnected-(U5-GPIO46-Pad14)*%
X94790900Y-86770000D03*
%TO.P,U5,15,GPIO9/ADC1_CH8*%
%TO.N,/I2C SCL*%
X94790900Y-89310000D03*
%TO.P,U5,16,GPIO10/ADC1_CH9*%
%TO.N,/I2C SDA*%
X94790900Y-91850000D03*
%TO.P,U5,17,GPIO11/ADC2_CH0*%
%TO.N,/A2*%
X94790900Y-94390000D03*
%TO.P,U5,18,GPIO12/ADC2_CH1*%
%TO.N,/A1*%
X94790900Y-96930000D03*
%TO.P,U5,19,GPIO13/ADC2_CH2*%
%TO.N,/IDX1*%
X94790900Y-99470000D03*
%TO.P,U5,20,GPIO14/ADC2_CH3*%
%TO.N,unconnected-(U5-GPIO14{slash}ADC2_CH3-Pad20)*%
X94787220Y-102007280D03*
%TO.P,U5,21,5V*%
%TO.N,unconnected-(U5-5V-Pad21)*%
X94787220Y-104547280D03*
%TO.P,U5,22,GND*%
%TO.N,GND*%
X94787220Y-107087280D03*
%TO.P,U5,23,GND*%
X117650900Y-107090000D03*
%TO.P,U5,24,GND*%
X117650900Y-104550000D03*
%TO.P,U5,25,GPIO19/USB_D-*%
%TO.N,unconnected-(U5-GPIO19{slash}USB_D--Pad25)*%
X117650900Y-102010000D03*
%TO.P,U5,26,GPIO20/USB_D+*%
%TO.N,unconnected-(U5-GPIO20{slash}USB_D+-Pad26)*%
X117650900Y-99470000D03*
%TO.P,U5,27,GPIO21*%
%TO.N,unconnected-(U5-GPIO21-Pad27)*%
X117650900Y-96930000D03*
%TO.P,U5,28,GPIO47*%
%TO.N,unconnected-(U5-GPIO47-Pad28)*%
X117650900Y-94390000D03*
%TO.P,U5,29,GPIO48*%
%TO.N,unconnected-(U5-GPIO48-Pad29)*%
X117650900Y-91850000D03*
%TO.P,U5,30,GPIO45*%
%TO.N,unconnected-(U5-GPIO45-Pad30)*%
X117650900Y-89310000D03*
%TO.P,U5,31,GPIO0*%
%TO.N,unconnected-(U5-GPIO0-Pad31)*%
X117650900Y-86770000D03*
%TO.P,U5,32,GPIO35*%
%TO.N,unconnected-(U5-GPIO35-Pad32)*%
X117650900Y-84230000D03*
%TO.P,U5,33,GPIO36*%
%TO.N,unconnected-(U5-GPIO36-Pad33)*%
X117650900Y-81690000D03*
%TO.P,U5,34,GPIO37*%
%TO.N,unconnected-(U5-GPIO37-Pad34)*%
X117650900Y-79150000D03*
%TO.P,U5,35,GPIO38*%
%TO.N,unconnected-(U5-GPIO38-Pad35)*%
X117650900Y-76610000D03*
%TO.P,U5,36,GPIO39/MTCK*%
%TO.N,unconnected-(U5-GPIO39{slash}MTCK-Pad36)*%
X117650900Y-74070000D03*
%TO.P,U5,37,GPIO40/MTDO*%
%TO.N,unconnected-(U5-GPIO40{slash}MTDO-Pad37)*%
X117650900Y-71530000D03*
%TO.P,U5,38,GPIO41/MTDI*%
%TO.N,unconnected-(U5-GPIO41{slash}MTDI-Pad38)*%
X117650900Y-68990000D03*
%TO.P,U5,39,GPIO42/MTMS*%
%TO.N,unconnected-(U5-GPIO42{slash}MTMS-Pad39)*%
X117650900Y-66450000D03*
%TO.P,U5,40,GPIO2/ADC1_CH1*%
%TO.N,/CAN RX*%
X117650900Y-63910000D03*
%TO.P,U5,41,GPIO1/ADC1_CH0*%
%TO.N,/CAN TX*%
X117650900Y-61370000D03*
%TO.P,U5,42,GPIO44/U0RXD*%
%TO.N,unconnected-(U5-GPIO44{slash}U0RXD-Pad42)*%
X117650900Y-58830000D03*
%TO.P,U5,43,GPIO43/U0TXD*%
%TO.N,unconnected-(U5-GPIO43{slash}U0TXD-Pad43)*%
X117650900Y-56290000D03*
%TO.P,U5,44,GND*%
%TO.N,GND*%
X117650900Y-53750000D03*
%TD*%
D26*
%TO.N,GND*%
X124945900Y-48375000D03*
X138470900Y-44825000D03*
X136420900Y-42200000D03*
%TO.N,+3.3V*%
X108020900Y-77100000D03*
X107020900Y-76050000D03*
%TO.N,/I2C SDA*%
X91195900Y-88175000D03*
X88670900Y-88200000D03*
%TO.N,/I2C SCL*%
X88670900Y-84200000D03*
X91120900Y-86650000D03*
%TO.N,/CAN TX*%
X113020900Y-78750000D03*
X113020900Y-74300000D03*
%TO.N,/CAN RX*%
X113870900Y-74250000D03*
X113870900Y-78800000D03*
%TO.N,/WS2812*%
X88220900Y-79600000D03*
X90870900Y-76950000D03*
%TD*%
D27*
%TO.N,GND*%
X136865900Y-46400000D02*
X138440900Y-44825000D01*
X124150900Y-47420000D02*
X124150900Y-47580000D01*
X138470900Y-44825000D02*
X138495900Y-44850000D01*
X135520900Y-41360000D02*
X136360900Y-42200000D01*
X136865900Y-46280000D02*
X136865900Y-46400000D01*
X138440900Y-44825000D02*
X138470900Y-44825000D01*
X124150900Y-47580000D02*
X124945900Y-48375000D01*
X136360900Y-42200000D02*
X136420900Y-42200000D01*
D28*
%TO.N,Net-(U2-VI)*%
X137045900Y-40400000D02*
X139970900Y-43325000D01*
X135520900Y-40400000D02*
X137045900Y-40400000D01*
X132308400Y-40400000D02*
X132283400Y-40375000D01*
X139970900Y-43325000D02*
X139970900Y-45925000D01*
X139970900Y-45925000D02*
X138295900Y-47600000D01*
X129390900Y-50405000D02*
X129390900Y-54330000D01*
X132195900Y-47600000D02*
X129390900Y-50405000D01*
X128610900Y-53550000D02*
X129390900Y-54330000D01*
X138295900Y-47600000D02*
X132195900Y-47600000D01*
X135520900Y-40400000D02*
X132308400Y-40400000D01*
D27*
%TO.N,Net-(D1-A)*%
X125983400Y-44627500D02*
X124150900Y-46460000D01*
X135020900Y-42675000D02*
X132283400Y-42675000D01*
X132283400Y-42675000D02*
X125983400Y-42675000D01*
X136830900Y-44485000D02*
X135020900Y-42675000D01*
X125983400Y-42675000D02*
X125983400Y-44627500D01*
X136830900Y-45200000D02*
X136830900Y-44485000D01*
D28*
%TO.N,+3.3V*%
X123610900Y-54540000D02*
X123610900Y-68600000D01*
X94790900Y-56290000D02*
X94790900Y-53750000D01*
X83610900Y-107660000D02*
X65670900Y-89720000D01*
X68220900Y-75990000D02*
X68220900Y-74800000D01*
X82712264Y-48950000D02*
X99590900Y-48950000D01*
X70570900Y-39150000D02*
X70620900Y-39200000D01*
X72962264Y-39200000D02*
X82712264Y-48950000D01*
X65670900Y-89720000D02*
X65670900Y-78540000D01*
X118020900Y-48950000D02*
X99590900Y-48950000D01*
X118020900Y-48950000D02*
X123610900Y-54540000D01*
D27*
X107020900Y-76050000D02*
X105930900Y-77140000D01*
X103320900Y-64820000D02*
X94790900Y-56290000D01*
D28*
X68220900Y-75990000D02*
X68220900Y-58250000D01*
D27*
X109420900Y-76140000D02*
X108980900Y-76140000D01*
D28*
X123610900Y-68600000D02*
X125970900Y-70960000D01*
D27*
X105930900Y-77140000D02*
X103320900Y-77140000D01*
D28*
X68220900Y-74800000D02*
X70470900Y-72550000D01*
X70620900Y-39200000D02*
X72962264Y-39200000D01*
X65670900Y-78540000D02*
X68220900Y-75990000D01*
D27*
X103320900Y-77140000D02*
X103320900Y-64820000D01*
D28*
X68220900Y-41500000D02*
X70570900Y-39150000D01*
D27*
X108980900Y-76140000D02*
X108020900Y-77100000D01*
D28*
X125970900Y-70960000D02*
X125970900Y-90540000D01*
X125970900Y-90540000D02*
X123760900Y-92750000D01*
X68220900Y-58400000D02*
X68220900Y-41500000D01*
X68220900Y-58250000D02*
X70570900Y-55900000D01*
X94790900Y-53750000D02*
X99590900Y-48950000D01*
D29*
%TO.N,/B2*%
X73370900Y-44450000D02*
X70570900Y-41650000D01*
X90986520Y-68990000D02*
X85020900Y-63024380D01*
X94790900Y-68990000D02*
X90986520Y-68990000D01*
X85020900Y-52250000D02*
X77220900Y-44450000D01*
X77220900Y-44450000D02*
X73370900Y-44450000D01*
X85020900Y-63024380D02*
X85020900Y-52250000D01*
D27*
%TO.N,/A2*%
X71220900Y-58400000D02*
X76120900Y-63300000D01*
D29*
X93760900Y-94390000D02*
X94790900Y-94390000D01*
X76120900Y-63300000D02*
X90420900Y-77600000D01*
D27*
X70570900Y-58400000D02*
X71220900Y-58400000D01*
D29*
X90420900Y-77600000D02*
X90420900Y-91050000D01*
X90420900Y-91050000D02*
X93760900Y-94390000D01*
%TO.N,/A1*%
X89970900Y-92110000D02*
X94790900Y-96930000D01*
X76483090Y-65800000D02*
X89970900Y-79287810D01*
X89970900Y-79287810D02*
X89970900Y-92110000D01*
D27*
X71583090Y-60900000D02*
X76483090Y-65800000D01*
X70570900Y-60900000D02*
X71583090Y-60900000D01*
D29*
%TO.N,/B1*%
X92888710Y-71530000D02*
X84569900Y-63211190D01*
X72171900Y-45751000D02*
X70570900Y-44150000D01*
X94790900Y-71530000D02*
X92888710Y-71530000D01*
X84569900Y-63211190D02*
X84569900Y-52436810D01*
X84569900Y-52436810D02*
X77884090Y-45751000D01*
X77884090Y-45751000D02*
X72171900Y-45751000D01*
D30*
%TO.N,/I2C SDA*%
X123610900Y-76220000D02*
X121980900Y-77850000D01*
X121980900Y-77850000D02*
X108790900Y-77850000D01*
D27*
X109420900Y-77220000D02*
X108790900Y-77850000D01*
D29*
X84470900Y-88200000D02*
X81070900Y-84800000D01*
D30*
X108790900Y-77850000D02*
X94790900Y-91850000D01*
X123610900Y-76040000D02*
X123610900Y-76220000D01*
D27*
X109420900Y-77160000D02*
X109420900Y-77220000D01*
D29*
X88670900Y-88200000D02*
X84470900Y-88200000D01*
X94790900Y-91770000D02*
X94790900Y-91850000D01*
X91195900Y-88175000D02*
X94790900Y-91770000D01*
%TO.N,/I2C SCL*%
X121990900Y-75300000D02*
X108800900Y-75300000D01*
X123610900Y-73680000D02*
X121990900Y-75300000D01*
X103320900Y-80780000D02*
X94790900Y-89310000D01*
X91120900Y-86650000D02*
X93780900Y-89310000D01*
D27*
X87470900Y-83000000D02*
X79220900Y-83000000D01*
D29*
X108800900Y-75300000D02*
X103320900Y-80780000D01*
D27*
X79220900Y-83000000D02*
X78530900Y-83690000D01*
D29*
X93780900Y-89310000D02*
X94790900Y-89310000D01*
D27*
X88670900Y-84200000D02*
X87470900Y-83000000D01*
X103320900Y-78160000D02*
X103320900Y-80780000D01*
X78530900Y-83690000D02*
X78530900Y-84800000D01*
%TO.N,Net-(U2-ADJ)*%
X135845900Y-45235000D02*
X135810900Y-45200000D01*
X135810900Y-45200000D02*
X132508400Y-45200000D01*
X132508400Y-45200000D02*
X132283400Y-44975000D01*
X135845900Y-46400000D02*
X135845900Y-45235000D01*
D29*
%TO.N,/CAN TX*%
X113020900Y-74300000D02*
X113020900Y-66000000D01*
X116620900Y-98200000D02*
X113020900Y-94600000D01*
X113020900Y-94600000D02*
X113020900Y-78750000D01*
X113020900Y-66000000D02*
X117650900Y-61370000D01*
X123760900Y-100370000D02*
X121590900Y-98200000D01*
X121590900Y-98200000D02*
X116620900Y-98200000D01*
%TO.N,/CAN RX*%
X113870900Y-78800000D02*
X113870900Y-93100000D01*
X113870900Y-74250000D02*
X113870900Y-67690000D01*
X113870900Y-67690000D02*
X117650900Y-63910000D01*
X116420900Y-95650000D02*
X121580900Y-95650000D01*
X113870900Y-93100000D02*
X116420900Y-95650000D01*
X121580900Y-95650000D02*
X123760900Y-97830000D01*
%TO.N,/WS2812*%
X83670900Y-75050000D02*
X70470900Y-75050000D01*
X91210900Y-76610000D02*
X94790900Y-76610000D01*
X88220900Y-79600000D02*
X83670900Y-75050000D01*
X90870900Y-76950000D02*
X91210900Y-76610000D01*
%TO.N,/IDX2*%
X78145280Y-46650000D02*
X70570900Y-46650000D01*
X84118900Y-63398000D02*
X84118900Y-52623620D01*
X94790900Y-74070000D02*
X84118900Y-63398000D01*
X84118900Y-52623620D02*
X78145280Y-46650000D01*
D27*
%TO.N,/IDX1*%
X73445280Y-63400000D02*
X78345280Y-68300000D01*
D29*
X89519900Y-79474620D02*
X89519900Y-94199000D01*
X78345280Y-68300000D02*
X89519900Y-79474620D01*
X89519900Y-94199000D02*
X94790900Y-99470000D01*
D27*
X70570900Y-63400000D02*
X73445280Y-63400000D01*
%TO.N,unconnected-(U5-CHIP_PU-Pad3)*%
X94630900Y-58600000D02*
X94710900Y-58680000D01*
%TO.N,unconnected-(U5-GPIO4{slash}ADC1_CH3-Pad4)*%
X94530900Y-61400000D02*
X94710900Y-61220000D01*
%TD*%
%TA.AperFunction,Conductor*%
%TO.N,Net-(D1-A)*%
G36*
X129076319Y-31519750D02*
G01*
X129122135Y-31572501D01*
X129133400Y-31624143D01*
X129133400Y-42674754D01*
X129133399Y-42675250D01*
X129121394Y-45676496D01*
X129101441Y-45743456D01*
X129048455Y-45789000D01*
X128997395Y-45800000D01*
X121820899Y-45800000D01*
X119405129Y-47772058D01*
X119340748Y-47799203D01*
X119326714Y-47800000D01*
X116970900Y-47800000D01*
X115689012Y-48018193D01*
X115368540Y-48072742D01*
X115347733Y-48074500D01*
X83159149Y-48074500D01*
X83092110Y-48054815D01*
X83046355Y-48002011D01*
X83039391Y-47982657D01*
X82453307Y-45800000D01*
X81638987Y-42767358D01*
X81640613Y-42697509D01*
X81669070Y-42649562D01*
X85870900Y-38250000D01*
X85870900Y-31673856D01*
X85890585Y-31606817D01*
X85943389Y-31561062D01*
X85994753Y-31549856D01*
X129009258Y-31500143D01*
X129076319Y-31519750D01*
G37*
%TD.AperFunction*%
%TD*%
M02*
