M48
; DRILL file {KiCad 9.0.7} date 2026-04-03T01:04:08-0400
; FORMAT={-:-/ absolute / metric / decimal}
; #@! TF.CreationDate,2026-04-03T01:04:08-04:00
; #@! TF.GenerationSoftware,Kicad,Pcbnew,9.0.7
; #@! TF.FileFunction,Plated,1,2,PTH
FMAT,2
METRIC
; #@! TA.AperFunction,Plated,PTH,ViaDrill
T1C0.300
; #@! TA.AperFunction,Plated,PTH,ComponentDrill
T2C0.800
; #@! TA.AperFunction,Plated,PTH,ComponentDrill
T3C0.950
; #@! TA.AperFunction,Plated,PTH,ComponentDrill
T4C1.000
%
G90
G05
T1
X88.221Y-79.6
X88.671Y-86.3
X88.671Y-87.1
X90.071Y-77.75
X91.196Y-88.175
X91.221Y-86.3
X113.021Y-74.3
X113.021Y-78.75
X113.871Y-74.25
X113.871Y-78.8
X124.946Y-48.375
X136.421Y-42.2
X138.471Y-44.825
T2
X94.787Y-102.007
X94.787Y-104.547
X94.787Y-107.087
X94.791Y-53.75
X94.791Y-56.29
X94.791Y-58.83
X94.791Y-61.37
X94.791Y-63.91
X94.791Y-66.45
X94.791Y-68.99
X94.791Y-71.53
X94.791Y-74.07
X94.791Y-76.61
X94.791Y-79.15
X94.791Y-81.69
X94.791Y-84.23
X94.791Y-86.77
X94.791Y-89.31
X94.791Y-91.85
X94.791Y-94.39
X94.791Y-96.93
X94.791Y-99.47
X117.651Y-53.75
X117.651Y-56.29
X117.651Y-58.83
X117.651Y-61.37
X117.651Y-63.91
X117.651Y-66.45
X117.651Y-68.99
X117.651Y-71.53
X117.651Y-74.07
X117.651Y-76.61
X117.651Y-79.15
X117.651Y-81.69
X117.651Y-84.23
X117.651Y-86.77
X117.651Y-89.31
X117.651Y-91.85
X117.651Y-94.39
X117.651Y-96.93
X117.651Y-99.47
X117.651Y-102.01
X117.651Y-104.55
X117.651Y-107.09
T3
X70.621Y-42.8
X70.621Y-45.3
X70.621Y-47.8
X70.621Y-50.3
X70.621Y-52.8
X70.621Y-60.8
X70.621Y-63.3
X70.621Y-65.8
X70.621Y-68.3
X70.621Y-70.8
X70.621Y-78.39
X70.621Y-80.89
X70.621Y-83.39
X123.611Y-68.6
X123.611Y-71.14
X123.611Y-73.68
X123.611Y-76.22
X123.611Y-78.76
X123.611Y-81.3
T4
X68.391Y-91.03
X68.391Y-113.89
X70.931Y-91.03
X70.931Y-113.89
X73.471Y-91.03
X73.471Y-113.89
X76.011Y-91.03
X76.011Y-113.89
X78.551Y-91.03
X78.551Y-113.89
X81.091Y-91.03
X81.091Y-113.89
X83.631Y-91.03
X83.631Y-113.89
X86.171Y-91.03
X86.171Y-113.89
X123.761Y-92.75
X123.761Y-95.29
X123.761Y-97.83
X123.761Y-100.37
X123.761Y-102.91
X123.761Y-105.45
X123.761Y-107.99
T4
G00X129.391Y-55.33
M15
G01X129.391Y-53.33
M16
G05
G00X135.391Y-54.98
M15
G01X135.391Y-53.68
M16
G05
G00X135.641Y-49.83
M15
G01X137.141Y-49.83
M16
G05
G00X135.641Y-58.83
M15
G01X137.141Y-58.83
M16
G05
M30
